<svg width="36" height="41" viewBox="0 0 36 41" fill="none" xmlns="http://www.w3.org/2000/svg">
<path d="M3.44971 40.4899C3.11218 40.3755 2.7641 40.2818 2.44766 40.1257C0.876023 39.3557 0.0216423 38.107 0.0216423 36.3692C0.0110944 28.0758 0.053286 19.7927 0.000546454 11.5097C-0.0100015 9.58461 1.41397 7.37858 4.19861 7.38898C7.45792 7.39939 10.7067 7.37858 13.966 7.39939C14.3879 7.39939 14.5778 7.25371 14.7571 6.8895C16.5397 3.29949 19.4192 1.13508 23.4485 0.593978C28.2689 -0.0615889 32.583 2.48784 34.6926 6.28597C37.53 11.3848 35.6314 18.0654 30.4629 20.979C29.2499 21.6658 27.963 22.134 26.5707 22.3318C26.2121 22.3838 26.0855 22.5087 26.0855 22.8729C26.0855 26.5773 26.075 30.2818 26.075 33.9863C26.075 34.3817 26.0328 34.6106 25.537 34.6939C24.7459 34.8292 24.2396 35.5576 24.2607 36.39C24.2713 37.1809 24.7987 37.8781 25.5792 38.0237C25.98 38.0966 26.0961 38.2735 26.075 38.6481C26.0539 39.262 26.075 39.8656 26.075 40.4795C18.5332 40.4899 10.9915 40.4899 3.44971 40.4899ZM7.35244 20.9894C7.35244 24.569 7.35244 28.1382 7.34189 31.7178C7.34189 32.0612 7.41572 32.1965 7.79545 32.1965C12.9112 32.1861 18.0269 32.1861 23.1427 32.1965C23.5013 32.1965 23.6173 32.0924 23.6173 31.7282C23.6068 28.773 23.6068 25.8281 23.6173 22.8729C23.6173 22.5191 23.5013 22.3838 23.1427 22.3213C19.5353 21.7074 16.8245 19.8239 15.0524 16.6606C13.9343 14.6627 13.523 12.4982 13.7867 10.2194C13.8288 9.89679 13.7234 9.82395 13.4069 9.82395C11.5505 9.83435 9.69407 9.84476 7.82709 9.82395C7.41572 9.82395 7.32079 9.93841 7.32079 10.3338C7.35244 13.8926 7.35244 17.441 7.35244 20.9894ZM24.8409 17.9093C25.1151 17.9093 25.3999 17.9301 25.6741 17.9093C26.0117 17.8885 26.1172 18.0341 26.0961 18.3463C26.075 18.7521 26.1066 19.158 26.0855 19.5534C26.075 19.8552 26.1488 19.9696 26.4969 19.8968C28.1424 19.5638 29.5874 18.8458 30.8004 17.722C32.1506 16.4733 32.9838 14.9436 33.3741 13.1642C33.448 12.8416 33.3425 12.7064 33.0049 12.7168C32.5725 12.7376 32.14 12.7168 31.697 12.7168C31.4755 12.7168 31.3489 12.6335 31.3489 12.3942C31.3489 11.8011 31.3489 11.1975 31.3489 10.6044C31.3489 10.3755 31.4439 10.2714 31.6865 10.2714C32.1084 10.2818 32.5303 10.2714 32.9522 10.2714C33.4163 10.2714 33.4585 10.2194 33.3636 9.77192C32.9522 7.82603 31.9712 6.22353 30.4524 4.93321C29.3237 3.98628 28.0263 3.38274 26.5813 3.09138C26.1594 3.00813 26.1066 3.04975 26.0961 3.4868C26.0961 3.89263 26.0855 4.29845 26.0961 4.69387C26.1066 4.98524 25.98 5.0893 25.6952 5.07889C25.1468 5.06848 24.5877 5.06848 24.0392 5.07889C23.7333 5.0893 23.6068 4.97483 23.6173 4.67306C23.6279 4.25683 23.6068 3.8406 23.6279 3.42436C23.6384 3.10178 23.5013 3.01854 23.1954 3.07056C19.8306 3.65329 16.8983 6.58773 16.3393 9.92801C16.2865 10.209 16.392 10.2714 16.6451 10.2714C17.0882 10.261 17.5417 10.2818 17.9847 10.2714C18.2484 10.261 18.375 10.3546 18.3645 10.6356C18.3539 11.2079 18.3539 11.7802 18.3645 12.3526C18.375 12.6231 18.259 12.7272 17.9953 12.7272C17.5628 12.7168 17.1198 12.7376 16.6873 12.7272C16.4025 12.7168 16.2971 12.7896 16.3498 13.1122C16.951 16.4629 19.8201 19.2933 23.2165 19.9072C23.5646 19.9696 23.6384 19.8656 23.6279 19.5638C23.6173 19.1372 23.6279 18.7105 23.6279 18.2735C23.6279 18.0341 23.7228 17.9197 23.9865 17.9301C24.2607 17.9197 24.5561 17.9093 24.8409 17.9093ZM12.9217 34.6314C10.116 34.6314 7.31025 34.6314 4.49395 34.6314C4.21971 34.6314 3.94546 34.621 3.67122 34.7043C2.90122 34.954 2.35273 35.7761 2.46876 36.5149C2.61643 37.493 3.32314 38.107 4.35683 38.107C10.1687 38.1174 15.9806 38.107 21.7925 38.1174C22.0773 38.1174 22.1301 38.055 22.0246 37.7844C21.6976 36.9207 21.6765 36.0362 21.9402 35.1413C22.0879 34.6314 22.0879 34.6314 21.5288 34.6314C18.6703 34.6314 15.8013 34.6314 12.9217 34.6314ZM4.87368 21.0206C4.87368 17.5659 4.87368 14.1007 4.87368 10.646C4.87368 9.75111 4.96861 9.84476 4.02985 9.85516C3.31259 9.85516 2.743 10.2506 2.54259 10.8749C2.44766 11.1663 2.43711 11.4577 2.43711 11.7594C2.43711 18.5232 2.43711 25.287 2.43711 32.0508C2.43711 32.1236 2.44766 32.2069 2.43711 32.2797C2.41602 32.4982 2.48985 32.5607 2.71136 32.4774C3.21766 32.2901 3.74505 32.1861 4.29354 32.1965C4.85258 32.2069 4.86313 32.1965 4.86313 31.6346C4.87368 28.0862 4.87368 24.5482 4.87368 21.0206Z" fill="#55575A"/>
<path d="M15.4744 25.3702C14.1876 25.3702 12.8902 25.3598 11.6033 25.3806C11.2342 25.391 11.1076 25.2557 11.1287 24.9019C11.1498 24.4233 11.1287 23.9446 11.1287 23.4555C11.1287 22.956 11.1603 22.9248 11.6666 22.9248C13.7235 22.9248 15.7803 22.9248 17.8372 22.9248C18.3224 22.9248 18.8181 22.9352 19.3033 22.9248C19.6409 22.9144 19.8096 23.0081 19.7885 23.3827C19.7569 23.8926 19.7674 24.4025 19.7885 24.9019C19.8096 25.2557 19.683 25.3806 19.3139 25.3702C18.0376 25.3598 16.7507 25.3702 15.4744 25.3702Z" fill="#55575A"/>
<path d="M15.4321 29.8968C14.1558 29.8968 12.8795 29.8864 11.6032 29.9072C11.2341 29.9176 11.118 29.7823 11.1286 29.4389C11.1497 28.929 11.1391 28.4295 11.1286 27.9197C11.1286 27.6387 11.213 27.5034 11.5399 27.5034C14.1558 27.5138 16.7823 27.5138 19.3981 27.5034C19.6935 27.5034 19.7884 27.6075 19.7779 27.8884C19.7673 28.4295 19.7568 28.981 19.7779 29.5221C19.7884 29.8135 19.6618 29.8968 19.377 29.8968C18.0691 29.8968 16.7506 29.8968 15.4321 29.8968Z" fill="#55575A"/>
<path d="M26.0963 10.157C26.0963 10.9374 26.0857 11.7179 26.1068 12.4983C26.1068 12.7688 26.0224 12.9561 25.8009 13.133C24.9677 13.799 24.1555 14.465 23.3327 15.1414C23.1112 15.3287 22.9741 15.3183 22.7948 15.0893C22.4467 14.6419 22.0986 14.2153 21.7084 13.799C21.4763 13.5493 21.5501 13.4244 21.7822 13.2475C22.2779 12.8625 22.7526 12.4463 23.2483 12.0717C23.512 11.8739 23.6175 11.645 23.6175 11.312C23.5964 10.1466 23.6175 8.97072 23.607 7.80527C23.607 7.44106 23.7125 7.28497 24.1027 7.30579C24.6407 7.337 25.1786 7.31619 25.7271 7.30579C26.0013 7.30579 26.1068 7.40984 26.0963 7.68039C26.0963 8.50246 26.0963 9.33492 26.0963 10.157Z" fill="#55575A"/>
</svg>
