<svg width="300" height="316" viewBox="0 0 300 316" fill="none" xmlns="http://www.w3.org/2000/svg">
<g clip-path="url(#clip0_302_1670)">
<path d="M169.862 224.29H23.1121C20.3022 224.29 18.0542 222.043 18.0542 219.234V14.6062C18.0542 11.7973 20.3022 9.55017 23.1121 9.55017H169.862C172.672 9.55017 174.92 11.7973 174.92 14.6062V219.234C174.92 222.043 172.672 224.29 169.862 224.29Z" fill="#F5F5F5"/>
<path d="M289.004 22.3307L289.285 23.8054L286.335 39.816C284.227 41.3609 281.558 41.9929 278.959 41.5014L262.239 38.4116C262.239 38.4116 259.57 37.8498 260.343 34.3387C260.343 34.3387 260.483 32.5129 262.029 32.3725C262.029 32.3725 258.797 31.0383 259.149 28.5805C259.5 26.0525 261.326 26.1227 261.326 26.1227C261.326 26.1227 258.306 25.3503 258.587 22.5414C258.868 19.7325 260.554 19.7325 260.554 19.7325C260.554 19.7325 257.041 18.8898 257.884 15.7298C258.797 12.64 261.818 13.4125 261.818 13.4125L273.69 15.5894L284.087 17.4854C286.616 18.0472 288.513 19.9432 289.004 22.3307Z" fill="#EBEBEB"/>
<path d="M286.054 18.2578C286.054 18.2578 282.401 14.9573 281.136 11.376C280.223 8.77777 280.293 5.82843 280.293 5.82843C280.293 5.68799 280.504 4.42399 280.715 3.37066C280.855 2.52799 280.293 1.75555 279.45 1.54488C277.694 1.12355 274.603 2.17688 273.69 5.4071C272.285 10.1822 273.479 13.4827 273.549 14.8871C273.62 16.3618 273.62 16.3618 273.62 16.3618L286.054 18.2578Z" fill="#EBEBEB"/>
<path d="M283.76 42.1916L295.434 44.3491L299.814 20.6651L288.14 18.5076L283.76 42.1916Z" fill="#EBEBEB"/>
<path d="M283.736 42.2035C283.736 42.2035 284.649 36.8666 285.914 30.3359C287.108 23.8053 288.162 18.4684 288.162 18.4684C288.162 18.4684 287.248 23.8053 285.984 30.3359C284.79 36.9368 283.736 42.2035 283.736 42.2035Z" fill="#E0E0E0"/>
<path d="M295.397 44.3804C295.397 44.3804 296.31 39.0435 297.575 32.5128C298.769 25.9822 299.823 20.6453 299.823 20.6453C299.823 20.6453 298.909 25.9822 297.645 32.5128C296.451 39.0435 295.467 44.3804 295.397 44.3804Z" fill="#E0E0E0"/>
<path d="M291.252 24.7182C291.042 25.9119 291.814 27.1057 293.009 27.3164C294.203 27.5271 295.397 26.7546 295.608 25.5608C295.819 24.3671 295.046 23.1733 293.852 22.9626C292.657 22.6817 291.463 23.4542 291.252 24.7182Z" fill="white"/>
<path d="M271.021 15.168C271.021 15.168 272.285 15.3786 273.901 15.6595C275.446 15.9404 276.711 16.2213 276.711 16.2213C276.711 16.2213 275.446 16.0106 273.831 15.7297C272.285 15.4489 270.95 15.168 271.021 15.168Z" fill="#E0E0E0"/>
<path d="M261.045 26.2631C261.045 26.2631 261.888 26.3333 262.872 26.5439C263.855 26.7546 264.698 26.8951 264.698 26.8951C264.698 26.8951 263.855 26.8248 262.872 26.6142C261.888 26.4035 261.045 26.2631 261.045 26.2631Z" fill="#E0E0E0"/>
<path d="M260.343 19.6622C260.343 19.6622 261.537 19.8027 262.942 20.0836C264.347 20.3645 265.541 20.5751 265.541 20.5751C265.541 20.5751 264.347 20.4347 262.942 20.1538C261.467 19.9431 260.343 19.7325 260.343 19.6622Z" fill="#E0E0E0"/>
<path d="M261.256 32.3022C261.256 32.3022 262.45 32.4427 263.855 32.7236C265.26 33.0045 266.454 33.2151 266.454 33.2151C266.454 33.2151 265.26 33.0747 263.855 32.7938C262.45 32.5831 261.256 32.3725 261.256 32.3022Z" fill="#E0E0E0"/>
<path d="M290.761 19.6622C290.761 19.6622 292.376 19.9431 294.414 20.2942C296.451 20.6453 298.067 20.9965 298.067 20.9965C298.067 20.9965 296.451 20.7156 294.414 20.3645C292.376 20.0133 290.761 19.7325 290.761 19.6622Z" fill="white"/>
<path d="M259.71 23.8053C259.71 23.8053 259.71 23.735 259.64 23.6648C259.64 23.5946 259.57 23.4542 259.57 23.3137C259.57 23.1733 259.57 22.9626 259.57 22.7519C259.57 22.5413 259.64 22.2604 259.71 22.0497C259.781 21.839 259.921 21.5582 259.991 21.4177C260.132 21.207 260.272 21.0666 260.343 20.9964C260.483 20.8559 260.553 20.7857 260.624 20.7155C260.694 20.6453 260.764 20.6453 260.764 20.6453C260.764 20.6453 260.624 20.7857 260.413 20.9964C260.272 21.1368 260.202 21.2773 260.062 21.4177C259.921 21.6284 259.851 21.839 259.781 22.0497C259.71 22.2604 259.64 22.5413 259.64 22.7519C259.64 22.9626 259.64 23.1733 259.64 23.3137C259.71 23.5946 259.71 23.8053 259.71 23.8053Z" fill="white"/>
<path d="M259.078 17.4853C259.078 17.4853 258.938 17.4151 258.867 17.2044C258.727 16.9938 258.657 16.6427 258.657 16.2916C258.657 15.9404 258.797 15.5893 258.867 15.3787C259.008 15.168 259.078 15.0978 259.078 15.0978C259.078 15.0978 259.008 15.2382 258.867 15.4489C258.797 15.6596 258.657 15.9404 258.657 16.2916C258.657 16.6427 258.727 16.9236 258.867 17.1342C259.008 17.3449 259.148 17.4151 259.078 17.4853Z" fill="white"/>
<path d="M260.624 30.6169C260.624 30.6169 260.483 30.5466 260.273 30.336C260.132 30.1253 259.921 29.7742 259.921 29.3529C259.921 28.9315 260.132 28.5804 260.273 28.3698C260.483 28.1591 260.624 28.0889 260.624 28.0889C260.624 28.0889 260.483 28.2293 260.343 28.44C260.202 28.6506 259.992 29.0018 259.992 29.3529C259.992 29.7742 260.132 30.1253 260.273 30.336C260.483 30.4764 260.624 30.5466 260.624 30.6169Z" fill="white"/>
<path d="M261.959 36.6559C261.959 36.6559 261.818 36.5857 261.748 36.3048C261.607 36.0942 261.537 35.743 261.537 35.3919C261.537 35.0408 261.607 34.6897 261.748 34.479C261.888 34.2684 261.959 34.1279 261.959 34.1279C261.959 34.1279 261.888 34.2684 261.818 34.479C261.748 34.6897 261.607 35.0408 261.607 35.3919C261.607 35.743 261.678 36.0942 261.818 36.3048C261.888 36.5155 261.959 36.6559 261.959 36.6559Z" fill="white"/>
<path d="M273.761 10.8845C273.761 10.8845 273.761 10.8143 273.69 10.6036C273.69 10.5334 273.62 10.3929 273.62 10.3227C273.62 10.1823 273.55 10.0418 273.55 9.90138C273.479 9.62049 273.479 9.19916 273.479 8.77782C273.479 8.35649 273.479 7.86493 273.55 7.4436C273.62 6.95205 273.76 6.53071 273.831 6.10938C273.971 5.68805 274.112 5.33693 274.252 5.05605C274.322 4.9156 274.393 4.77516 274.463 4.70493C274.533 4.56449 274.603 4.49427 274.603 4.42405C274.674 4.2836 274.744 4.21338 274.744 4.21338C274.744 4.21338 274.674 4.2836 274.603 4.49427C274.533 4.56449 274.533 4.63471 274.463 4.77516C274.393 4.9156 274.322 4.98582 274.252 5.19649C274.112 5.47738 273.971 5.82849 273.901 6.24982C273.76 6.67116 273.69 7.09249 273.62 7.58405C273.55 8.0756 273.55 8.49693 273.55 8.91827C273.55 9.3396 273.55 9.69071 273.62 10.0418C273.62 10.1823 273.69 10.3227 273.69 10.4632C273.69 10.6036 273.761 10.6738 273.761 10.8143V10.8845Z" fill="white"/>
<path d="M270.88 168.463L271.653 169.376L275.938 181.524C275.095 183.42 273.479 184.895 271.582 185.597L258.867 190.092C258.867 190.092 256.83 190.723 255.987 188.055C255.987 188.055 255.355 186.721 256.409 186.089C256.409 186.089 253.669 186.44 252.896 184.614C252.123 182.788 253.458 182.086 253.458 182.086C253.458 182.086 251.07 182.788 250.156 180.682C249.243 178.645 250.367 178.013 250.367 178.013C250.367 178.013 247.627 178.856 246.995 176.328C246.363 173.87 248.751 173.168 248.751 173.168L257.743 169.938L265.681 167.129C267.578 166.427 269.615 166.988 270.88 168.463Z" fill="#EBEBEB"/>
<path d="M267.297 166.848C267.297 166.848 263.504 166.005 261.186 164.039C259.5 162.635 258.376 160.598 258.376 160.598C258.305 160.458 257.954 159.545 257.673 158.772C257.463 158.14 256.76 157.789 256.128 158C254.793 158.421 253.037 160.317 253.669 162.916C254.582 166.778 256.69 168.533 257.322 169.516C257.954 170.5 257.954 170.5 257.954 170.5L267.297 166.848Z" fill="#EBEBEB"/>
<path d="M275.163 184.152L284.035 181.008L277.651 163.006L268.779 166.149L275.163 184.152Z" fill="#EBEBEB"/>
<path d="M275.165 184.123C275.165 184.123 273.69 180.12 271.934 175.134C270.177 170.148 268.772 166.146 268.772 166.146C268.772 166.146 270.248 170.148 272.004 175.134C273.76 180.12 275.165 184.123 275.165 184.123Z" fill="#E0E0E0"/>
<path d="M284.016 181.033C284.016 181.033 282.541 177.03 280.785 172.044C279.029 167.059 277.624 163.056 277.624 163.056C277.624 163.056 279.099 167.059 280.855 172.044C282.611 176.96 284.086 180.963 284.016 181.033Z" fill="#E0E0E0"/>
<path d="M273.409 169.165C273.76 170.078 274.744 170.57 275.657 170.219C276.57 169.868 277.062 168.884 276.711 167.972C276.359 167.059 275.376 166.567 274.463 166.918C273.549 167.269 273.058 168.252 273.409 169.165Z" fill="white"/>
<path d="M255.706 170.64C255.706 170.64 256.69 170.289 257.884 169.867C259.078 169.446 260.061 169.095 260.061 169.165C260.061 169.235 259.078 169.516 257.884 169.938C256.69 170.289 255.706 170.64 255.706 170.64Z" fill="#E0E0E0"/>
<path d="M253.317 182.156C253.317 182.156 253.95 181.876 254.652 181.665C255.425 181.384 256.057 181.173 256.057 181.244C256.057 181.244 255.425 181.524 254.722 181.735C253.95 181.946 253.317 182.156 253.317 182.156Z" fill="#E0E0E0"/>
<path d="M250.227 177.943C250.227 177.943 251.07 177.592 252.194 177.241C253.247 176.89 254.16 176.539 254.16 176.609C254.16 176.609 253.318 176.96 252.194 177.311C251.07 177.662 250.227 177.943 250.227 177.943Z" fill="#E0E0E0"/>
<path d="M255.847 186.229C255.847 186.229 256.69 185.878 257.814 185.527C258.867 185.176 259.781 184.825 259.781 184.895C259.781 184.895 258.938 185.246 257.814 185.597C256.76 185.948 255.847 186.299 255.847 186.229Z" fill="#E0E0E0"/>
<path d="M271.091 165.935C271.091 165.935 272.285 165.443 273.831 164.952C275.376 164.39 276.57 163.969 276.64 164.039C276.64 164.039 275.446 164.531 273.901 165.022C272.285 165.514 271.091 165.935 271.091 165.935Z" fill="white"/>
<path d="M251.421 181.033C251.421 181.033 251.421 181.033 251.35 180.963C251.28 180.892 251.21 180.822 251.14 180.752C251.07 180.682 250.999 180.541 250.929 180.331C250.859 180.19 250.789 179.979 250.789 179.769C250.718 179.558 250.718 179.347 250.718 179.207C250.718 179.067 250.789 178.856 250.789 178.715C250.789 178.575 250.859 178.505 250.859 178.435C250.859 178.364 250.929 178.364 250.929 178.364C250.929 178.364 250.859 178.505 250.789 178.786C250.789 178.926 250.718 179.067 250.718 179.207C250.718 179.347 250.718 179.558 250.789 179.769C250.859 179.979 250.859 180.12 250.929 180.26C250.999 180.401 251.07 180.541 251.14 180.682C251.28 180.892 251.421 181.033 251.421 181.033Z" fill="white"/>
<path d="M248.47 176.89C248.47 176.89 248.33 176.89 248.189 176.749C248.049 176.679 247.838 176.468 247.698 176.188C247.557 175.907 247.487 175.696 247.487 175.485C247.487 175.275 247.557 175.204 247.557 175.204C247.557 175.204 247.557 175.345 247.557 175.485C247.557 175.696 247.627 175.907 247.768 176.188C247.908 176.398 248.049 176.609 248.26 176.679C248.4 176.89 248.47 176.89 248.47 176.89Z" fill="white"/>
<path d="M254.723 185.316C254.723 185.316 254.582 185.316 254.372 185.246C254.161 185.176 253.88 184.965 253.739 184.684C253.599 184.403 253.529 184.052 253.599 183.842C253.669 183.631 253.739 183.491 253.739 183.491C253.739 183.491 253.669 183.631 253.669 183.842C253.669 184.052 253.669 184.333 253.81 184.614C253.95 184.895 254.231 185.036 254.372 185.176C254.582 185.316 254.723 185.316 254.723 185.316Z" fill="white"/>
<path d="M258.024 188.968C258.024 188.968 257.884 188.968 257.744 188.827C257.603 188.757 257.392 188.547 257.252 188.266C257.111 187.985 257.041 187.774 257.041 187.563C257.041 187.353 257.041 187.283 257.041 187.283C257.041 187.283 257.041 187.423 257.041 187.563C257.041 187.774 257.111 187.985 257.252 188.266C257.392 188.476 257.603 188.687 257.744 188.827C257.954 188.898 258.024 188.968 258.024 188.968Z" fill="white"/>
<path d="M255.917 166.637C255.917 166.637 255.846 166.567 255.776 166.497C255.706 166.427 255.636 166.356 255.565 166.286C255.495 166.216 255.425 166.146 255.355 166.005C255.214 165.795 255.003 165.584 254.863 165.303C254.722 165.022 254.512 164.671 254.371 164.32C254.231 163.969 254.16 163.618 254.02 163.267C253.95 162.916 253.879 162.635 253.879 162.424C253.879 162.284 253.879 162.213 253.879 162.073C253.879 162.003 253.879 161.862 253.879 161.792C253.879 161.652 253.879 161.581 253.879 161.581C253.879 161.581 253.879 161.652 253.879 161.792C253.879 161.862 253.879 161.932 253.879 162.073C253.879 162.143 253.879 162.284 253.879 162.424C253.879 162.705 253.95 162.986 254.02 163.267C254.09 163.618 254.231 163.969 254.371 164.32C254.512 164.671 254.652 165.022 254.863 165.303C255.003 165.584 255.214 165.865 255.355 166.005C255.425 166.076 255.495 166.216 255.565 166.286C255.636 166.356 255.706 166.427 255.706 166.497C255.846 166.567 255.917 166.637 255.917 166.637Z" fill="white"/>
<path d="M161.221 307.644H127.01C121.882 307.644 117.667 303.43 117.667 298.304V264.106C117.667 258.98 121.882 254.766 127.01 254.766H161.221C166.35 254.766 170.564 258.98 170.564 264.106V298.304C170.564 303.5 166.42 307.644 161.221 307.644Z" fill="#E0E0E0"/>
<path d="M151.738 307.644H117.527C112.399 307.644 108.184 303.43 108.184 298.304V264.106C108.184 258.98 112.399 254.766 117.527 254.766H151.738C156.866 254.766 161.081 258.98 161.081 264.106V298.304C161.081 303.5 156.866 307.644 151.738 307.644Z" fill="#EBEBEB"/>
<path d="M116.333 282.012L121.671 276.676L131.998 285.804L149.139 268.6L154.056 273.937L131.225 296.057L116.333 282.012Z" fill="white"/>
<path d="M39.0583 307.152H16.7191C11.5909 307.152 7.37598 302.939 7.37598 297.812V275.482C7.37598 270.356 11.5909 266.142 16.7191 266.142H39.0583C44.1864 266.142 48.4014 270.356 48.4014 275.482V297.812C48.4014 303.009 44.2567 307.152 39.0583 307.152Z" fill="#E0E0E0"/>
<path d="M31.6823 307.152H9.34311C4.21494 307.152 0 302.939 0 297.812V275.482C0 270.356 4.21494 266.142 9.34311 266.142H31.6823C36.8105 266.142 41.0254 270.356 41.0254 275.482V297.812C41.0254 303.009 36.8807 307.152 31.6823 307.152Z" fill="#EBEBEB"/>
<path d="M6.32227 287.279L10.467 283.136L18.4753 290.228L31.7524 276.816L35.6161 280.959L17.8431 298.163L6.32227 287.279Z" fill="white"/>
<path d="M290.128 305.958C290.128 306.028 226.904 306.169 148.998 306.169C71.0215 306.169 7.86768 306.099 7.86768 305.958C7.86768 305.888 71.0215 305.748 148.998 305.748C226.974 305.748 290.128 305.888 290.128 305.958Z" fill="#263238"/>
<path d="M261.888 285.875C261.888 285.875 258.938 265.721 259.219 254.064C259.429 242.337 259.219 229.205 259.219 229.205H260.553C260.553 229.205 259.64 252.449 260.624 266.493C261.607 280.468 264.206 285.945 264.206 285.945H261.888" fill="#263238"/>
<path d="M270.599 206.524C270.318 205.821 269.967 205.119 269.405 204.698C268.562 204.136 267.438 204.347 266.454 204.698C262.38 206.172 258.797 213.756 257.111 217.759L262.521 236.017C272.285 226.888 273.971 215.02 270.599 206.524Z" fill="#455A64"/>
<path d="M269.054 205.4C269.054 205.4 269.054 205.47 268.983 205.611C268.913 205.751 268.843 206.032 268.702 206.243C268.492 206.804 268.14 207.647 267.719 208.7C266.946 210.737 265.892 213.686 264.979 216.916C264.066 220.147 263.434 223.166 263.082 225.343C262.872 226.467 262.731 227.309 262.661 227.941C262.591 228.222 262.591 228.433 262.52 228.644C262.52 228.784 262.45 228.854 262.45 228.854C262.45 228.854 262.45 228.784 262.45 228.573C262.45 228.363 262.52 228.152 262.52 227.871C262.591 227.239 262.731 226.396 262.872 225.273C263.223 223.096 263.785 220.076 264.698 216.776C265.611 213.476 266.665 210.596 267.508 208.56C267.93 207.507 268.281 206.734 268.562 206.172C268.702 205.892 268.773 205.681 268.843 205.54C268.983 205.47 269.054 205.4 269.054 205.4Z" fill="#263238"/>
<path d="M260.132 240.371C255.074 237.562 252.053 232.295 251.772 226.537C251.561 222.464 252.826 218.531 254.231 214.739C254.371 214.388 254.512 214.037 254.793 213.897C255.214 213.686 255.776 213.897 256.198 214.107C259.851 216.214 262.099 220.217 263.293 224.29C264.066 227.028 264.487 229.837 264.136 232.646C263.785 235.385 262.169 238.404 260.132 240.371Z" fill="#455A64"/>
<path d="M260.132 240.371C260.132 240.371 260.132 240.3 260.132 240.16C260.132 239.949 260.132 239.739 260.132 239.458C260.132 238.826 260.132 237.983 260.062 236.86C259.992 234.683 259.711 231.733 259.149 228.433C258.587 225.203 257.884 222.253 257.392 220.147C257.111 219.093 256.971 218.251 256.76 217.619C256.69 217.338 256.62 217.127 256.62 216.916C256.62 216.776 256.549 216.706 256.549 216.706C256.549 216.706 256.62 216.776 256.62 216.916C256.69 217.127 256.76 217.338 256.83 217.619C256.971 218.18 257.252 219.023 257.533 220.076C258.095 222.183 258.797 225.132 259.359 228.363C259.921 231.663 260.202 234.612 260.273 236.789C260.273 237.843 260.273 238.756 260.273 239.388C260.273 239.668 260.273 239.879 260.273 240.09C260.132 240.3 260.132 240.371 260.132 240.371Z" fill="#263238"/>
<g opacity="0.3">
<path d="M260.132 240.371C255.074 237.562 252.053 232.295 251.772 226.537C251.561 222.464 252.826 218.531 254.231 214.739C254.371 214.388 254.512 214.037 254.793 213.897C255.214 213.686 255.776 213.897 256.198 214.107C259.851 216.214 262.099 220.217 263.293 224.29C264.066 227.028 264.487 229.837 264.136 232.646C263.785 235.385 262.169 238.404 260.132 240.371Z" fill="black"/>
</g>
<path d="M265.822 271.128C270.809 272.252 274.954 275.763 279.731 277.448C282.892 278.572 286.545 278.993 289.074 281.24C288.442 279.695 287.037 278.642 285.632 277.799C281.698 275.341 277.413 273.305 272.987 271.76C270.739 270.987 268.28 270.355 265.962 270.987" fill="#455A64"/>
<path d="M258.586 275.622C252.334 275.552 245.731 270.215 239.549 269.864C246.082 267.757 255.355 269.443 258.586 275.622Z" fill="#455A64"/>
<path d="M261.045 260.595C264.206 259.471 267.719 259.401 271.02 259.892C274.322 260.384 277.553 261.508 280.785 262.561C280.434 260.384 278.677 258.769 277.062 257.294C275.797 256.241 274.603 255.117 273.128 254.275C271.723 253.432 270.107 252.87 268.421 252.94C266.454 253.011 264.557 254.064 263.223 255.539C261.958 257.084 261.256 258.628 261.045 260.595Z" fill="#455A64"/>
<path d="M248.189 253.713C244.256 250.342 238.284 250.693 233.086 250.764C241.024 254.556 249.594 259.752 256.479 265.299C256.76 261.718 253.177 257.926 248.189 253.713Z" fill="#455A64"/>
<g opacity="0.3">
<path d="M248.189 253.713C244.256 250.342 238.284 250.693 233.086 250.764C241.024 254.556 249.594 259.752 256.479 265.299C256.76 261.718 253.177 257.926 248.189 253.713Z" fill="black"/>
</g>
<path d="M262.801 249.078C264.768 247.744 266.806 246.48 268.843 245.567C270.88 244.654 272.847 243.109 274.814 242.056C277.413 240.652 279.661 238.685 282.05 236.93C284.438 235.174 287.037 233.629 289.988 233.138C287.599 232.646 285.141 232.927 282.822 233.559C280.504 234.191 278.256 235.174 276.079 236.228C272.988 237.632 269.897 239.036 267.368 241.284C264.839 243.531 262.52 245.708 262.801 249.078Z" fill="#455A64"/>
<path d="M279.661 275.622C279.661 275.622 279.591 275.622 279.45 275.552C279.31 275.482 279.099 275.412 278.888 275.271C278.397 274.99 277.764 274.639 276.921 274.218C276.5 274.007 276.008 273.796 275.516 273.516C275.025 273.235 274.463 273.024 273.901 272.743C272.777 272.252 271.442 271.76 270.037 271.409C268.632 271.058 267.227 270.988 266.033 271.339C265.4 271.479 264.838 271.62 264.347 271.83C263.855 272.041 263.363 272.252 262.942 272.532C262.169 273.024 261.607 273.586 261.186 273.937C260.834 274.358 260.624 274.569 260.624 274.569C260.624 274.569 260.624 274.499 260.764 274.358C260.834 274.218 260.975 274.077 261.115 273.867C261.467 273.445 262.029 272.884 262.801 272.392C263.223 272.111 263.644 271.9 264.206 271.62C264.698 271.409 265.33 271.268 265.962 271.058C267.227 270.707 268.632 270.777 270.107 271.128C271.512 271.479 272.847 271.971 273.971 272.532C274.533 272.813 275.095 273.024 275.587 273.305C276.078 273.586 276.57 273.796 276.992 274.007C277.835 274.428 278.467 274.85 278.959 275.131C279.169 275.271 279.31 275.341 279.45 275.482C279.591 275.552 279.661 275.552 279.661 275.622Z" fill="#263238"/>
<path d="M253.95 272.462C253.95 272.462 254.09 272.462 254.371 272.603C254.652 272.673 255.003 272.813 255.425 273.024C256.268 273.445 257.392 274.147 258.446 275.131C259.499 276.114 260.202 277.237 260.694 278.01C260.904 278.431 261.115 278.782 261.185 278.993C261.256 279.203 261.326 279.344 261.326 279.414C261.256 279.414 261.045 278.923 260.553 278.08C260.061 277.307 259.289 276.254 258.305 275.271C257.251 274.288 256.198 273.586 255.425 273.164C254.441 272.743 253.95 272.532 253.95 272.462Z" fill="#263238"/>
<path d="M240.111 253.362C240.111 253.362 240.181 253.362 240.392 253.432C240.603 253.502 240.813 253.572 241.165 253.713C241.516 253.853 241.867 253.994 242.359 254.134C242.851 254.275 243.342 254.555 243.904 254.836C246.152 255.89 249.173 257.575 252.053 260.033C253.458 261.297 254.793 262.561 255.847 263.755C256.9 265.019 257.814 266.142 258.516 267.195C259.219 268.179 259.781 269.021 260.132 269.653C260.343 269.934 260.483 270.145 260.553 270.355C260.624 270.496 260.694 270.566 260.694 270.566C260.694 270.566 260.624 270.496 260.553 270.355C260.413 270.215 260.272 270.004 260.062 269.723C259.64 269.162 259.078 268.319 258.376 267.336C257.673 266.353 256.76 265.159 255.636 263.965C254.582 262.771 253.247 261.507 251.842 260.243C248.962 257.786 246.012 256.1 243.764 255.047C243.202 254.766 242.71 254.555 242.289 254.345C241.867 254.134 241.446 253.994 241.094 253.853C240.813 253.713 240.532 253.643 240.392 253.572C240.181 253.432 240.111 253.362 240.111 253.362Z" fill="#263238"/>
<path d="M270.459 257.083C270.459 257.083 270.248 257.083 269.967 257.013C269.826 257.013 269.616 256.943 269.405 256.873C269.194 256.803 268.913 256.803 268.632 256.803C267.508 256.732 265.892 256.803 264.347 257.645C263.574 258.067 262.942 258.558 262.38 259.12C261.818 259.611 261.396 260.173 261.115 260.665C260.483 261.648 260.272 262.35 260.272 262.28C260.272 262.28 260.272 262.069 260.413 261.788C260.553 261.507 260.694 261.016 261.045 260.524C261.326 260.033 261.748 259.471 262.31 258.909C262.872 258.347 263.504 257.786 264.277 257.435C265.892 256.592 267.578 256.522 268.702 256.662C268.983 256.732 269.264 256.732 269.475 256.803C269.686 256.873 269.897 256.873 270.037 256.943C270.248 257.013 270.459 257.083 270.459 257.083Z" fill="#263238"/>
<path d="M276.71 237.562C276.71 237.562 276.64 237.632 276.5 237.702C276.289 237.772 276.078 237.913 275.797 238.053C275.165 238.404 274.322 238.896 273.268 239.458C272.214 240.09 270.95 240.862 269.615 241.845C268.28 242.758 266.875 243.882 265.541 245.216C264.909 245.918 264.276 246.62 263.855 247.323C263.433 248.095 263.082 248.868 262.661 249.57C261.958 251.044 261.326 252.379 260.904 253.502C260.483 254.626 260.202 255.609 260.061 256.311C259.921 257.013 259.851 257.364 259.851 257.364C259.851 257.364 259.851 257.294 259.851 257.084C259.851 256.873 259.921 256.662 259.991 256.311C260.132 255.609 260.342 254.626 260.764 253.502C261.185 252.308 261.747 250.974 262.45 249.5C262.801 248.797 263.223 248.025 263.574 247.182C263.995 246.41 264.628 245.637 265.26 245.005C266.594 243.671 267.999 242.548 269.334 241.635C270.669 240.722 271.933 239.949 272.987 239.317C274.041 238.685 274.954 238.264 275.586 237.913C275.867 237.772 276.148 237.632 276.289 237.562C276.64 237.632 276.71 237.562 276.71 237.562Z" fill="#263238"/>
<path d="M259.149 256.522C259.149 256.522 259.078 256.311 259.008 255.96C258.938 255.609 258.868 255.117 258.727 254.485C258.516 253.292 258.095 251.606 257.533 249.78C256.971 247.955 256.268 246.41 255.777 245.286C255.566 244.724 255.355 244.303 255.144 243.952C255.004 243.601 254.934 243.46 254.934 243.46C254.934 243.46 255.074 243.601 255.215 243.952C255.355 244.233 255.636 244.724 255.917 245.286C256.479 246.41 257.182 247.955 257.744 249.78C258.306 251.606 258.657 253.292 258.868 254.485C258.938 255.117 259.008 255.609 259.078 255.96C259.149 256.311 259.219 256.522 259.149 256.522Z" fill="#263238"/>
<path d="M258.727 242.267C258.586 239.879 257.813 237.632 256.689 235.525C253.669 229.767 247.979 225.554 241.586 224.29C246.222 231.242 250.929 238.194 255.565 245.146L257.392 248.868C258.586 246.831 258.867 244.654 258.727 242.267Z" fill="#455A64"/>
<path d="M278.818 283.347H246.292V289.105H278.818V283.347Z" fill="#D35400"/>
<path d="M248.681 287.981L251.491 305.818H273.058L276.359 287.981H248.681Z" fill="#D35400"/>
<path d="M278.748 289.105C278.748 289.175 271.442 289.245 262.38 289.245C253.318 289.245 246.012 289.175 246.012 289.105C246.012 289.035 253.318 288.964 262.38 288.964C271.442 289.035 278.748 289.035 278.748 289.105Z" fill="#263238"/>
<path d="M76.7818 305.958H47.9095C42.7813 305.958 38.5664 301.745 38.5664 296.619V267.757C38.5664 262.631 42.7813 258.418 47.9095 258.418H76.7818C81.91 258.418 86.1249 262.631 86.1249 267.757V296.619C86.1249 301.745 81.91 305.958 76.7818 305.958Z" fill="#14A351"/>
<g opacity="0.3">
<path d="M76.7818 305.958H47.9095C42.7813 305.958 38.5664 301.745 38.5664 296.619V267.757C38.5664 262.631 42.7813 258.418 47.9095 258.418H76.7818C81.91 258.418 86.1249 262.631 86.1249 267.757V296.619C86.1249 301.745 81.91 305.958 76.7818 305.958Z" fill="#15A753"/>
</g>
<path d="M68.2116 305.958H39.4095C34.2813 305.958 30.0664 301.745 30.0664 296.619V267.757C30.0664 262.631 34.2813 258.418 39.4095 258.418H68.2818C73.41 258.418 77.6249 262.631 77.6249 267.757V296.619C77.5547 301.745 73.41 305.958 68.2116 305.958Z" fill="#2ECC71"/>
<path d="M37.3721 282.855L42.149 278.08L51.4219 286.296L66.8766 270.847L71.3023 275.622L50.7194 295.565L37.3721 282.855Z" fill="white"/>
<path d="M101.72 305.958H82.8937C79.7325 305.958 77.1333 303.36 77.1333 300.2V281.38C77.1333 278.22 79.7325 275.622 82.8937 275.622H101.72C104.882 275.622 107.481 278.22 107.481 281.38V300.2C107.551 303.36 104.952 305.958 101.72 305.958Z" fill="#263238"/>
<path d="M96.3113 305.958H77.4845C74.3233 305.958 71.7241 303.36 71.7241 300.2V281.38C71.7241 278.22 74.3233 275.622 77.4845 275.622H96.3113C99.4725 275.622 102.072 278.22 102.072 281.38V300.2C102.072 303.36 99.4725 305.958 96.3113 305.958Z" fill="#455A64"/>
<path d="M76.3604 291.212L79.3811 288.122L85.3522 293.388L95.1871 283.487L98.0673 286.577L84.8605 299.287L76.3604 291.212Z" fill="white"/>
<path d="M176.887 214.88H30.137C27.3271 214.88 25.0791 212.633 25.0791 209.824V5.26669C25.0791 2.4578 27.3271 0.210693 30.137 0.210693H176.887C179.697 0.210693 181.945 2.4578 181.945 5.26669V209.894C181.945 212.633 179.697 214.88 176.887 214.88Z" fill="white"/>
<path d="M176.887 214.88C176.887 214.81 177.589 214.95 178.713 214.529C179.275 214.318 179.978 213.897 180.61 213.195C181.242 212.492 181.734 211.509 181.875 210.316C181.945 205.4 181.875 198.237 181.875 188.898C181.875 170.289 181.875 143.394 181.804 110.179C181.804 93.536 181.804 75.3484 181.804 55.8267C181.804 46.0658 181.804 35.9538 181.804 25.5609C181.804 20.3644 181.804 15.0978 181.804 9.76089C181.804 8.42667 181.804 7.09244 181.804 5.75822C181.875 4.424 181.523 3.08978 180.68 2.10667C179.837 1.12356 178.573 0.421333 177.238 0.351111C175.903 0.351111 174.498 0.351111 173.164 0.351111C129.188 0.351111 80.9268 0.351111 30.2071 0.351111C28.6616 0.351111 27.1864 1.12356 26.2731 2.31733C25.7814 2.94933 25.5004 3.65156 25.3599 4.424C25.2194 5.19644 25.2896 5.96889 25.2896 6.74133C25.2896 9.90133 25.2896 13.0613 25.2896 16.1511C25.2896 22.4009 25.2896 28.6507 25.2896 34.8302C25.2896 47.1893 25.2896 59.3378 25.2896 71.2756C25.2896 95.1511 25.2896 118.254 25.2896 140.234C25.2896 162.213 25.2896 183.069 25.2896 202.591C25.2896 205.049 25.2896 207.436 25.2896 209.824C25.2896 211.018 25.7111 212.141 26.4839 212.984C27.2566 213.897 28.3103 214.459 29.4343 214.599C29.9963 214.669 30.5583 214.669 31.1906 214.669C31.7525 214.669 32.3848 214.669 32.9468 214.669C34.141 214.669 35.265 214.669 36.4592 214.669C38.7774 214.669 41.0957 214.669 43.3436 214.669C52.4057 214.669 61.1166 214.669 69.406 214.669C102.634 214.669 129.539 214.74 148.155 214.74C157.428 214.74 164.664 214.74 169.581 214.74C172.04 214.74 173.866 214.74 175.131 214.74C176.255 214.88 176.887 214.88 176.887 214.88C176.887 214.88 176.255 214.88 174.99 214.88C173.726 214.88 171.899 214.88 169.44 214.88C164.523 214.88 157.358 214.88 148.015 214.88C129.399 214.88 102.563 214.88 69.2655 214.95C60.9761 214.95 52.2652 214.95 43.2031 214.95C40.9552 214.95 38.6369 214.95 36.3187 214.95C35.1947 214.95 34.0005 214.95 32.8063 214.95C32.2443 214.95 31.612 214.95 31.0501 214.95C30.4881 214.95 29.8558 214.95 29.2938 214.88C28.0996 214.669 26.9756 214.108 26.1326 213.124C25.3599 212.212 24.8681 210.948 24.8681 209.754C24.8681 207.366 24.8681 204.908 24.8681 202.521C24.8681 182.999 24.8681 162.143 24.8681 140.164C24.8681 118.184 24.8681 95.1511 24.8681 71.2053C24.8681 59.2676 24.8681 47.1191 24.8681 34.76C24.8681 28.5804 24.8681 22.4009 24.8681 16.0809C24.8681 12.9209 24.8681 9.83111 24.8681 6.67111C24.8681 5.89867 24.7979 5.12622 24.9384 4.28356C25.0789 3.58133 25.4301 2.80889 25.9219 2.10667C26.9054 0.772444 28.5211 0 30.1368 0C80.8566 0 129.188 0 173.093 0C174.498 0 175.833 0 177.238 0C178.643 0.0702222 179.978 0.772444 180.891 1.82578C181.804 2.87911 182.226 4.35378 182.085 5.688C182.085 7.02222 182.085 8.35644 182.085 9.69067C182.085 15.0276 182.085 20.2942 182.085 25.4907C182.085 35.8836 182.085 45.9956 182.085 55.7564C182.085 75.2782 182.085 93.4658 182.085 110.108C182.085 143.324 182.015 170.219 182.015 188.828C182.015 198.097 182.015 205.33 181.945 210.245C181.804 211.439 181.313 212.492 180.68 213.195C180.048 213.897 179.346 214.318 178.784 214.529C178.222 214.74 177.73 214.81 177.379 214.88C177.098 214.88 176.887 214.88 176.887 214.88Z" fill="#263238"/>
<path d="M153.284 73.3119H83.7372C81.2785 73.3119 79.3115 71.3457 79.3115 68.8879V68.4666C79.3115 66.0088 81.2785 64.0426 83.7372 64.0426H153.284C155.742 64.0426 157.709 66.0088 157.709 68.4666V68.8879C157.709 71.3457 155.742 73.3119 153.284 73.3119Z" fill="#E0E0E0"/>
<path d="M67.2285 79.9831H52.9679C51.001 79.9831 49.3853 78.368 49.3853 76.4018V62.1466C49.3853 60.1804 51.001 58.5653 52.9679 58.5653H67.2285C69.1955 58.5653 70.8112 60.1804 70.8112 62.1466V76.4018C70.8814 78.368 69.2657 79.9831 67.2285 79.9831Z" fill="#2ECC71"/>
<path d="M52.687 69.5902L54.8647 67.4134L59.0094 71.1351L65.9641 64.1129L68.0013 66.2898L58.7284 75.2782L52.687 69.5902Z" fill="white"/>
<path d="M153.284 106.668H83.7372C81.2785 106.668 79.3115 104.701 79.3115 102.244V101.822C79.3115 99.3644 81.2785 97.3982 83.7372 97.3982H153.284C155.742 97.3982 157.709 99.3644 157.709 101.822V102.244C157.709 104.701 155.742 106.668 153.284 106.668Z" fill="#E0E0E0"/>
<path d="M67.2285 113.339H52.9679C51.001 113.339 49.3853 111.724 49.3853 109.757V95.5022C49.3853 93.536 51.001 91.9209 52.9679 91.9209H67.2285C69.1955 91.9209 70.8112 93.536 70.8112 95.5022V109.757C70.8814 111.724 69.2657 113.339 67.2285 113.339Z" fill="#2ECC71"/>
<path d="M52.687 102.876L54.8647 100.769L59.0094 104.421L65.9641 97.4685L68.0013 99.6454L58.7284 108.634L52.687 102.876Z" fill="white"/>
<path d="M153.284 140.023H83.7372C81.2785 140.023 79.3115 138.057 79.3115 135.599V135.178C79.3115 132.72 81.2785 130.754 83.7372 130.754H153.284C155.742 130.754 157.709 132.72 157.709 135.178V135.599C157.709 137.987 155.742 140.023 153.284 140.023Z" fill="#E0E0E0"/>
<path d="M67.2285 146.694H52.9679C51.001 146.694 49.3853 145.079 49.3853 143.113V128.858C49.3853 126.892 51.001 125.276 52.9679 125.276H67.2285C69.1955 125.276 70.8112 126.892 70.8112 128.858V143.113C70.8814 145.079 69.2657 146.694 67.2285 146.694Z" fill="#2ECC71"/>
<path d="M52.687 136.231L54.8647 134.054L59.0094 137.776L65.9641 130.824L68.0013 132.931L58.7284 141.989L52.687 136.231Z" fill="white"/>
<path d="M153.284 173.308H83.7372C81.2785 173.308 79.3115 171.342 79.3115 168.884V168.463C79.3115 166.005 81.2785 164.039 83.7372 164.039H153.284C155.742 164.039 157.709 166.005 157.709 168.463V168.884C157.709 171.342 155.742 173.308 153.284 173.308Z" fill="#E0E0E0"/>
<path d="M67.2285 180.05H52.9679C51.001 180.05 49.3853 178.435 49.3853 176.468V162.213C49.3853 160.247 51.001 158.632 52.9679 158.632H67.2285C69.1955 158.632 70.8112 160.247 70.8112 162.213V176.468C70.8814 178.435 69.2657 180.05 67.2285 180.05Z" fill="#2ECC71"/>
<path d="M52.687 169.587L54.8647 167.41L59.0094 171.131L65.9641 164.109L68.0013 166.286L58.7284 175.275L52.687 169.587Z" fill="white"/>
<path d="M209.553 281.17L208.921 297.04C208.921 297.04 224.867 303.009 225.008 305.888L194.239 305.818L194.168 281.1L209.553 281.17Z" fill="#263238"/>
<path d="M199.437 295.636C198.875 295.776 198.454 296.478 198.594 297.04C198.735 297.672 199.437 298.093 199.999 297.883C200.631 297.742 201.123 296.97 200.912 296.338C200.702 295.776 199.859 295.284 199.367 295.565" fill="#E0E0E0"/>
<path d="M194.309 305.818L194.379 303.29L223.884 304.273C223.884 304.273 225.219 304.905 225.078 305.818H194.309Z" fill="#455A64"/>
<path d="M209.483 296.829C209.483 296.97 208.71 297.04 208.007 297.532C207.235 298.023 206.883 298.655 206.743 298.585C206.602 298.585 206.813 297.672 207.726 297.11C208.64 296.548 209.483 296.689 209.483 296.829Z" fill="white"/>
<path d="M212.714 298.164C212.714 298.304 212.082 298.585 211.59 299.217C211.028 299.849 210.958 300.551 210.747 300.551C210.607 300.551 210.537 299.709 211.169 298.936C211.801 298.093 212.714 298.023 212.714 298.164Z" fill="white"/>
<path d="M214.541 302.096C214.4 302.096 214.189 301.394 214.611 300.551C214.962 299.709 215.735 299.428 215.735 299.498C215.805 299.638 215.384 300.06 215.032 300.762C214.751 301.394 214.681 302.026 214.541 302.096Z" fill="white"/>
<path d="M209.202 293.248C209.131 293.389 208.429 293.178 207.586 293.248C206.743 293.318 206.04 293.599 205.97 293.459C205.9 293.318 206.532 292.827 207.516 292.757C208.569 292.616 209.272 293.108 209.202 293.248Z" fill="white"/>
<path d="M171.9 278.993L170.214 298.093L173.234 313.612C173.445 314.736 172.672 315.789 171.548 315.93C170.916 316 170.284 315.789 169.863 315.298C167.123 312.278 157.077 301.253 157.288 299.849C157.499 298.234 157.709 279.555 157.709 279.555L171.9 278.993Z" fill="#263238"/>
<path d="M171.548 315.93L157.358 298.585L157.288 299.428C157.217 300.13 157.428 300.832 157.85 301.394C158.974 302.869 162.205 307.012 169.792 315.368C170.284 315.789 170.916 316.07 171.548 315.93Z" fill="#455A64"/>
<g opacity="0.6">
<path d="M161.714 292.686C162.205 293.037 162.275 293.81 161.924 294.231C161.573 294.723 160.8 294.793 160.379 294.442C159.887 294.091 159.747 293.178 160.168 292.756C160.59 292.335 161.433 292.265 161.784 292.686" fill="white"/>
</g>
<path d="M167.755 307.292C167.825 307.363 168.387 306.38 169.511 305.888C170.705 305.396 171.689 305.748 171.759 305.607C171.759 305.537 171.548 305.396 171.127 305.326C170.705 305.256 170.003 305.256 169.371 305.537C168.738 305.818 168.247 306.239 168.036 306.66C167.755 307.012 167.685 307.292 167.755 307.292Z" fill="white"/>
<path d="M168.949 309.961C169.019 310.031 169.722 309.469 170.705 309.259C171.689 309.048 172.532 309.259 172.602 309.118C172.672 309.048 171.759 308.557 170.635 308.837C169.441 309.118 168.879 309.891 168.949 309.961Z" fill="white"/>
<path d="M165.437 303.852C165.507 303.922 166.49 303.079 168.036 302.588C169.581 302.096 170.916 302.236 170.916 302.096C170.986 302.026 169.581 301.604 167.895 302.166C166.28 302.658 165.296 303.781 165.437 303.852Z" fill="white"/>
<path d="M165.437 298.023C165.507 298.164 166.561 297.742 167.966 297.813C169.371 297.813 170.424 298.234 170.495 298.164C170.565 298.093 169.511 297.461 168.036 297.391C166.49 297.321 165.366 297.883 165.437 298.023Z" fill="white"/>
<path d="M165.788 292.405C165.858 292.546 166.912 291.984 168.387 292.125C169.863 292.265 170.846 293.037 170.916 292.897C170.916 292.827 170.776 292.616 170.354 292.335C169.933 292.054 169.23 291.773 168.458 291.703C167.685 291.633 166.982 291.773 166.491 291.984C165.999 292.125 165.788 292.335 165.788 292.405Z" fill="white"/>
<path d="M168.387 291.001C168.387 291.001 168.457 290.72 168.457 290.299C168.457 289.807 168.387 289.175 168.036 288.333C167.825 287.981 167.684 287.49 167.123 287.209C166.842 287.069 166.49 287.069 166.209 287.349C165.999 287.56 165.858 287.911 165.858 288.192C165.788 289.386 166.771 290.65 168.106 290.931C169.441 291.141 170.775 290.439 171.408 289.456C171.548 289.175 171.618 288.894 171.548 288.543C171.408 288.192 171.056 288.052 170.775 288.052C170.213 288.122 169.792 288.403 169.441 288.613C168.738 289.105 168.317 289.667 168.036 290.018C167.755 290.439 167.684 290.65 167.684 290.65C167.755 290.72 168.246 289.737 169.581 288.824C169.932 288.613 170.284 288.333 170.705 288.333C170.916 288.333 171.056 288.403 171.127 288.613C171.197 288.754 171.127 289.035 170.986 289.245C170.494 290.088 169.3 290.72 168.106 290.509C166.982 290.299 166.139 289.175 166.139 288.192C166.139 287.981 166.209 287.701 166.35 287.56C166.49 287.42 166.701 287.42 166.842 287.49C167.193 287.63 167.404 288.052 167.614 288.403C168.457 289.948 168.317 291.001 168.387 291.001Z" fill="white"/>
<path d="M224.446 147.537C224.446 147.537 226.764 156.596 225.921 167.55C225.57 171.834 211.239 289.667 211.239 289.667H191.78L197.259 178.926L195.644 179.277C195.644 179.277 185.036 226.537 184.193 234.191C183.42 241.073 174.499 291.001 174.499 291.001L156.726 291.212L162.416 225.133L169.019 161.722L171.478 143.253L224.446 147.537Z" fill="#263238"/>
<path d="M196.557 171.413C196.557 171.413 196.557 171.483 196.697 171.553C196.767 171.623 196.978 171.694 197.189 171.764C197.61 171.904 198.383 171.834 199.015 171.342C199.718 170.851 200.139 169.868 200.28 168.814C200.42 167.761 200.42 166.638 200.491 165.444C200.631 163.056 200.701 160.879 200.772 159.334C200.842 157.79 200.842 156.806 200.772 156.806C200.701 156.806 200.631 157.79 200.491 159.334C200.35 160.879 200.21 163.056 200.069 165.444C199.999 166.638 199.999 167.761 199.858 168.814C199.718 169.798 199.367 170.71 198.805 171.132C198.243 171.623 197.54 171.694 197.189 171.623C196.767 171.553 196.557 171.342 196.557 171.413Z" fill="#455A64"/>
<path d="M167.965 159.966C167.965 159.966 168.176 160.037 168.527 160.177C168.879 160.247 169.441 160.388 170.073 160.458C171.408 160.598 173.304 160.458 175.201 159.685C177.098 158.913 178.573 157.719 179.416 156.666C179.837 156.174 180.189 155.753 180.329 155.402C180.54 155.051 180.61 154.91 180.61 154.91C180.54 154.84 180.118 155.542 179.205 156.525C178.292 157.438 176.887 158.632 175.06 159.334C173.234 160.107 171.408 160.247 170.073 160.177C168.808 160.107 167.965 159.896 167.965 159.966Z" fill="#455A64"/>
<path d="M216.648 155.051C216.578 155.051 216.648 155.823 216.929 157.017C217.21 158.211 217.842 159.826 218.896 161.371C219.95 162.916 221.144 164.109 222.127 164.882C223.111 165.584 223.813 165.935 223.813 165.935C223.884 165.865 221.214 164.32 219.177 161.23C217.21 158.07 216.788 155.051 216.648 155.051Z" fill="#455A64"/>
<path d="M276.008 121.695L280.434 123.1L288.513 118.676L293.149 131.456L282.12 134.054L273.76 133.141L276.008 121.695Z" fill="#AE7461"/>
<path d="M224.165 70.3627C224.165 70.3627 228.731 73.1013 232.454 82.3707C239.83 100.628 244.537 110.46 244.537 110.46L278.537 121.204L275.798 134.827C275.798 134.827 241.305 130.052 236.739 128.296C230.417 125.908 225.71 113.479 225.71 113.479L224.165 70.3627Z" fill="#E0E0E0"/>
<path d="M214.821 29.4934C216.577 29.6338 218.334 28.2294 218.615 26.4738C218.896 24.7183 217.701 22.8925 216.015 22.4009C217.069 21.2072 217.21 19.3814 216.437 18.0472C215.664 16.7129 213.978 15.9405 212.433 16.2916C212.292 14.7467 211.309 13.3423 209.904 12.7103C208.499 12.0783 206.813 12.1485 205.478 12.9912C203.722 11.6569 200.982 11.7272 199.296 13.2018C197.821 12.9912 196.205 13.9041 195.573 15.2383C194.941 16.6427 195.292 18.3983 196.416 19.3814" fill="#263238"/>
<path d="M198.734 16.7832L199.507 16.713C207.445 16.2917 214.33 22.0499 215.383 29.9148C216.367 37.2179 217.28 45.2934 217.421 49.2259C217.702 57.3717 209.623 59.057 209.623 59.057L210.817 68.8179L191.007 69.169L187.495 33.7068C186.3 25.4206 190.234 17.6961 198.734 16.7832Z" fill="#AE7461"/>
<path d="M209.693 59.1272C209.693 59.1272 204.495 59.6889 198.875 56.5289C198.875 56.5289 201.685 62.2872 209.764 61.1636L209.693 59.1272Z" fill="#6F4439"/>
<path d="M212.433 37.4988C212.503 38.1308 212.011 38.6926 211.379 38.7628C210.747 38.833 210.185 38.4117 210.115 37.7797C210.044 37.1477 210.536 36.5859 211.168 36.5157C211.801 36.4455 212.363 36.8668 212.433 37.4988Z" fill="#263238"/>
<path d="M213.838 34.0578C213.698 34.1983 212.784 33.6365 211.52 33.7067C210.255 33.777 209.412 34.4792 209.202 34.2685C209.131 34.1983 209.272 33.9174 209.623 33.6365C209.974 33.3556 210.677 33.0045 211.45 33.0045C212.222 33.0045 212.925 33.2152 213.276 33.4961C213.768 33.7067 213.908 33.9876 213.838 34.0578Z" fill="#263238"/>
<path d="M200.982 37.7796C201.052 38.4116 200.561 38.9734 199.928 39.0436C199.296 39.1138 198.734 38.6925 198.664 38.0605C198.594 37.4285 199.085 36.8667 199.718 36.7965C200.35 36.7263 200.912 37.2178 200.982 37.7796Z" fill="#263238"/>
<path d="M201.474 34.9005C201.334 35.0409 200.421 34.4792 199.156 34.5494C197.892 34.6196 197.049 35.3218 196.838 35.1112C196.768 35.0409 196.908 34.7601 197.259 34.4792C197.611 34.1983 198.313 33.8472 199.086 33.8472C199.859 33.8472 200.561 34.0578 200.912 34.3387C201.404 34.5494 201.545 34.8303 201.474 34.9005Z" fill="#263238"/>
<path d="M206.532 43.9592C206.532 43.8889 207.305 43.7485 208.569 43.4676C208.92 43.3974 209.201 43.3272 209.201 43.1165C209.272 42.9058 209.131 42.5547 208.92 42.2036C208.569 41.4312 208.218 40.6587 207.867 39.816C206.391 36.4454 205.267 33.6365 205.408 33.5663C205.548 33.496 206.883 36.2347 208.358 39.6054C208.71 40.448 209.061 41.2205 209.412 41.9929C209.553 42.344 209.763 42.7654 209.623 43.2569C209.553 43.4676 209.342 43.6783 209.131 43.7485C208.92 43.8187 208.78 43.8187 208.569 43.8187C207.305 43.9592 206.532 44.0294 206.532 43.9592Z" fill="#263238"/>
<path d="M202.317 29.985C202.177 30.3361 201.053 29.985 199.718 30.0552C198.383 30.0552 197.259 30.3361 197.119 30.0552C197.048 29.9148 197.259 29.6339 197.751 29.353C198.243 29.0721 198.945 28.8615 199.718 28.8615C200.491 28.8615 201.193 29.0721 201.685 29.353C202.177 29.5637 202.387 29.8446 202.317 29.985Z" fill="#263238"/>
<path d="M213.627 28.8614C213.346 29.1423 212.363 28.9316 211.098 28.9316C209.834 28.9316 208.78 29.2125 208.569 28.9316C208.429 28.7912 208.639 28.5103 209.061 28.2294C209.482 27.9485 210.255 27.6676 211.098 27.6676C211.941 27.6676 212.714 27.8783 213.135 28.1592C213.557 28.44 213.697 28.7209 213.627 28.8614Z" fill="#263238"/>
<path d="M214.4 26.2632C214.4 26.2632 212.011 21.2774 209.482 20.2241C206.462 18.9601 205.338 22.2605 202.458 21.6285C199.577 20.9965 196.627 19.7325 193.887 22.0499C190.796 24.5779 192.412 26.193 192.412 29.8445C192.342 44.521 189.883 48.8045 188.759 41.993C188.618 41.2205 186.511 40.729 186.019 37.569C185.387 33.4259 184.966 28.4401 185.809 25.4205C186.441 22.8925 187.775 21.137 190.234 19.1005C194.098 15.9405 199.577 15.5894 203.371 15.8001C207.024 15.8703 214.4 19.873 214.4 26.2632Z" fill="#263238"/>
<path d="M189.18 41.7121C189.04 40.4481 187.916 39.5352 186.652 39.6756C185.106 39.8863 183.49 40.8694 183.771 43.9592C184.193 49.5067 189.742 47.8916 189.742 47.7512C189.742 47.681 189.391 44.0294 189.18 41.7121Z" fill="#AE7461"/>
<path d="M188.337 45.7849C188.337 45.7849 188.267 45.8552 188.056 45.9254C187.916 45.9956 187.635 46.0658 187.354 45.9956C186.722 45.8552 186.16 44.9423 186.089 43.9592C186.019 43.4676 186.089 42.976 186.23 42.5547C186.37 42.1334 186.581 41.8525 186.932 41.7823C187.213 41.712 187.424 41.8525 187.494 41.9929C187.565 42.1334 187.565 42.2738 187.565 42.2738C187.565 42.2738 187.705 42.2036 187.635 41.9227C187.635 41.7823 187.494 41.712 187.354 41.5716C187.213 41.5014 187.003 41.4312 186.792 41.5014C186.37 41.5716 186.019 41.9929 185.879 42.4143C185.668 42.9058 185.598 43.3974 185.668 43.9592C185.808 45.0827 186.441 46.0658 187.284 46.2765C187.705 46.3467 187.986 46.2063 188.127 46.0658C188.337 45.9254 188.337 45.7849 188.337 45.7849Z" fill="#6F4439"/>
<path d="M188.759 30.8978C189.532 31.3894 190.304 31.8107 191.147 31.881C191.99 31.9512 192.974 31.3894 193.114 30.4765C193.185 30.0552 193.044 29.6338 193.255 29.353C193.536 29.0018 194.098 29.0721 194.59 29.0721C196.205 29.1423 198.032 27.2463 198.383 25.7014C198.805 26.3334 199.718 26.4738 200.35 25.9823C200.982 25.561 201.193 25.2801 201.615 24.7183C202.106 24.1565 202.739 23.5947 203.511 23.665C203.933 23.7352 204.354 23.9458 204.706 23.8756C205.408 23.8054 205.759 22.8925 205.83 22.1903C205.9 21.4881 205.97 20.5752 206.532 20.1538C207.094 19.7325 207.867 19.9432 208.499 20.0134C209.201 20.0836 210.044 19.873 210.185 19.241C210.255 18.8898 210.115 18.5387 209.904 18.2578C208.991 16.9236 207.024 16.4321 205.549 17.1343C204.916 15.3085 203.09 13.9743 201.193 13.8338C199.296 13.6934 197.329 14.8872 196.486 16.5725C195.222 15.5894 193.536 15.1681 191.99 15.6596C190.445 16.081 189.181 17.2747 188.619 18.8196C187.214 18.5387 185.738 19.1005 184.895 20.2943C184.123 21.4178 184.052 23.1032 184.825 24.297C183.842 24.929 183.069 25.9823 183.069 27.1058C183.139 28.2294 184.263 29.353 185.387 29.0018C184.966 29.9147 185.387 31.1085 186.3 31.6001C187.214 32.0916 188.408 31.6703 188.9 30.8276" fill="#263238"/>
<path d="M206.111 18.6792C206.111 18.6792 206.111 18.6792 206.111 18.7494C206.111 18.8196 206.111 18.8899 206.111 19.0303C206.04 19.3112 205.97 19.6623 205.759 20.1539C205.549 20.5752 205.197 21.137 204.565 21.5583C204.003 21.9796 203.23 22.3308 202.317 22.3308L202.387 22.1903C202.598 22.6819 202.598 23.2436 202.317 23.7352C202.106 24.2268 201.755 24.7183 201.404 25.1396C201.193 25.3503 201.053 25.6312 200.842 25.8419C200.561 26.0525 200.28 26.193 199.999 26.193C199.367 26.3334 198.664 26.1228 198.173 25.6312L198.383 25.561C198.313 26.6845 197.751 27.8081 196.768 28.5103C196.276 28.9316 195.644 29.2125 194.941 29.2125C194.309 29.2125 193.677 29.0721 193.115 28.9316L193.255 28.8614C192.974 29.5636 192.553 30.1956 191.991 30.617C191.429 31.1085 190.726 31.3894 190.094 31.249C188.759 31.0383 187.846 29.985 187.635 28.9316L187.776 29.0019C187.143 29.4232 186.441 29.4934 185.879 29.353C185.317 29.2828 184.825 29.0721 184.544 28.7912C184.193 28.5805 183.982 28.2996 183.912 28.1592C183.771 27.9485 183.771 27.8783 183.771 27.8783C183.771 27.8783 183.982 28.2996 184.614 28.721C184.966 28.9316 185.387 29.1423 185.949 29.2125C186.511 29.2828 187.143 29.2125 187.776 28.7912L187.846 28.721V28.8614C188.057 29.8445 188.97 30.8276 190.164 30.9681C190.796 31.1085 191.429 30.8276 191.92 30.4063C192.412 29.985 192.834 29.353 193.115 28.721L193.185 28.5805H193.325C193.887 28.721 194.449 28.9316 195.082 28.8614C195.714 28.8614 196.276 28.5805 196.768 28.2294C197.681 27.5272 198.243 26.4739 198.313 25.4205V25.1396L198.524 25.3503C198.945 25.7716 199.577 25.9121 200.139 25.8419C200.42 25.7716 200.701 25.7014 200.912 25.4908C201.123 25.3503 201.263 25.0694 201.474 24.8588C201.825 24.4374 202.177 23.9459 202.317 23.5245C202.528 23.033 202.528 22.5414 202.387 22.1201L202.317 21.9796H202.458C203.301 21.9796 204.073 21.6988 204.635 21.2774C205.197 20.8561 205.549 20.3645 205.83 19.9432C206.111 19.241 206.04 18.6792 206.111 18.6792Z" fill="#455A64"/>
<path d="M206.462 48.2427C206.392 48.032 205.057 48.3832 203.792 47.4703C202.528 46.5574 202.317 45.0827 202.106 45.1529C202.036 45.1529 201.896 45.5743 202.106 46.136C202.247 46.768 202.668 47.5405 203.441 48.1023C204.214 48.664 205.057 48.7343 205.689 48.664C206.181 48.5938 206.462 48.3129 206.462 48.2427Z" fill="#263238"/>
<path d="M239.549 99.7859C239.408 99.3645 232.173 79.5618 229.854 75.2783C227.115 70.0818 221.284 67.8347 217.631 67.6241C214.048 67.4134 175.271 70.5032 175.271 70.5032C175.271 70.5032 163.68 73.1014 162.205 83.0027C160.519 94.449 159.043 120.642 159.043 120.642L176.676 111.583L178.924 105.825L215.383 113.971L224.305 100.839L239.549 99.7859Z" fill="#E0E0E0"/>
<path d="M172.742 71.5565L187.846 64.8854L189.532 58.3547L207.234 66.7112L210.958 62.6383L212.503 67.273L216.367 68.537L225.429 84.4072V118.254L227.255 147.467L225.288 152.101L209.061 154.489C207.305 154.77 205.478 154.77 203.722 154.489L170.845 149.152L170.002 139.532L173.515 112.917L172.742 71.5565Z" fill="#E0E0E0"/>
<path d="M189.602 58.4249C189.602 58.4249 191.569 58.9867 196.627 61.7254C201.544 64.3236 207.235 66.7112 207.235 66.7112L206.813 74.6463L187.986 65.3067" fill="#E0E0E0"/>
<path d="M210.887 62.6383L207.234 66.7112L209.201 75.2783L212.503 67.5539" fill="#E0E0E0"/>
<g opacity="0.3">
<path d="M207.305 67.6241C207.445 67.7646 208.499 77.4552 208.499 77.4552L189.672 66.0792L206.813 74.6463L207.305 67.6241Z" fill="black"/>
</g>
<path d="M207.164 103.929C206.883 96.4855 208.077 77.5255 208.077 77.5255L210.536 77.1041C210.536 77.1041 215.102 95.5726 216.858 118.184C217.561 127.313 217.561 137.917 217.561 137.917L212.643 148.52L207.164 137.987C207.094 138.057 207.515 112.988 207.164 103.929Z" fill="#455A64"/>
<path d="M171.618 72.7502C171.618 72.8205 172.11 73.1716 172.883 74.0142C173.655 74.7867 174.569 75.9805 175.412 77.4551C176.184 78.9298 176.676 80.4045 176.887 81.4578C177.098 82.5111 177.168 83.2134 177.238 83.2134C177.238 83.2134 177.238 83.0729 177.238 82.7218C177.238 82.4409 177.168 81.9494 177.098 81.3876C176.887 80.264 176.465 78.7894 175.693 77.3147C174.92 75.84 173.866 74.6462 173.093 73.8738C172.672 73.5227 172.321 73.1716 172.11 73.0311C171.759 72.8205 171.618 72.7502 171.618 72.7502Z" fill="#263238"/>
<path d="M207.164 70.5734L208.85 69.8712L210.465 72.6099L210.746 77.1041L208.498 77.4552L206.812 74.7166L207.164 70.5734Z" fill="#455A64"/>
<path d="M225.358 83.9156C225.288 83.9156 225.218 93.6063 225.218 105.614C225.218 117.622 225.288 127.313 225.358 127.313C225.429 127.313 225.499 117.622 225.499 105.614C225.499 93.6063 225.429 83.9156 225.358 83.9156Z" fill="#263238"/>
<path d="M207.023 66.641C207.023 66.641 207.375 67.273 208.007 68.2561C208.569 69.2392 209.412 70.6437 210.114 72.2588C210.185 72.3992 210.255 72.5397 210.325 72.6099L210.466 72.8908L210.606 72.6099C211.309 71.065 211.871 69.6605 212.152 68.6072C212.292 68.1157 212.433 67.6943 212.503 67.3432C212.573 67.0623 212.573 66.8517 212.573 66.8517C212.503 66.8517 212.362 67.4837 211.941 68.4668C211.59 69.4499 211.028 70.8543 210.325 72.3992H210.536C210.466 72.2588 210.395 72.1183 210.325 71.9779C209.552 70.3628 208.78 68.9583 208.077 67.9752C207.726 67.4837 207.515 67.1325 207.304 66.8517C207.164 66.7814 207.023 66.641 207.023 66.641Z" fill="#263238"/>
<path d="M187.846 64.8854C187.846 64.8854 187.916 64.9556 188.127 65.0258C188.337 65.096 188.548 65.2365 188.899 65.4472C189.602 65.7983 190.515 66.2898 191.709 66.9218C194.098 68.1858 197.329 69.8712 200.912 71.8374C203.09 73.0312 205.197 74.0845 206.953 74.9974L207.094 75.0676V74.8569C207.094 72.5396 207.164 70.5734 207.164 69.0987C207.164 68.3965 207.164 67.9049 207.164 67.4836C207.164 67.1325 207.164 66.9218 207.164 66.9218C207.164 66.9218 207.164 67.1325 207.094 67.4836C207.094 67.9049 207.024 68.3965 207.024 69.0987C206.953 70.5032 206.953 72.4694 206.883 74.8569L207.024 74.7867C205.197 73.8738 203.16 72.7503 200.982 71.6267C197.4 69.7307 194.098 67.9752 191.709 66.7814C190.515 66.2196 189.532 65.728 188.829 65.3769C188.478 65.2365 188.267 65.096 188.056 65.0258C187.986 64.9556 187.846 64.8854 187.846 64.8854Z" fill="#263238"/>
<path d="M223.04 71.0649C222.97 71.0649 223.321 71.5565 223.673 72.4694C224.024 73.3121 224.516 74.5058 224.726 75.9103C225.007 77.3147 225.007 78.5787 224.937 79.5618C224.867 80.4747 224.797 81.0365 224.797 81.1067C224.797 81.1067 224.867 80.9663 224.937 80.6854C225.007 80.4045 225.078 80.0534 225.078 79.5618C225.148 78.6489 225.218 77.3147 224.937 75.9103C224.656 74.5058 224.164 73.2418 223.743 72.3992C223.532 71.9778 223.321 71.6267 223.181 71.4161C223.181 71.1352 223.111 71.0649 223.04 71.0649Z" fill="#263238"/>
<path d="M208.92 77.736C208.99 77.8063 209.412 77.5956 209.904 77.3147C210.395 77.0338 210.747 76.6827 210.747 76.6125C210.676 76.5423 210.255 76.7529 209.763 77.0338C209.201 77.3849 208.85 77.736 208.92 77.736Z" fill="#263238"/>
<path d="M208.077 76.6828C208.148 76.6828 208.639 75.6997 209.201 74.4357C209.763 73.1717 210.185 72.1183 210.115 72.0481C210.044 72.0481 209.553 73.0312 208.991 74.2952C208.429 75.5592 208.007 76.6125 208.077 76.6828Z" fill="#263238"/>
<path d="M169.651 73.2418C169.651 73.2418 163.821 77.4552 163.118 79.7725C162.416 82.0898 159.325 119.729 158.763 124.223C158.201 128.717 157.639 137.074 161.151 139.812C164.593 142.551 172.11 144.588 172.11 144.588L178.994 130.332L175.341 122.678L178.994 94.0978L169.651 73.2418Z" fill="#E0E0E0"/>
<path d="M170.354 144.026C170.354 144.026 170.494 144.026 170.705 144.026C170.916 144.026 171.337 144.026 171.758 143.956C172.672 143.815 174.077 143.604 175.482 142.621C176.887 141.638 178.221 139.953 179.064 137.776C179.907 135.599 180.399 132.931 180.399 130.122V130.192C178.713 127.875 176.957 125.417 175.06 122.819L174.99 122.748V122.678C174.99 122.468 175.06 122.257 175.06 122.046C176.114 114.041 177.027 106.808 177.73 101.471C178.081 98.8729 178.362 96.7663 178.573 95.2214C178.643 94.5191 178.713 93.9574 178.783 93.536C178.854 93.1849 178.854 92.9742 178.854 92.9742C178.854 92.9742 178.854 93.0445 178.854 93.1147C178.854 93.1849 178.854 93.3956 178.854 93.536C178.783 93.9574 178.783 94.5191 178.713 95.2214C178.573 96.696 178.362 98.8027 178.011 101.471C177.378 106.738 176.465 114.041 175.482 122.046C175.482 122.257 175.411 122.468 175.411 122.678V122.538C177.308 125.136 179.064 127.664 180.75 129.981V130.052V130.122C180.68 133.001 180.188 135.669 179.345 137.916C178.502 140.164 177.097 141.919 175.622 142.832C174.92 143.324 174.147 143.604 173.515 143.815C173.374 143.885 173.163 143.885 173.023 143.956C172.882 143.956 172.742 144.026 172.601 144.026C172.32 144.096 172.039 144.096 171.829 144.096C171.337 144.166 170.986 144.096 170.775 144.096C170.494 144.096 170.354 144.026 170.354 144.026Z" fill="#263238"/>
<path d="M163.329 125.276C163.329 125.276 163.82 124.785 164.874 124.223C165.858 123.661 167.403 123.029 169.159 122.678C170.916 122.327 172.531 122.397 173.725 122.538C174.849 122.678 175.552 122.959 175.552 122.959C175.552 123.1 172.742 122.327 169.23 123.029C165.717 123.661 163.399 125.417 163.329 125.276Z" fill="#263238"/>
<path d="M209.061 87.8481C209.061 87.8481 209.412 89.1121 209.904 91.289C211.098 89.6037 212.644 88.129 214.4 87.0054C214.4 87.0054 223.392 78.0872 226.272 68.6774C228.38 61.8659 227.818 54.2819 227.818 54.2819C227.747 53.9308 227.045 50.7006 226.483 48.1023C225.991 45.9254 227.326 43.8188 229.433 43.257C233.929 42.0632 246.012 39.6757 248.752 47.8214C252.897 59.8997 246.223 73.0312 246.293 76.753C246.293 77.4552 246.293 78.017 246.293 78.5086C249.806 77.6659 252.616 77.1041 252.616 77.1743L275.868 71.7672C275.868 71.7672 283.595 69.4499 286.195 77.3148C288.864 85.1797 279.872 87.8481 279.872 87.8481C279.872 87.8481 284.087 87.6374 285.211 94.8001C286.335 101.963 278.678 104.28 278.678 104.28C278.678 104.28 283.385 103.999 284.579 110.319C285.773 116.499 278.046 120.221 277.694 120.431C278.818 120.221 279.521 120.08 279.521 120.08C279.521 120.08 279.029 120.291 278.116 120.501C281.699 120.993 282.19 125.206 282.19 125.206C284.509 133.984 277.765 135.81 277.765 135.81L235.334 145.781C231.049 146.765 226.623 146.624 222.549 145.29C222.97 147.116 223.181 148.099 223.181 148.099L193.466 155.051C193.396 155.051 190.164 141.568 186.301 124.925C182.437 108.283 179.276 94.7299 179.346 94.7299L209.061 87.8481Z" fill="#3D2072"/>
<g opacity="0.3">
<path d="M209.061 87.8481C209.061 87.8481 209.412 89.1121 209.904 91.289C211.098 89.6037 212.644 88.129 214.4 87.0054C214.4 87.0054 223.392 78.0872 226.272 68.6774C228.38 61.8659 227.818 54.2819 227.818 54.2819C227.747 53.9308 227.045 50.7006 226.483 48.1023C225.991 45.9254 227.326 43.8188 229.433 43.257C233.929 42.0632 246.012 39.6757 248.752 47.8214C252.897 59.8997 246.223 73.0312 246.293 76.753C246.293 77.4552 246.293 78.017 246.293 78.5086C249.806 77.6659 252.616 77.1041 252.616 77.1743L275.868 71.7672C275.868 71.7672 283.595 69.4499 286.195 77.3148C288.864 85.1797 279.872 87.8481 279.872 87.8481C279.872 87.8481 284.087 87.6374 285.211 94.8001C286.335 101.963 278.678 104.28 278.678 104.28C278.678 104.28 283.385 103.999 284.579 110.319C285.773 116.499 278.046 120.221 277.694 120.431C278.818 120.221 279.521 120.08 279.521 120.08C279.521 120.08 279.029 120.291 278.116 120.501C281.699 120.993 282.19 125.206 282.19 125.206C284.509 133.984 277.765 135.81 277.765 135.81L235.334 145.781C231.049 146.765 226.623 146.624 222.549 145.29C222.97 147.116 223.181 148.099 223.181 148.099L193.466 155.051C193.396 155.051 190.164 141.568 186.301 124.925C182.437 108.283 179.276 94.7299 179.346 94.7299L209.061 87.8481Z" fill="black"/>
</g>
<path d="M214.751 96.2747L214.189 100.137L223.673 140.796C229.293 144.517 236.177 145.781 242.781 144.236L285.281 134.335C285.281 134.335 292.025 132.509 289.707 123.732C289.707 123.732 289.145 119.097 285.141 118.956C285.141 118.956 293.29 115.164 292.096 108.844C290.901 102.524 286.195 102.805 286.195 102.805C286.195 102.805 293.922 100.488 292.728 93.3254C291.534 86.1627 287.389 86.3734 287.389 86.3734C287.389 86.3734 296.311 83.7751 293.711 75.84C291.042 67.9751 283.385 70.2925 283.385 70.2925L253.178 77.3147L226.694 83.4942C220.442 84.8987 215.735 89.9547 214.751 96.2747Z" fill="#7D56A5"/>
<path d="M221.846 85.4605C221.846 85.4605 230.838 76.5423 233.718 67.1325C235.826 60.3209 235.264 52.7369 235.264 52.7369C235.193 52.3858 234.491 49.1556 233.929 46.5574C233.437 44.3805 234.772 42.2738 236.879 41.7121C241.375 40.5183 249.384 42.6952 252.194 50.8409C256.338 62.9192 253.669 71.4863 253.739 75.2081C253.809 78.9298 253.809 78.9298 253.809 78.9298L221.846 85.4605Z" fill="#7D56A5"/>
<path d="M216.516 86.3195L186.827 93.2499L200.916 153.563L230.606 146.633L216.516 86.3195Z" fill="#7D56A5"/>
<path d="M230.557 146.554C230.628 146.554 227.537 133.001 223.603 116.358C219.739 99.7156 216.507 86.2329 216.437 86.2329C216.367 86.2329 219.458 99.7858 223.392 116.428C227.326 133.141 230.557 146.624 230.557 146.554Z" fill="#263238"/>
<path d="M200.912 153.506C200.982 153.506 197.892 139.953 193.958 123.31C190.094 106.668 186.862 93.1849 186.792 93.1849C186.722 93.1849 189.813 106.738 193.747 123.38C197.611 140.023 200.842 153.506 200.912 153.506Z" fill="#263238"/>
<path d="M209.272 102.524C209.974 105.614 208.077 108.634 204.987 109.406C201.896 110.108 198.875 108.212 198.102 105.123C197.4 102.033 199.296 99.0133 202.387 98.2409C205.478 97.5387 208.499 99.5049 209.272 102.524Z" fill="white"/>
<path d="M260.062 75.6294C260.062 75.5591 256.831 76.2614 252.826 77.1742C248.822 78.0871 245.591 78.9298 245.591 79C245.591 79.0702 248.822 78.368 252.826 77.4551C256.831 76.5422 260.062 75.6996 260.062 75.6294Z" fill="#263238"/>
<path d="M286.827 102.876C286.827 102.805 284.719 103.227 282.19 103.859C279.661 104.42 277.554 104.982 277.624 105.052C277.624 105.123 279.732 104.701 282.261 104.069C284.79 103.508 286.827 102.946 286.827 102.876Z" fill="#263238"/>
<path d="M287.951 86.0223C287.951 85.9521 285 86.5841 281.347 87.4267C277.694 88.2694 274.814 89.0419 274.814 89.0419C274.814 89.1121 277.764 88.4801 281.417 87.6374C285 86.7947 287.951 86.0223 287.951 86.0223Z" fill="#263238"/>
<path d="M287.037 118.535C287.037 118.465 284.087 119.097 280.434 119.94C276.781 120.782 273.901 121.555 273.901 121.555C273.901 121.625 276.851 120.993 280.504 120.15C284.157 119.378 287.037 118.605 287.037 118.535Z" fill="#263238"/>
<g opacity="0.3">
<path d="M237.161 44.7316C236.248 45.5743 236.107 47.0489 236.458 48.2427C236.809 49.4365 237.512 50.4898 238.074 51.6836C239.268 54.2116 239.619 57.0907 239.057 59.8294C238.847 60.672 238.636 61.6551 239.198 62.2871C239.971 63.2 241.516 62.7085 242.429 61.936C246.082 59.1271 247.768 54.1414 246.715 49.6471C246.223 47.7511 245.239 45.9956 243.694 44.8018C242.148 43.7485 239.76 42.6951 237.161 44.7316Z" fill="white"/>
</g>
<g opacity="0.3">
<path d="M286.124 71.2756C285.07 71.0649 284.017 71.3458 282.963 71.6267C276.992 73.1716 271.021 74.6462 265.05 76.1911C263.083 76.6827 259.43 77.104 259.359 79.1405C258.938 80.264 259.781 81.4578 260.835 81.8791C261.888 82.3005 263.153 82.16 264.277 82.0196C266.665 81.6685 269.054 81.1067 271.442 80.5449C276.219 79.4214 280.926 78.2276 285.492 76.4018C286.194 76.1209 286.827 75.84 287.389 75.3485C287.951 74.8569 288.302 74.1547 288.302 73.4525C288.161 72.2587 287.178 71.4862 286.124 71.2756Z" fill="white"/>
</g>
<path d="M209.904 89.6036C209.904 89.5334 205.759 90.4463 200.631 91.6401C195.503 92.8339 191.358 93.8872 191.358 93.8872C191.358 93.9574 195.503 93.0445 200.631 91.8508C205.759 90.7272 209.904 89.6739 209.904 89.6036Z" fill="white"/>
<path d="M289.988 96.4854C289.988 96.4854 290.058 96.345 290.128 96.1343C290.198 95.9236 290.269 95.5725 290.269 95.1512C290.339 94.7299 290.269 94.2383 290.198 93.6765C290.128 93.1148 289.988 92.4828 289.707 91.921C289.426 91.289 289.145 90.7974 288.794 90.3059C288.442 89.8143 288.091 89.4632 287.81 89.1823C287.459 88.9014 287.248 88.6908 287.037 88.5503C286.827 88.4099 286.686 88.3397 286.686 88.4099C286.686 88.4801 287.108 88.761 287.67 89.3228C287.951 89.6036 288.302 90.025 288.583 90.4463C288.864 90.9379 289.215 91.4294 289.426 91.9912C289.636 92.553 289.777 93.185 289.917 93.6765C289.988 94.2383 290.058 94.7299 289.988 95.1512C290.058 95.9236 289.988 96.4854 289.988 96.4854Z" fill="white"/>
<path d="M290.831 80.1938C290.831 80.1938 291.112 79.9129 291.393 79.4213C291.674 78.8596 291.884 78.0169 291.814 77.104C291.744 76.1911 291.393 75.3484 291.112 74.8569C290.76 74.3653 290.479 74.1547 290.479 74.1547C290.479 74.1547 290.69 74.4356 290.971 74.9271C291.252 75.4187 291.533 76.1911 291.603 77.104C291.674 78.0169 291.463 78.7893 291.252 79.3511C291.041 79.8427 290.76 80.1236 290.831 80.1938Z" fill="white"/>
<path d="M288.583 114.041C288.583 114.041 289.005 113.83 289.356 113.268C289.777 112.707 290.129 111.794 290.129 110.67C290.058 109.617 289.567 108.704 289.075 108.212C288.583 107.721 288.162 107.51 288.162 107.51C288.162 107.51 288.513 107.791 288.934 108.283C289.356 108.774 289.848 109.687 289.848 110.67C289.918 111.724 289.567 112.566 289.215 113.128C288.864 113.69 288.583 113.971 288.583 114.041Z" fill="white"/>
<path d="M285.913 129.771C285.913 129.771 286.194 129.49 286.475 128.928C286.756 128.366 286.967 127.524 286.897 126.54C286.827 125.557 286.546 124.715 286.265 124.223C285.984 123.661 285.703 123.38 285.632 123.451C285.632 123.451 285.843 123.802 286.124 124.293C286.405 124.855 286.616 125.628 286.686 126.54C286.756 127.453 286.546 128.296 286.335 128.858C286.054 129.42 285.843 129.7 285.913 129.771Z" fill="white"/>
<path d="M252.475 65.0961C252.475 65.0961 252.545 64.8854 252.686 64.3939C252.756 64.1832 252.826 63.9023 252.826 63.5512C252.897 63.2001 252.967 62.849 252.967 62.4276C253.037 61.585 253.107 60.6721 253.107 59.5485C253.037 58.4952 252.967 57.3014 252.686 56.0374C252.475 54.8436 252.124 53.6499 251.773 52.6667C251.421 51.6836 251 50.7707 250.578 50.0685C250.368 49.7174 250.227 49.3663 250.016 49.0854C249.876 48.8045 249.665 48.5939 249.595 48.3832C249.314 48.0321 249.173 47.8214 249.173 47.8214C249.173 47.8214 249.314 48.0321 249.525 48.4534C249.665 48.6641 249.806 48.8747 249.946 49.1556C250.087 49.4365 250.297 49.7876 250.438 50.1387C250.789 50.841 251.211 51.7539 251.562 52.737C251.913 53.7201 252.264 54.9139 252.475 56.1076C252.686 57.3014 252.826 58.4952 252.897 59.5485C252.967 60.6019 252.897 61.585 252.826 62.4276C252.826 62.849 252.756 63.2001 252.686 63.5512C252.686 63.9023 252.616 64.113 252.545 64.3939C252.545 64.8854 252.475 65.0961 252.475 65.0961Z" fill="white"/>
<path d="M184.685 136.231C184.685 136.231 187.003 134.405 188.759 134.335C190.515 134.265 192.763 134.967 193.185 134.686C193.606 134.476 194.66 133.492 195.363 134.335C196.065 135.178 196.838 138.197 193.255 139.04H190.796C190.796 139.04 191.077 141.498 191.71 142.481C192.342 143.464 200.772 154.068 200.772 154.068C200.772 154.068 201.825 155.121 201.334 156.174C200.772 157.228 198.524 156.596 198.524 156.596C198.524 156.596 196.908 158 195.152 157.368C193.325 156.666 192.623 156.174 192.623 156.174C192.623 156.174 190.656 157.789 188.548 156.174C186.441 154.559 179.416 145.781 179.416 145.781L181.945 135.95L184.685 136.231Z" fill="#AE7461"/>
<path d="M177.379 130.403L184.685 136.231L179.275 145.781L168.527 141.919C168.598 141.919 168.949 130.613 177.379 130.403Z" fill="#AE7461"/>
<path d="M291.603 117.412C291.603 117.412 291.393 114.813 289.918 115.305C288.442 115.867 287.81 118.956 287.81 118.956L291.603 117.412Z" fill="#AE7461"/>
<path d="M286.335 120.01C286.335 120.01 288.864 117.131 292.446 117.412C295.959 117.622 293.781 120.642 293.781 120.642C293.781 120.642 296.38 122.257 294.484 124.574L294.203 125.206C294.203 125.206 296.451 126.049 294.132 128.437C294.132 128.437 294.975 129.981 293.851 131.105C292.727 132.229 289.777 130.754 289.777 130.754C289.777 130.754 287.108 131.386 286.897 130.262C286.686 129.209 287.248 128.437 287.529 128.226C287.74 128.085 289.145 127.524 289.145 127.524C289.145 127.524 286.054 127.875 285.984 127.173C285.913 126.4 285.632 125.557 287.88 124.785L289.145 124.434C289.145 124.434 285.913 124.504 285.913 123.732C285.913 122.959 285.773 122.678 286.897 122.117C288.021 121.555 289.004 120.993 289.004 120.993C289.004 120.993 285.843 121.625 286.335 120.01Z" fill="#AE7461"/>
<path d="M285.773 123.029C285.843 123.1 287.248 121.695 289.566 121.063C291.885 120.361 293.852 120.852 293.852 120.712C293.852 120.712 293.36 120.501 292.587 120.431C291.814 120.361 290.69 120.431 289.496 120.712C288.302 121.063 287.319 121.625 286.686 122.046C286.054 122.608 285.703 122.959 285.773 123.029Z" fill="#6F4439"/>
<path d="M286.124 127.383C286.124 127.383 286.054 127.313 285.984 127.102C285.913 126.962 285.913 126.611 285.984 126.33C286.124 125.979 286.265 125.628 286.686 125.347C287.037 125.066 287.529 124.855 288.091 124.785C290.269 124.293 292.165 124.364 292.165 124.293C292.165 124.223 291.744 124.153 290.971 124.153C290.199 124.153 289.215 124.223 288.091 124.434C287.529 124.574 286.967 124.785 286.616 125.066C286.194 125.347 285.984 125.838 285.843 126.189C285.773 126.541 285.843 126.892 285.913 127.102C285.984 127.383 286.124 127.453 286.124 127.383Z" fill="#6F4439"/>
<path d="M287.389 130.824C287.389 130.824 287.248 130.754 287.108 130.613C286.967 130.473 286.757 130.192 286.757 129.841C286.686 129.49 286.827 128.998 287.178 128.717C287.529 128.436 288.162 128.226 288.724 128.015C289.848 127.664 291.042 127.875 291.815 127.875C292.658 127.875 293.149 127.875 293.149 127.804C293.149 127.734 292.658 127.734 291.815 127.664C291.042 127.594 289.848 127.383 288.653 127.734C288.021 127.945 287.529 128.156 287.038 128.507C286.827 128.717 286.686 128.928 286.616 129.209C286.546 129.49 286.546 129.7 286.616 129.911C286.686 130.332 286.967 130.613 287.178 130.754C287.248 130.824 287.389 130.824 287.389 130.824Z" fill="#6F4439"/>
<path d="M286.265 120.15C286.265 120.15 286.335 120.08 286.476 119.94C286.616 119.799 286.897 119.588 287.178 119.378C287.81 118.956 288.724 118.324 289.777 117.973C290.901 117.622 291.955 117.412 292.658 117.552C293.43 117.692 293.782 117.973 293.852 117.903C293.852 117.903 293.501 117.552 292.728 117.341C291.955 117.131 290.831 117.341 289.707 117.692C287.459 118.465 286.124 120.01 286.265 120.15Z" fill="#6F4439"/>
<path d="M69.4365 27.5801C69.4365 28.923 68.7069 29.7287 67.1505 29.7287H64.5726V25.4802H67.1505C68.7069 25.4802 69.4365 26.3104 69.4365 27.5801ZM60.4141 22.0131V39.1536H64.5726V32.6832H65.5697L69.1203 39.1536H73.8139L69.8742 32.3657C72.5007 31.5844 73.668 29.5578 73.668 27.4092C73.668 24.4303 71.5766 22.0131 67.3937 22.0131H60.4141Z" fill="black"/>
<path d="M86.7358 22.0131H76.2785V39.1536H86.7358V35.8085H80.4371V32.0483H86.0062V28.8253H80.4371V25.3582H86.7358V22.0131Z" fill="black"/>
<path d="M101.838 34.0505C101.838 28.3126 93.3996 29.6555 93.3996 26.6767C93.3996 25.6023 94.1535 25.0896 95.1506 25.114C96.2693 25.1384 97.0475 25.7977 97.1204 26.8964H101.619C101.449 23.6246 98.9444 21.7689 95.2236 21.7689C91.6486 21.7689 88.9978 23.5758 88.9978 26.8232C88.9492 32.9029 97.4852 31.1937 97.4852 34.3679C97.4852 35.369 96.707 35.9794 95.4911 35.9794C94.3237 35.9794 93.4969 35.3446 93.3753 34.0261H88.9492C89.0708 37.4932 91.9405 39.3245 95.6127 39.3245C99.601 39.3245 101.838 36.9316 101.838 34.0505Z" fill="black"/>
<path d="M104.325 32.2437C104.325 36.9805 107.413 39.3245 111.377 39.3245C115.317 39.3245 118.624 36.9805 118.624 32.2437V22.0131H114.466V32.2681C114.466 34.2947 113.42 35.4667 111.45 35.4667C109.48 35.4667 108.483 34.2947 108.483 32.2681V22.0131H104.325V32.2437Z" fill="black"/>
<path d="M121.545 22.0131V39.1536H131.151V35.9306H125.703V22.0131H121.545Z" fill="black"/>
<path d="M132.21 25.3582H136.733V39.1536H140.892V25.3582H145.415V22.0131H132.21V25.3582Z" fill="black"/>
</g>
<defs>
<clipPath id="clip0_302_1670">
<rect width="299.823" height="316" fill="white"/>
</clipPath>
</defs>
</svg>
