<svg width="44" height="37" viewBox="0 0 44 37" fill="none" xmlns="http://www.w3.org/2000/svg">
<path d="M42.3092 3.4121C42.2569 3.34893 42.1872 3.31283 42.1088 3.30381C41.0026 3.17747 39.905 3.06918 38.8423 2.97894C38.8336 2.08555 38.7987 1.18314 38.7203 0.289749C38.7116 0.127314 38.5723 0.000976562 38.4155 0.000976562H36.3336C35.9068 0.000976562 35.4886 0.000976562 35.0618 0.000976562C34.6611 0.000976562 34.2517 0.000976562 33.851 0.000976562C33.459 0.000976562 33.0583 0.000976562 32.6664 0.000976562H30.2448C30.1577 0.000976562 30.0793 0.0370731 30.027 0.100242C29.966 0.163411 29.9399 0.244628 29.9399 0.33487L30.0444 2.42847C22.0567 2.13067 13.9992 2.41042 6.07242 3.26771C4.48706 3.42112 2.96268 3.66478 1.83899 4.71158C0.401717 6.04715 0.175237 8.22196 0.149105 10.3697C0.131683 11.7955 0.131683 13.2665 0.157815 14.8457C0.227501 19.457 0.488824 24.1405 0.741436 28.6797L0.767568 29.0948C0.845965 30.3401 0.976627 31.7659 1.56025 32.9752C1.69091 33.2369 1.83028 33.4715 1.98707 33.6971C3.3024 35.538 5.64559 36.0795 7.77102 36.3682C11.3773 36.8555 15.0271 36.9999 18.6595 36.9999C21.0636 36.9999 23.4504 36.9368 25.811 36.8826L37.3963 36.5848C38.5984 36.5578 40.236 36.5126 41.412 35.5471C42.0478 35.0327 42.4921 34.3107 42.7708 33.3542C43.067 32.3525 43.1454 31.2245 43.1802 30.1596L43.8597 9.35901C43.9119 7.42784 43.851 5.21693 42.3092 3.4121ZM37.7796 0.632666H38.1367C38.189 1.39069 38.2238 2.15775 38.2325 2.9248C38.0583 2.90675 37.8841 2.89772 37.7099 2.87968C37.7186 2.13067 37.7447 1.38167 37.7796 0.632666ZM37.1698 0.632666C37.135 1.36362 37.1088 2.1036 37.1001 2.83456C36.9521 2.82553 36.804 2.80748 36.6559 2.79846C36.6559 2.07653 36.6472 1.3546 36.6472 0.632666H37.1698ZM35.3667 0.623642C35.5845 0.623642 35.8109 0.623642 36.0374 0.623642C36.0374 1.32752 36.0461 2.04043 36.0461 2.74431C35.8109 2.72627 35.5845 2.70822 35.3493 2.69017L35.3667 0.623642ZM34.7569 0.623642L34.7395 2.65407C34.5566 2.64505 34.3824 2.627 34.1995 2.61798C34.1907 1.95019 34.1733 1.2824 34.1646 0.623642C34.3562 0.623642 34.5566 0.623642 34.7569 0.623642ZM33.5549 0.623642C33.5636 1.27338 33.581 1.93214 33.5897 2.58188C33.3981 2.57286 33.2151 2.56383 33.0235 2.54578L32.9799 0.623642C33.1716 0.623642 33.3632 0.623642 33.5549 0.623642ZM32.3702 0.623642L32.4137 2.51871C32.2482 2.50969 32.0914 2.50066 31.9259 2.49164L31.8737 0.623642H32.3702ZM31.2639 0.623642L31.3162 2.46457C31.1071 2.45554 30.8894 2.44652 30.6542 2.43749L30.5671 0.623642H31.2639ZM41.0287 35.0507C40.0879 35.8178 38.8162 35.908 37.3789 35.9441L25.7936 36.2419C19.8964 36.3953 13.7989 36.5487 7.84941 35.7366C5.85465 35.4658 3.65954 34.9695 2.47488 33.3181C2.44003 33.273 2.4139 33.2369 2.38777 33.1917C9.97484 33.7873 17.6229 34.0942 25.2622 34.0942C30.8632 34.0942 36.4643 33.9317 42.0391 33.6069C41.7952 34.2205 41.4642 34.6988 41.0287 35.0507ZM42.5618 30.1416C42.5269 31.0891 42.466 32.0818 42.2395 32.9571C28.8946 33.7422 15.3668 33.5978 2.03063 32.524C1.6038 31.5674 1.47314 30.4484 1.39474 29.4197C8.67694 30.3762 16.0114 30.8635 23.3458 30.8635C29.7657 30.8635 36.1855 30.4935 42.5705 29.7626L42.5618 30.1416ZM42.5966 29.1309C28.8946 30.7191 15.0184 30.6018 1.35119 28.788L1.34248 28.6436C1.09858 24.2218 0.845965 19.6555 0.767568 15.1525C4.19961 15.1254 7.64907 15.0713 11.0463 14.9991C11.0027 15.1796 10.9592 15.3601 10.9243 15.5315C10.4365 17.968 10.6543 20.5038 11.5428 22.6606C13.3111 26.929 17.6664 29.8438 22.1263 29.8438C22.4138 29.8438 22.7013 29.8348 22.9887 29.8077C27.7448 29.4016 32.0218 25.6295 33.1629 20.8287C33.6681 18.708 33.6594 16.3708 33.1542 14.232C36.473 14.0696 39.8179 13.8891 43.1018 13.6906L42.5966 29.1309ZM14.6438 9.68388C16.7605 7.57223 19.7222 6.43519 22.6838 6.43519C24.1734 6.43519 25.6716 6.72396 27.0566 7.31955C32.1698 9.53046 33.7117 15.8474 32.5705 20.6662C31.4904 25.2144 27.4486 28.788 22.9452 29.167C22.6751 29.1941 22.4051 29.2031 22.1351 29.2031C17.9103 29.2031 13.7814 26.4507 12.109 22.4079C10.3755 18.2297 11.447 12.8784 14.6438 9.68388ZM43.2412 9.34096L43.1193 13.0409C39.7743 13.2484 36.3771 13.4289 32.9887 13.5913C32.9277 13.3657 32.858 13.1491 32.7796 12.9326C31.7779 10.0087 29.8789 7.861 27.2831 6.74201C22.9364 4.86499 17.5619 5.88471 14.217 9.23267C12.8407 10.6043 11.8041 12.3911 11.2118 14.3584C7.76231 14.4306 4.24316 14.4847 0.750147 14.5118C0.732725 13.0589 0.732725 11.6963 0.750147 10.3697C0.776279 8.36635 0.976626 6.35397 2.2484 5.17181C3.23271 4.25135 4.64386 4.03477 6.13339 3.87233C11.9957 3.24064 17.9452 2.9248 23.8685 2.9248C26.0288 2.9248 28.1977 2.96992 30.3493 3.05114C30.8023 3.06918 31.2117 3.08723 31.6124 3.10528C31.9782 3.12333 32.3441 3.14138 32.7099 3.15942C33.1019 3.17747 33.4852 3.20455 33.8772 3.23162C34.2604 3.24967 34.635 3.27674 35.0183 3.30381C35.4538 3.33088 35.8893 3.36698 36.3249 3.39405C36.6733 3.42112 37.0217 3.4482 37.3789 3.47527C37.7622 3.50234 38.1367 3.53844 38.52 3.57453C39.6263 3.6738 40.7761 3.79111 41.9346 3.91745C43.2499 5.53277 43.3022 7.48199 43.2412 9.34096Z" fill="#252729"/>
<path d="M42.5791 29.7626L42.5704 30.1416C42.5355 31.0891 42.4745 32.0818 42.2481 32.9571C28.9032 33.7422 15.3754 33.5979 2.03921 32.524C1.61238 31.5674 1.48172 30.4484 1.40332 29.4197C8.68551 30.3762 16.02 30.8635 23.3544 30.8635C29.7655 30.8726 36.1941 30.5026 42.5791 29.7626Z" fill="#F39C12"/>
<path d="M41.9257 3.91746C40.7672 3.79112 39.6174 3.67381 38.5111 3.57454C38.1278 3.53845 37.7533 3.51137 37.37 3.47528C37.0215 3.4482 36.6731 3.42113 36.316 3.39406C35.8804 3.35796 35.4449 3.33089 35.0094 3.30382C34.6261 3.27675 34.2515 3.24967 33.8683 3.23163C33.4763 3.20455 33.093 3.1865 32.701 3.15943C32.3352 3.14138 31.9693 3.12334 31.6035 3.10529C31.2115 3.08724 30.7934 3.06919 30.3404 3.05114C28.1801 2.96993 26.0199 2.9248 23.8596 2.9248C17.9276 2.9248 11.9868 3.24065 6.1245 3.87234C4.64367 4.03477 3.22382 4.25135 2.2395 5.17181C0.985151 6.35398 0.784804 8.37538 0.758672 10.3787C0.74125 11.7053 0.74125 13.0679 0.758672 14.5208C4.25168 14.4937 7.77083 14.4396 11.2203 14.3674C11.8126 12.4001 12.8579 10.6043 14.2255 9.2417C17.5791 5.89375 22.9537 4.87402 27.2916 6.75104C29.8874 7.87003 31.7864 10.0178 32.7881 12.9416C32.8665 13.1582 32.9275 13.3838 32.9972 13.6004C36.3769 13.4379 39.7829 13.2484 43.1278 13.0499L43.2497 9.34999C43.302 7.48199 43.2497 5.53278 41.9257 3.91746ZM9.33877 12.8875C7.28303 13.1762 5.19245 13.3387 3.11929 13.3748H3.11058C3.03218 13.3748 2.95378 13.3387 2.90152 13.2845C2.84054 13.2304 2.8057 13.1492 2.8057 13.0589C2.79699 12.0933 2.78828 11.0916 2.95378 9.26877C2.9712 9.11536 3.08444 8.98902 3.24124 8.98L9.07744 8.63708C9.24295 8.62806 9.39103 8.7544 9.39974 8.93488L9.6088 12.5445C9.6088 12.716 9.49556 12.8694 9.33877 12.8875ZM40.1226 10.2434C40.0529 10.866 39.9484 11.5068 39.5215 11.985C39.1383 12.4001 38.6156 12.5536 38.1278 12.5536C37.8926 12.5536 37.6574 12.5175 37.4484 12.4633C36.6121 12.2197 35.9066 11.579 35.6104 10.7848C35.2968 9.91851 35.4797 8.91683 36.0721 8.28514C36.6905 7.62638 37.6923 7.45492 38.4414 7.87003C39.3996 7.91515 39.9309 8.24905 40.0964 8.90781C40.2097 9.34999 40.1748 9.79217 40.1226 10.2434Z" fill="#F39C12"/>
<path d="M29.5651 14.6653C28.8944 13.1854 27.4571 11.2632 24.4345 10.5142C22.6488 10.072 20.6192 10.3969 18.8858 11.4076C17.1523 12.4183 15.837 14.0427 15.2795 15.8655C14.722 17.6794 14.8875 19.8001 15.7412 21.659C16.5948 23.527 18.0582 24.998 19.7743 25.7109C20.6018 26.0538 21.5164 26.2252 22.4485 26.2252C23.4328 26.2252 24.4345 26.0357 25.3927 25.6477C27.2481 24.8987 28.7812 23.4909 29.5826 21.7763C30.5669 19.6557 30.5669 16.8582 29.5651 14.6653ZM29.0251 21.5056C27.4833 24.7904 23.2673 26.4779 20.0007 25.1243C16.7342 23.7707 14.8004 19.5293 15.8631 16.055C16.7778 13.068 19.8178 10.9474 22.823 10.9474C23.3195 10.9474 23.816 11.0015 24.2951 11.1279C27.0826 11.8227 28.3979 13.5824 29.0164 14.936C29.9397 16.9665 29.9397 19.5384 29.0251 21.5056Z" fill="#252729"/>
<path d="M29.0163 14.9359C28.3979 13.5823 27.0738 11.8226 24.2951 11.1277C23.8073 11.0104 23.3195 10.9473 22.823 10.9473C19.8178 10.9473 16.7864 13.0679 15.8631 16.0549C14.7917 19.5292 16.7255 23.7706 20.0007 25.1242C23.2672 26.4778 27.492 24.7813 29.025 21.5055C29.9397 19.5382 29.9397 16.9664 29.0163 14.9359ZM27.7446 20.8016C27.3526 21.7943 26.5947 22.6425 25.593 23.202C24.8178 23.6352 23.9467 23.8337 23.0756 23.8337C21.4815 23.8337 19.87 23.1479 18.8335 21.8935C17.222 19.9443 17.1349 16.813 18.6331 14.7735C20.1314 12.734 23.0582 11.976 25.3056 13.0589C25.8369 13.3116 26.2289 13.6365 26.5338 13.9794C26.5512 13.9974 26.5686 14.0155 26.5773 14.0335C27.2132 14.7915 27.4223 15.703 27.5878 16.4249C27.64 16.6686 27.701 16.8942 27.762 17.1017C28.1714 18.4193 28.1627 19.7368 27.7446 20.8016Z" fill="#FDC00F"/>
<path d="M27.762 17.1018C27.7011 16.9032 27.6488 16.6686 27.5878 16.425C27.4223 15.703 27.2133 14.7916 26.5774 14.0336C26.5687 14.0155 26.5512 13.9975 26.5338 13.9794C26.2289 13.6275 25.837 13.3116 25.3056 13.059C23.0582 11.9761 20.1314 12.7341 18.6332 14.7735C17.1349 16.813 17.222 19.9444 18.8335 21.8936C19.8701 23.157 21.4816 23.8338 23.0757 23.8338C23.9467 23.8338 24.8178 23.6262 25.5931 23.2021C26.5948 22.6426 27.3613 21.7943 27.7446 20.8017C28.1627 19.7368 28.1714 18.4193 27.762 17.1018ZM27.1871 20.567C26.8561 21.4243 26.1854 22.1643 25.3143 22.6516C24.6262 23.0306 23.8509 23.2201 23.0757 23.2201C21.6558 23.2201 20.2272 22.6065 19.3039 21.4965C17.8753 19.7639 17.7969 16.9844 19.121 15.1706C20.0443 13.9162 21.5687 13.2033 23.0844 13.2033C23.7638 13.2033 24.4345 13.3477 25.053 13.6455C26.4728 14.3314 26.7516 15.5316 26.9955 16.5874C27.0565 16.8401 27.1087 17.0837 27.1784 17.3093C27.5443 18.4734 27.5443 19.6375 27.1871 20.567Z" fill="#252729"/>
<path d="M40.0964 8.90773C39.9309 8.24897 39.4082 7.91508 38.4413 7.86996C37.6922 7.45485 36.6905 7.6263 36.072 8.28507C35.4797 8.91676 35.2881 9.92746 35.6104 10.7848C35.9065 11.5789 36.6034 12.2196 37.4483 12.4632C37.6574 12.5174 37.8839 12.5535 38.1278 12.5535C38.6156 12.5535 39.1382 12.4001 39.5215 11.985C39.9483 11.5157 40.0528 10.866 40.1225 10.2433C40.1748 9.7921 40.2096 9.34991 40.0964 8.90773ZM39.5128 10.1711C39.4518 10.7035 39.3734 11.2179 39.0685 11.5518C38.6853 11.9759 38.0407 11.9759 37.6051 11.8496C36.9518 11.6601 36.403 11.1728 36.1766 10.5591C35.9414 9.92746 36.0807 9.17845 36.5076 8.71822C36.7776 8.42945 37.1696 8.27604 37.5529 8.27604C37.7793 8.27604 38.0058 8.33019 38.1974 8.4475C38.241 8.47457 38.2933 8.49262 38.3455 8.49262C39.3734 8.52872 39.4605 8.87163 39.5041 9.06114C39.5912 9.40406 39.5563 9.76502 39.5128 10.1711Z" fill="#252729"/>
<path d="M9.39979 8.94397C9.39108 8.77252 9.243 8.63715 9.0775 8.64618L3.24129 8.9891C3.09321 8.99812 2.97126 9.12446 2.95383 9.27787C2.79704 11.1007 2.80575 12.1024 2.80575 13.068C2.80575 13.1492 2.84059 13.2304 2.90157 13.2936C2.96254 13.3478 3.03223 13.3839 3.11063 13.3839H3.11934C5.1925 13.3478 7.28308 13.1853 9.33882 12.8965C9.49561 12.8785 9.60885 12.7251 9.60014 12.5627L9.39979 8.94397ZM3.4155 12.7341C3.4155 11.9219 3.4155 11.0286 3.53745 9.60274L8.80746 9.29592L8.98168 12.301C7.135 12.5446 5.2709 12.698 3.4155 12.7341Z" fill="#252729"/>
<path d="M7.91894 18.7982C7.87539 18.7892 7.82312 18.7982 7.77957 18.8163C6.89107 19.1321 6.29874 20.0977 6.40327 21.0543C5.297 21.325 4.1646 21.4964 3.03221 21.5596C2.93639 21.5686 2.85799 21.6137 2.79701 21.695C2.74475 21.7762 2.72733 21.8754 2.75346 21.9657C3.19771 23.6081 3.79875 24.9076 4.37366 26.1619L4.38237 26.1709C4.42593 26.2702 4.52174 26.3334 4.62627 26.3514C4.63498 26.3514 4.64369 26.3514 4.66112 26.3514C4.75693 26.3514 4.84404 26.3063 4.90502 26.2251C5.89804 24.8805 7.1611 23.7254 8.57225 22.8771C9.51301 22.7598 10.297 21.8484 10.2621 20.8738C10.2186 19.8089 9.28653 18.9787 7.91894 18.7982ZM4.72209 25.431C4.26913 24.4383 3.81617 23.3915 3.45032 22.1552C4.49561 22.074 5.5409 21.9025 6.56877 21.6589C6.56877 21.6589 6.56877 21.6679 6.57748 21.6679C6.60362 21.722 6.62975 21.7762 6.65588 21.8303C6.68201 21.8845 6.71685 21.9296 6.7517 21.9837C6.76041 22.0018 6.77783 22.0108 6.78654 22.0289C6.81267 22.065 6.83881 22.092 6.86494 22.1281C6.88236 22.1462 6.89107 22.1642 6.90849 22.1823C6.93462 22.2093 6.96076 22.2364 6.98689 22.2635C7.00431 22.2815 7.02173 22.2996 7.03915 22.3086C7.06529 22.3357 7.10013 22.3628 7.12626 22.3898C7.14368 22.4079 7.1611 22.4169 7.17852 22.4349C7.21337 22.462 7.24821 22.4891 7.28305 22.5162C7.29176 22.5252 7.30919 22.5342 7.3179 22.5432C7.37016 22.5793 7.41371 22.6064 7.46598 22.6335C7.47469 22.6425 7.49211 22.6425 7.50082 22.6515C7.54438 22.6696 7.57922 22.6966 7.62277 22.7147C7.63148 22.7147 7.63148 22.7237 7.64019 22.7237C6.54264 23.4637 5.55832 24.3842 4.72209 25.431ZM8.44158 22.2364C8.43287 22.2364 8.43287 22.2364 8.43287 22.2364C8.41545 22.2364 8.39803 22.2364 8.38061 22.2364C8.36319 22.2364 8.33706 22.2364 8.31963 22.2364C8.30221 22.2364 8.28479 22.2364 8.26737 22.2274C8.24995 22.2274 8.22382 22.2274 8.20639 22.2184C8.18897 22.2184 8.17155 22.2093 8.15413 22.2093C8.13671 22.2093 8.11058 22.2003 8.09315 22.2003C8.07573 22.2003 8.05831 22.1913 8.04089 22.1823C8.02347 22.1732 7.99734 22.1732 7.97991 22.1642C7.96249 22.1552 7.95378 22.1552 7.93636 22.1462C7.91894 22.1371 7.89281 22.1281 7.87539 22.1191C7.85796 22.1101 7.84925 22.1101 7.83183 22.1011C7.81441 22.092 7.78828 22.083 7.77086 22.074C7.76215 22.065 7.74472 22.0559 7.73601 22.0559C7.71859 22.0469 7.69246 22.0289 7.67504 22.0198C7.66633 22.0108 7.64891 22.0018 7.64019 21.9928C7.62277 21.9747 7.59664 21.9657 7.57922 21.9476C7.57051 21.9386 7.5618 21.9296 7.54438 21.9206C7.52696 21.9025 7.50082 21.8845 7.4834 21.8754C7.47469 21.8664 7.46598 21.8574 7.45727 21.8484C7.43985 21.8303 7.42243 21.8123 7.39629 21.7942C7.38758 21.7852 7.37887 21.7762 7.37016 21.7672C7.35274 21.7491 7.33532 21.7311 7.3179 21.704C7.30919 21.695 7.30048 21.6859 7.29176 21.6679C7.27434 21.6498 7.25692 21.6228 7.24821 21.6047C7.2395 21.5957 7.23079 21.5777 7.22208 21.5686C7.20466 21.5506 7.19595 21.5325 7.17852 21.5055C7.16981 21.4874 7.1611 21.4694 7.15239 21.4603C7.14368 21.4423 7.13497 21.4242 7.12626 21.4062C7.11755 21.3881 7.10884 21.3611 7.10013 21.343C7.09142 21.325 7.08271 21.3069 7.08271 21.2979C7.06529 21.2618 7.05657 21.2257 7.04786 21.1806C7.03044 21.1355 7.02173 21.0903 7.01302 21.0362C6.90849 20.3774 7.30919 19.6736 7.91023 19.4209C8.92068 19.5833 9.61754 20.1609 9.63496 20.8647C9.6698 21.5416 9.09489 22.1913 8.44158 22.2364Z" fill="#252729"/>
</svg>
