<svg width="37" height="40" viewBox="0 0 37 40" fill="none" xmlns="http://www.w3.org/2000/svg">
<path d="M32.5 25C31.7 21.4 25.8333 21 23.5 21C23.5 23.5 22.8329 27.8333 22.9995 31C22.5995 35.4 24.0005 38.5 26 38.5C34.5 37.5 34 28.1667 32.5 25Z" fill="white"/>
<path d="M5.05889 24.5715C6.03143 20.4572 11.1634 21.4999 14 21.4999C12.5412 23.7857 15.5003 21.0001 15.5003 28.0001C15.9866 33.0287 13.5687 40 12.9608 40C2.62752 38.8572 3.23536 28.1905 5.05889 24.5715Z" fill="white"/>
<path d="M8.95893 21.111C6.20773 20.8243 4.16198 23.7275 3.35073 26.0572C2.43366 28.6737 2.29258 31.6845 3.24491 34.301C4.12671 36.7382 5.9961 38.6737 8.39458 39.5339C10.4756 40.2866 13.4384 40.3583 15.0609 38.602C15.3431 38.2795 14.9198 37.7777 14.5671 37.921C12.4861 38.7454 10.6167 39.1755 8.46512 38.2078C6.45464 37.3117 5.11431 35.5196 4.47942 33.4049C3.80926 31.2185 3.95035 28.7812 4.69105 26.6666C5.53757 24.2651 6.91317 22.939 9.13528 21.8278C9.45273 21.6128 9.27637 21.1468 8.95893 21.111Z" fill="#F39C12"/>
<path d="M13.9676 21.6487C12.6626 24.086 12.3451 27.2401 12.2746 29.9642C12.204 32.4731 12.1688 36.2007 13.6149 38.3513C13.7913 38.6022 14.144 38.4588 14.1792 38.172C14.3203 36.9534 13.9323 35.6631 13.7913 34.4444C13.6149 32.9749 13.5796 31.4695 13.6149 30C13.6854 27.276 14.3556 24.6237 14.5672 21.9355C14.5672 21.6129 14.144 21.362 13.9676 21.6487Z" fill="#F39C12"/>
<path d="M14.6371 21.6845C14.6724 24.4086 14.9545 27.1326 14.884 29.8566C14.8487 31.1111 14.7429 32.4014 14.6018 33.6559C14.4607 35.0896 14.0022 36.5949 14.0728 38.0286C14.0728 38.3154 14.5313 38.638 14.7076 38.2795C15.8011 36.0215 15.7658 32.724 15.8363 30.2509C15.9422 27.3835 15.8716 24.3727 15.1309 21.6129C15.0604 21.2903 14.6371 21.362 14.6371 21.6845Z" fill="#F39C12"/>
<path d="M8.35871 21.6845C9.52267 21.3619 12.8382 20.4659 13.6847 21.792C13.8611 22.0429 14.2491 21.8637 14.1433 21.577C13.9669 21.0035 13.9316 20.8243 13.332 20.6809C12.8029 20.5376 12.2386 20.5017 11.6742 20.5017C10.4397 20.5017 9.31104 20.7168 8.18235 21.2186C7.97072 21.3619 8.1118 21.7562 8.35871 21.6845Z" fill="#F39C12"/>
<path d="M3.87955 32.1145C2.89194 28.7095 1.93961 25.4478 1.79852 21.8636C1.65744 18.3869 2.11597 14.8744 3.24466 11.541C4.33808 8.31523 5.99585 5.05358 8.95867 3.29731C11.8862 1.54104 15.4134 1.64857 18.6937 1.36183C19.2227 1.32599 19.1522 0.465771 18.6231 0.429929C15.0607 0.250717 11.0397 0.573298 7.79471 2.32957C4.83189 3.90663 3.20939 7.06075 2.01015 10.1073C-0.599952 16.9174 -0.987941 25.9855 2.8214 32.5088C3.17412 33.1181 4.12645 32.8672 3.87955 32.1145Z" fill="#F39C12"/>
<path d="M16.3306 1.29024C20.1752 1.03934 23.9846 0.57339 27.6528 2.15045C30.6156 3.44077 32.8025 6.02142 34.1075 8.96049C35.5889 12.3297 35.9064 16.0931 35.8006 19.7132C35.73 21.4336 35.6595 23.1899 35.342 24.9103C34.9541 26.9533 34.1075 28.387 33.0141 30.0716C32.8025 30.3942 33.2963 30.8243 33.5785 30.6092C36.6824 28.2795 36.8235 23.4766 36.9645 19.9282C37.1056 15.9856 36.7882 11.9354 35.1304 8.31533C33.6137 5.12536 31.18 2.3655 27.8644 1.07518C24.2667 -0.358509 19.893 -0.179298 16.1895 0.609233C15.731 0.71676 15.9073 1.32608 16.3306 1.29024Z" fill="#F39C12"/>
<path d="M24.2311 21.0752C26.4532 21.5053 28.887 21.5053 30.7211 23.0107C32.8374 24.7311 32.5905 28.172 32.661 30.6809C32.7316 32.939 32.4141 34.9103 30.5447 36.3082C28.8517 37.5985 26.5943 38.9247 24.5485 37.6343C24.1606 37.3834 23.8784 37.8494 24.1253 38.172C25.5362 40.0716 28.0052 39.2114 29.6982 38.2078C32.5199 36.5591 33.8955 34.6953 33.8955 31.3261C33.8955 28.8171 34.0366 25.3046 32.5199 23.2257C30.6505 20.6451 27.0881 20.1791 24.1958 20.5376C23.9489 20.6093 23.9842 21.0394 24.2311 21.0752Z" fill="#F39C12"/>
<path d="M23.1734 21.2902C24.2668 24.2652 24.9722 27.1684 25.1133 30.3583C25.1839 31.7204 25.1839 33.0824 25.1133 34.4444C25.0781 35.1612 25.0428 35.9139 24.9722 36.6307C24.937 36.9892 24.9017 37.3476 24.8664 37.7419C24.5842 38.3153 24.5842 38.4945 24.937 38.3153C24.7253 38.2795 24.549 38.4945 24.6195 38.7096C24.6548 38.7454 24.6548 38.8171 24.6901 38.853C24.7606 38.9963 24.937 39.1039 25.0781 39.068C26.0304 38.853 25.8188 37.5268 25.8893 36.7741C26.0657 34.8028 26.242 32.8315 26.2067 30.8601C26.2067 27.491 25.6424 23.835 23.5614 21.111C23.4556 20.8601 23.0676 20.9677 23.1734 21.2902Z" fill="#F39C12"/>
<path d="M23.879 20.5734C22.9267 20.4659 22.6798 21.3978 22.6092 22.2222C22.4329 24.6236 22.6445 27.0609 22.6445 29.4623C22.6445 30.8243 21.9391 38.2437 24.5139 37.8853C24.9724 37.8136 25.0077 37.1326 24.5139 37.0609C23.1736 36.8459 23.6321 30.5376 23.6321 29.534C23.6321 28.2079 23.5968 26.9175 23.5968 25.5914C23.5968 24.6595 23.103 21.7562 24.0201 21.2903C24.3728 21.1111 24.1965 20.6093 23.879 20.5734Z" fill="#F39C12"/>
<path d="M3.31527 9.56989C7.15988 5.34049 12.3095 4.30107 17.7767 3.83512C20.5279 3.58422 23.3849 3.40501 26.136 3.87096C29.0989 4.33691 31.0741 5.55555 32.9788 7.8853C33.2609 8.20788 33.8605 8.06451 33.6842 7.56272C32.9082 5.23297 30.2628 3.79928 28.1113 3.04659C24.6546 1.82795 21.0922 1.97132 17.4945 2.36558C14.4964 2.68816 11.3925 2.86738 8.64129 4.26523C6.45445 5.37634 4.37342 7.24014 2.89201 9.17562C2.68038 9.46236 3.06837 9.85662 3.31527 9.56989Z" fill="#F39C12"/>
<path d="M28.6752 36.308C30.4388 35.5195 32.026 33.8349 32.3435 31.8278C32.3788 31.541 31.9555 31.326 31.8497 31.6127C31.2148 33.4765 30.2272 34.9819 28.4283 35.8062C28.1109 35.9855 28.3931 36.4514 28.6752 36.308Z" fill="#F39C12"/>
<path d="M5.255 33.5484C5.67826 35.0179 6.63059 35.8781 8.04146 36.4875C8.88798 36.8459 10.6163 37.6703 11.357 36.7742C11.5334 36.5591 11.2865 36.2366 11.0396 36.3799C10.0872 36.9176 8.64108 35.9498 7.79456 35.5197C6.94804 35.0538 6.03097 34.3728 5.71353 33.4409C5.60771 33.1541 5.14918 33.2258 5.255 33.5484Z" fill="#F39C12"/>
</svg>
