<svg width="43" height="48" viewBox="0 0 43 48" fill="none" xmlns="http://www.w3.org/2000/svg">
<path d="M39.541 36.3421C39.3024 36.2231 39.1235 36.1636 38.885 36.0447C38.4078 36.1042 37.9307 35.9852 37.4536 35.9852C36.9765 35.9257 36.559 35.9257 36.0819 35.8662C36.1416 35.9257 36.1416 35.9852 36.2012 35.9852C36.3801 36.2231 36.4398 36.461 36.3801 36.6395C36.4994 36.9369 36.4398 37.2938 36.0223 37.4127C35.6644 37.5317 35.3066 37.6506 34.8891 37.7696C34.7102 37.8291 34.5909 37.948 34.412 38.0075C34.2927 38.067 34.1735 38.067 34.1138 38.0075C31.1318 38.8402 27.971 39.2566 24.8697 39.435C21.2317 39.6135 17.0569 39.7324 13.5979 38.6023C13.0015 38.4239 13.0015 37.4722 13.7171 37.4722C15.5063 37.4722 17.2955 37.6506 19.0847 37.7696C21.4106 36.8774 23.5576 35.8068 25.645 34.6172C26.5396 34.0224 27.4342 33.4276 28.3884 32.8923C29.4023 32.238 30.3565 31.5242 31.3704 30.751C30.4758 28.6097 29.7601 26.3495 29.0445 24.2083C22.007 26.3495 15.6852 30.5726 8.76707 33.1302C8.40923 34.0224 8.0514 34.9146 7.69356 35.8068C7.81284 36.1042 7.69356 36.5205 7.33573 36.6395C7.21645 36.9964 7.03753 37.3532 6.91825 37.7101C6.73933 38.067 6.32186 38.067 6.02366 37.8291H5.96402C5.42726 37.8291 5.42726 37.0558 5.90438 36.9964H5.96402C6.02366 36.8774 6.02366 36.8179 6.0833 36.699C5.90438 36.699 5.72546 36.699 5.54654 36.699C5.4869 36.699 5.42726 36.699 5.36763 36.6395C4.77123 36.8774 4.17484 37.1748 3.69772 37.5912C2.50493 38.0075 2.32602 38.5428 3.04169 39.1971C3.63808 40.2083 4.35376 40.0298 5.42726 40.1488C7.455 40.3867 9.48274 40.5651 11.4508 40.6841C15.3274 40.922 19.1443 40.9815 23.0209 40.803C26.7782 40.6841 30.5354 40.3867 34.2927 39.7919C36.0223 39.4945 39.1235 39.1376 40.4952 37.8885C40.7338 37.7696 40.9723 37.5912 41.2705 37.4722C40.8531 36.8179 40.3163 36.4016 39.541 36.3421ZM12.7033 38.7213C12.7033 38.7807 12.6436 38.8402 12.6436 38.8997C12.5244 39.3161 12.1665 39.6135 11.6894 39.6135C11.2123 39.554 10.9737 39.1971 10.8544 38.7807C10.8544 38.7213 10.8544 38.6618 10.7948 38.6023C10.6755 38.067 11.3316 37.5912 11.8087 37.6506C12.4051 37.6506 12.8822 38.1859 12.7033 38.7213Z" fill="#F39C12"/>
<path d="M22.0069 42.5873C18.4881 42.7063 14.9098 42.5873 11.391 42.4089C8.58799 42.2304 5.30782 42.2899 2.68369 41.3977C2.20658 41.2193 1.84874 41.0409 1.55054 40.8624C1.43126 42.2899 1.31199 44.0743 2.32586 44.7881C3.459 45.5613 6.44097 45.5613 7.81268 45.7992C11.6296 46.3345 15.4465 46.5724 19.2634 46.513C22.8418 46.4535 26.4202 46.0966 29.9389 45.5613C33.4576 44.9665 37.036 43.539 40.5547 43.2416C40.5547 43.0632 40.674 42.8847 40.8529 42.7658C41.0915 42.052 41.0318 41.2788 41.0915 40.565C41.0915 40.2081 41.1511 39.8513 41.1511 39.4944C40.8529 39.6728 40.5547 39.7918 40.3161 39.9107C34.7697 42.4089 27.9112 42.4684 22.0069 42.5873Z" fill="#F39C12"/>
<path d="M19.7405 8.14859C18.7863 8.6839 17.832 9.21922 16.8778 9.69506C15.685 13.4423 14.4326 17.13 13.1802 20.8177C14.9097 19.9255 16.7585 19.0928 18.4881 18.2006C20.8737 16.9516 23.14 15.5241 25.4659 14.275C24.5713 11.5389 23.6767 8.80286 22.8418 6.00732C22.0068 6.89952 20.814 7.55379 19.7405 8.14859Z" fill="#F39C12"/>
<path d="M17.5342 8.14872C18.1903 7.79185 18.906 7.37549 19.562 6.95913C20.5759 6.30486 21.5301 5.47214 22.6036 4.99631C22.3054 4.04463 22.0668 3.09296 21.8283 2.20077C21.709 2.14129 21.5897 2.14129 21.5301 2.14129C21.4108 2.02233 21.3512 1.96285 21.2319 1.90337C20.9337 1.90337 20.6355 1.84389 20.3373 1.84389C20.2777 1.90337 20.218 1.90337 20.0987 1.96285C19.9198 1.84389 19.6216 1.78441 19.3831 1.84389C18.727 3.8662 18.071 5.8885 17.4746 7.91081C17.4746 8.02977 17.4746 8.08924 17.5342 8.14872Z" fill="#F2ECD4"/>
<path d="M9.18457 31.8215C12.2262 30.1561 15.4467 28.7881 18.548 27.3011C21.7685 25.7546 24.989 24.0892 28.4481 22.9591C28.2095 22.1859 27.9113 21.4126 27.6728 20.6394C27.136 19.0929 26.5993 17.5464 26.0625 16.0595C25.8836 16 25.7047 15.9405 25.5258 16C25.4065 16.0595 25.2872 16.1784 25.1679 16.2379C25.1679 16.2974 25.1083 16.2974 25.1083 16.3569C25.0486 16.3569 25.0486 16.4758 25.0486 16.5353C24.8101 16.5948 24.6312 16.6543 24.3926 16.7732C20.7546 19.2119 16.5202 21.4126 12.5244 22.7212C11.4509 25.7546 10.3774 28.7881 9.18457 31.8215ZM21.8281 22.3048C21.6492 22.4238 21.4703 22.5427 21.351 22.7212L21.2914 22.7806C21.0528 22.8996 20.7546 23.0186 20.5161 23.197C20.8739 22.8401 21.351 22.6022 21.8281 22.3048Z" fill="#F2ECD4"/>
<path d="M22.1265 38.0074C22.8421 38.0074 23.5578 38.0074 24.2735 38.0074C27.6729 37.829 30.9531 37.2937 34.2333 36.5799C33.2194 35.1524 32.4441 33.6059 31.6688 32C28.9254 34.5576 25.6452 36.5799 22.1265 38.0074Z" fill="#F2ECD4"/>
<path d="M42.9405 36.8773C42.5826 35.3309 40.9724 35.3309 39.6603 35.2119C38.4675 34.4387 36.4994 34.4981 35.0681 34.3792C33.1596 31.2268 31.8475 27.539 30.6547 23.9703C30.118 22.3048 29.5812 20.6394 29.0445 19.0929C26.8975 13.0855 24.8697 7.01859 23.2595 0.832714C23.1402 0.475836 22.842 0.297398 22.5438 0.237918C22.4841 0.237918 22.4245 0.237918 22.4245 0.237918C21.4703 0.178439 20.5757 0.118959 19.6215 0.0594796C19.3233 0.0594796 19.0847 0 18.7865 0C18.369 0 18.0708 0.356877 17.9516 0.713755C14.3136 12.2528 10.2581 23.6134 6.56043 35.0929C6.50079 35.2714 6.44115 35.4498 6.38151 35.6283C6.08332 35.6283 5.78512 35.6877 5.54656 35.7472C5.42728 35.7472 5.36764 35.6877 5.24837 35.7472C3.75738 36.1041 1.55072 37.5316 0.95433 38.8996C0.894691 38.8996 0.835052 38.8996 0.775412 38.9591C0.596494 39.0186 0.477215 39.1375 0.477215 39.3755C0.477215 39.6729 0.417576 40.0297 0.357936 40.3271C0.357936 40.5056 0.298297 40.684 0.298297 40.8624C0.179018 41.6952 0.0597395 42.5874 0.119379 43.3606C0.179018 44.1338 0.357936 44.8476 0.775412 45.3829C1.07361 45.7398 1.49108 45.9777 2.08748 46.1561C5.96404 47.3457 10.3774 47.7026 14.4328 47.881C14.6714 47.881 14.9696 47.881 15.2081 47.9405C19.204 48.119 23.2595 48 27.1957 47.4647C27.8517 47.4052 28.5077 47.2862 29.1638 47.2268C31.9668 46.8104 35.247 46.3941 38.1097 45.4424C39.1832 45.0855 40.2567 44.6097 41.2109 44.0743C41.2706 44.0743 41.2706 44.0149 41.3302 43.9554C41.5091 43.9554 41.6284 43.9554 41.7477 43.9554C42.3441 43.8364 42.7019 43.3011 42.7615 42.5874C42.7615 42.5279 42.7615 42.4684 42.7615 42.4089C42.8808 40.9814 43.0001 39.4944 42.9405 38.0669C43.0001 37.71 43.0597 37.3532 42.9405 36.8773ZM34.2331 36.5799C30.9529 37.2342 27.6728 37.829 24.2733 38.0074C23.5577 38.0669 22.842 38.0074 22.1263 38.0074C25.5854 36.5799 28.9252 34.4981 31.7283 32.0595C32.4439 33.6654 33.2789 35.2119 34.2331 36.5799ZM16.878 9.69517C17.8323 9.21933 18.7865 8.74349 19.7407 8.1487C20.8142 7.5539 22.007 6.89963 22.9016 6.00743C23.7366 8.80297 24.5715 11.539 25.5258 14.2751C23.1402 15.5242 20.8739 16.9517 18.548 18.2007C16.8184 19.0929 15.0292 19.9256 13.24 20.8178C14.4328 17.1301 15.6853 13.4424 16.878 9.69517ZM24.3926 16.7138C24.6312 16.5353 24.9294 16.3569 25.1679 16.1784C25.2872 16.119 25.4065 16 25.5258 15.9405C25.645 15.8216 25.824 15.7621 25.9432 15.6431C26.0029 15.7621 26.0029 15.881 26.0625 16C26.5993 17.5465 27.136 19.0929 27.6728 20.5799C27.971 21.3532 28.2095 22.1264 28.4481 22.8996C24.989 23.9703 21.7685 25.6357 18.548 27.2416C15.4467 28.7286 12.2262 30.0967 9.18457 31.7621C10.3177 28.7286 11.4509 25.6952 12.5244 22.6617C16.5202 21.4126 20.7546 19.1524 24.3926 16.7138ZM20.2775 1.84387C20.5757 1.84387 20.8739 1.90335 21.1721 1.90335C21.351 1.90335 21.5299 1.90335 21.7088 1.96283C21.7088 2.08178 21.7685 2.14126 21.7685 2.26022C22.007 3.2119 22.3052 4.16357 22.5438 5.05576C21.4703 5.5316 20.5161 6.36431 19.5022 7.01859C18.8461 7.43494 18.1901 7.79182 17.4744 8.20818C17.4148 8.26766 17.3552 8.26766 17.2955 8.32714C17.2955 8.20818 17.3552 8.1487 17.3552 8.02974C18.0112 6.00743 18.6672 3.98513 19.2636 1.96283V1.90335C19.6811 1.78439 19.9793 1.84387 20.2775 1.84387ZM41.032 40.5056C40.9724 41.2193 41.032 42.052 40.7934 42.7063C40.6145 42.8253 40.5549 43.0037 40.4952 43.1822C36.9765 43.4796 33.3982 44.9071 29.8794 45.5019C26.3607 46.0967 22.7823 46.3941 19.204 46.4535C15.3871 46.513 11.5701 46.2751 7.75322 45.7398C6.32188 45.5613 3.39955 45.5613 2.2664 44.7286C1.25253 44.0149 1.37181 42.29 1.49108 40.803C1.78928 40.9814 2.14712 41.1599 2.62423 41.3383C5.30801 42.2305 8.52853 42.1115 11.3316 42.29C14.8503 42.5279 18.4287 42.5874 21.9474 42.4684C27.8517 42.29 34.7102 42.29 40.197 39.7323C40.4356 39.6134 40.7338 39.4944 41.032 39.316C41.0916 39.8513 41.032 40.2082 41.032 40.5056ZM40.376 38.1264C39.0043 39.3755 35.903 39.7323 34.1735 40.0297C30.4758 40.6245 26.6589 40.8625 22.9016 41.0409C19.0251 41.2193 15.1485 41.1599 11.3316 40.9219C9.30384 40.803 7.2761 40.6245 5.30801 40.3866C4.2345 40.2677 3.45918 40.4461 2.92243 39.4349C2.20676 38.7807 2.44532 38.2453 3.57846 37.829C4.11522 37.4126 4.65197 37.1152 5.24837 36.8773C5.24837 36.8773 5.30801 36.8773 5.36764 36.8773C5.54656 36.8773 5.72548 36.8773 5.9044 36.8773C5.84476 36.9963 5.84476 37.0558 5.78512 37.1747H5.72548C5.18873 37.1747 5.24837 38.0074 5.78512 38.0074C5.84476 38.0074 5.84476 38.0074 5.84476 38.0074C6.08332 38.2454 6.56043 38.2454 6.73935 37.8885C6.91827 37.5316 7.03755 37.1747 7.15683 36.8178C7.51466 36.6989 7.63394 36.2825 7.51466 35.9851C7.8725 35.0929 8.23034 34.2007 8.58817 33.3085C15.5063 30.7509 21.7685 26.5279 28.8656 24.3866C29.5812 26.5874 30.2969 28.7881 31.1915 30.9294C30.2373 31.7026 29.2234 32.3569 28.2095 33.0706C27.3149 33.6654 26.4203 34.2602 25.4661 34.7955C23.3787 35.9851 21.2317 37.0558 18.9058 37.948C17.1166 37.829 15.3274 37.6506 13.5382 37.6506C12.8226 37.6506 12.8822 38.6022 13.419 38.7807C16.878 39.9108 21.1124 39.8513 24.6908 39.6134C27.7921 39.4349 30.8933 39.0186 33.9349 38.1859C34.0542 38.2453 34.1138 38.2453 34.2331 38.1859C34.412 38.1264 34.5313 38.0074 34.7102 37.948C35.0681 37.829 35.4855 37.71 35.8434 37.5911C36.2608 37.4721 36.3205 37.1152 36.2012 36.8178C36.2608 36.6394 36.2012 36.4015 36.0223 36.1636C35.9627 36.1041 35.9627 36.0446 35.903 36.0446C36.3801 36.1041 36.7976 36.1636 37.2747 36.1636C37.7518 36.223 38.229 36.2825 38.7061 36.223C38.9446 36.2825 39.1832 36.4015 39.3621 36.5204C40.1374 36.5204 40.6742 36.9963 40.9724 37.8885C40.8531 37.829 40.6145 38.0074 40.376 38.1264Z" fill="#1E1B1C"/>
<path d="M11.8681 37.591C11.391 37.5315 10.7946 38.0073 10.8542 38.5427C10.8542 38.6021 10.8542 38.6616 10.9139 38.7211C10.9735 39.1374 11.2717 39.4943 11.7488 39.5538C12.2259 39.6133 12.5838 39.3159 12.7031 38.8401C12.7031 38.7806 12.7627 38.7211 12.7627 38.6616C12.882 38.1858 12.4049 37.6505 11.8681 37.591Z" fill="#1E1B1C"/>
</svg>
