<svg width="46" height="57" viewBox="0 0 46 57" fill="none" xmlns="http://www.w3.org/2000/svg">
<path d="M22.4788 56.9757C19.8276 55.9385 17.1537 54.8777 14.5025 53.8405C11.5567 52.6854 8.61084 51.5539 5.66502 50.3989C4.6 49.9745 4.30542 49.5267 4.30542 48.348C4.30542 46.5093 4.28276 44.6706 4.30542 42.8555C4.30542 42.4312 4.16946 42.2426 3.78424 42.1247C1.45025 41.2997 0 39.2488 0 36.7501C0 34.2749 1.45025 32.2005 3.76158 31.399C4.1468 31.2576 4.28276 31.069 4.28276 30.6447C4.2601 28.9003 4.2601 27.1559 4.28276 25.4115C4.28276 24.0207 5.34778 23.2428 6.61675 23.7142C7.43251 24.0207 8.24828 24.3271 9.06404 24.6807C9.40394 24.8221 9.6532 24.775 9.90246 24.4921C11.6473 22.6534 13.7094 21.2862 16.0207 20.3197C16.4059 20.1547 16.4966 20.0604 16.134 19.7304C10.6502 14.8272 11.0355 6.36449 16.9044 2.00348C23.2493 -2.71112 32.5626 1.4613 33.6049 9.4997C34.1261 13.6014 32.8571 17.0195 29.8887 19.7304C29.5261 20.0604 29.5941 20.1547 30.002 20.3197C32.3133 21.2862 34.3527 22.6534 36.1202 24.4921C36.3921 24.775 36.6187 24.8221 36.9586 24.6807C37.7064 24.3507 38.4768 24.0678 39.2473 23.7849C40.6749 23.2428 41.7172 23.9735 41.7172 25.5529C41.7172 27.2737 41.7172 28.9946 41.7172 30.7154C41.7172 31.0926 41.8305 31.2576 42.1704 31.3754C44.5498 32.2005 45.9773 34.2278 45.9773 36.7501C45.9773 39.2488 44.5498 41.2761 42.1704 42.1247C41.8305 42.2426 41.6946 42.4076 41.6946 42.7848C41.7172 44.6235 41.6946 46.4622 41.6946 48.2773C41.6946 49.5031 41.4 49.951 40.2897 50.3989C35.9163 52.1197 31.5202 53.8169 27.1468 55.5378C25.9232 56.0092 24.7222 56.5043 23.4985 56.9757C23.1813 56.9757 22.8187 56.9757 22.4788 56.9757ZM21.3685 43.0205C21.3685 39.9324 21.3685 36.8444 21.3685 33.7563C21.3685 33.3556 21.2552 33.1434 20.8926 33.0256C20.3261 32.837 19.7596 32.6012 19.1931 32.3655C15.4768 30.9276 11.7606 29.466 8.04434 28.0045C7.63645 27.8395 7.52315 27.9102 7.52315 28.3817C7.54581 29.136 7.54581 29.8903 7.52315 30.6683C7.50049 31.069 7.65911 31.234 7.99901 31.399C9.0867 31.9176 9.67586 32.7898 9.67586 34.0628C9.67586 35.8779 9.67586 37.693 9.67586 39.5081C9.67586 40.8046 9.06404 41.6768 7.95369 42.1954C7.65911 42.3369 7.52315 42.5019 7.52315 42.8555C7.54581 44.2227 7.54581 45.59 7.52315 46.9572C7.52315 47.3344 7.63645 47.5229 7.97636 47.6408C12.2365 49.2909 16.4966 50.9646 20.7567 52.6147C21.3232 52.8269 21.3232 52.8269 21.3232 52.1668C21.3685 49.1259 21.3685 46.0614 21.3685 43.0205ZM24.6542 42.9498C24.6542 46.0378 24.6542 49.1259 24.6542 52.214C24.6542 52.7562 24.7901 52.7797 25.2207 52.6147C29.4581 50.941 33.7409 49.2909 38.001 47.6408C38.3409 47.4994 38.4768 47.3344 38.4542 46.9572C38.4315 45.6135 38.4315 44.2463 38.4542 42.9026C38.4542 42.5019 38.3409 42.3133 37.9783 42.1483C36.8906 41.6297 36.3015 40.7575 36.3015 39.4846C36.3015 37.693 36.3241 35.9015 36.3015 34.0863C36.2788 32.7427 36.9133 31.8469 38.0463 31.3047C38.3182 31.1869 38.4315 31.0454 38.4315 30.739C38.4089 29.9139 38.4089 29.0653 38.4315 28.2402C38.4315 27.8159 38.2729 27.8395 37.9783 27.9574C33.6729 29.631 29.3901 31.3283 25.0847 32.9784C24.6995 33.1198 24.6089 33.3791 24.6089 33.7799C24.6542 36.8444 24.6542 39.8853 24.6542 42.9498ZM23.0227 18.9289C27.0788 18.9053 30.4778 15.4165 30.4325 11.197C30.3872 6.83595 27.1695 3.51215 23 3.46501C18.9438 3.41786 15.5448 6.97738 15.5901 11.1734C15.6128 15.558 18.8532 18.8346 23.0227 18.9289ZM13.0296 26.1894C13.1655 26.2601 13.2108 26.3072 13.2562 26.3308C16.3606 27.533 19.4424 28.7353 22.5468 29.9611C22.8867 30.1025 23.2039 30.0554 23.5212 29.9375C26.5123 28.7588 29.5034 27.5802 32.5172 26.4251C32.9704 26.2601 32.9478 26.1187 32.6079 25.8594C29.7754 23.5492 26.535 22.3706 22.9547 22.3706C20.1901 22.3706 17.5616 23.1013 15.1823 24.5864C14.4345 25.0343 13.732 25.5529 13.0296 26.1894ZM6.41281 36.7972C6.41281 36.3965 6.41281 35.9958 6.41281 35.5714C6.41281 34.4871 6.41281 34.4871 5.3931 34.5814C5.2798 34.5814 5.18916 34.6049 5.07586 34.6285C3.8069 34.9114 3.08177 36.0429 3.39901 37.2923C3.6936 38.4709 5.03054 39.2488 6.18621 38.9424C6.41281 38.8717 6.43547 38.7066 6.43547 38.5181C6.41281 37.9287 6.41281 37.363 6.41281 36.7972ZM39.6099 36.7265C39.6099 37.1273 39.6099 37.528 39.6099 37.9523C39.6099 39.0367 39.6099 39.0367 40.6522 38.9424C40.8562 38.9188 41.0374 38.8717 41.2187 38.8245C42.2837 38.5181 42.9182 37.3866 42.6463 36.2786C42.3517 35.0528 41.0148 34.2513 39.8591 34.5814C39.6325 34.6521 39.6325 34.8171 39.6099 35.0057C39.6099 35.5714 39.6099 36.1608 39.6099 36.7265Z" fill="#55575A"/>
</svg>
