<svg width="21" height="13" viewBox="0 0 21 13" fill="none" xmlns="http://www.w3.org/2000/svg">
<path fill-rule="evenodd" clip-rule="evenodd" d="M1.0233 7.24458C0.691127 6.91241 0.691127 6.37385 1.0233 6.04168L6.43632 0.628659C6.76849 0.296489 7.30705 0.296489 7.63922 0.628659C7.97139 0.96083 7.97139 1.49938 7.63922 1.83155L3.67821 5.79256H17.965L14.004 1.83155C13.6718 1.49938 13.6718 0.96083 14.004 0.628659C14.3361 0.296489 14.8747 0.296489 15.2068 0.628659L20.6199 6.04168C20.952 6.37385 20.952 6.91241 20.6199 7.24458L15.2068 12.6576C14.8747 12.9898 14.3361 12.9898 14.004 12.6576C13.6718 12.3254 13.6718 11.7869 14.004 11.4547L17.965 7.49371H3.67821L7.63922 11.4547C7.97139 11.7869 7.97139 12.3254 7.63922 12.6576C7.30705 12.9898 6.76849 12.9898 6.43632 12.6576L1.0233 7.24458Z" fill="#55575A"/>
</svg>
