<svg width="18" height="37" viewBox="0 0 18 37" fill="none" xmlns="http://www.w3.org/2000/svg">
<path d="M17.7953 14.6986C17.7953 14.4966 17.7953 14.2734 17.7528 14.0394C17.4232 12.0831 15.9134 10.8073 13.9039 10.7966C13.3404 10.7966 12.745 10.786 12.0114 10.786C11.5223 10.786 11.0226 10.786 10.5335 10.786C10.0444 10.786 9.54472 10.786 9.05564 10.786H9.03438C8.53467 10.786 8.03495 10.786 7.53524 10.786C7.03553 10.786 6.53581 10.786 6.0361 10.786C5.4088 10.786 4.77087 10.786 4.14357 10.786C1.87892 10.8179 0.241562 12.4659 0.23093 14.7199V16.0808C0.23093 18.1966 0.220297 20.3762 0.241562 22.5346C0.252194 24.3739 1.7726 25.905 3.6226 25.9581C3.63323 25.9581 3.65449 25.9581 3.66513 25.9581V26.0007C3.66513 26.7449 3.66513 27.4998 3.66513 28.244C3.66513 29.9558 3.66513 31.7314 3.67576 33.4751C3.68639 34.9636 4.40938 36.0587 5.71714 36.569C6.13179 36.7285 6.53581 36.8136 6.92921 36.8136C7.69472 36.8136 8.39645 36.5265 9.01311 35.9524C9.62978 36.5159 10.3421 36.8029 11.1183 36.8029C11.4266 36.8029 11.7456 36.7604 12.0646 36.6647C13.2128 36.3351 13.9783 35.5271 14.2654 34.3256C14.3611 33.9323 14.3717 33.5389 14.3717 33.2412C14.3717 32.2843 14.3717 31.3274 14.3717 30.3705C14.3717 28.8926 14.3717 27.4147 14.3717 25.9369C16.3918 25.8518 17.8059 24.3846 17.8059 22.3219C17.8059 19.7489 17.7953 17.1547 17.7953 14.6986ZM15.7114 22.609C15.7008 23.3107 15.116 23.8636 14.3717 23.8848V18.9302C14.3717 18.8346 14.3717 18.7389 14.3717 18.6538C14.3717 18.3986 14.3717 18.1328 14.3611 17.8564C14.3292 17.1759 13.9252 16.74 13.3298 16.74C13.3191 16.74 13.2979 16.74 13.2873 16.74C12.6812 16.7613 12.2878 17.2185 12.2878 17.9096C12.2878 19.8765 12.2878 21.8435 12.2878 23.8211V25.788C12.2878 26.6705 12.2878 27.5529 12.2878 28.4354C12.2878 30.1472 12.2878 31.8483 12.2878 33.5601C12.2878 34.2512 11.8094 34.7509 11.1502 34.7509H11.1183C10.4804 34.7297 10.0338 34.2087 10.0338 33.4751C10.0338 31.6889 10.0338 29.892 10.0338 28.1058V25.5541C10.0338 25.5222 10.0338 25.4903 10.0338 25.4584C10.0338 25.3415 10.0444 25.2139 10.0125 25.065C9.91685 24.544 9.53409 24.2144 9.00248 24.2144C8.4815 24.2144 8.08811 24.5547 8.00306 25.0756C7.98179 25.2032 7.98179 25.3308 7.98179 25.4371C7.98179 25.469 7.98179 25.4903 7.98179 25.5222V28.0314C7.98179 29.8389 7.98179 31.657 7.98179 33.4644C7.98179 34.2193 7.52461 34.7297 6.84415 34.7297C6.82288 34.7297 6.80162 34.7297 6.78035 34.7297C6.22748 34.7084 5.75967 34.2406 5.72777 33.6984C5.71714 33.592 5.72777 33.4857 5.72777 33.3688V29.2541C5.72777 25.5435 5.72777 21.8328 5.72777 18.1222V18.0371C5.72777 17.8883 5.72777 17.7182 5.68524 17.5374C5.56829 17.0484 5.19616 16.74 4.70708 16.7294H4.67518C4.17547 16.7294 3.80334 17.0377 3.69702 17.5162C3.64386 17.7501 3.64386 17.984 3.64386 18.1541C3.64386 19.4087 3.64386 20.6739 3.64386 21.9285C3.64386 21.9285 3.64386 23.8423 3.64386 23.8529C3.63323 23.8529 3.63323 23.8529 3.6226 23.8529C2.91024 23.8211 2.38926 23.3426 2.29357 22.6409C2.26168 22.407 2.25104 22.1943 2.25104 22.0136C2.25104 20.7484 2.25104 19.4938 2.25104 18.2285C2.25104 17.144 2.25104 16.0596 2.25104 14.9751C2.25104 14.6348 2.28294 14.3584 2.3361 14.1139C2.50622 13.4015 3.17604 12.8699 3.89903 12.8593C5.75967 12.8593 7.47145 12.8486 9.1407 12.8486C10.8418 12.8486 12.5111 12.8486 14.0953 12.8593C14.9565 12.8593 15.6795 13.561 15.6901 14.3903C15.7327 17.0802 15.7327 19.834 15.7114 22.609Z" fill="#55575A"/>
<path d="M8.99187 10.5627C6.23813 10.5627 4.00537 8.31928 4.00537 5.57618C4.00537 2.86497 6.28066 0.56842 8.9706 0.56842H9.0025C11.7669 0.579053 14.0209 2.83308 14.0209 5.59744C14.0103 8.32991 11.7562 10.5627 8.99187 10.5627ZM8.98123 2.6417C8.19445 2.6417 7.47146 2.95003 6.91859 3.5029C6.37635 4.05578 6.06801 4.80003 6.07865 5.58681C6.07865 7.2348 7.36514 8.52129 9.0025 8.52129C9.77865 8.52129 10.5123 8.21296 11.0651 7.66009C11.618 7.10721 11.9263 6.36296 11.9263 5.57618C11.9263 3.93882 10.6399 2.6417 8.98123 2.6417L8.99187 2.15262L8.98123 2.6417Z" fill="#55575A"/>
</svg>
