<svg width="300" height="316" viewBox="0 0 300 316" fill="none" xmlns="http://www.w3.org/2000/svg">
<g clip-path="url(#clip0_281_6124)">
<path d="M169.862 224.29H23.1119C20.3019 224.29 18.054 222.043 18.054 219.234V14.6062C18.054 11.7973 20.3019 9.55022 23.1119 9.55022H169.862C172.672 9.55022 174.92 11.7973 174.92 14.6062V219.234C174.92 222.043 172.672 224.29 169.862 224.29Z" fill="#F5F5F5"/>
<path d="M289.004 22.3307L289.285 23.8053L286.335 39.816C284.227 41.3609 281.558 41.9929 278.959 41.5013L262.239 38.4116C262.239 38.4116 259.57 37.8498 260.343 34.3387C260.343 34.3387 260.483 32.5129 262.029 32.3725C262.029 32.3725 258.797 31.0382 259.149 28.5805C259.5 26.0525 261.326 26.1227 261.326 26.1227C261.326 26.1227 258.306 25.3502 258.587 22.5413C258.868 19.7325 260.554 19.7325 260.554 19.7325C260.554 19.7325 257.041 18.8898 257.884 15.7298C258.797 12.64 261.818 13.4125 261.818 13.4125L273.69 15.5893L284.087 17.4853C286.616 18.0471 288.513 19.9431 289.004 22.3307Z" fill="#EBEBEB"/>
<path d="M286.054 18.2578C286.054 18.2578 282.401 14.9573 281.136 11.376C280.223 8.77778 280.293 5.82845 280.293 5.82845C280.293 5.68801 280.504 4.42401 280.715 3.37067C280.855 2.52801 280.293 1.75556 279.45 1.54489C277.694 1.12356 274.603 2.17689 273.69 5.40712C272.285 10.1822 273.479 13.4827 273.549 14.8871C273.62 16.3618 273.62 16.3618 273.62 16.3618L286.054 18.2578Z" fill="#EBEBEB"/>
<path d="M283.76 42.1915L295.434 44.3491L299.814 20.6651L288.14 18.5076L283.76 42.1915Z" fill="#EBEBEB"/>
<path d="M283.736 42.2036C283.736 42.2036 284.649 36.8667 285.913 30.336C287.108 23.8053 288.161 18.4684 288.161 18.4684C288.161 18.4684 287.248 23.8053 285.984 30.336C284.789 36.9369 283.736 42.2036 283.736 42.2036Z" fill="#E0E0E0"/>
<path d="M295.397 44.3805C295.397 44.3805 296.31 39.0436 297.575 32.5129C298.769 25.9822 299.823 20.6453 299.823 20.6453C299.823 20.6453 298.909 25.9822 297.645 32.5129C296.451 39.0436 295.467 44.3805 295.397 44.3805Z" fill="#E0E0E0"/>
<path d="M291.252 24.7182C291.042 25.912 291.814 27.1058 293.009 27.3165C294.203 27.5271 295.397 26.7547 295.608 25.5609C295.819 24.3671 295.046 23.1733 293.852 22.9627C292.657 22.6818 291.463 23.4542 291.252 24.7182Z" fill="white"/>
<path d="M271.02 15.168C271.02 15.168 272.285 15.3787 273.901 15.6596C275.446 15.9404 276.711 16.2213 276.711 16.2213C276.711 16.2213 275.446 16.0107 273.83 15.7298C272.285 15.4489 270.95 15.168 271.02 15.168Z" fill="#E0E0E0"/>
<path d="M261.045 26.2631C261.045 26.2631 261.888 26.3333 262.872 26.544C263.855 26.7547 264.698 26.8951 264.698 26.8951C264.698 26.8951 263.855 26.8249 262.872 26.6142C261.888 26.4036 261.045 26.2631 261.045 26.2631Z" fill="#E0E0E0"/>
<path d="M260.343 19.6622C260.343 19.6622 261.537 19.8027 262.942 20.0836C264.347 20.3645 265.541 20.5751 265.541 20.5751C265.541 20.5751 264.347 20.4347 262.942 20.1538C261.467 19.9431 260.343 19.7325 260.343 19.6622Z" fill="#E0E0E0"/>
<path d="M261.256 32.3022C261.256 32.3022 262.45 32.4427 263.855 32.7236C265.26 33.0045 266.455 33.2151 266.455 33.2151C266.455 33.2151 265.26 33.0747 263.855 32.7938C262.45 32.5831 261.256 32.3725 261.256 32.3022Z" fill="#E0E0E0"/>
<path d="M290.76 19.6622C290.76 19.6622 292.376 19.9431 294.413 20.2942C296.451 20.6453 298.066 20.9965 298.066 20.9965C298.066 20.9965 296.451 20.7156 294.413 20.3645C292.376 20.0133 290.76 19.7325 290.76 19.6622Z" fill="white"/>
<path d="M259.711 23.8053C259.711 23.8053 259.711 23.7351 259.64 23.6649C259.64 23.5947 259.57 23.4542 259.57 23.3138C259.57 23.1733 259.57 22.9627 259.57 22.752C259.57 22.5413 259.64 22.2605 259.711 22.0498C259.781 21.8391 259.921 21.5582 259.992 21.4178C260.132 21.2071 260.273 21.0667 260.343 20.9965C260.483 20.856 260.554 20.7858 260.624 20.7156C260.694 20.6453 260.764 20.6453 260.764 20.6453C260.764 20.6453 260.624 20.7858 260.413 20.9965C260.273 21.1369 260.202 21.2773 260.062 21.4178C259.921 21.6285 259.851 21.8391 259.781 22.0498C259.711 22.2605 259.64 22.5413 259.64 22.752C259.64 22.9627 259.64 23.1733 259.64 23.3138C259.711 23.5947 259.711 23.8053 259.711 23.8053Z" fill="white"/>
<path d="M259.078 17.4853C259.078 17.4853 258.938 17.4151 258.867 17.2044C258.727 16.9938 258.657 16.6427 258.657 16.2916C258.657 15.9404 258.797 15.5893 258.867 15.3787C259.008 15.168 259.078 15.0978 259.078 15.0978C259.078 15.0978 259.008 15.2382 258.867 15.4489C258.797 15.6596 258.657 15.9404 258.657 16.2916C258.657 16.6427 258.727 16.9236 258.867 17.1342C259.008 17.3449 259.148 17.4151 259.078 17.4853Z" fill="white"/>
<path d="M260.624 30.6169C260.624 30.6169 260.483 30.5467 260.272 30.336C260.132 30.1253 259.921 29.7742 259.921 29.3529C259.921 28.9316 260.132 28.5805 260.272 28.3698C260.483 28.1591 260.624 28.0889 260.624 28.0889C260.624 28.0889 260.483 28.2293 260.343 28.44C260.202 28.6507 259.991 29.0018 259.991 29.3529C259.991 29.7742 260.132 30.1253 260.272 30.336C260.483 30.4765 260.624 30.5467 260.624 30.6169Z" fill="white"/>
<path d="M261.958 36.656C261.958 36.656 261.818 36.5858 261.748 36.3049C261.607 36.0942 261.537 35.7431 261.537 35.392C261.537 35.0409 261.607 34.6898 261.748 34.4791C261.888 34.2685 261.958 34.128 261.958 34.128C261.958 34.128 261.888 34.2685 261.818 34.4791C261.748 34.6898 261.607 35.0409 261.607 35.392C261.607 35.7431 261.677 36.0942 261.818 36.3049C261.888 36.5156 261.958 36.656 261.958 36.656Z" fill="white"/>
<path d="M273.76 10.8844C273.76 10.8844 273.76 10.8142 273.69 10.6036C273.69 10.5333 273.62 10.3929 273.62 10.3227C273.62 10.1822 273.55 10.0418 273.55 9.90133C273.479 9.62044 273.479 9.19911 273.479 8.77778C273.479 8.35644 273.479 7.86489 273.55 7.44356C273.62 6.952 273.76 6.53067 273.83 6.10933C273.971 5.688 274.111 5.33689 274.252 5.056C274.322 4.91556 274.393 4.77511 274.463 4.70489C274.533 4.56444 274.603 4.49422 274.603 4.424C274.673 4.28356 274.744 4.21333 274.744 4.21333C274.744 4.21333 274.673 4.28356 274.603 4.49422C274.533 4.56444 274.533 4.63467 274.463 4.77511C274.393 4.91556 274.322 4.98578 274.252 5.19644C274.111 5.47733 273.971 5.82844 273.901 6.24978C273.76 6.67111 273.69 7.09244 273.62 7.584C273.55 8.07556 273.55 8.49689 273.55 8.91822C273.55 9.33956 273.55 9.69067 273.62 10.0418C273.62 10.1822 273.69 10.3227 273.69 10.4631C273.69 10.6036 273.76 10.6738 273.76 10.8142V10.8844Z" fill="white"/>
<path d="M270.88 168.463L271.653 169.376L275.938 181.524C275.095 183.42 273.479 184.895 271.583 185.597L258.868 190.092C258.868 190.092 256.83 190.724 255.987 188.055C255.987 188.055 255.355 186.721 256.409 186.089C256.409 186.089 253.669 186.44 252.896 184.614C252.124 182.788 253.458 182.086 253.458 182.086C253.458 182.086 251.07 182.788 250.157 180.682C249.243 178.645 250.367 178.013 250.367 178.013C250.367 178.013 247.628 178.856 246.995 176.328C246.363 173.87 248.752 173.168 248.752 173.168L257.744 169.938L265.682 167.129C267.578 166.427 269.616 166.988 270.88 168.463Z" fill="#EBEBEB"/>
<path d="M267.297 166.848C267.297 166.848 263.504 166.005 261.186 164.039C259.5 162.635 258.376 160.598 258.376 160.598C258.305 160.458 257.954 159.545 257.673 158.772C257.463 158.14 256.76 157.789 256.128 158C254.793 158.421 253.037 160.317 253.669 162.916C254.582 166.778 256.69 168.533 257.322 169.516C257.954 170.5 257.954 170.5 257.954 170.5L267.297 166.848Z" fill="#EBEBEB"/>
<path d="M275.164 184.152L284.036 181.008L277.652 163.006L268.78 166.149L275.164 184.152Z" fill="#EBEBEB"/>
<path d="M275.165 184.123C275.165 184.123 273.69 180.12 271.934 175.134C270.178 170.148 268.773 166.146 268.773 166.146C268.773 166.146 270.248 170.148 272.004 175.134C273.76 180.12 275.165 184.123 275.165 184.123Z" fill="#E0E0E0"/>
<path d="M284.017 181.033C284.017 181.033 282.541 177.03 280.785 172.044C279.029 167.059 277.624 163.056 277.624 163.056C277.624 163.056 279.099 167.059 280.855 172.044C282.612 176.96 284.087 180.963 284.017 181.033Z" fill="#E0E0E0"/>
<path d="M273.409 169.165C273.76 170.078 274.744 170.57 275.657 170.219C276.57 169.868 277.062 168.884 276.711 167.972C276.36 167.059 275.376 166.567 274.463 166.918C273.55 167.269 273.058 168.252 273.409 169.165Z" fill="white"/>
<path d="M255.706 170.64C255.706 170.64 256.69 170.289 257.884 169.868C259.078 169.446 260.062 169.095 260.062 169.165C260.062 169.236 259.078 169.516 257.884 169.938C256.69 170.289 255.706 170.64 255.706 170.64Z" fill="#E0E0E0"/>
<path d="M253.318 182.156C253.318 182.156 253.95 181.876 254.653 181.665C255.425 181.384 256.058 181.173 256.058 181.244C256.058 181.244 255.425 181.524 254.723 181.735C253.95 181.946 253.318 182.156 253.318 182.156Z" fill="#E0E0E0"/>
<path d="M250.227 177.943C250.227 177.943 251.07 177.592 252.194 177.241C253.248 176.89 254.161 176.539 254.161 176.609C254.161 176.609 253.318 176.96 252.194 177.311C251.07 177.662 250.227 177.943 250.227 177.943Z" fill="#E0E0E0"/>
<path d="M255.847 186.229C255.847 186.229 256.69 185.878 257.814 185.527C258.868 185.176 259.781 184.825 259.781 184.895C259.781 184.895 258.938 185.246 257.814 185.597C256.76 185.948 255.847 186.3 255.847 186.229Z" fill="#E0E0E0"/>
<path d="M271.091 165.935C271.091 165.935 272.285 165.444 273.831 164.952C275.376 164.39 276.57 163.969 276.64 164.039C276.64 164.039 275.446 164.531 273.901 165.022C272.285 165.514 271.091 165.935 271.091 165.935Z" fill="white"/>
<path d="M251.421 181.033C251.421 181.033 251.421 181.033 251.351 180.963C251.281 180.892 251.21 180.822 251.14 180.752C251.07 180.682 251 180.541 250.93 180.331C250.859 180.19 250.789 179.98 250.789 179.769C250.719 179.558 250.719 179.348 250.719 179.207C250.719 179.067 250.789 178.856 250.789 178.716C250.789 178.575 250.859 178.505 250.859 178.435C250.859 178.364 250.93 178.364 250.93 178.364C250.93 178.364 250.859 178.505 250.789 178.786C250.789 178.926 250.719 179.067 250.719 179.207C250.719 179.348 250.719 179.558 250.789 179.769C250.859 179.98 250.859 180.12 250.93 180.26C251 180.401 251.07 180.541 251.14 180.682C251.281 180.892 251.421 181.033 251.421 181.033Z" fill="white"/>
<path d="M248.471 176.89C248.471 176.89 248.33 176.89 248.19 176.749C248.049 176.679 247.838 176.468 247.698 176.188C247.557 175.907 247.487 175.696 247.487 175.485C247.487 175.275 247.557 175.204 247.557 175.204C247.557 175.204 247.557 175.345 247.557 175.485C247.557 175.696 247.628 175.907 247.768 176.188C247.909 176.398 248.049 176.609 248.26 176.679C248.4 176.89 248.471 176.89 248.471 176.89Z" fill="white"/>
<path d="M254.723 185.316C254.723 185.316 254.582 185.316 254.372 185.246C254.161 185.176 253.88 184.965 253.739 184.684C253.599 184.404 253.529 184.052 253.599 183.842C253.669 183.631 253.739 183.491 253.739 183.491C253.739 183.491 253.669 183.631 253.669 183.842C253.669 184.052 253.669 184.333 253.81 184.614C253.95 184.895 254.231 185.036 254.372 185.176C254.582 185.316 254.723 185.316 254.723 185.316Z" fill="white"/>
<path d="M258.024 188.968C258.024 188.968 257.884 188.968 257.744 188.828C257.603 188.757 257.392 188.547 257.252 188.266C257.111 187.985 257.041 187.774 257.041 187.564C257.041 187.353 257.041 187.283 257.041 187.283C257.041 187.283 257.041 187.423 257.041 187.564C257.041 187.774 257.111 187.985 257.252 188.266C257.392 188.476 257.603 188.687 257.744 188.828C257.954 188.898 258.024 188.968 258.024 188.968Z" fill="white"/>
<path d="M255.917 166.637C255.917 166.637 255.847 166.567 255.777 166.497C255.706 166.427 255.636 166.356 255.566 166.286C255.496 166.216 255.425 166.146 255.355 166.005C255.215 165.795 255.004 165.584 254.863 165.303C254.723 165.022 254.512 164.671 254.372 164.32C254.231 163.969 254.161 163.618 254.02 163.267C253.95 162.916 253.88 162.635 253.88 162.424C253.88 162.284 253.88 162.213 253.88 162.073C253.88 162.003 253.88 161.862 253.88 161.792C253.88 161.652 253.88 161.581 253.88 161.581C253.88 161.581 253.88 161.652 253.88 161.792C253.88 161.862 253.88 161.932 253.88 162.073C253.88 162.143 253.88 162.284 253.88 162.424C253.88 162.705 253.95 162.986 254.02 163.267C254.091 163.618 254.231 163.969 254.372 164.32C254.512 164.671 254.653 165.022 254.863 165.303C255.004 165.584 255.215 165.865 255.355 166.005C255.425 166.076 255.496 166.216 255.566 166.286C255.636 166.356 255.706 166.427 255.706 166.497C255.847 166.567 255.917 166.637 255.917 166.637Z" fill="white"/>
<path d="M161.221 307.644H127.01C121.882 307.644 117.667 303.43 117.667 298.304V264.106C117.667 258.98 121.882 254.766 127.01 254.766H161.221C166.35 254.766 170.564 258.98 170.564 264.106V298.304C170.564 303.5 166.42 307.644 161.221 307.644Z" fill="#E0E0E0"/>
<path d="M151.738 307.644H117.526C112.398 307.644 108.183 303.43 108.183 298.304V264.106C108.183 258.98 112.398 254.766 117.526 254.766H151.738C156.866 254.766 161.081 258.98 161.081 264.106V298.304C161.081 303.5 156.866 307.644 151.738 307.644Z" fill="#EBEBEB"/>
<path d="M116.332 282.012L121.671 276.676L131.998 285.804L149.139 268.6L154.056 273.937L131.225 296.057L116.332 282.012Z" fill="white"/>
<path d="M39.0585 307.152H16.7193C11.5912 307.152 7.37622 302.939 7.37622 297.812V275.482C7.37622 270.356 11.5912 266.142 16.7193 266.142H39.0585C44.1867 266.142 48.4016 270.356 48.4016 275.482V297.812C48.4016 303.009 44.2569 307.152 39.0585 307.152Z" fill="#E0E0E0"/>
<path d="M31.6823 307.152H9.34311C4.21494 307.152 0 302.939 0 297.812V275.482C0 270.356 4.21494 266.142 9.34311 266.142H31.6823C36.8105 266.142 41.0254 270.356 41.0254 275.482V297.812C41.0254 303.009 36.8807 307.152 31.6823 307.152Z" fill="#EBEBEB"/>
<path d="M6.32251 287.279L10.4672 283.136L18.4756 290.228L31.7526 276.816L35.6163 280.959L17.8433 298.164L6.32251 287.279Z" fill="white"/>
<path d="M290.128 305.958C290.128 306.028 226.904 306.169 148.998 306.169C71.0217 306.169 7.86792 306.099 7.86792 305.958C7.86792 305.888 71.0217 305.748 148.998 305.748C226.974 305.748 290.128 305.888 290.128 305.958Z" fill="#263238"/>
<path d="M261.888 285.875C261.888 285.875 258.938 265.721 259.219 254.064C259.429 242.337 259.219 229.205 259.219 229.205H260.553C260.553 229.205 259.64 252.449 260.624 266.493C261.607 280.468 264.206 285.945 264.206 285.945H261.888" fill="#263238"/>
<path d="M270.599 206.524C270.318 205.821 269.967 205.119 269.405 204.698C268.562 204.136 267.438 204.347 266.454 204.698C262.38 206.172 258.797 213.756 257.111 217.759L262.52 236.017C272.285 226.888 273.971 215.02 270.599 206.524Z" fill="#455A64"/>
<path d="M269.053 205.4C269.053 205.4 269.053 205.47 268.983 205.611C268.913 205.751 268.843 206.032 268.702 206.243C268.491 206.804 268.14 207.647 267.719 208.7C266.946 210.737 265.892 213.686 264.979 216.916C264.066 220.147 263.433 223.166 263.082 225.343C262.871 226.467 262.731 227.309 262.661 227.941C262.59 228.222 262.59 228.433 262.52 228.644C262.52 228.784 262.45 228.854 262.45 228.854C262.45 228.854 262.45 228.784 262.45 228.573C262.45 228.363 262.52 228.152 262.52 227.871C262.59 227.239 262.731 226.396 262.871 225.273C263.223 223.096 263.785 220.076 264.698 216.776C265.611 213.476 266.665 210.596 267.508 208.56C267.929 207.507 268.281 206.734 268.562 206.172C268.702 205.892 268.772 205.681 268.843 205.54C268.983 205.47 269.053 205.4 269.053 205.4Z" fill="#263238"/>
<path d="M260.132 240.371C255.074 237.562 252.053 232.295 251.772 226.537C251.561 222.464 252.826 218.532 254.231 214.74C254.371 214.388 254.512 214.037 254.793 213.897C255.214 213.686 255.776 213.897 256.198 214.108C259.851 216.214 262.099 220.217 263.293 224.29C264.066 227.028 264.487 229.837 264.136 232.646C263.785 235.385 262.169 238.404 260.132 240.371Z" fill="#455A64"/>
<path d="M260.132 240.371C260.132 240.371 260.132 240.3 260.132 240.16C260.132 239.949 260.132 239.739 260.132 239.458C260.132 238.826 260.132 237.983 260.062 236.86C259.991 234.683 259.71 231.733 259.148 228.433C258.586 225.203 257.884 222.253 257.392 220.147C257.111 219.093 256.971 218.251 256.76 217.619C256.69 217.338 256.619 217.127 256.619 216.916C256.619 216.776 256.549 216.706 256.549 216.706C256.549 216.706 256.619 216.776 256.619 216.916C256.69 217.127 256.76 217.338 256.83 217.619C256.971 218.18 257.252 219.023 257.533 220.076C258.095 222.183 258.797 225.132 259.359 228.363C259.921 231.663 260.202 234.612 260.272 236.789C260.272 237.843 260.272 238.756 260.272 239.388C260.272 239.668 260.272 239.879 260.272 240.09C260.132 240.3 260.132 240.371 260.132 240.371Z" fill="#263238"/>
<g opacity="0.3">
<path d="M260.132 240.371C255.074 237.562 252.053 232.295 251.772 226.537C251.561 222.464 252.826 218.532 254.231 214.74C254.371 214.388 254.512 214.037 254.793 213.897C255.214 213.686 255.776 213.897 256.198 214.108C259.851 216.214 262.099 220.217 263.293 224.29C264.066 227.028 264.487 229.837 264.136 232.646C263.785 235.385 262.169 238.404 260.132 240.371Z" fill="black"/>
</g>
<path d="M265.822 271.128C270.81 272.252 274.954 275.763 279.731 277.448C282.893 278.572 286.545 278.993 289.074 281.24C288.442 279.695 287.037 278.642 285.632 277.799C281.698 275.341 277.413 273.305 272.987 271.76C270.739 270.988 268.281 270.356 265.963 270.988" fill="#455A64"/>
<path d="M258.586 275.622C252.334 275.552 245.731 270.215 239.549 269.864C246.082 267.757 255.355 269.443 258.586 275.622Z" fill="#455A64"/>
<path d="M261.045 260.595C264.206 259.471 267.719 259.401 271.02 259.892C274.322 260.384 277.553 261.508 280.785 262.561C280.434 260.384 278.677 258.769 277.062 257.294C275.797 256.241 274.603 255.117 273.128 254.275C271.723 253.432 270.107 252.87 268.421 252.94C266.454 253.011 264.557 254.064 263.223 255.539C261.958 257.084 261.256 258.628 261.045 260.595Z" fill="#455A64"/>
<path d="M248.189 253.713C244.256 250.342 238.284 250.693 233.086 250.764C241.024 254.556 249.594 259.752 256.479 265.3C256.76 261.718 253.177 257.926 248.189 253.713Z" fill="#455A64"/>
<g opacity="0.3">
<path d="M248.189 253.713C244.256 250.342 238.284 250.693 233.086 250.764C241.024 254.556 249.594 259.752 256.479 265.3C256.76 261.718 253.177 257.926 248.189 253.713Z" fill="black"/>
</g>
<path d="M262.801 249.078C264.768 247.744 266.805 246.48 268.843 245.567C270.88 244.654 272.847 243.109 274.814 242.056C277.413 240.652 279.661 238.685 282.049 236.93C284.438 235.174 287.037 233.629 289.988 233.138C287.599 232.646 285.14 232.927 282.822 233.559C280.504 234.191 278.256 235.174 276.078 236.228C272.987 237.632 269.896 239.036 267.367 241.284C264.838 243.531 262.52 245.708 262.801 249.078Z" fill="#455A64"/>
<path d="M279.661 275.622C279.661 275.622 279.591 275.622 279.45 275.552C279.31 275.482 279.099 275.412 278.888 275.271C278.397 274.99 277.764 274.639 276.921 274.218C276.5 274.007 276.008 273.796 275.516 273.516C275.025 273.235 274.463 273.024 273.901 272.743C272.777 272.252 271.442 271.76 270.037 271.409C268.632 271.058 267.227 270.988 266.033 271.339C265.4 271.479 264.838 271.62 264.347 271.83C263.855 272.041 263.363 272.252 262.942 272.532C262.169 273.024 261.607 273.586 261.186 273.937C260.834 274.358 260.624 274.569 260.624 274.569C260.624 274.569 260.624 274.499 260.764 274.358C260.834 274.218 260.975 274.077 261.115 273.867C261.467 273.445 262.029 272.884 262.801 272.392C263.223 272.111 263.644 271.9 264.206 271.62C264.698 271.409 265.33 271.268 265.962 271.058C267.227 270.707 268.632 270.777 270.107 271.128C271.512 271.479 272.847 271.971 273.971 272.532C274.533 272.813 275.095 273.024 275.587 273.305C276.078 273.586 276.57 273.796 276.992 274.007C277.835 274.428 278.467 274.85 278.959 275.131C279.169 275.271 279.31 275.341 279.45 275.482C279.591 275.552 279.661 275.552 279.661 275.622Z" fill="#263238"/>
<path d="M253.95 272.462C253.95 272.462 254.09 272.462 254.371 272.603C254.652 272.673 255.004 272.813 255.425 273.024C256.268 273.445 257.392 274.148 258.446 275.131C259.5 276.114 260.202 277.237 260.694 278.01C260.905 278.431 261.115 278.782 261.186 278.993C261.256 279.204 261.326 279.344 261.326 279.414C261.256 279.414 261.045 278.923 260.553 278.08C260.062 277.308 259.289 276.254 258.305 275.271C257.252 274.288 256.198 273.586 255.425 273.164C254.442 272.743 253.95 272.532 253.95 272.462Z" fill="#263238"/>
<path d="M240.111 253.362C240.111 253.362 240.181 253.362 240.392 253.432C240.603 253.502 240.813 253.572 241.165 253.713C241.516 253.853 241.867 253.994 242.359 254.134C242.851 254.275 243.342 254.556 243.904 254.836C246.152 255.89 249.173 257.575 252.053 260.033C253.458 261.297 254.793 262.561 255.847 263.755C256.9 265.019 257.814 266.142 258.516 267.196C259.219 268.179 259.781 269.021 260.132 269.653C260.343 269.934 260.483 270.145 260.553 270.356C260.624 270.496 260.694 270.566 260.694 270.566C260.694 270.566 260.624 270.496 260.553 270.356C260.413 270.215 260.272 270.004 260.062 269.724C259.64 269.162 259.078 268.319 258.376 267.336C257.673 266.353 256.76 265.159 255.636 263.965C254.582 262.772 253.247 261.508 251.842 260.244C248.962 257.786 246.012 256.1 243.764 255.047C243.202 254.766 242.71 254.556 242.289 254.345C241.867 254.134 241.446 253.994 241.094 253.853C240.813 253.713 240.532 253.643 240.392 253.572C240.181 253.432 240.111 253.362 240.111 253.362Z" fill="#263238"/>
<path d="M270.458 257.084C270.458 257.084 270.248 257.084 269.967 257.013C269.826 257.013 269.615 256.943 269.405 256.873C269.194 256.803 268.913 256.803 268.632 256.803C267.508 256.732 265.892 256.803 264.347 257.645C263.574 258.067 262.942 258.558 262.38 259.12C261.818 259.612 261.396 260.173 261.115 260.665C260.483 261.648 260.272 262.35 260.272 262.28C260.272 262.28 260.272 262.069 260.413 261.788C260.553 261.508 260.694 261.016 261.045 260.524C261.326 260.033 261.747 259.471 262.309 258.909C262.871 258.348 263.504 257.786 264.276 257.435C265.892 256.592 267.578 256.522 268.702 256.662C268.983 256.732 269.264 256.732 269.475 256.803C269.686 256.873 269.896 256.873 270.037 256.943C270.248 257.013 270.458 257.084 270.458 257.084Z" fill="#263238"/>
<path d="M276.711 237.562C276.711 237.562 276.64 237.632 276.5 237.702C276.289 237.772 276.078 237.913 275.797 238.053C275.165 238.404 274.322 238.896 273.268 239.458C272.215 240.09 270.95 240.862 269.615 241.845C268.281 242.758 266.876 243.882 265.541 245.216C264.909 245.918 264.277 246.62 263.855 247.323C263.434 248.095 263.082 248.868 262.661 249.57C261.958 251.044 261.326 252.379 260.905 253.502C260.483 254.626 260.202 255.609 260.062 256.311C259.921 257.013 259.851 257.364 259.851 257.364C259.851 257.364 259.851 257.294 259.851 257.084C259.851 256.873 259.921 256.662 259.991 256.311C260.132 255.609 260.343 254.626 260.764 253.502C261.186 252.308 261.748 250.974 262.45 249.5C262.801 248.797 263.223 248.025 263.574 247.182C263.996 246.41 264.628 245.637 265.26 245.005C266.595 243.671 268 242.548 269.334 241.635C270.669 240.722 271.934 239.949 272.987 239.317C274.041 238.685 274.954 238.264 275.587 237.913C275.868 237.772 276.149 237.632 276.289 237.562C276.64 237.632 276.711 237.562 276.711 237.562Z" fill="#263238"/>
<path d="M259.148 256.522C259.148 256.522 259.078 256.311 259.008 255.96C258.938 255.609 258.867 255.117 258.727 254.485C258.516 253.292 258.095 251.606 257.533 249.78C256.971 247.955 256.268 246.41 255.776 245.286C255.566 244.724 255.355 244.303 255.144 243.952C255.004 243.601 254.933 243.46 254.933 243.46C254.933 243.46 255.074 243.601 255.214 243.952C255.355 244.233 255.636 244.724 255.917 245.286C256.479 246.41 257.181 247.955 257.743 249.78C258.305 251.606 258.657 253.292 258.867 254.485C258.938 255.117 259.008 255.609 259.078 255.96C259.148 256.311 259.219 256.522 259.148 256.522Z" fill="#263238"/>
<path d="M258.727 242.267C258.586 239.879 257.814 237.632 256.69 235.525C253.669 229.767 247.979 225.554 241.586 224.29C246.223 231.242 250.929 238.194 255.566 245.146L257.392 248.868C258.586 246.831 258.867 244.654 258.727 242.267Z" fill="#455A64"/>
<path d="M278.818 283.347H246.293V289.105H278.818V283.347Z" fill="#D35400"/>
<path d="M248.681 287.981L251.491 305.818H273.058L276.359 287.981H248.681Z" fill="#D35400"/>
<path d="M278.748 289.105C278.748 289.175 271.442 289.245 262.38 289.245C253.318 289.245 246.012 289.175 246.012 289.105C246.012 289.035 253.318 288.964 262.38 288.964C271.442 289.035 278.748 289.035 278.748 289.105Z" fill="#263238"/>
<path d="M76.7823 305.958H47.91C42.7818 305.958 38.5669 301.745 38.5669 296.619V267.757C38.5669 262.631 42.7818 258.418 47.91 258.418H76.7823C81.9105 258.418 86.1254 262.631 86.1254 267.757V296.619C86.1254 301.745 81.9105 305.958 76.7823 305.958Z" fill="#14A351"/>
<g opacity="0.3">
<path d="M76.7823 305.958H47.91C42.7818 305.958 38.5669 301.745 38.5669 296.619V267.757C38.5669 262.631 42.7818 258.418 47.91 258.418H76.7823C81.9105 258.418 86.1254 262.631 86.1254 267.757V296.619C86.1254 301.745 81.9105 305.958 76.7823 305.958Z" fill="#15A753"/>
</g>
<path d="M68.2118 305.958H39.4098C34.2816 305.958 30.0667 301.745 30.0667 296.619V267.757C30.0667 262.631 34.2816 258.418 39.4098 258.418H68.2821C73.4103 258.418 77.6252 262.631 77.6252 267.757V296.619C77.5549 301.745 73.4103 305.958 68.2118 305.958Z" fill="#2ECC71"/>
<path d="M37.3726 282.855L42.1495 278.08L51.4223 286.296L66.8771 270.847L71.3028 275.622L50.7199 295.565L37.3726 282.855Z" fill="white"/>
<path d="M101.72 305.958H82.8937C79.7325 305.958 77.1333 303.36 77.1333 300.2V281.38C77.1333 278.22 79.7325 275.622 82.8937 275.622H101.72C104.882 275.622 107.481 278.22 107.481 281.38V300.2C107.551 303.36 104.952 305.958 101.72 305.958Z" fill="#263238"/>
<path d="M96.3113 305.958H77.4845C74.3233 305.958 71.7241 303.36 71.7241 300.2V281.38C71.7241 278.22 74.3233 275.622 77.4845 275.622H96.3113C99.4725 275.622 102.072 278.22 102.072 281.38V300.2C102.072 303.36 99.4725 305.958 96.3113 305.958Z" fill="#455A64"/>
<path d="M76.3606 291.212L79.3813 288.122L85.3525 293.388L95.1873 283.487L98.0675 286.577L84.8607 299.287L76.3606 291.212Z" fill="white"/>
<path d="M176.887 214.88H30.1368C27.3268 214.88 25.0789 212.633 25.0789 209.824V5.26666C25.0789 2.45777 27.3268 0.210663 30.1368 0.210663H176.887C179.697 0.210663 181.945 2.45777 181.945 5.26666V209.894C181.945 212.633 179.697 214.88 176.887 214.88Z" fill="white"/>
<path d="M176.887 214.88C176.887 214.81 177.589 214.95 178.713 214.529C179.275 214.318 179.978 213.897 180.61 213.195C181.242 212.492 181.734 211.509 181.875 210.316C181.945 205.4 181.875 198.237 181.875 188.898C181.875 170.289 181.875 143.394 181.804 110.179C181.804 93.536 181.804 75.3484 181.804 55.8267C181.804 46.0658 181.804 35.9538 181.804 25.5609C181.804 20.3644 181.804 15.0978 181.804 9.76089C181.804 8.42667 181.804 7.09244 181.804 5.75822C181.875 4.424 181.523 3.08978 180.68 2.10667C179.837 1.12356 178.573 0.421333 177.238 0.351111C175.903 0.351111 174.498 0.351111 173.164 0.351111C129.188 0.351111 80.9268 0.351111 30.2071 0.351111C28.6616 0.351111 27.1864 1.12356 26.2731 2.31733C25.7814 2.94933 25.5004 3.65156 25.3599 4.424C25.2194 5.19644 25.2896 5.96889 25.2896 6.74133C25.2896 9.90133 25.2896 13.0613 25.2896 16.1511C25.2896 22.4009 25.2896 28.6507 25.2896 34.8302C25.2896 47.1893 25.2896 59.3378 25.2896 71.2756C25.2896 95.1511 25.2896 118.254 25.2896 140.234C25.2896 162.213 25.2896 183.069 25.2896 202.591C25.2896 205.049 25.2896 207.436 25.2896 209.824C25.2896 211.018 25.7111 212.141 26.4839 212.984C27.2566 213.897 28.3103 214.459 29.4343 214.599C29.9963 214.669 30.5583 214.669 31.1906 214.669C31.7525 214.669 32.3848 214.669 32.9468 214.669C34.141 214.669 35.265 214.669 36.4592 214.669C38.7774 214.669 41.0957 214.669 43.3436 214.669C52.4057 214.669 61.1166 214.669 69.406 214.669C102.634 214.669 129.539 214.74 148.155 214.74C157.428 214.74 164.664 214.74 169.581 214.74C172.04 214.74 173.866 214.74 175.131 214.74C176.255 214.88 176.887 214.88 176.887 214.88C176.887 214.88 176.255 214.88 174.99 214.88C173.726 214.88 171.899 214.88 169.44 214.88C164.523 214.88 157.358 214.88 148.015 214.88C129.399 214.88 102.563 214.88 69.2655 214.95C60.9761 214.95 52.2652 214.95 43.2031 214.95C40.9552 214.95 38.6369 214.95 36.3187 214.95C35.1947 214.95 34.0005 214.95 32.8063 214.95C32.2443 214.95 31.612 214.95 31.0501 214.95C30.4881 214.95 29.8558 214.95 29.2938 214.88C28.0996 214.669 26.9756 214.108 26.1326 213.124C25.3599 212.212 24.8681 210.948 24.8681 209.754C24.8681 207.366 24.8681 204.908 24.8681 202.521C24.8681 182.999 24.8681 162.143 24.8681 140.164C24.8681 118.184 24.8681 95.1511 24.8681 71.2053C24.8681 59.2676 24.8681 47.1191 24.8681 34.76C24.8681 28.5804 24.8681 22.4009 24.8681 16.0809C24.8681 12.9209 24.8681 9.83111 24.8681 6.67111C24.8681 5.89867 24.7979 5.12622 24.9384 4.28356C25.0789 3.58133 25.4301 2.80889 25.9219 2.10667C26.9054 0.772444 28.5211 0 30.1368 0C80.8566 0 129.188 0 173.093 0C174.498 0 175.833 0 177.238 0C178.643 0.0702222 179.978 0.772444 180.891 1.82578C181.804 2.87911 182.226 4.35378 182.085 5.688C182.085 7.02222 182.085 8.35644 182.085 9.69067C182.085 15.0276 182.085 20.2942 182.085 25.4907C182.085 35.8836 182.085 45.9956 182.085 55.7564C182.085 75.2782 182.085 93.4658 182.085 110.108C182.085 143.324 182.015 170.219 182.015 188.828C182.015 198.097 182.015 205.33 181.945 210.245C181.804 211.439 181.313 212.492 180.68 213.195C180.048 213.897 179.346 214.318 178.784 214.529C178.222 214.74 177.73 214.81 177.379 214.88C177.098 214.88 176.887 214.88 176.887 214.88Z" fill="#263238"/>
<path d="M153.283 73.312H83.7367C81.278 73.312 79.311 71.3458 79.311 68.888V68.4667C79.311 66.0089 81.278 64.0427 83.7367 64.0427H153.283C155.742 64.0427 157.709 66.0089 157.709 68.4667V68.888C157.709 71.3458 155.742 73.312 153.283 73.312Z" fill="#E0E0E0"/>
<path d="M67.2282 79.9831H52.9677C51.0007 79.9831 49.385 78.368 49.385 76.4018V62.1467C49.385 60.1804 51.0007 58.5653 52.9677 58.5653H67.2282C69.1952 58.5653 70.8109 60.1804 70.8109 62.1467V76.4018C70.8812 78.368 69.2655 79.9831 67.2282 79.9831Z" fill="#2ECC71"/>
<path d="M52.6868 69.5902L54.8645 67.4133L59.0092 71.1351L65.9638 64.1129L68.001 66.2898L58.7282 75.2782L52.6868 69.5902Z" fill="white"/>
<path d="M153.283 106.668H83.7367C81.278 106.668 79.311 104.701 79.311 102.244V101.822C79.311 99.3644 81.278 97.3982 83.7367 97.3982H153.283C155.742 97.3982 157.709 99.3644 157.709 101.822V102.244C157.709 104.701 155.742 106.668 153.283 106.668Z" fill="#E0E0E0"/>
<path d="M67.2282 113.339H52.9677C51.0007 113.339 49.385 111.724 49.385 109.757V95.5022C49.385 93.536 51.0007 91.9209 52.9677 91.9209H67.2282C69.1952 91.9209 70.8109 93.536 70.8109 95.5022V109.757C70.8812 111.724 69.2655 113.339 67.2282 113.339Z" fill="#2ECC71"/>
<path d="M52.6868 102.876L54.8645 100.769L59.0092 104.42L65.9638 97.4684L68.001 99.6453L58.7282 108.634L52.6868 102.876Z" fill="white"/>
<path d="M153.283 140.023H83.7367C81.278 140.023 79.311 138.057 79.311 135.599V135.178C79.311 132.72 81.278 130.754 83.7367 130.754H153.283C155.742 130.754 157.709 132.72 157.709 135.178V135.599C157.709 137.987 155.742 140.023 153.283 140.023Z" fill="#E0E0E0"/>
<path d="M67.2282 146.694H52.9677C51.0007 146.694 49.385 145.079 49.385 143.113V128.858C49.385 126.892 51.0007 125.276 52.9677 125.276H67.2282C69.1952 125.276 70.8109 126.892 70.8109 128.858V143.113C70.8812 145.079 69.2655 146.694 67.2282 146.694Z" fill="#2ECC71"/>
<path d="M52.6868 136.231L54.8645 134.054L59.0092 137.776L65.9638 130.824L68.001 132.931L58.7282 141.989L52.6868 136.231Z" fill="white"/>
<path d="M153.283 173.308H83.7367C81.278 173.308 79.311 171.342 79.311 168.884V168.463C79.311 166.005 81.278 164.039 83.7367 164.039H153.283C155.742 164.039 157.709 166.005 157.709 168.463V168.884C157.709 171.342 155.742 173.308 153.283 173.308Z" fill="#E0E0E0"/>
<path d="M67.2282 180.05H52.9677C51.0007 180.05 49.385 178.435 49.385 176.468V162.213C49.385 160.247 51.0007 158.632 52.9677 158.632H67.2282C69.1952 158.632 70.8109 160.247 70.8109 162.213V176.468C70.8812 178.435 69.2655 180.05 67.2282 180.05Z" fill="#2ECC71"/>
<path d="M52.6868 169.587L54.8645 167.41L59.0092 171.132L65.9638 164.109L68.001 166.286L58.7282 175.275L52.6868 169.587Z" fill="white"/>
<path d="M209.552 281.17L208.92 297.04C208.92 297.04 224.867 303.009 225.007 305.888L194.238 305.818L194.168 281.1L209.552 281.17Z" fill="#263238"/>
<path d="M199.437 295.636C198.875 295.776 198.453 296.478 198.594 297.04C198.734 297.672 199.437 298.093 199.999 297.883C200.631 297.742 201.123 296.97 200.912 296.338C200.701 295.776 199.858 295.284 199.366 295.565" fill="#E0E0E0"/>
<path d="M194.309 305.818L194.379 303.29L223.883 304.273C223.883 304.273 225.218 304.905 225.078 305.818H194.309Z" fill="#455A64"/>
<path d="M209.482 296.829C209.482 296.97 208.71 297.04 208.007 297.532C207.234 298.023 206.883 298.655 206.743 298.585C206.602 298.585 206.813 297.672 207.726 297.11C208.639 296.548 209.482 296.689 209.482 296.829Z" fill="white"/>
<path d="M212.714 298.164C212.714 298.304 212.081 298.585 211.59 299.217C211.028 299.849 210.957 300.551 210.747 300.551C210.606 300.551 210.536 299.708 211.168 298.936C211.8 298.093 212.714 298.023 212.714 298.164Z" fill="white"/>
<path d="M214.54 302.096C214.4 302.096 214.189 301.394 214.61 300.551C214.962 299.708 215.734 299.428 215.734 299.498C215.805 299.638 215.383 300.06 215.032 300.762C214.751 301.394 214.681 302.026 214.54 302.096Z" fill="white"/>
<path d="M209.201 293.248C209.131 293.388 208.429 293.178 207.586 293.248C206.743 293.318 206.04 293.599 205.97 293.459C205.9 293.318 206.532 292.827 207.515 292.756C208.569 292.616 209.272 293.108 209.201 293.248Z" fill="white"/>
<path d="M171.899 278.993L170.213 298.093L173.234 313.612C173.444 314.736 172.672 315.789 171.548 315.93C170.916 316 170.283 315.789 169.862 315.298C167.122 312.278 157.076 301.253 157.287 299.849C157.498 298.234 157.709 279.555 157.709 279.555L171.899 278.993Z" fill="#263238"/>
<path d="M171.548 315.93L157.357 298.585L157.287 299.428C157.217 300.13 157.428 300.832 157.849 301.394C158.973 302.868 162.205 307.012 169.792 315.368C170.283 315.789 170.916 316.07 171.548 315.93Z" fill="#455A64"/>
<g opacity="0.6">
<path d="M161.713 292.686C162.205 293.037 162.275 293.81 161.924 294.231C161.573 294.723 160.8 294.793 160.378 294.442C159.887 294.091 159.746 293.178 160.168 292.756C160.589 292.335 161.432 292.265 161.783 292.686" fill="white"/>
</g>
<path d="M167.754 307.292C167.825 307.363 168.387 306.38 169.511 305.888C170.705 305.396 171.688 305.748 171.759 305.607C171.759 305.537 171.548 305.396 171.126 305.326C170.705 305.256 170.002 305.256 169.37 305.537C168.738 305.818 168.246 306.239 168.035 306.66C167.754 307.012 167.684 307.292 167.754 307.292Z" fill="white"/>
<path d="M168.948 309.961C169.019 310.031 169.721 309.469 170.705 309.259C171.688 309.048 172.531 309.259 172.601 309.118C172.672 309.048 171.758 308.556 170.634 308.837C169.44 309.118 168.878 309.891 168.948 309.961Z" fill="white"/>
<path d="M165.436 303.852C165.506 303.922 166.49 303.079 168.035 302.588C169.581 302.096 170.916 302.236 170.916 302.096C170.986 302.026 169.581 301.604 167.895 302.166C166.279 302.658 165.296 303.781 165.436 303.852Z" fill="white"/>
<path d="M165.436 298.023C165.506 298.164 166.56 297.742 167.965 297.812C169.37 297.812 170.424 298.234 170.494 298.164C170.564 298.093 169.511 297.461 168.035 297.391C166.49 297.321 165.366 297.883 165.436 298.023Z" fill="white"/>
<path d="M165.787 292.405C165.858 292.546 166.911 291.984 168.387 292.124C169.862 292.265 170.845 293.037 170.916 292.897C170.916 292.827 170.775 292.616 170.354 292.335C169.932 292.054 169.23 291.773 168.457 291.703C167.684 291.633 166.982 291.773 166.49 291.984C165.998 292.124 165.787 292.335 165.787 292.405Z" fill="white"/>
<path d="M168.386 291.001C168.386 291.001 168.457 290.72 168.457 290.299C168.457 289.807 168.386 289.175 168.035 288.332C167.825 287.981 167.684 287.49 167.122 287.209C166.841 287.068 166.49 287.068 166.209 287.349C165.998 287.56 165.858 287.911 165.858 288.192C165.787 289.386 166.771 290.65 168.106 290.931C169.44 291.141 170.775 290.439 171.407 289.456C171.548 289.175 171.618 288.894 171.548 288.543C171.407 288.192 171.056 288.052 170.775 288.052C170.213 288.122 169.791 288.403 169.44 288.613C168.738 289.105 168.316 289.667 168.035 290.018C167.754 290.439 167.684 290.65 167.684 290.65C167.754 290.72 168.246 289.737 169.581 288.824C169.932 288.613 170.283 288.332 170.705 288.332C170.915 288.332 171.056 288.403 171.126 288.613C171.196 288.754 171.126 289.035 170.986 289.245C170.494 290.088 169.3 290.72 168.106 290.509C166.982 290.299 166.139 289.175 166.139 288.192C166.139 287.981 166.209 287.7 166.349 287.56C166.49 287.42 166.701 287.42 166.841 287.49C167.192 287.63 167.403 288.052 167.614 288.403C168.457 289.948 168.316 291.001 168.386 291.001Z" fill="white"/>
<path d="M224.445 147.537C224.445 147.537 226.764 156.596 225.921 167.55C225.569 171.834 211.239 289.667 211.239 289.667H191.78L197.259 178.926L195.643 179.277C195.643 179.277 185.036 226.537 184.193 234.191C183.42 241.073 174.498 291.001 174.498 291.001L156.725 291.212L162.416 225.132L169.019 161.722L171.478 143.253L224.445 147.537Z" fill="#263238"/>
<path d="M196.556 171.412C196.556 171.412 196.556 171.483 196.697 171.553C196.767 171.623 196.978 171.693 197.189 171.764C197.61 171.904 198.383 171.834 199.015 171.342C199.718 170.851 200.139 169.868 200.28 168.814C200.42 167.761 200.42 166.637 200.49 165.444C200.631 163.056 200.701 160.879 200.771 159.334C200.842 157.789 200.842 156.806 200.771 156.806C200.701 156.806 200.631 157.789 200.49 159.334C200.35 160.879 200.209 163.056 200.069 165.444C199.999 166.637 199.999 167.761 199.858 168.814C199.718 169.797 199.366 170.71 198.804 171.132C198.242 171.623 197.54 171.693 197.189 171.623C196.767 171.553 196.556 171.342 196.556 171.412Z" fill="#455A64"/>
<path d="M167.965 159.966C167.965 159.966 168.176 160.036 168.527 160.177C168.878 160.247 169.44 160.388 170.073 160.458C171.407 160.598 173.304 160.458 175.201 159.685C177.097 158.913 178.573 157.719 179.416 156.666C179.837 156.174 180.188 155.753 180.329 155.402C180.54 155.051 180.61 154.91 180.61 154.91C180.54 154.84 180.118 155.542 179.205 156.525C178.292 157.438 176.887 158.632 175.06 159.334C173.234 160.107 171.407 160.247 170.073 160.177C168.808 160.107 167.965 159.896 167.965 159.966Z" fill="#455A64"/>
<path d="M216.648 155.051C216.577 155.051 216.648 155.823 216.929 157.017C217.21 158.211 217.842 159.826 218.896 161.371C219.949 162.916 221.144 164.109 222.127 164.882C223.111 165.584 223.813 165.935 223.813 165.935C223.883 165.865 221.214 164.32 219.177 161.23C217.21 158.07 216.788 155.051 216.648 155.051Z" fill="#455A64"/>
<path d="M276.008 121.695L280.434 123.1L288.512 118.676L293.149 131.456L282.12 134.054L273.76 133.141L276.008 121.695Z" fill="#AE7461"/>
<path d="M224.164 70.3627C224.164 70.3627 228.73 73.1013 232.454 82.3707C239.83 100.628 244.537 110.46 244.537 110.46L278.537 121.204L275.797 134.827C275.797 134.827 241.305 130.052 236.739 128.296C230.416 125.908 225.71 113.479 225.71 113.479L224.164 70.3627Z" fill="#E0E0E0"/>
<path d="M214.821 29.4933C216.577 29.6338 218.334 28.2293 218.615 26.4738C218.896 24.7182 217.701 22.8924 216.015 22.4009C217.069 21.2071 217.21 19.3813 216.437 18.0471C215.664 16.7129 213.978 15.9404 212.433 16.2916C212.292 14.7467 211.309 13.3422 209.904 12.7102C208.499 12.0782 206.813 12.1484 205.478 12.9911C203.722 11.6569 200.982 11.7271 199.296 13.2018C197.821 12.9911 196.205 13.904 195.573 15.2382C194.941 16.6427 195.292 18.3982 196.416 19.3813" fill="#263238"/>
<path d="M198.734 16.7831L199.507 16.7129C207.445 16.2916 214.33 22.0498 215.383 29.9147C216.367 37.2178 217.28 45.2933 217.42 49.2258C217.701 57.3716 209.623 59.0569 209.623 59.0569L210.817 68.8178L191.007 69.1689L187.494 33.7067C186.3 25.4205 190.234 17.696 198.734 16.7831Z" fill="#AE7461"/>
<path d="M209.693 59.1271C209.693 59.1271 204.494 59.6889 198.875 56.5289C198.875 56.5289 201.684 62.2871 209.763 61.1636L209.693 59.1271Z" fill="#6F4439"/>
<path d="M212.433 37.4987C212.503 38.1307 212.011 38.6925 211.379 38.7627C210.747 38.8329 210.185 38.4116 210.114 37.7796C210.044 37.1476 210.536 36.5858 211.168 36.5156C211.8 36.4453 212.362 36.8667 212.433 37.4987Z" fill="#263238"/>
<path d="M213.838 34.0578C213.697 34.1982 212.784 33.6365 211.519 33.7067C210.255 33.7769 209.412 34.4791 209.201 34.2685C209.131 34.1982 209.271 33.9173 209.623 33.6365C209.974 33.3556 210.676 33.0045 211.449 33.0045C212.222 33.0045 212.924 33.2151 213.276 33.496C213.767 33.7067 213.908 33.9876 213.838 34.0578Z" fill="#263238"/>
<path d="M200.982 37.7796C201.052 38.4116 200.561 38.9733 199.928 39.0436C199.296 39.1138 198.734 38.6925 198.664 38.0605C198.594 37.4285 199.085 36.8667 199.718 36.7965C200.35 36.7262 200.912 37.2178 200.982 37.7796Z" fill="#263238"/>
<path d="M201.474 34.9005C201.333 35.0409 200.42 34.4791 199.156 34.5493C197.891 34.6196 197.048 35.3218 196.837 35.1111C196.767 35.0409 196.908 34.76 197.259 34.4791C197.61 34.1982 198.313 33.8471 199.085 33.8471C199.858 33.8471 200.561 34.0578 200.912 34.3387C201.404 34.5493 201.544 34.8302 201.474 34.9005Z" fill="#263238"/>
<path d="M206.532 43.9591C206.532 43.8889 207.305 43.7485 208.569 43.4676C208.92 43.3973 209.201 43.3271 209.201 43.1165C209.272 42.9058 209.131 42.5547 208.92 42.2036C208.569 41.4311 208.218 40.6587 207.867 39.816C206.391 36.4453 205.267 33.6365 205.408 33.5662C205.548 33.496 206.883 36.2347 208.358 39.6053C208.71 40.448 209.061 41.2205 209.412 41.9929C209.553 42.344 209.763 42.7653 209.623 43.2569C209.553 43.4676 209.342 43.6782 209.131 43.7485C208.92 43.8187 208.78 43.8187 208.569 43.8187C207.305 43.9591 206.532 44.0293 206.532 43.9591Z" fill="#263238"/>
<path d="M202.317 29.9849C202.176 30.336 201.052 29.9849 199.718 30.0551C198.383 30.0551 197.259 30.336 197.118 30.0551C197.048 29.9147 197.259 29.6338 197.751 29.3529C198.242 29.072 198.945 28.8613 199.718 28.8613C200.49 28.8613 201.193 29.072 201.685 29.3529C202.176 29.5636 202.387 29.8445 202.317 29.9849Z" fill="#263238"/>
<path d="M213.627 28.8613C213.346 29.1422 212.362 28.9316 211.098 28.9316C209.833 28.9316 208.78 29.2125 208.569 28.9316C208.428 28.7911 208.639 28.5102 209.061 28.2293C209.482 27.9485 210.255 27.6676 211.098 27.6676C211.941 27.6676 212.714 27.8782 213.135 28.1591C213.557 28.44 213.697 28.7209 213.627 28.8613Z" fill="#263238"/>
<path d="M214.4 26.2631C214.4 26.2631 212.011 21.2773 209.482 20.224C206.461 18.96 205.337 22.2605 202.457 21.6285C199.577 20.9965 196.627 19.7325 193.887 22.0498C190.796 24.5778 192.412 26.1929 192.412 29.8445C192.341 44.5209 189.883 48.8045 188.759 41.9929C188.618 41.2205 186.511 40.7289 186.019 37.5689C185.387 33.4258 184.965 28.44 185.808 25.4205C186.44 22.8925 187.775 21.1369 190.234 19.1005C194.098 15.9405 199.577 15.5893 203.37 15.8C207.023 15.8702 214.4 19.8729 214.4 26.2631Z" fill="#263238"/>
<path d="M189.18 41.712C189.04 40.448 187.916 39.5351 186.651 39.6756C185.106 39.8862 183.49 40.8694 183.771 43.9591C184.193 49.5067 189.742 47.8916 189.742 47.7511C189.742 47.6809 189.391 44.0294 189.18 41.712Z" fill="#AE7461"/>
<path d="M188.337 45.7849C188.337 45.7849 188.267 45.8551 188.056 45.9253C187.916 45.9956 187.635 46.0658 187.354 45.9956C186.721 45.8551 186.159 44.9422 186.089 43.9591C186.019 43.4676 186.089 42.976 186.23 42.5547C186.37 42.1333 186.581 41.8525 186.932 41.7822C187.213 41.712 187.424 41.8525 187.494 41.9929C187.564 42.1333 187.564 42.2738 187.564 42.2738C187.564 42.2738 187.705 42.2036 187.635 41.9227C187.635 41.7822 187.494 41.712 187.354 41.5716C187.213 41.5013 187.002 41.4311 186.792 41.5013C186.37 41.5716 186.019 41.9929 185.878 42.4142C185.668 42.9058 185.597 43.3973 185.668 43.9591C185.808 45.0827 186.44 46.0658 187.283 46.2765C187.705 46.3467 187.986 46.2062 188.126 46.0658C188.337 45.9253 188.337 45.7849 188.337 45.7849Z" fill="#6F4439"/>
<path d="M188.759 30.8978C189.532 31.3893 190.304 31.8107 191.147 31.8809C191.99 31.9511 192.974 31.3893 193.114 30.4765C193.184 30.0551 193.044 29.6338 193.255 29.3529C193.536 29.0018 194.098 29.072 194.589 29.072C196.205 29.1422 198.032 27.2462 198.383 25.7013C198.804 26.3333 199.718 26.4738 200.35 25.9822C200.982 25.5609 201.193 25.28 201.614 24.7182C202.106 24.1565 202.738 23.5947 203.511 23.6649C203.933 23.7351 204.354 23.9458 204.705 23.8756C205.408 23.8053 205.759 22.8925 205.829 22.1902C205.9 21.488 205.97 20.5751 206.532 20.1538C207.094 19.7325 207.866 19.9431 208.499 20.0133C209.201 20.0836 210.044 19.8729 210.185 19.2409C210.255 18.8898 210.114 18.5387 209.904 18.2578C208.99 16.9236 207.023 16.432 205.548 17.1342C204.916 15.3085 203.09 13.9742 201.193 13.8338C199.296 13.6933 197.329 14.8871 196.486 16.5725C195.222 15.5893 193.536 15.168 191.99 15.6596C190.445 16.0809 189.18 17.2747 188.618 18.8196C187.213 18.5387 185.738 19.1005 184.895 20.2942C184.122 21.4178 184.052 23.1031 184.825 24.2969C183.841 24.9289 183.069 25.9822 183.069 27.1058C183.139 28.2293 184.263 29.3529 185.387 29.0018C184.965 29.9147 185.387 31.1085 186.3 31.6C187.213 32.0916 188.408 31.6702 188.899 30.8276" fill="#263238"/>
<path d="M206.11 18.6791C206.11 18.6791 206.11 18.6791 206.11 18.7493C206.11 18.8196 206.11 18.8898 206.11 19.0302C206.04 19.3111 205.97 19.6622 205.759 20.1538C205.548 20.5751 205.197 21.1369 204.565 21.5582C204.003 21.9796 203.23 22.3307 202.317 22.3307L202.387 22.1902C202.598 22.6818 202.598 23.2436 202.317 23.7351C202.106 24.2267 201.755 24.7182 201.403 25.1396C201.193 25.3502 201.052 25.6311 200.841 25.8418C200.56 26.0525 200.28 26.1929 199.999 26.1929C199.366 26.3333 198.664 26.1227 198.172 25.6311L198.383 25.5609C198.313 26.6845 197.751 27.808 196.767 28.5102C196.275 28.9316 195.643 29.2125 194.941 29.2125C194.308 29.2125 193.676 29.072 193.114 28.9316L193.255 28.8613C192.974 29.5636 192.552 30.1956 191.99 30.6169C191.428 31.1085 190.726 31.3893 190.093 31.2489C188.759 31.0382 187.845 29.9849 187.635 28.9316L187.775 29.0018C187.143 29.4231 186.44 29.4933 185.878 29.3529C185.316 29.2827 184.825 29.072 184.544 28.7911C184.192 28.5805 183.982 28.2996 183.911 28.1591C183.771 27.9485 183.771 27.8782 183.771 27.8782C183.771 27.8782 183.982 28.2996 184.614 28.7209C184.965 28.9316 185.387 29.1422 185.949 29.2125C186.511 29.2827 187.143 29.2125 187.775 28.7911L187.845 28.7209V28.8613C188.056 29.8445 188.969 30.8276 190.164 30.968C190.796 31.1085 191.428 30.8276 191.92 30.4062C192.412 29.9849 192.833 29.3529 193.114 28.7209L193.184 28.5805H193.325C193.887 28.7209 194.449 28.9316 195.081 28.8613C195.713 28.8613 196.275 28.5805 196.767 28.2293C197.68 27.5271 198.242 26.4738 198.313 25.4205V25.1396L198.523 25.3502C198.945 25.7716 199.577 25.912 200.139 25.8418C200.42 25.7716 200.701 25.7013 200.912 25.4907C201.122 25.3502 201.263 25.0693 201.474 24.8587C201.825 24.4373 202.176 23.9458 202.317 23.5245C202.527 23.0329 202.527 22.5413 202.387 22.12L202.317 21.9796H202.457C203.3 21.9796 204.073 21.6987 204.635 21.2773C205.197 20.856 205.548 20.3645 205.829 19.9431C206.11 19.2409 206.04 18.6791 206.11 18.6791Z" fill="#455A64"/>
<path d="M206.462 48.2427C206.391 48.032 205.057 48.3831 203.792 47.4702C202.528 46.5573 202.317 45.0827 202.106 45.1529C202.036 45.1529 201.895 45.5742 202.106 46.136C202.247 46.768 202.668 47.5405 203.441 48.1022C204.214 48.664 205.057 48.7342 205.689 48.664C206.181 48.5938 206.462 48.3129 206.462 48.2427Z" fill="#263238"/>
<path d="M239.549 99.7858C239.409 99.3645 232.173 79.5618 229.855 75.2782C227.115 70.0818 221.284 67.8347 217.631 67.624C214.049 67.4133 175.271 70.5031 175.271 70.5031C175.271 70.5031 163.68 73.1013 162.205 83.0027C160.519 94.4489 159.044 120.642 159.044 120.642L176.676 111.583L178.924 105.825L215.383 113.971L224.305 100.839L239.549 99.7858Z" fill="#E0E0E0"/>
<path d="M172.742 71.5565L187.846 64.8853L189.532 58.3547L207.234 66.7111L210.958 62.6382L212.503 67.2729L216.367 68.5369L225.429 84.4071V118.254L227.255 147.467L225.288 152.101L209.061 154.489C207.305 154.77 205.478 154.77 203.722 154.489L170.845 149.152L170.002 139.532L173.515 112.917L172.742 71.5565Z" fill="#E0E0E0"/>
<path d="M189.602 58.4249C189.602 58.4249 191.569 58.9867 196.627 61.7253C201.544 64.3236 207.234 66.7111 207.234 66.7111L206.813 74.6462L187.986 65.3067" fill="#E0E0E0"/>
<path d="M210.887 62.6382L207.234 66.7111L209.201 75.2782L212.503 67.5538" fill="#E0E0E0"/>
<g opacity="0.3">
<path d="M207.305 67.624C207.445 67.7645 208.499 77.4551 208.499 77.4551L189.672 66.0791L206.813 74.6462L207.305 67.624Z" fill="black"/>
</g>
<path d="M207.164 103.929C206.883 96.4853 208.077 77.5253 208.077 77.5253L210.536 77.104C210.536 77.104 215.102 95.5725 216.859 118.184C217.561 127.313 217.561 137.916 217.561 137.916L212.644 148.52L207.164 137.987C207.094 138.057 207.515 112.988 207.164 103.929Z" fill="#455A64"/>
<path d="M171.618 72.7502C171.618 72.8205 172.11 73.1716 172.883 74.0142C173.655 74.7867 174.569 75.9805 175.412 77.4551C176.184 78.9298 176.676 80.4045 176.887 81.4578C177.098 82.5111 177.168 83.2133 177.238 83.2133C177.238 83.2133 177.238 83.0729 177.238 82.7218C177.238 82.4409 177.168 81.9493 177.098 81.3876C176.887 80.264 176.465 78.7893 175.693 77.3147C174.92 75.84 173.866 74.6462 173.093 73.8738C172.672 73.5227 172.321 73.1716 172.11 73.0311C171.759 72.8205 171.618 72.7502 171.618 72.7502Z" fill="#263238"/>
<path d="M207.164 70.5733L208.85 69.8711L210.466 72.6098L210.747 77.104L208.499 77.4551L206.813 74.7165L207.164 70.5733Z" fill="#455A64"/>
<path d="M225.359 83.9156C225.288 83.9156 225.218 93.6062 225.218 105.614C225.218 117.622 225.288 127.313 225.359 127.313C225.429 127.313 225.499 117.622 225.499 105.614C225.499 93.6062 225.429 83.9156 225.359 83.9156Z" fill="#263238"/>
<path d="M207.024 66.6409C207.024 66.6409 207.375 67.2729 208.007 68.256C208.569 69.2391 209.412 70.6436 210.115 72.2587C210.185 72.3991 210.255 72.5396 210.325 72.6098L210.466 72.8907L210.606 72.6098C211.309 71.0649 211.871 69.6605 212.152 68.6071C212.292 68.1156 212.433 67.6942 212.503 67.3431C212.573 67.0622 212.573 66.8516 212.573 66.8516C212.503 66.8516 212.363 67.4836 211.941 68.4667C211.59 69.4498 211.028 70.8542 210.325 72.3991H210.536C210.466 72.2587 210.396 72.1182 210.325 71.9778C209.553 70.3627 208.78 68.9582 208.077 67.9751C207.726 67.4836 207.515 67.1325 207.305 66.8516C207.164 66.7813 207.024 66.6409 207.024 66.6409Z" fill="#263238"/>
<path d="M187.846 64.8853C187.846 64.8853 187.916 64.9556 188.127 65.0258C188.337 65.096 188.548 65.2365 188.899 65.4471C189.602 65.7982 190.515 66.2898 191.709 66.9218C194.098 68.1858 197.329 69.8711 200.912 71.8373C203.09 73.0311 205.197 74.0845 206.953 74.9973L207.094 75.0676V74.8569C207.094 72.5396 207.164 70.5733 207.164 69.0987C207.164 68.3965 207.164 67.9049 207.164 67.4836C207.164 67.1325 207.164 66.9218 207.164 66.9218C207.164 66.9218 207.164 67.1325 207.094 67.4836C207.094 67.9049 207.024 68.3965 207.024 69.0987C206.953 70.5031 206.953 72.4693 206.883 74.8569L207.024 74.7867C205.197 73.8738 203.16 72.7502 200.982 71.6267C197.4 69.7307 194.098 67.9751 191.709 66.7813C190.515 66.2196 189.532 65.728 188.829 65.3769C188.478 65.2365 188.267 65.096 188.056 65.0258C187.986 64.9556 187.846 64.8853 187.846 64.8853Z" fill="#263238"/>
<path d="M223.041 71.0649C222.97 71.0649 223.322 71.5565 223.673 72.4693C224.024 73.312 224.516 74.5058 224.727 75.9102C225.008 77.3147 225.008 78.5787 224.937 79.5618C224.867 80.4747 224.797 81.0365 224.797 81.1067C224.797 81.1067 224.867 80.9662 224.937 80.6853C225.008 80.4045 225.078 80.0533 225.078 79.5618C225.148 78.6489 225.218 77.3147 224.937 75.9102C224.656 74.5058 224.165 73.2418 223.743 72.3991C223.532 71.9778 223.322 71.6267 223.181 71.416C223.181 71.1351 223.111 71.0649 223.041 71.0649Z" fill="#263238"/>
<path d="M208.921 77.736C208.991 77.8062 209.412 77.5956 209.904 77.3147C210.396 77.0338 210.747 76.6827 210.747 76.6125C210.677 76.5422 210.255 76.7529 209.764 77.0338C209.202 77.3849 208.85 77.736 208.921 77.736Z" fill="#263238"/>
<path d="M208.077 76.6827C208.148 76.6827 208.639 75.6996 209.201 74.4356C209.763 73.1716 210.185 72.1182 210.115 72.048C210.044 72.048 209.553 73.0311 208.991 74.2951C208.429 75.5591 208.007 76.6125 208.077 76.6827Z" fill="#263238"/>
<path d="M169.651 73.2418C169.651 73.2418 163.821 77.4551 163.118 79.7725C162.416 82.0898 159.325 119.729 158.763 124.223C158.201 128.717 157.639 137.074 161.151 139.812C164.593 142.551 172.11 144.588 172.11 144.588L178.994 130.332L175.341 122.678L178.994 94.0978L169.651 73.2418Z" fill="#E0E0E0"/>
<path d="M170.354 144.026C170.354 144.026 170.494 144.026 170.705 144.026C170.916 144.026 171.337 144.026 171.759 143.956C172.672 143.815 174.077 143.604 175.482 142.621C176.887 141.638 178.222 139.953 179.065 137.776C179.908 135.599 180.399 132.931 180.399 130.122V130.192C178.713 127.875 176.957 125.417 175.06 122.819L174.99 122.748V122.678C174.99 122.468 175.06 122.257 175.06 122.046C176.114 114.041 177.027 106.808 177.73 101.471C178.081 98.8729 178.362 96.7662 178.573 95.2213C178.643 94.5191 178.713 93.9573 178.784 93.536C178.854 93.1849 178.854 92.9742 178.854 92.9742C178.854 92.9742 178.854 93.0445 178.854 93.1147C178.854 93.1849 178.854 93.3956 178.854 93.536C178.784 93.9573 178.784 94.5191 178.713 95.2213C178.573 96.696 178.362 98.8027 178.011 101.471C177.379 106.738 176.465 114.041 175.482 122.046C175.482 122.257 175.412 122.468 175.412 122.678V122.538C177.308 125.136 179.065 127.664 180.751 129.981V130.052V130.122C180.68 133.001 180.189 135.669 179.346 137.916C178.503 140.164 177.098 141.919 175.622 142.832C174.92 143.324 174.147 143.604 173.515 143.815C173.374 143.885 173.164 143.885 173.023 143.956C172.883 143.956 172.742 144.026 172.602 144.026C172.321 144.096 172.04 144.096 171.829 144.096C171.337 144.166 170.986 144.096 170.775 144.096C170.494 144.096 170.354 144.026 170.354 144.026Z" fill="#263238"/>
<path d="M163.329 125.276C163.329 125.276 163.821 124.785 164.874 124.223C165.858 123.661 167.403 123.029 169.16 122.678C170.916 122.327 172.531 122.397 173.726 122.538C174.85 122.678 175.552 122.959 175.552 122.959C175.552 123.1 172.742 122.327 169.23 123.029C165.717 123.661 163.399 125.417 163.329 125.276Z" fill="#263238"/>
<path d="M209.061 87.848C209.061 87.848 209.412 89.112 209.904 91.2889C211.098 89.6036 212.643 88.1289 214.4 87.0053C214.4 87.0053 223.391 78.0871 226.272 68.6773C228.379 61.8658 227.817 54.2818 227.817 54.2818C227.747 53.9307 227.044 50.7004 226.482 48.1022C225.991 45.9253 227.325 43.8187 229.433 43.2569C233.929 42.0631 246.012 39.6756 248.751 47.8213C252.896 59.8996 246.222 73.0311 246.293 76.7529C246.293 77.4551 246.293 78.0169 246.293 78.5084C249.805 77.6658 252.615 77.104 252.615 77.1742L275.867 71.7671C275.867 71.7671 283.595 69.4498 286.194 77.3147C288.864 85.1796 279.872 87.848 279.872 87.848C279.872 87.848 284.087 87.6373 285.211 94.8C286.335 101.963 278.677 104.28 278.677 104.28C278.677 104.28 283.384 103.999 284.578 110.319C285.773 116.499 278.045 120.22 277.694 120.431C278.818 120.22 279.52 120.08 279.52 120.08C279.52 120.08 279.029 120.291 278.115 120.501C281.698 120.993 282.19 125.206 282.19 125.206C284.508 133.984 277.764 135.81 277.764 135.81L235.334 145.781C231.049 146.764 226.623 146.624 222.548 145.29C222.97 147.116 223.181 148.099 223.181 148.099L193.465 155.051C193.395 155.051 190.164 141.568 186.3 124.925C182.436 108.283 179.275 94.7298 179.345 94.7298L209.061 87.848Z" fill="#3D2072"/>
<g opacity="0.3">
<path d="M209.061 87.848C209.061 87.848 209.412 89.112 209.904 91.2889C211.098 89.6036 212.643 88.1289 214.4 87.0053C214.4 87.0053 223.391 78.0871 226.272 68.6773C228.379 61.8658 227.817 54.2818 227.817 54.2818C227.747 53.9307 227.044 50.7004 226.482 48.1022C225.991 45.9253 227.325 43.8187 229.433 43.2569C233.929 42.0631 246.012 39.6756 248.751 47.8213C252.896 59.8996 246.222 73.0311 246.293 76.7529C246.293 77.4551 246.293 78.0169 246.293 78.5084C249.805 77.6658 252.615 77.104 252.615 77.1742L275.867 71.7671C275.867 71.7671 283.595 69.4498 286.194 77.3147C288.863 85.1796 279.872 87.848 279.872 87.848C279.872 87.848 284.087 87.6373 285.211 94.8C286.335 101.963 278.677 104.28 278.677 104.28C278.677 104.28 283.384 103.999 284.578 110.319C285.773 116.499 278.045 120.22 277.694 120.431C278.818 120.22 279.52 120.08 279.52 120.08C279.52 120.08 279.029 120.291 278.115 120.501C281.698 120.993 282.19 125.206 282.19 125.206C284.508 133.984 277.764 135.81 277.764 135.81L235.334 145.781C231.049 146.764 226.623 146.624 222.548 145.29C222.97 147.116 223.181 148.099 223.181 148.099L193.465 155.051C193.395 155.051 190.164 141.568 186.3 124.925C182.436 108.283 179.275 94.7298 179.345 94.7298L209.061 87.848Z" fill="black"/>
</g>
<path d="M214.751 96.2747L214.189 100.137L223.672 140.796C229.292 144.517 236.177 145.781 242.78 144.236L285.281 134.335C285.281 134.335 292.025 132.509 289.706 123.732C289.706 123.732 289.144 119.097 285.14 118.956C285.14 118.956 293.289 115.164 292.095 108.844C290.901 102.524 286.194 102.805 286.194 102.805C286.194 102.805 293.921 100.488 292.727 93.3253C291.533 86.1627 287.388 86.3733 287.388 86.3733C287.388 86.3733 296.31 83.7751 293.711 75.84C291.041 67.9751 283.384 70.2925 283.384 70.2925L253.177 77.3147L226.693 83.4942C220.441 84.8987 215.734 89.9547 214.751 96.2747Z" fill="#7D56A5"/>
<path d="M221.846 85.4605C221.846 85.4605 230.838 76.5422 233.718 67.1325C235.826 60.3209 235.264 52.7369 235.264 52.7369C235.193 52.3858 234.491 49.1556 233.929 46.5573C233.437 44.3805 234.772 42.2738 236.879 41.712C241.375 40.5182 249.384 42.6951 252.194 50.8409C256.338 62.9191 253.669 71.4862 253.739 75.208C253.809 78.9298 253.809 78.9298 253.809 78.9298L221.846 85.4605Z" fill="#7D56A5"/>
<path d="M216.516 86.3195L186.826 93.2498L200.916 153.563L230.605 146.633L216.516 86.3195Z" fill="#7D56A5"/>
<path d="M230.557 146.554C230.627 146.554 227.536 133.001 223.602 116.358C219.738 99.7156 216.507 86.2329 216.437 86.2329C216.366 86.2329 219.457 99.7858 223.391 116.428C227.325 133.141 230.557 146.624 230.557 146.554Z" fill="#263238"/>
<path d="M200.912 153.506C200.982 153.506 197.891 139.953 193.957 123.31C190.093 106.668 186.862 93.1849 186.792 93.1849C186.721 93.1849 189.812 106.738 193.746 123.38C197.61 140.023 200.841 153.506 200.912 153.506Z" fill="#263238"/>
<path d="M209.271 102.524C209.974 105.614 208.077 108.634 204.986 109.406C201.895 110.108 198.875 108.212 198.102 105.123C197.399 102.033 199.296 99.0133 202.387 98.2409C205.478 97.5387 208.499 99.5049 209.271 102.524Z" fill="white"/>
<path d="M260.061 75.6293C260.061 75.5591 256.83 76.2613 252.826 77.1742C248.822 78.0871 245.59 78.9298 245.59 79C245.59 79.0702 248.822 78.368 252.826 77.4551C256.83 76.5422 260.061 75.6996 260.061 75.6293Z" fill="#263238"/>
<path d="M286.826 102.876C286.826 102.805 284.719 103.227 282.19 103.859C279.661 104.42 277.553 104.982 277.624 105.052C277.624 105.123 279.731 104.701 282.26 104.069C284.789 103.508 286.826 102.946 286.826 102.876Z" fill="#263238"/>
<path d="M287.95 86.0222C287.95 85.952 285 86.584 281.347 87.4267C277.694 88.2693 274.814 89.0418 274.814 89.0418C274.814 89.112 277.764 88.48 281.417 87.6373C285 86.7947 287.95 86.0222 287.95 86.0222Z" fill="#263238"/>
<path d="M287.037 118.535C287.037 118.465 284.087 119.097 280.434 119.94C276.781 120.782 273.9 121.555 273.9 121.555C273.9 121.625 276.851 120.993 280.504 120.15C284.157 119.378 287.037 118.605 287.037 118.535Z" fill="#263238"/>
<g opacity="0.3">
<path d="M237.16 44.7316C236.247 45.5742 236.107 47.0489 236.458 48.2427C236.809 49.4365 237.511 50.4898 238.073 51.6836C239.268 54.2116 239.619 57.0907 239.057 59.8293C238.846 60.672 238.635 61.6551 239.197 62.2871C239.97 63.2 241.516 62.7085 242.429 61.936C246.082 59.1271 247.768 54.1413 246.714 49.6471C246.222 47.7511 245.239 45.9956 243.693 44.8018C242.148 43.7485 239.759 42.6951 237.16 44.7316Z" fill="white"/>
</g>
<g opacity="0.3">
<path d="M286.124 71.2756C285.07 71.0649 284.016 71.3458 282.963 71.6267C276.991 73.1716 271.02 74.6462 265.049 76.1911C263.082 76.6827 259.429 77.104 259.359 79.1405C258.937 80.264 259.78 81.4578 260.834 81.8791C261.888 82.3005 263.152 82.16 264.276 82.0196C266.665 81.6685 269.053 81.1067 271.442 80.5449C276.219 79.4213 280.925 78.2276 285.491 76.4018C286.194 76.1209 286.826 75.84 287.388 75.3485C287.95 74.8569 288.301 74.1547 288.301 73.4525C288.161 72.2587 287.177 71.4862 286.124 71.2756Z" fill="white"/>
</g>
<path d="M209.904 89.6036C209.904 89.5333 205.759 90.4462 200.631 91.64C195.503 92.8338 191.358 93.8871 191.358 93.8871C191.358 93.9573 195.503 93.0445 200.631 91.8507C205.759 90.7271 209.904 89.6738 209.904 89.6036Z" fill="white"/>
<path d="M289.987 96.4853C289.987 96.4853 290.058 96.3449 290.128 96.1342C290.198 95.9236 290.268 95.5725 290.268 95.1511C290.339 94.7298 290.268 94.2382 290.198 93.6764C290.128 93.1147 289.987 92.4827 289.706 91.9209C289.425 91.2889 289.145 90.7973 288.793 90.3058C288.442 89.8142 288.091 89.4631 287.81 89.1822C287.459 88.9013 287.248 88.6907 287.037 88.5502C286.826 88.4098 286.686 88.3396 286.686 88.4098C286.686 88.48 287.107 88.7609 287.669 89.3227C287.95 89.6036 288.302 90.0249 288.582 90.4462C288.863 90.9378 289.215 91.4293 289.425 91.9911C289.636 92.5529 289.777 93.1849 289.917 93.6764C289.987 94.2382 290.058 94.7298 289.987 95.1511C290.058 95.9236 289.987 96.4853 289.987 96.4853Z" fill="white"/>
<path d="M290.83 80.1938C290.83 80.1938 291.111 79.9129 291.392 79.4213C291.673 78.8596 291.884 78.0169 291.814 77.104C291.744 76.1911 291.392 75.3485 291.111 74.8569C290.76 74.3653 290.479 74.1547 290.479 74.1547C290.479 74.1547 290.69 74.4356 290.971 74.9271C291.252 75.4187 291.533 76.1911 291.603 77.104C291.673 78.0169 291.463 78.7893 291.252 79.3511C291.041 79.8427 290.76 80.1236 290.83 80.1938Z" fill="white"/>
<path d="M288.582 114.041C288.582 114.041 289.004 113.83 289.355 113.268C289.777 112.707 290.128 111.794 290.128 110.67C290.058 109.617 289.566 108.704 289.074 108.212C288.582 107.721 288.161 107.51 288.161 107.51C288.161 107.51 288.512 107.791 288.934 108.283C289.355 108.774 289.847 109.687 289.847 110.67C289.917 111.724 289.566 112.566 289.215 113.128C288.863 113.69 288.582 113.971 288.582 114.041Z" fill="white"/>
<path d="M285.913 129.771C285.913 129.771 286.194 129.49 286.475 128.928C286.756 128.366 286.967 127.524 286.897 126.54C286.826 125.557 286.545 124.715 286.264 124.223C285.983 123.661 285.702 123.38 285.632 123.451C285.632 123.451 285.843 123.802 286.124 124.293C286.405 124.855 286.616 125.628 286.686 126.54C286.756 127.453 286.545 128.296 286.335 128.858C286.054 129.42 285.843 129.7 285.913 129.771Z" fill="white"/>
<path d="M252.475 65.096C252.475 65.096 252.545 64.8853 252.685 64.3938C252.756 64.1831 252.826 63.9022 252.826 63.5511C252.896 63.2 252.966 62.8489 252.966 62.4276C253.037 61.5849 253.107 60.672 253.107 59.5484C253.037 58.4951 252.966 57.3013 252.685 56.0373C252.475 54.8436 252.123 53.6498 251.772 52.6667C251.421 51.6836 250.999 50.7707 250.578 50.0684C250.367 49.7173 250.227 49.3662 250.016 49.0853C249.875 48.8044 249.665 48.5938 249.594 48.3831C249.313 48.032 249.173 47.8213 249.173 47.8213C249.173 47.8213 249.313 48.032 249.524 48.4533C249.665 48.664 249.805 48.8747 249.946 49.1556C250.086 49.4364 250.297 49.7876 250.437 50.1387C250.789 50.8409 251.21 51.7538 251.561 52.7369C251.913 53.72 252.264 54.9138 252.475 56.1076C252.685 57.3013 252.826 58.4951 252.896 59.5484C252.966 60.6018 252.896 61.5849 252.826 62.4276C252.826 62.8489 252.756 63.2 252.685 63.5511C252.685 63.9022 252.615 64.1129 252.545 64.3938C252.545 64.8853 252.475 65.096 252.475 65.096Z" fill="white"/>
<path d="M184.684 136.231C184.684 136.231 187.003 134.405 188.759 134.335C190.515 134.265 192.763 134.967 193.185 134.686C193.606 134.476 194.66 133.492 195.362 134.335C196.065 135.178 196.838 138.197 193.255 139.04H190.796C190.796 139.04 191.077 141.498 191.709 142.481C192.342 143.464 200.771 154.068 200.771 154.068C200.771 154.068 201.825 155.121 201.333 156.174C200.771 157.228 198.523 156.596 198.523 156.596C198.523 156.596 196.908 158 195.152 157.368C193.325 156.666 192.623 156.174 192.623 156.174C192.623 156.174 190.656 157.789 188.548 156.174C186.441 154.559 179.416 145.781 179.416 145.781L181.945 135.95L184.684 136.231Z" fill="#AE7461"/>
<path d="M177.378 130.403L184.684 136.231L179.275 145.781L168.527 141.919C168.597 141.919 168.949 130.613 177.378 130.403Z" fill="#AE7461"/>
<path d="M291.603 117.412C291.603 117.412 291.393 114.813 289.917 115.305C288.442 115.867 287.81 118.956 287.81 118.956L291.603 117.412Z" fill="#AE7461"/>
<path d="M286.335 120.01C286.335 120.01 288.864 117.131 292.446 117.412C295.959 117.622 293.781 120.642 293.781 120.642C293.781 120.642 296.38 122.257 294.483 124.574L294.202 125.206C294.202 125.206 296.45 126.049 294.132 128.436C294.132 128.436 294.975 129.981 293.851 131.105C292.727 132.228 289.777 130.754 289.777 130.754C289.777 130.754 287.107 131.386 286.897 130.262C286.686 129.209 287.248 128.436 287.529 128.226C287.74 128.085 289.145 127.524 289.145 127.524C289.145 127.524 286.054 127.875 285.983 127.172C285.913 126.4 285.632 125.557 287.88 124.785L289.145 124.434C289.145 124.434 285.913 124.504 285.913 123.732C285.913 122.959 285.773 122.678 286.897 122.116C288.021 121.555 289.004 120.993 289.004 120.993C289.004 120.993 285.843 121.625 286.335 120.01Z" fill="#AE7461"/>
<path d="M285.773 123.029C285.843 123.1 287.248 121.695 289.566 121.063C291.884 120.361 293.851 120.852 293.851 120.712C293.851 120.712 293.359 120.501 292.587 120.431C291.814 120.361 290.69 120.431 289.496 120.712C288.302 121.063 287.318 121.625 286.686 122.046C286.054 122.608 285.702 122.959 285.773 123.029Z" fill="#6F4439"/>
<path d="M286.124 127.383C286.124 127.383 286.054 127.313 285.983 127.102C285.913 126.962 285.913 126.611 285.983 126.33C286.124 125.979 286.264 125.628 286.686 125.347C287.037 125.066 287.529 124.855 288.091 124.785C290.269 124.293 292.165 124.364 292.165 124.293C292.165 124.223 291.744 124.153 290.971 124.153C290.198 124.153 289.215 124.223 288.091 124.434C287.529 124.574 286.967 124.785 286.616 125.066C286.194 125.347 285.983 125.838 285.843 126.189C285.773 126.54 285.843 126.892 285.913 127.102C285.983 127.383 286.124 127.453 286.124 127.383Z" fill="#6F4439"/>
<path d="M287.388 130.824C287.388 130.824 287.248 130.754 287.107 130.613C286.967 130.473 286.756 130.192 286.756 129.841C286.686 129.49 286.826 128.998 287.177 128.717C287.529 128.436 288.161 128.226 288.723 128.015C289.847 127.664 291.041 127.875 291.814 127.875C292.657 127.875 293.149 127.875 293.149 127.804C293.149 127.734 292.657 127.734 291.814 127.664C291.041 127.594 289.847 127.383 288.653 127.734C288.02 127.945 287.529 128.156 287.037 128.507C286.826 128.717 286.686 128.928 286.615 129.209C286.545 129.49 286.545 129.7 286.615 129.911C286.686 130.332 286.967 130.613 287.177 130.754C287.248 130.824 287.388 130.824 287.388 130.824Z" fill="#6F4439"/>
<path d="M286.264 120.15C286.264 120.15 286.334 120.08 286.475 119.94C286.615 119.799 286.896 119.588 287.177 119.378C287.81 118.956 288.723 118.324 289.777 117.973C290.901 117.622 291.954 117.412 292.657 117.552C293.43 117.692 293.781 117.973 293.851 117.903C293.851 117.903 293.5 117.552 292.727 117.341C291.954 117.131 290.83 117.341 289.706 117.692C287.458 118.465 286.124 120.01 286.264 120.15Z" fill="#6F4439"/>
<path d="M69.4365 27.58C69.4365 28.923 68.7069 29.7287 67.1505 29.7287H64.5726V25.4802H67.1505C68.7069 25.4802 69.4365 26.3104 69.4365 27.58ZM60.4141 22.0131V39.1535H64.5726V32.6831H65.5697L69.1203 39.1535H73.8139L69.8742 32.3657C72.5007 31.5844 73.668 29.5578 73.668 27.4091C73.668 24.4303 71.5766 22.0131 67.3937 22.0131H60.4141Z" fill="black"/>
<path d="M86.7358 22.0131H76.2785V39.1535H86.7358V35.8085H80.4371V32.0483H86.0062V28.8253H80.4371V25.3581H86.7358V22.0131Z" fill="black"/>
<path d="M101.838 34.0505C101.838 28.3125 93.3996 29.6555 93.3996 26.6766C93.3996 25.6023 94.1535 25.0896 95.1506 25.114C96.2693 25.1384 97.0475 25.7976 97.1204 26.8964H101.619C101.449 23.6246 98.9444 21.7689 95.2236 21.7689C91.6486 21.7689 88.9978 23.5757 88.9978 26.8231C88.9492 32.9029 97.4852 31.1937 97.4852 34.3679C97.4852 35.369 96.707 35.9794 95.4911 35.9794C94.3237 35.9794 93.4969 35.3445 93.3753 34.026H88.9492C89.0708 37.4932 91.9405 39.3244 95.6127 39.3244C99.601 39.3244 101.838 36.9316 101.838 34.0505Z" fill="black"/>
<path d="M104.325 32.2436C104.325 36.9805 107.413 39.3244 111.377 39.3244C115.317 39.3244 118.624 36.9805 118.624 32.2436V22.0131H114.466V32.268C114.466 34.2946 113.42 35.4666 111.45 35.4666C109.48 35.4666 108.483 34.2946 108.483 32.268V22.0131H104.325V32.2436Z" fill="black"/>
<path d="M121.545 22.0131V39.1535H131.151V35.9305H125.703V22.0131H121.545Z" fill="black"/>
<path d="M132.21 25.3581H136.733V39.1535H140.892V25.3581H145.415V22.0131H132.21V25.3581Z" fill="black"/>
</g>
<defs>
<clipPath id="clip0_281_6124">
<rect width="299.823" height="316" fill="white"/>
</clipPath>
</defs>
</svg>
