<svg width="23" height="38" viewBox="0 0 23 38" fill="none" xmlns="http://www.w3.org/2000/svg">
<path d="M3.25592 37.1432C2.47977 36.9199 1.76741 36.5903 1.21454 35.9736C0.523446 35.2081 0.193848 34.3044 0.193848 33.2731C0.20448 27.6168 0.193848 21.9604 0.193848 16.3041C0.193848 12.1788 0.193848 8.05353 0.193848 3.91761C0.193848 2.05698 1.45908 0.536579 3.28781 0.185717C3.50046 0.143188 3.7131 0.143188 3.93638 0.143188C8.86971 0.143188 13.803 0.143188 18.7364 0.143188C20.7884 0.143188 22.4683 1.79118 22.4683 3.85382C22.4789 13.7205 22.4789 23.5872 22.4683 33.4538C22.4683 35.0912 21.3625 36.5372 19.7996 37.0156C19.672 37.0581 19.5444 37.1007 19.4275 37.1432C14.0369 37.1432 8.64644 37.1432 3.25592 37.1432ZM2.11827 18.6538C2.11827 23.1831 2.11827 27.7018 2.11827 32.2311C2.11827 32.5926 2.10764 32.9541 2.11827 33.3156C2.1608 34.4532 2.88379 35.24 3.93638 35.2507C8.86971 35.2613 13.803 35.2613 18.7364 35.2507C19.6614 35.2507 20.3631 34.6234 20.5013 33.709C20.5332 33.4964 20.5545 33.2837 20.5545 33.0604C20.5545 23.4596 20.5545 13.8587 20.5545 4.25784C20.5545 4.17279 20.5545 4.08773 20.5545 4.00267C20.512 2.77997 19.7783 2.06761 18.5556 2.06761C17.2798 2.06761 16.0039 2.06761 14.728 2.06761C11.1663 2.06761 7.60448 2.06761 4.0427 2.06761C3.13896 2.06761 2.41597 2.57796 2.21396 3.36474C2.13954 3.65181 2.11827 3.96014 2.11827 4.25784C2.11827 9.05296 2.11827 13.8587 2.11827 18.6538Z" fill="#55575A"/>
<path d="M11.3364 30.3386C12.3677 30.3386 13.2183 31.1892 13.2289 32.2205C13.2289 33.2305 12.3571 34.1024 11.3364 34.113C10.3157 34.113 9.44385 33.2412 9.44385 32.2311C9.45448 31.1892 10.3157 30.3386 11.3364 30.3386Z" fill="#55575A"/>
<path d="M12.8674 5.15093C12.2826 5.15093 11.6872 5.16156 11.1024 5.15093C10.6772 5.1403 10.3369 4.94892 10.1562 4.5449C10.018 4.20467 10.0605 3.8857 10.2838 3.59863C10.4858 3.33283 10.7728 3.21588 11.1024 3.21588C12.2826 3.20524 13.4628 3.20524 14.6323 3.21588C15.249 3.22651 15.6849 3.65179 15.6743 4.19404C15.6743 4.72565 15.2384 5.12967 14.6217 5.1722C14.6004 5.1722 14.5685 5.1722 14.5473 5.1722C13.9944 5.15093 13.4309 5.15093 12.8674 5.15093Z" fill="#55575A"/>
<path d="M8.90152 4.1621C8.91215 4.68308 8.45497 5.14026 7.94462 5.14026C7.46617 5.14026 6.99836 4.68308 6.98773 4.194C6.97709 3.68365 7.44491 3.21584 7.94462 3.21584C8.45497 3.21584 8.90152 3.66239 8.90152 4.1621Z" fill="#55575A"/>
</svg>
