<svg width="24" height="24" viewBox="0 0 24 24" fill="none" xmlns="http://www.w3.org/2000/svg">
<path d="M10.7823 23.9997C11.2366 23.9892 11.6725 23.8184 12.013 23.5175C12.3535 23.2166 12.5766 22.805 12.6429 22.3555H8.84961C8.91774 22.8172 9.15128 23.2385 9.5068 23.541C9.86231 23.8434 10.3156 24.0064 10.7823 23.9997Z" fill="#55575A"/>
<path d="M21.2452 19.3482C20.5497 18.7283 19.9409 18.0176 19.4351 17.2353C18.8828 16.1554 18.5518 14.976 18.4615 13.7665V10.204C18.4586 9.77129 18.42 9.33954 18.3461 8.91315C17.7785 8.79969 17.233 8.59512 16.7307 8.30738C16.9222 8.92386 17.0194 9.56571 17.0192 10.2112V13.7737C17.1076 15.2492 17.5135 16.6882 18.2091 17.9925C18.707 18.7814 19.2978 19.5078 19.9687 20.1559H1.5C2.17096 19.5078 2.76173 18.7814 3.25961 17.9925C3.95524 16.6882 4.36112 15.2492 4.44951 13.7737V10.204C4.44572 9.36941 4.60659 8.54226 4.92291 7.76992C5.23923 6.99758 5.70479 6.29522 6.29294 5.70306C6.88108 5.11089 7.58025 4.64056 8.35042 4.31898C9.12059 3.99741 9.94663 3.83091 10.7812 3.82902C12.0027 3.83 13.1967 4.19122 14.2139 4.86748C14.1018 4.45569 14.0388 4.03207 14.0264 3.60546V3.15114C13.2734 2.78073 12.4645 2.53707 11.6322 2.42999V1.52133C11.6322 1.266 11.5308 1.02112 11.3502 0.840574C11.1697 0.660025 10.9248 0.558594 10.6695 0.558594C10.4141 0.558594 10.1692 0.660025 9.9887 0.840574C9.80815 1.02112 9.70672 1.266 9.70672 1.52133V2.46604C7.84305 2.72894 6.13742 3.6572 4.90472 5.07945C3.67201 6.5017 2.99547 8.3219 3 10.204V13.7665C2.90967 14.976 2.57868 16.1554 2.02644 17.2353C1.52948 18.0158 0.930428 18.7264 0.245192 19.3482C0.168268 19.4158 0.106616 19.499 0.0643394 19.5923C0.0220626 19.6855 0.000129661 19.7867 0 19.8891V20.8699C0 21.0611 0.0759783 21.2446 0.211221 21.3798C0.346463 21.515 0.529891 21.591 0.721153 21.591H20.7692C20.9605 21.591 21.1439 21.515 21.2791 21.3798C21.4144 21.2446 21.4904 21.0611 21.4904 20.8699V19.8891C21.4902 19.7867 21.4683 19.6855 21.426 19.5923C21.3837 19.499 21.3221 19.4158 21.2452 19.3482Z" fill="#55575A"/>
<path d="M19.4349 7.21153C21.4263 7.21153 23.0406 5.59717 23.0406 3.60576C23.0406 1.61436 21.4263 0 19.4349 0C17.4435 0 15.8291 1.61436 15.8291 3.60576C15.8291 5.59717 17.4435 7.21153 19.4349 7.21153Z" fill="#EA4235"/>
</svg>
