<svg width="36" height="40" viewBox="0 0 36 40" fill="none" xmlns="http://www.w3.org/2000/svg">
<g clip-path="url(#clip0_281_6066)">
<path d="M3.44922 40C3.11169 39.8856 2.76361 39.7919 2.44717 39.6358C0.875534 38.8658 0.021154 37.6171 0.021154 35.8793C0.0106061 27.5859 0.0527977 19.3029 5.81723e-05 11.0198C-0.0104897 9.09474 1.41348 6.88871 4.19812 6.89912C7.45743 6.90952 10.7062 6.88871 13.9655 6.90952C14.3874 6.90952 14.5773 6.76384 14.7566 6.39964C16.5392 2.80963 19.4188 0.645213 23.4481 0.10411C28.2684 -0.551457 32.5825 1.99797 34.6921 5.7961C37.5295 10.895 35.6309 17.5755 30.4624 20.4891C29.2494 21.1759 27.9626 21.6442 26.5702 21.8419C26.2116 21.8939 26.085 22.0188 26.085 22.383C26.085 26.0875 26.0745 29.7919 26.0745 33.4964C26.0745 33.8918 26.0323 34.1208 25.5365 34.204C24.7454 34.3393 24.2391 35.0677 24.2602 35.9002C24.2708 36.691 24.7982 37.3882 25.5787 37.5339C25.9795 37.6067 26.0956 37.7836 26.0745 38.1582C26.0534 38.7722 26.0745 39.3757 26.0745 39.9896C18.5327 40 10.991 40 3.44922 40ZM7.35195 20.4995C7.35195 24.0791 7.35195 27.6483 7.3414 31.2279C7.3414 31.5713 7.41524 31.7066 7.79496 31.7066C12.9107 31.6962 18.0264 31.6962 23.1422 31.7066C23.5008 31.7066 23.6168 31.6025 23.6168 31.2383C23.6063 28.2831 23.6063 25.3382 23.6168 22.383C23.6168 22.0292 23.5008 21.8939 23.1422 21.8315C19.5348 21.2175 16.824 19.3341 15.0519 16.1707C13.9338 14.1728 13.5225 12.0084 13.7862 9.7295C13.8284 9.40692 13.7229 9.33408 13.4064 9.33408C11.55 9.34448 9.69358 9.35489 7.8266 9.33408C7.41524 9.33408 7.3203 9.44854 7.3203 9.84396C7.35195 13.4028 7.35195 16.9511 7.35195 20.4995ZM24.8404 17.4194C25.1146 17.4194 25.3994 17.4402 25.6737 17.4194C26.0112 17.3986 26.1167 17.5443 26.0956 17.8565C26.0745 18.2623 26.1061 18.6681 26.085 19.0635C26.0745 19.3653 26.1483 19.4798 26.4964 19.4069C28.1419 19.0739 29.5869 18.3559 30.7999 17.2321C32.1501 15.9834 32.9834 14.4537 33.3736 12.6743C33.4475 12.3518 33.342 12.2165 33.0045 12.2269C32.572 12.2477 32.1395 12.2269 31.6965 12.2269C31.475 12.2269 31.3484 12.1437 31.3484 11.9043C31.3484 11.3112 31.3484 10.7076 31.3484 10.1145C31.3484 9.88559 31.4434 9.78153 31.686 9.78153C32.1079 9.79193 32.5298 9.78153 32.9517 9.78153C33.4158 9.78153 33.458 9.7295 33.3631 9.28205C32.9517 7.33616 31.9708 5.73366 30.4519 4.44334C29.3232 3.49641 28.0258 2.89287 26.5808 2.60151C26.1589 2.51826 26.1061 2.55989 26.0956 2.99693C26.0956 3.40276 26.085 3.80858 26.0956 4.20401C26.1061 4.49537 25.9795 4.59943 25.6948 4.58902C25.1463 4.57862 24.5872 4.57862 24.0387 4.58902C23.7328 4.59943 23.6063 4.48496 23.6168 4.18319C23.6274 3.76696 23.6063 3.35073 23.6274 2.93449C23.6379 2.61191 23.5008 2.52867 23.1949 2.5807C19.8301 3.16342 16.8978 6.09787 16.3388 9.43814C16.286 9.71909 16.3915 9.78153 16.6447 9.78153C17.0877 9.77112 17.5412 9.79193 17.9842 9.78153C18.2479 9.77112 18.3745 9.86478 18.364 10.1457C18.3534 10.7181 18.3534 11.2904 18.364 11.8627C18.3745 12.1332 18.2585 12.2373 17.9948 12.2373C17.5623 12.2269 17.1193 12.2477 16.6868 12.2373C16.4021 12.2269 16.2966 12.2997 16.3493 12.6223C16.9505 15.973 19.8196 18.8034 23.216 19.4173C23.5641 19.4798 23.6379 19.3757 23.6274 19.0739C23.6168 18.6473 23.6274 18.2207 23.6274 17.7836C23.6274 17.5443 23.7223 17.4298 23.986 17.4402C24.2602 17.4298 24.5556 17.4194 24.8404 17.4194ZM12.9212 34.1416C10.1155 34.1416 7.30976 34.1416 4.49347 34.1416C4.21922 34.1416 3.94497 34.1312 3.67073 34.2144C2.90073 34.4641 2.35224 35.2862 2.46827 36.025C2.61594 37.0032 3.32265 37.6171 4.35634 37.6171C10.1682 37.6275 15.9801 37.6171 21.792 37.6275C22.0768 37.6275 22.1296 37.5651 22.0241 37.2945C21.6971 36.4309 21.676 35.5464 21.9397 34.6515C22.0874 34.1416 22.0874 34.1416 21.5283 34.1416C18.6699 34.1416 15.8008 34.1416 12.9212 34.1416ZM4.87319 20.5308C4.87319 17.076 4.87319 13.6109 4.87319 10.1561C4.87319 9.26124 4.96812 9.35489 4.02936 9.3653C3.3121 9.3653 2.74251 9.76072 2.5421 10.3851C2.44717 10.6764 2.43662 10.9678 2.43662 11.2696C2.43662 18.0333 2.43662 24.7971 2.43662 31.5609C2.43662 31.6338 2.44717 31.717 2.43662 31.7899C2.41553 32.0084 2.48936 32.0708 2.71087 31.9876C3.21717 31.8003 3.74456 31.6962 4.29306 31.7066C4.8521 31.717 4.86264 31.7066 4.86264 31.1447C4.87319 27.5963 4.87319 24.0583 4.87319 20.5308Z" fill="#55575A"/>
<path d="M15.4738 24.8803C14.187 24.8803 12.8896 24.8699 11.6027 24.8907C11.2336 24.9011 11.107 24.7659 11.1281 24.4121C11.1492 23.9334 11.1281 23.4547 11.1281 22.9657C11.1281 22.4662 11.1597 22.435 11.666 22.435C13.7229 22.435 15.7797 22.435 17.8365 22.435C18.3218 22.435 18.8175 22.4454 19.3027 22.435C19.6402 22.4246 19.809 22.5182 19.7879 22.8928C19.7563 23.4027 19.7668 23.9126 19.7879 24.4121C19.809 24.7659 19.6824 24.8907 19.3133 24.8803C18.037 24.8699 16.7501 24.8803 15.4738 24.8803Z" fill="#55575A"/>
<path d="M15.4316 29.4069C14.1553 29.4069 12.879 29.3965 11.6027 29.4173C11.2336 29.4277 11.1175 29.2924 11.1281 28.949C11.1492 28.4391 11.1386 27.9397 11.1281 27.4298C11.1281 27.1488 11.2125 27.0135 11.5395 27.0135C14.1553 27.024 16.7818 27.024 19.3976 27.0135C19.693 27.0135 19.7879 27.1176 19.7774 27.3986C19.7668 27.9397 19.7563 28.4912 19.7774 29.0323C19.7879 29.3236 19.6613 29.4069 19.3766 29.4069C18.0686 29.4069 16.7501 29.4069 15.4316 29.4069Z" fill="#55575A"/>
<path d="M26.0955 9.66711C26.0955 10.4476 26.085 11.228 26.1061 12.0084C26.1061 12.279 26.0217 12.4663 25.8002 12.6432C24.9669 13.3092 24.1547 13.9751 23.332 14.6515C23.1105 14.8388 22.9734 14.8284 22.7941 14.5995C22.446 14.152 22.0979 13.7254 21.7076 13.3092C21.4756 13.0594 21.5494 12.9345 21.7815 12.7576C22.2772 12.3726 22.7519 11.9564 23.2476 11.5818C23.5113 11.3841 23.6168 11.1551 23.6168 10.8222C23.5957 9.65671 23.6168 8.48085 23.6062 7.3154C23.6062 6.95119 23.7117 6.79511 24.102 6.81592C24.6399 6.84713 25.1779 6.82632 25.7264 6.81592C26.0006 6.81592 26.1061 6.91998 26.0955 7.19053C26.0955 8.01259 26.0955 8.84505 26.0955 9.66711Z" fill="#55575A"/>
</g>
<defs>
<clipPath id="clip0_281_6066">
<rect width="36" height="40" fill="white"/>
</clipPath>
</defs>
</svg>
