<svg width="38" height="40" viewBox="0 0 38 40" fill="none" xmlns="http://www.w3.org/2000/svg">
<g clip-path="url(#clip0_281_6049)">
<path d="M37.0863 26.6284C36.4859 25.0238 35.8662 23.4193 35.2658 21.8338C35.1496 21.5281 35.0722 21.2225 35.0915 20.8978C35.1496 19.0831 35.0722 17.2683 34.5493 15.5109C33.4067 11.6714 31.0827 8.71056 27.5774 6.68573C24.9243 5.13845 22.0387 4.50808 18.9789 4.71821C18.456 4.75641 17.9331 4.81372 17.4296 4.90923C17.8363 5.5587 18.1848 6.22728 18.4753 6.93406C19.676 6.78124 20.9348 6.81945 22.1743 7.01047C27.4225 7.85097 31.6831 11.9388 32.6901 17.0582C32.9613 18.4718 32.9613 19.8853 32.9419 21.318C32.9419 21.681 33 22.0248 33.1355 22.3495C33.581 23.4766 33.9877 24.6036 34.4331 25.7306C34.5493 25.9981 34.4718 26.0745 34.2007 26.0554C33.7553 26.0363 33.3098 26.0554 32.8644 26.0554C31.9155 26.0554 31.5475 26.4183 31.5475 27.3734C31.5475 28.4049 31.5475 29.4173 31.5475 30.4489C31.5282 31.8051 30.7148 32.7411 29.3591 32.913C28.6232 33.0086 27.8873 32.9321 27.1514 32.9513C26.3574 32.9704 25.9507 33.3524 25.9507 34.1547C25.9507 35.2626 25.9313 36.3896 25.9507 37.4976C25.9507 37.8223 25.8732 37.9369 25.5246 37.9369C23.7042 37.9178 21.8644 37.9369 20.044 37.9369C18.2042 37.9369 16.3644 37.9369 14.5246 37.9369C14.1954 37.9369 14.1179 37.8414 14.1179 37.5167C14.1373 35.5109 14.1179 33.5052 14.1373 31.4804C14.1373 30.8691 13.8855 30.5062 13.382 30.2005C11.8521 29.2454 10.5933 28.1566 9.62498 26.915C8.90843 27.1633 8.17252 27.3734 7.41724 27.5262C7.82393 28.1184 8.26935 28.6915 8.77287 29.2454C9.60562 30.1814 10.5739 30.9646 11.6391 31.6523C11.9102 31.8242 11.9877 32.0152 11.9877 32.3209C11.9683 34.4603 11.9877 36.5998 11.9683 38.7201C11.9683 39.3123 12.1426 39.7516 12.7042 40H27.3838C27.9067 39.7516 28.1197 39.3314 28.1197 38.7392C28.1003 37.6504 28.1197 36.5616 28.1003 35.4727C28.1003 35.1289 28.2165 35.0334 28.5458 35.0525C29.2623 35.0907 29.9789 35.0525 30.676 34.8042C32.4771 34.1547 33.6972 32.4737 33.6972 30.5826C33.6972 29.8758 33.6972 29.1881 33.6972 28.4813C33.6972 28.2521 33.7746 28.1566 34.0264 28.1566C34.6848 28.1757 35.3627 28.1566 36.0211 28.1566C36.912 28.1566 37.3961 27.488 37.0863 26.6284Z" fill="#55575A"/>
<path d="M1.68494 26.0936L8.40501 15.702L6.0036 14.9762L10.787 6.20825L17.8363 8.09937L12.898 12.7412L15.8997 14.1166L1.68494 26.0936ZM8.40501 14.0019L10.9613 14.766L9.00536 17.7842L12.8786 14.5177L9.99303 13.1997L14.5828 8.92076L11.6198 8.11847L8.40501 14.0019Z" fill="#55575A"/>
<path d="M12.0846 0H10.9226V3.95416H12.0846V0Z" fill="#55575A"/>
<path d="M6.30587 1.33784L5.45251 2.11572L8.17329 5.01965L9.02664 4.24177L6.30587 1.33784Z" fill="#55575A"/>
<path d="M2.13727 5.04764L1.60229 6.06506L5.16091 7.88556L5.69588 6.86814L2.13727 5.04764Z" fill="#55575A"/>
<path d="M0.0708434 10.1647L0.00341797 11.3088L4.00541 11.5383L4.07283 10.3941L0.0708434 10.1647Z" fill="#55575A"/>
<path d="M4.43554 13.7692L1.25696 16.1785L1.96495 17.0872L5.14353 14.678L4.43554 13.7692Z" fill="#55575A"/>
</g>
<defs>
<clipPath id="clip0_281_6049">
<rect width="37.1831" height="40" fill="white"/>
</clipPath>
</defs>
</svg>
