<svg width="60" height="55" viewBox="0 0 60 55" fill="none" xmlns="http://www.w3.org/2000/svg">
<path d="M20.9503 33.8614C19.5316 35.8744 18.267 38.0206 16.7994 39.9706C17.1496 39.9007 17.4682 39.8552 17.7694 39.7222C18.3647 39.5123 18.9355 39.2708 19.4818 38.9978C19.5449 38.9488 19.6569 38.9629 19.7375 39.0014C20.89 36.8412 22.3087 34.8282 23.6223 32.745C25.0375 30.5324 26.4456 28.3758 27.8608 26.1631C29.3005 23.982 30.7402 21.8009 32.2044 19.6513C32.9681 18.552 33.7317 17.4527 34.4708 16.3219C35.1644 15.3276 35.7844 14.2387 36.688 13.3846C36.7826 13.3111 36.9121 13.4127 36.8421 13.5177C36.3901 14.6276 35.553 15.6323 34.9154 16.6336C34.1518 17.7329 33.4127 18.8637 32.6806 19.9385C31.2479 22.0636 29.8467 24.1642 28.4701 26.2963C27.0304 28.4775 25.6152 30.6901 24.2315 32.8783C22.8478 35.0664 21.5622 37.3806 19.993 39.4602L19.9614 39.4847C20.0138 40.2025 20.0731 40.8643 20.1255 41.5822C20.1639 41.9568 20.2023 42.3315 20.2162 42.6747C20.2197 42.8743 20.2547 43.0494 20.2581 43.2489C20.111 43.515 20.1355 43.5465 20.3246 43.3995C20.3806 43.4065 20.4122 43.382 20.4997 43.3646C20.6188 43.3226 20.6818 43.2736 20.7764 43.2001C21.0215 43.06 21.2422 42.8885 21.3682 42.7905C21.6764 42.6015 21.9531 42.437 22.2858 42.2795C22.8706 41.926 23.48 41.604 24.0648 41.2505C24.1594 41.177 24.2399 41.2155 24.345 41.2856C25.7391 39.241 27.2943 37.2735 28.7129 35.2605C30.2332 33.1179 31.6974 30.9683 33.1371 28.7871C34.5838 26.55 36.0305 24.3129 37.3967 22.0372C38.7629 19.7615 39.975 17.3527 41.4707 15.1786C41.5723 15.0491 41.7579 15.1577 41.7123 15.2942C40.7313 17.675 39.253 19.9367 37.9184 22.1879C36.5522 24.4636 35.1545 26.7637 33.6833 28.9694C30.8354 33.3071 27.9349 37.8374 24.4884 41.7303C24.5373 42.2486 24.6422 42.7738 24.7156 43.3236C24.7821 43.4742 24.7926 43.6177 24.8346 43.7368C24.9045 44.087 24.999 44.4687 25.0129 44.8118C25.0444 44.7873 25.0759 44.7628 25.1074 44.7383C25.1775 44.6333 25.2476 44.5283 25.2861 44.4477L25.3176 44.4232C25.3491 44.3987 25.3807 44.3742 25.4122 44.3497C25.4507 44.2692 25.4892 44.1887 25.5278 44.1082C25.5278 44.1082 25.5348 44.0521 25.5103 44.0206C25.6504 43.8106 25.766 43.569 25.9061 43.3589C26.6418 42.0285 27.402 40.7296 28.2182 39.4377C29.5984 37.05 30.9786 34.6623 32.3833 32.306C33.161 31.0947 33.9387 29.8833 34.6673 28.6089C36.0229 26.6449 37.354 24.6493 38.7096 22.6853C38.9898 22.2652 39.2631 21.9011 39.5433 21.481C40.9199 19.3488 42.6923 17.0102 44.0935 14.9096C44.069 14.8781 43.9955 14.7835 43.971 14.752C43.894 14.4579 43.4633 14.4893 43.2288 14.3176C43.2042 14.2861 43.1237 14.2476 43.0992 14.2161C43.0432 14.2091 43.0187 14.1775 42.9382 14.139C42.8892 14.076 42.8086 14.0374 42.7841 14.0059C42.1049 13.5225 41.4573 13.0146 40.8341 12.5382C39.9274 11.8272 39.0452 11.1477 38.1384 10.4366C38.0579 10.3981 38.0089 10.335 37.9599 10.272C37.7813 10.1074 37.5468 9.93574 37.3682 9.77112C37.3682 9.77112 37.3682 9.77113 37.3437 9.7396C36.9234 10.3698 36.503 11 36.1142 11.6056C35.1264 13.1321 34.0825 14.6515 33.0387 16.1709C32.8215 16.542 32.6358 16.8886 32.4186 17.2598C32.2085 17.5749 32.0228 17.9215 31.8126 18.2366C31.7566 18.2295 31.7006 18.2225 31.6445 18.2155C29.7355 20.9638 27.8264 23.712 25.9244 26.4043C24.341 29.0511 22.6492 31.4282 20.9503 33.8614ZM36.6367 22.4257C36.6438 22.3696 36.6753 22.3451 36.6508 22.3136C36.6578 22.2576 36.6893 22.2331 36.6963 22.1771C36.7208 22.2086 36.7524 22.1841 36.7769 22.2156C36.7453 22.2401 36.6753 22.3451 36.6367 22.4257ZM38.2166 20.0345L38.185 20.059C38.1921 20.003 38.1991 19.9469 38.2061 19.8909C38.1991 19.9469 38.2236 19.9784 38.2166 20.0345Z" fill="#FFC554"/>
<path d="M23.2419 42.5986C23.361 42.5566 23.424 42.5076 23.4626 42.427C23.312 42.4935 23.1544 42.6161 23.0038 42.6825C23.0669 42.6335 23.1544 42.6161 23.2419 42.5986Z" fill="#FFC554"/>
<path d="M20.4189 44.2366C20.2999 44.2786 20.2123 44.296 20.1003 44.282C20.2123 44.296 20.3559 44.2856 20.4189 44.2366Z" fill="#FFC554"/>
<path d="M15.4319 48.6193C16.1881 48.9416 16.8743 49.369 17.3644 49.9994C17.3889 50.0309 17.4589 49.9259 17.515 49.9329C18.1243 49.6109 18.7652 49.2644 19.3746 48.9424C20.9575 48.1165 22.537 47.0909 24.2179 46.391C24.2494 46.3665 24.2879 46.286 24.3195 46.2615C24.3195 46.2615 24.3195 46.2615 24.351 46.237C24.407 46.244 24.4315 46.2755 24.4875 46.2825C24.5191 46.258 24.5506 46.2335 24.5751 46.265C24.3757 45.3581 24.2639 44.4336 24.1521 43.5092C24.1207 43.0785 24.0332 42.6408 24.0018 42.2101L23.9773 42.1785C23.7952 42.2695 23.6691 42.3676 23.487 42.4586C23.424 42.5076 23.361 42.5566 23.2664 42.6301C23.1789 42.6476 23.1158 42.6966 23.0283 42.714C22.5695 42.9695 22.1352 43.2566 21.6765 43.5121C21.3683 43.7011 20.8885 44.1246 20.4752 44.2436C20.3807 44.3171 20.2931 44.3346 20.1566 44.289C20.1006 44.282 20.0445 44.275 20.02 44.2435C19.6104 44.1068 19.607 43.452 19.6142 42.9408C19.5897 42.9093 19.5897 42.9093 19.5652 42.8778C19.5792 42.7657 19.5617 42.6782 19.6003 42.5976C19.6003 42.5976 19.5758 42.5661 19.6073 42.5416C19.5445 41.6802 19.4816 40.8188 19.4188 39.9574C19.3943 39.9259 19.3698 39.8944 19.3453 39.8628C18.4348 40.3178 17.3002 40.7447 16.3092 40.706C16.2462 40.755 16.2077 40.8355 16.1446 40.8845C16.1131 40.909 16.0501 40.958 16.0185 40.9825C16.0115 41.0385 16.0045 41.0946 16.0535 41.1576C16.0465 41.2136 16.008 41.2941 16.0009 41.3502C16.0009 41.3502 16.0254 41.3817 15.9939 41.4062C15.8429 43.2935 15.4117 45.1457 15.1241 46.9875C15.0786 47.124 15.089 47.2676 15.0435 47.4042C15.0644 47.6913 14.8543 48.0064 14.9067 48.269C14.9662 48.4756 15.2182 48.7348 15.4319 48.6193ZM23.0137 45.1021C22.9821 45.1266 22.9821 45.1266 23.0137 45.1021C22.9821 45.1266 22.9506 45.1511 22.9191 45.1756C22.9191 45.1756 22.9506 45.1511 23.0137 45.1021Z" fill="#F7EFE6"/>
<path d="M25.055 44.931C25.0166 44.5563 24.9781 44.1816 24.8767 43.8559C24.8347 43.7369 24.8242 43.5933 24.7577 43.4427C24.8381 43.9365 24.9115 44.4862 24.9604 45.0045C24.9674 44.9484 25.0235 44.9555 25.055 44.931Z" fill="#FFC554"/>
<path d="M20.4855 43.4768C20.5731 43.4593 20.6676 43.3858 20.7622 43.3123C20.6676 43.3858 20.5801 43.4033 20.4855 43.4768Z" fill="#FFC554"/>
<path d="M40.8494 7.87424C41.5285 8.35763 42.1762 8.86552 42.8799 9.38043C43.9162 10.1931 45.1835 10.9777 46.1112 11.9759C47.141 10.5685 48.1708 9.16116 49.2567 7.7608C48.7948 6.45109 48.0107 5.44244 46.9429 4.65432C46.2567 4.22695 45.5635 3.85561 44.8458 3.45275C43.9355 2.99731 42.6226 2.34919 41.8906 2.96879C41.4808 3.28733 41.2006 3.70745 40.8888 4.15207C40.7732 4.39365 40.6016 4.62821 40.486 4.86979C40.4789 4.92582 40.4649 5.03786 40.4579 5.09389C40.4264 5.11839 40.4264 5.11839 40.3948 5.14289C40.3633 5.1674 40.3003 5.2164 40.2688 5.2409C39.943 5.79757 39.5857 6.37875 39.2599 6.93542C39.9006 7.04413 40.3557 7.49945 40.8494 7.87424Z" fill="#FF7BAC"/>
<path d="M40.5136 5.10094C40.5206 5.04492 40.5346 4.93287 40.5416 4.87685C40.4716 4.98188 40.3945 5.14293 40.3244 5.24796C40.356 5.22346 40.419 5.17445 40.4505 5.14995C40.4575 5.09393 40.5136 5.10094 40.5136 5.10094Z" fill="#F7EFE6"/>
<path d="M37.7851 9.39671L37.8096 9.42823C38.9439 10.3669 40.1097 11.2811 41.2755 12.1953C42.2627 12.9449 43.369 13.6525 44.3178 14.4826C44.7381 13.8525 45.183 13.2538 45.6033 12.6236C45.6418 12.5431 45.7049 12.4941 45.7434 12.4136C45.5579 12.305 45.3723 12.1964 45.1938 12.0318C45.1132 11.9932 45.0397 11.8987 44.9592 11.8601C44.4901 11.5168 44.028 11.1175 43.5589 10.7743C43.3243 10.6026 43.1212 10.4065 42.8867 10.2349C42.7326 10.1018 42.6031 10.0002 42.4176 9.89159C42.0045 9.55534 41.5843 9.2751 41.1712 8.93885C41.0172 8.80575 40.8316 8.69715 40.6531 8.53254C40.5726 8.494 40.4991 8.39944 40.4185 8.3609C40.135 8.12622 39.8129 7.97207 39.5293 7.73739C39.3508 7.57277 39.1722 7.40816 39.0322 7.16301C38.7099 7.91927 38.251 8.62998 37.7851 9.39671Z" fill="#F7EFE6"/>
<path d="M14.2855 52.5441C16.1696 51.5852 17.9802 50.5316 19.8153 49.5096C21.4682 48.5786 23.2823 47.7247 24.7882 46.6046C24.8758 46.5871 24.9948 46.5451 25.0089 46.433C25.0404 46.4085 25.0719 46.384 25.1034 46.3595C26.2664 44.7981 27.1877 43.1211 28.1966 41.4266C29.1739 39.7566 30.2073 38.0936 31.2092 36.4551C33.1744 33.2586 35.1396 30.0622 37.1853 26.9043C41.2452 20.613 45.6272 14.4758 49.5821 8.11441C49.7572 8.07944 49.9148 7.95693 49.8798 7.78184C49.3482 5.21155 47.006 3.69477 44.7688 2.70326C43.9565 2.37391 42.7206 1.56474 41.8591 2.08275C40.9346 2.64978 40.0168 4.07119 39.6909 5.08306C39.6839 5.13909 39.6839 5.13909 39.6768 5.19511C36.9061 9.3718 34.1598 13.58 31.3084 17.7182C27.9037 22.6405 24.4184 27.5244 21.0136 32.4467C19.1746 35.09 17.087 37.6736 15.5701 40.471C15.3844 40.8176 15.7415 41.1468 16.0182 40.9823C16.0497 40.9578 16.1128 40.9088 16.1443 40.8843C16.2073 40.8353 16.2458 40.7548 16.3089 40.7058C17.2998 40.7445 18.4344 40.3176 19.345 39.8627C19.3765 39.8382 19.3765 39.8382 19.408 39.8137C19.401 39.8697 19.4255 39.9012 19.394 39.9257C19.4568 40.7871 19.5196 41.6485 19.5824 42.5099C19.5824 42.5099 19.6069 42.5414 19.5754 42.5659C19.5929 42.6535 19.5789 42.7655 19.5893 42.9091C19.5822 43.4203 19.5855 44.0751 19.9952 44.2118C20.0512 44.2188 20.1072 44.2258 20.1317 44.2573C20.2438 44.2714 20.3313 44.2539 20.4504 44.2119C20.8951 44.0684 21.3434 43.6694 21.6516 43.4804C22.1104 43.2249 22.5446 42.9378 23.0034 42.6823C23.154 42.6159 23.3116 42.4933 23.4622 42.4268C23.6443 42.3359 23.7704 42.2378 23.9525 42.1468L23.977 42.1784C24.0084 42.6091 24.0958 43.0468 24.1272 43.4775C24.239 44.4019 24.3509 45.3264 24.5502 46.2333C24.5187 46.2578 24.4872 46.2823 24.4627 46.2508C24.3751 46.2683 24.3121 46.3173 24.193 46.3593C22.5121 47.0592 20.9081 48.0532 19.3497 48.9107C18.7403 49.2327 18.0995 49.5792 17.4901 49.9012C17.4586 49.9257 17.4271 49.9502 17.3395 49.9677C16.727 49.1797 15.8062 48.5807 14.8574 48.2058C14.8924 47.9257 14.9275 47.6456 14.9941 47.3409C15.0397 47.2044 15.0292 47.0608 15.0748 46.9243C15.3624 45.0825 15.8005 43.1743 15.9446 41.343C15.9446 41.343 15.9201 41.3115 15.9516 41.2869C15.9236 41.0558 15.514 40.9192 15.4474 41.2238C15.0302 42.964 14.8372 44.7322 14.5566 46.518C14.269 48.3597 13.8064 50.2365 13.7114 52.1308C13.7288 52.2183 13.7218 52.2743 13.8023 52.3129C13.8303 52.544 14.0404 52.6841 14.2855 52.5441ZM45.6592 12.6305C45.2143 13.2291 44.794 13.8593 44.3736 14.4895C43.4249 13.6594 42.3186 12.9518 41.3313 12.2022C40.134 11.3125 38.9997 10.3738 37.8655 9.43507L37.841 9.40355C38.2998 8.69284 38.7587 7.98214 39.1931 7.23991C39.3086 7.45354 39.4872 7.61816 39.6902 7.8143C39.9738 8.04897 40.2644 8.22763 40.5794 8.4378C40.66 8.47634 40.7335 8.5709 40.814 8.60944C40.968 8.74254 41.1536 8.85113 41.3321 9.01575C41.7452 9.35201 42.1654 9.63224 42.5785 9.96849C42.7325 10.1016 42.862 10.2032 43.0476 10.3118C43.2821 10.4834 43.4852 10.6795 43.7198 10.8512C44.1574 11.219 44.651 11.5937 45.1201 11.937C45.2006 11.9756 45.2742 12.0701 45.3547 12.1087C45.5402 12.2173 45.6943 12.3504 45.9043 12.4905C45.7363 12.4694 45.6977 12.5499 45.6592 12.6305ZM40.5173 4.84516C40.6329 4.60358 40.8046 4.36902 40.9202 4.12744C41.2004 3.70732 41.5122 3.2627 41.9219 2.94416C42.6539 2.32456 43.9913 3.0042 44.8771 3.42812C44.9822 3.49818 45.1187 3.54373 45.1992 3.58227C45.8435 3.89057 46.4246 4.24788 46.9743 4.62969C48.0421 5.41781 48.8577 6.40196 49.288 7.73617C48.2337 9.11203 47.1479 10.5124 46.1426 11.9513C45.2149 10.9531 43.9475 10.1684 42.9113 9.3558C42.2636 8.84791 41.5844 8.36452 40.8807 7.84961C40.3871 7.47482 39.932 7.0195 39.3473 6.91781C39.6731 6.36114 40.0304 5.77996 40.3562 5.22329C40.3702 5.11125 40.4718 4.98171 40.5173 4.84516ZM24.5303 41.8494C27.9768 37.9565 30.8773 33.4261 33.7252 29.0884C35.1719 26.8513 36.5941 24.5826 37.9603 22.3069C39.2634 20.0802 40.7417 17.8186 41.7542 15.4132C41.7998 15.2767 41.6142 15.1681 41.5126 15.2976C39.9924 17.4402 38.8048 19.8805 37.4386 22.1562C36.0724 24.4319 34.6257 26.669 33.179 28.9062C31.7393 31.0873 30.2751 33.2369 28.7548 35.3795C27.3047 37.4171 25.781 39.36 24.3869 41.4046C24.3063 41.3661 24.1943 41.352 24.1067 41.3695C23.5219 41.723 22.9125 42.045 22.3277 42.3986C22.0195 42.5876 21.7428 42.7521 21.4101 42.9096C21.2596 42.976 21.0074 43.1721 20.8183 43.3191C20.7237 43.3926 20.6046 43.4346 20.5416 43.4836C20.5101 43.5081 20.4225 43.5256 20.3665 43.5186C20.1774 43.6656 20.1529 43.6341 20.3 43.368C20.2966 43.1684 20.2616 42.9933 20.2581 42.7937C20.2197 42.419 20.1813 42.0444 20.1674 41.7012C20.115 40.9834 20.0557 40.3215 20.0033 39.6037L20.0349 39.5792C21.6041 37.4997 22.8652 35.1539 24.2734 32.9973C25.6886 30.7847 27.0968 28.628 28.512 26.4154C29.8886 24.2833 31.3213 22.1582 32.7225 20.0576C33.4616 18.9267 34.1937 17.8519 34.9573 16.7526C35.6509 15.7584 36.432 14.7466 36.884 13.6367C36.9225 13.5562 36.793 13.4546 36.7299 13.5036C35.8578 14.3333 35.2063 15.4466 34.5127 16.4409C33.7491 17.5402 32.9855 18.6395 32.2463 19.7703C30.7821 21.9199 29.3424 24.1011 27.9027 26.2822C26.463 28.4633 25.0479 30.6759 23.6642 32.8641C22.3576 34.8912 20.9074 36.9287 19.7794 39.1204C19.6988 39.0819 19.5868 39.0679 19.5237 39.1169C18.9774 39.3899 18.4311 39.6628 17.8113 39.8413C17.4856 39.9427 17.167 39.9882 16.8413 40.0896C18.2844 38.1081 19.6051 35.969 20.9922 33.9804C22.6595 31.5717 24.3584 29.1386 26.0503 26.7614C27.9593 24.0132 29.8929 21.2964 31.7704 18.5727C32.2538 17.8935 32.7127 17.1828 33.1961 16.5036C34.2399 14.9842 35.2523 13.4892 36.2716 11.9383C36.692 11.3081 37.1123 10.6779 37.5011 10.0723C37.5011 10.0723 37.5011 10.0723 37.5256 10.1038C37.7042 10.2684 37.9387 10.44 38.1173 10.6047C38.1663 10.6677 38.2468 10.7062 38.2958 10.7693C39.171 11.5048 40.0778 12.2159 40.9915 12.8709C41.6147 13.3473 42.2623 13.8552 42.9415 14.3386C43.0466 14.4086 43.1516 14.4787 43.2566 14.5487C43.2811 14.5803 43.3616 14.6188 43.3862 14.6503C43.6207 14.8219 43.8623 14.9376 44.1284 15.0847C44.0268 15.2142 43.9567 15.3193 43.8552 15.4488C42.4295 17.5179 41.0528 19.65 39.6762 21.7821C38.5868 23.4381 37.5534 25.1011 36.464 26.757C34.4113 29.971 32.3585 33.1849 30.3863 36.4374C29.7102 37.5192 29.0342 38.601 28.3581 39.6828C27.5419 40.9747 26.7502 42.2981 26.0461 43.604C25.9304 43.8456 25.7833 44.1117 25.6677 44.3533C25.6292 44.4338 25.5906 44.5143 25.5521 44.5949C25.405 44.8609 25.2823 45.1585 25.1352 45.4246C25.1037 45.4491 25.0967 45.5051 25.0967 45.5051C25.0862 45.3616 25.0687 45.274 25.0582 45.1305C25.0093 44.6122 24.9289 44.1185 24.8555 43.5687C24.6841 42.8929 24.5792 42.3676 24.5303 41.8494ZM14.8047 48.8536C15.1268 49.0077 15.3929 49.1549 15.6834 49.3335C15.3191 49.9707 14.9058 50.5449 14.4364 51.112C14.5592 50.3592 14.6819 49.6064 14.8047 48.8536Z" fill="#1E1B1C"/>
</svg>
