<svg width="24" height="18" viewBox="0 0 24 18" fill="none" xmlns="http://www.w3.org/2000/svg">
<path d="M23.1429 12.2235C23.0614 12.8132 22.9907 13.4029 22.8494 13.9816C22.5396 15.2492 22.0286 16.4286 21.3274 17.5198C21.0394 17.9718 20.6208 18.1261 20.1479 17.9112C19.5283 17.6301 18.9141 17.3269 18.3053 17.0183C17.9357 16.8309 17.7726 16.4617 17.8324 16.0649C17.8922 15.6956 18.1857 15.4035 18.5771 15.3263C18.7945 15.2822 18.9956 15.3539 19.1858 15.4476C19.4685 15.5799 19.7511 15.7121 20.0283 15.8554C20.1534 15.9161 20.2132 15.905 20.2838 15.7728C20.9252 14.5217 21.2948 13.2045 21.3655 11.7936C21.4361 10.2835 21.1752 8.84501 20.5773 7.46167C20.3871 7.02628 20.5121 6.57435 20.86 6.32083C21.197 6.07833 21.6264 6.09486 21.9471 6.35941C22.0884 6.47514 22.1645 6.62946 22.2352 6.7948C22.7189 7.9136 23.0233 9.082 23.1212 10.3C23.1266 10.3441 23.1375 10.3882 23.1483 10.4268C23.1429 11.0165 23.1429 11.6172 23.1429 12.2235Z" fill="white"/>
<path d="M0.863211 11.3031C0.895824 8.32697 1.88509 5.73113 3.90711 3.55967C5.64649 1.68582 7.77722 0.550485 10.283 0.142647C12.4463 -0.210078 14.539 0.0875334 16.5502 0.980369C16.9742 1.16775 17.1807 1.55906 17.11 1.99445C17.0448 2.39127 16.7187 2.68888 16.2947 2.72746C16.1153 2.74399 15.9523 2.69439 15.7892 2.62274C14.9413 2.25349 14.0553 2.00548 13.1367 1.88974C12.9464 1.86769 12.8921 1.91178 12.8975 2.09917C12.9084 2.45189 12.9029 2.80462 12.8975 3.15734C12.8921 3.6699 12.5116 4.0612 12.0224 4.06671C11.5277 4.07222 11.1364 3.67541 11.1309 3.15183C11.1255 2.7936 11.1255 2.42985 11.1309 2.07161C11.1364 1.89525 11.0657 1.85667 10.9081 1.87872C8.77736 2.15428 6.95102 3.05814 5.41819 4.57927C4.929 5.06426 4.51046 5.60437 4.13541 6.18306C4.04844 6.31533 4.08105 6.36494 4.20607 6.42556C4.57569 6.60192 4.9453 6.76726 5.29861 6.97118C5.62474 7.15857 5.76063 7.47271 5.72258 7.84748C5.68454 8.20021 5.48342 8.44271 5.16272 8.57498C4.91269 8.67969 4.66809 8.65214 4.42893 8.5364C4.10279 8.37657 3.77123 8.22777 3.45053 8.05691C3.28203 7.96873 3.23311 8.01833 3.18419 8.17816C2.88523 9.08202 2.71129 10.0024 2.67325 10.9614C2.60802 12.6368 2.9722 14.2076 3.71687 15.6956C3.80927 15.8775 3.88537 15.905 4.05931 15.8114C4.3637 15.646 4.67896 15.4862 4.99966 15.3594C5.38558 15.2106 5.80412 15.376 6.02154 15.7177C6.23896 16.0649 6.20091 16.5168 5.92914 16.8199C5.82586 16.9357 5.68997 17.0073 5.55408 17.079C5.04314 17.3325 4.52677 17.5915 4.01039 17.8395C3.42335 18.1261 3.01025 17.9938 2.65694 17.4427C1.78182 16.0704 1.22196 14.5713 0.977357 12.951C0.895824 12.4109 0.841469 11.8597 0.863211 11.3031Z" fill="white"/>
<path d="M9.39161 11.0553C9.40792 10.4656 9.72318 9.77112 10.3754 9.24204C11.5604 8.28307 12.816 7.4233 14.0499 6.54149C15.5501 5.47229 17.0666 4.43065 18.5722 3.37247C18.7897 3.21815 19.0234 3.09691 19.3006 3.141C19.9746 3.25122 20.2953 3.96769 19.9203 4.5519C19.5398 5.14161 19.1375 5.71479 18.7407 6.29899C17.3112 8.40431 15.8871 10.5152 14.3869 12.5654C14.0662 13.0008 13.7292 13.4251 13.2345 13.6842C11.4734 14.6101 9.38618 13.3259 9.39161 11.0553ZM15.6425 7.66029C15.6099 7.66029 15.5936 7.65477 15.5881 7.66029C14.2347 8.6413 12.8432 9.57272 11.5332 10.6144C11.2343 10.8513 11.1201 11.16 11.2071 11.5292C11.2832 11.8599 11.5006 12.0693 11.8213 12.1465C12.18 12.2292 12.4736 12.1079 12.7019 11.8103C13.3378 11.0002 13.914 10.1459 14.5065 9.30266C14.8815 8.76255 15.262 8.21693 15.6425 7.66029Z" fill="white"/>
</svg>
