<svg width="77" height="84" viewBox="0 0 77 84" fill="none" xmlns="http://www.w3.org/2000/svg">
<path d="M67.8962 53.8373C70.8845 44.0361 74.4287 34.235 76.9305 24.2958C77 23.8816 76.5831 22.9153 76.3051 22.8463C67.1318 18.3599 57.4026 14.7707 47.8818 11.0435C38.0136 7.10923 28.0758 3.10595 17.8601 -5.02132e-05C17.5822 -0.0690724 17.3737 0.137994 17.3737 0.414083C17.0957 0.345061 16.8177 0.414083 16.6787 0.759194C13.4125 8.76577 11.0497 17.1175 8.26988 25.2621C5.4901 33.3377 2.15436 41.4823 2.57939e-05 49.834C-0.277953 50.8693 1.18143 51.3525 1.5984 50.4552L1.6679 50.5242C10.2157 55.8389 18.8331 61.0156 27.5199 66.1232C36.1372 71.1618 44.7545 76.7526 53.7888 81.032C53.9973 81.101 55.4567 81.8603 55.9432 82.2744C56.0822 82.3434 56.2211 82.4815 56.3601 82.6195C56.8466 82.9646 57.2636 83.3788 57.75 83.7929C58.2365 84.207 58.9314 84.069 59.1399 83.5168C62.8231 73.7847 64.9775 63.6384 67.8962 53.8373ZM52.3989 78.2711C50.8006 77.2358 49.1327 76.2695 47.4648 75.2341C43.5731 72.9564 39.6814 70.8167 35.7202 68.608C33.2879 67.2966 30.8556 65.9161 28.4928 64.6047C24.0452 62.0509 19.5975 59.5661 15.2193 57.0123C10.9107 54.5965 6.53252 52.1117 2.15436 49.7649C2.08486 49.7649 2.01537 49.6959 1.94587 49.7649C2.08486 49.4198 2.15436 49.1437 2.29335 48.7986C2.50183 48.2465 2.71031 47.6943 2.9188 47.1421C3.54425 45.4165 4.1697 43.691 4.72566 41.9654C6.46302 36.5127 7.9919 31.0599 9.72927 25.6762C12.3006 17.6006 15.4278 9.59403 17.6516 1.44942C17.7211 1.31137 17.7211 1.17333 17.7906 1.03528C17.7906 0.96626 17.7906 0.897238 17.7906 0.828216C21.6128 2.48475 25.574 4.00324 29.4657 5.52173C34.1914 7.3163 38.917 9.11088 43.6426 10.9055C44.685 11.3196 45.797 11.7337 46.8394 12.1479C53.9973 14.9778 61.0858 18.1528 68.3132 20.9827C68.7997 21.1898 69.2861 21.3968 69.7726 21.5349C71.6489 22.2941 73.5948 23.0534 75.4711 23.7436C75.3322 24.0887 75.1932 24.5028 75.0542 24.917C74.9152 25.193 74.8457 25.4691 74.7067 25.7452C73.1778 29.8175 71.8574 33.8898 70.6065 38.1002C69.6336 41.3442 68.7302 44.5883 67.7572 47.8323C67.2708 49.6269 66.7148 51.4215 66.1589 53.2161C65.2554 56.115 64.352 59.0139 63.4486 61.9819C62.8926 63.6384 62.4062 65.2949 61.9197 66.9515C60.3908 71.8521 59.0009 76.7526 57.9585 81.7222C56.2211 80.2728 54.4143 79.0994 52.3989 78.2711Z" fill="#1E1B1C"/>
<path d="M72.1353 26.7806C72.2743 26.3665 71.8574 25.2621 71.5099 25.1241C65.2554 22.7083 58.7924 20.7066 52.3989 18.636C49.9666 17.8077 47.5343 16.9794 45.1714 16.0822C44.0595 15.668 42.9476 15.2539 41.9052 14.8398C34.6778 11.9408 18.972 4.55545 18.694 5.31469C13.8294 19.3952 9.86819 33.9589 5.9765 48.3155C5.83751 48.9367 6.32397 49.3508 6.81043 49.3508C7.2274 49.6269 7.64437 49.834 8.06133 50.1101C8.89527 50.5932 9.65971 51.0764 10.4936 51.5596C11.0496 51.9047 11.5361 52.1808 12.092 52.5259C14.8023 54.1134 17.5126 55.6319 20.2229 57.1504C28.6317 61.7748 37.2491 66.1232 45.5189 70.9548C45.5189 70.9548 52.3989 75.0961 55.1092 76.8907C55.8736 77.4429 56.2906 75.7173 56.2906 75.7173C59.4873 67.9178 61.8501 59.7042 64.4214 51.6976C66.0198 46.659 67.6182 41.6204 69.1471 36.5817C69.981 33.8899 70.8149 31.198 71.6489 28.4371C71.7879 27.8849 71.9269 27.3328 72.1353 26.7806ZM62.7536 51.1454C60.2518 59.083 57.333 66.9515 55.2482 74.9581C53.0243 73.5086 50.731 72.1282 48.5072 70.8167C47.9512 70.4716 47.3953 70.1265 46.8393 69.8504C44.0595 61.2917 41.9052 52.5949 40.5848 43.691C40.3068 41.8274 40.2373 39.5497 37.805 40.378C35.7202 41.0682 33.6353 42.7247 31.759 43.8291C29.4657 45.1405 27.2418 46.4519 24.9485 47.7633C24.6705 46.3139 24.4621 44.9334 24.2536 43.484C23.4891 38.5834 22.7942 33.6138 22.1687 28.7132C22.0992 28.2991 21.5433 28.092 21.1958 28.2991C17.7211 30.1627 14.7328 32.4404 12.092 35.3393C11.953 35.4774 11.814 35.6154 11.6751 35.8225C11.7445 35.6154 11.814 35.4084 11.8835 35.2013C14.7328 25.9523 17.3736 16.5653 19.8059 7.31633C27.3808 11.3886 36.0676 14.2186 44.129 17.1865C52.7463 20.3615 61.6417 23.8126 70.6759 25.8833C70.6065 25.9523 70.537 26.0904 70.4675 26.2284C67.8962 34.5801 65.3249 42.8628 62.7536 51.1454ZM27.3808 58.9449C26.1299 57.0123 25.6435 51.3525 25.5045 50.4552C25.435 50.0411 25.3655 49.5579 25.296 49.1438C25.3655 49.1438 25.3655 49.1438 25.435 49.1438C25.574 49.0748 25.6435 49.0057 25.7824 48.9367C26.2689 48.6606 26.7554 48.3845 27.2418 48.1084C30.0216 46.5209 32.8014 45.0024 35.5812 43.4149C36.1371 43.0698 37.944 41.7584 38.7779 42.1035C38.8474 42.1035 38.8474 42.1035 38.9169 42.1725C38.9864 42.2416 38.9864 42.3106 39.0559 42.5176C39.0559 42.5867 39.0559 42.7247 39.1254 42.7937C39.1254 42.8628 39.1254 42.8628 39.1254 42.9318C39.1949 43.553 39.2644 44.3812 39.2644 44.5883C39.5424 46.4519 39.8204 48.2465 40.1678 50.1101C41.3492 56.3221 42.8781 62.4651 44.7545 68.539V68.608C44.685 68.608 44.685 68.539 44.6155 68.539C38.9169 65.2259 33.1489 62.0509 27.3808 58.9449ZM7.64437 48.3155C8.89527 44.6573 10.0767 40.9301 11.2581 37.2029C11.3971 37.272 11.6056 37.272 11.6751 37.1339C12.7175 36.0986 13.7599 35.1323 14.8023 34.235C16.3312 32.9236 17.9296 31.7502 19.5974 30.7149C20.0839 30.4388 20.5009 30.1627 20.9873 29.8866C21.3348 33.1306 21.7518 36.3747 22.2382 39.6187C22.2382 39.8258 22.3077 40.1019 22.3077 40.3089C22.5162 41.8965 22.7247 43.484 23.0027 45.0715C23.0722 45.3476 23.0722 45.6236 23.1417 45.8997C23.4891 48.1775 23.8366 50.5242 24.2536 52.802C24.4621 54.1824 24.5315 56.184 25.018 57.7715C21.9602 56.115 18.9025 54.5275 15.9142 52.871C13.1344 51.3525 10.3547 49.834 7.64437 48.3155Z" fill="#1E1B1C"/>
<path d="M52.8158 30.3006C52.3988 30.3697 52.2598 30.7148 52.3293 30.9909C51.4954 31.405 50.731 32.0262 50.036 32.6474C49.4106 33.2686 48.7851 33.9588 48.3681 34.7181C47.6732 35.9605 47.3257 37.3409 47.5342 38.7904C48.0207 42.2415 51.7039 44.3121 54.9701 43.829C58.5838 43.3458 61.0162 39.6186 60.5992 36.0985C60.1127 32.5784 56.4295 29.6794 52.8158 30.3006ZM51.3564 41.9654C49.758 41.1371 48.6461 39.6186 48.7156 37.686C48.7851 35.1322 50.592 33.0615 52.7463 31.7501C52.8158 31.6811 52.9548 31.6121 53.0243 31.6121C53.5802 31.6121 54.1362 31.6811 54.6227 31.8191C56.777 32.3023 58.6533 33.6137 59.1398 35.9605C59.4178 37.3409 59.1398 38.7904 58.4449 39.9637C57.5414 41.4822 55.9431 42.6556 54.0667 42.6556C53.0938 42.6556 52.1209 42.4485 51.3564 41.9654Z" fill="#1E1B1C"/>
<path d="M48.4377 28.5061C47.4647 27.5398 46.7003 26.2974 46.0748 25.1241C45.7969 24.6409 45.6579 24.0887 45.5884 23.5365C45.4494 22.7773 44.407 22.9844 44.4765 23.7436C44.685 25.1931 45.2409 26.6425 46.0748 27.8849C46.5613 28.6442 47.6732 30.5078 48.7851 30.1627C48.9936 30.0936 49.0631 29.9556 49.1326 29.7485C49.1326 29.1273 48.7851 28.9203 48.4377 28.5061Z" fill="#1E1B1C"/>
<path d="M43.9901 31.8192C44.2681 31.6122 44.4071 31.2671 44.1291 31.06C43.5731 30.5078 42.8087 30.5768 42.0442 30.4388C41.0713 30.3007 40.1679 30.0247 39.195 29.7486C38.5695 29.6105 38.0136 30.5078 38.7085 30.8529C39.6119 31.3361 40.5154 31.6122 41.5578 31.8192C42.2527 31.9573 43.2257 32.3024 43.9901 31.8192Z" fill="#1E1B1C"/>
<path d="M47.4648 43.2769C47.0479 43.2079 46.7699 43.4149 46.5614 43.8291C46.1444 44.3812 45.7275 44.9334 45.3105 45.4856C44.1986 46.3139 46.2139 47.3492 46.2834 45.6236C46.7699 45.1405 47.0479 44.7954 47.5343 44.3122C47.8818 44.2432 47.9513 43.829 47.8123 43.553C47.8123 43.4839 47.6733 43.3459 47.4648 43.2769Z" fill="#1E1B1C"/>
<path d="M55.9431 47.8323C56.2211 47.2111 55.2482 47.004 54.9702 47.5562C54.4142 48.7296 54.0667 49.903 53.8583 51.2144C53.7193 52.1117 53.5108 53.009 54.0668 53.7682C54.2057 53.9753 54.4837 53.9063 54.6227 53.6992C55.1092 53.009 54.9702 52.0427 55.0397 51.2144C55.1092 49.972 55.4566 48.8676 55.9431 47.8323Z" fill="#1E1B1C"/>
<path d="M59.8349 45.3475C59.4874 44.7953 58.723 45.2094 58.9314 45.8306C59.2789 46.6589 59.6959 47.4872 60.1129 48.3154C60.4603 49.0057 61.5027 48.4535 61.1553 47.7633C60.7383 46.935 60.3213 46.1758 59.8349 45.3475Z" fill="#1E1B1C"/>
<path d="M63.657 36.7197C63.379 36.8578 63.1705 36.9958 62.8926 37.1339C62.6146 37.3409 62.4756 37.617 62.6146 37.8931C62.7536 38.1692 63.0316 38.3763 63.379 38.3073C63.7265 38.1692 64.0045 38.1002 64.3519 37.8931C65.0469 37.479 64.4214 36.3746 63.657 36.7197Z" fill="#1E1B1C"/>
<path d="M65.3248 30.9219C65.8808 30.5078 65.1858 29.5415 64.6299 29.9556C63.796 30.5078 63.0315 31.129 62.2671 31.7502C61.7111 32.1643 62.4756 32.9926 63.0315 32.5785C63.8654 32.0263 64.6299 31.4741 65.3248 30.9219Z" fill="#1E1B1C"/>
<path d="M56.0822 27.8158C56.3601 27.1256 56.7076 26.4354 56.9856 25.7452C57.2636 25.193 56.2212 24.7098 55.9432 25.262C55.5957 25.9522 55.2482 26.5734 54.9008 27.2637C54.4838 28.0919 55.6652 28.6441 56.0822 27.8158Z" fill="#1E1B1C"/>
<path d="M41.2103 36.7198C40.6543 36.6507 40.1679 36.5127 39.6119 36.4437C38.8475 36.3056 38.639 37.341 39.4729 37.479C40.0289 37.548 40.5154 37.6861 41.0713 37.7551C41.5578 37.8241 42.0442 38.0312 42.4612 37.7551C42.6697 37.617 42.7392 37.41 42.5307 37.2029C42.1832 36.7888 41.6273 36.7888 41.2103 36.7198Z" fill="#1E1B1C"/>
</svg>
