<svg width="54" height="53" viewBox="0 0 54 53" fill="none" xmlns="http://www.w3.org/2000/svg">
<path d="M16.7097 44.1195C17.8594 40.974 19.9482 39.1823 23.2441 39.3416C26.1951 39.4809 28.0347 41.2328 29.0695 44.239C30.3726 40.7152 32.7104 38.9633 36.2171 39.3814C38.8999 39.6999 40.5095 41.5116 41.4868 44.1792C43.1348 40.1777 45.8942 38.386 49.9567 39.7596C52.8119 40.7152 54.2682 43.4825 54 46.7673C53.7892 49.3354 51.6238 51.7841 49.0752 52.3217C45.8942 52.9985 43.5372 51.5452 41.506 47.6632C40.3562 50.6295 38.44 52.461 35.2399 52.4212C32.1164 52.3814 30.2384 50.5697 29.127 47.5238C27.8814 50.9679 25.6394 52.7198 22.1902 52.4013C19.4116 52.1425 17.7061 50.3906 16.7097 47.4641C16.0582 49.4748 15.0234 50.9082 13.3562 51.7642C11.6891 52.6203 9.98364 52.68 8.23985 52.0429C5.76788 51.1272 3.98577 48.34 4.13907 45.6923C4.31153 42.6264 6.28527 40.1379 9.06384 39.461C12.1682 38.6846 14.4868 40.0981 16.7097 44.1195ZM8.56561 45.8714C8.56561 46.9863 9.44709 47.9021 10.5202 47.8822C11.5358 47.8622 12.3981 46.9465 12.3981 45.8714C12.3981 44.7765 11.4783 43.8408 10.4244 43.8607C9.40876 43.8806 8.56561 44.7964 8.56561 45.8714ZM47.7338 47.8822C48.7878 47.8622 49.6501 46.9067 49.6309 45.8316C49.6117 44.7964 48.7111 43.8806 47.7338 43.8607C46.699 43.8408 45.7792 44.7964 45.7792 45.8714C45.7792 46.9664 46.699 47.9021 47.7338 47.8822ZM37.1944 45.9113C37.2136 44.8362 36.3896 43.9005 35.374 43.8607C34.3201 43.8209 33.3811 44.7168 33.3619 45.8316C33.3428 46.9266 34.2242 47.8622 35.2973 47.8822C36.313 47.8822 37.1753 47.0062 37.1944 45.9113ZM24.7579 45.9113C24.7771 44.7964 23.8956 43.8607 22.8609 43.8806C21.8644 43.9005 21.0021 44.7964 21.0021 45.8515C20.9829 46.9664 21.8644 47.9021 22.8992 47.8822C23.8956 47.8622 24.7579 46.9664 24.7579 45.9113Z" fill="#55575A"/>
<path d="M34.9325 0.520285C39.11 0.520285 43.3066 0.520285 47.484 0.520285C51.3356 0.520285 53.9801 3.28751 53.9801 7.26914C53.9801 14.3365 53.9801 21.4039 53.9801 28.4713C53.9801 32.4529 51.3165 35.2599 47.484 35.2599C38.9567 35.2799 30.4293 35.2599 21.902 35.2799C21.0205 35.2799 20.599 35.041 20.6756 34.0456C20.7331 33.289 20.7331 32.5126 20.6756 31.7561C20.6181 30.8603 21.0014 30.5417 21.8062 30.6214C22.0936 30.6413 22.3811 30.6214 22.6685 30.6214C30.7743 30.6214 38.8992 30.6214 47.0049 30.6214C49.0361 30.6214 49.6302 30.0042 49.6302 27.8939C49.6302 21.1849 49.6302 14.4958 49.6302 7.78675C49.6302 5.73621 48.9595 5.01952 46.9858 5.01952C38.6884 5.01952 30.3718 5.01952 22.0745 5.01952C20.6756 5.01952 20.6756 5.01952 20.6756 3.60604C20.6756 2.94908 20.7139 2.2722 20.6756 1.61523C20.599 0.719366 20.9822 0.480469 21.8062 0.480469C26.1944 0.520285 30.5635 0.520285 34.9325 0.520285Z" fill="#55575A"/>
<path d="M8.12464 13.4602C4.40711 11.4296 3.6981 7.90585 4.33046 5.45716C5.05864 2.59039 7.45395 0.579668 10.2325 0.519943C13.241 0.460219 15.7513 2.33158 16.5562 5.27798C17.4376 8.46328 16.1729 11.131 12.532 13.4602C13.4518 13.4602 14.1992 13.4403 14.9465 13.4602C17.0927 13.5399 18.8173 14.3959 20.0629 16.2872C21.021 17.7604 22.0941 19.1938 23.0522 20.667C23.6846 21.6225 24.4511 22.1003 25.62 22.0605C27.8237 22.0008 30.0274 22.0605 32.2311 22.0406C32.9976 22.0207 33.3425 22.2795 33.3042 23.1157C33.2467 24.0115 33.2659 24.9074 33.3042 25.8032C33.3234 26.4005 33.0551 26.6792 32.5185 26.6593C29.74 26.6195 26.9614 26.8385 24.1828 26.5398C22.4007 26.3607 20.9827 25.4449 19.9288 23.9518C18.8173 22.3791 17.7059 20.7864 16.6328 19.1738C16.0579 18.3178 15.3872 17.8997 14.3141 17.9395C11.823 18.0192 9.33188 17.9595 6.84075 17.9794C5.05864 17.9794 4.34962 18.7359 4.34962 20.6072C4.34962 25.0467 4.34962 29.5062 4.34962 33.9457C4.34962 35.2397 4.3113 35.2596 3.04657 35.2795C2.33756 35.2795 1.64771 35.2596 0.938692 35.2795C0.153028 35.2994 -0.000272383 34.8614 -0.000272383 34.1447C0.0188901 30.4617 -0.000272383 26.7787 -0.000272383 23.0957C-0.000272383 22.0008 -0.0194349 20.9059 -0.000272383 19.8109C0.0572152 16.327 2.75913 13.5199 6.13174 13.4602C6.80243 13.4403 7.45395 13.4602 8.12464 13.4602ZM10.4816 5.0789C9.42769 5.05899 8.56538 5.97477 8.56538 7.12944C8.56538 8.18457 9.44685 9.08043 10.4625 9.08043C11.5547 9.08043 12.417 8.18457 12.3979 7.04981C12.3787 6.01458 11.4781 5.09881 10.4816 5.0789Z" fill="#55575A"/>
<path d="M41.5061 22.0405C42.5984 22.0405 43.6715 22.0604 44.7637 22.0405C45.5111 22.0206 45.7985 22.359 45.7602 23.1155C45.7218 23.9716 45.7218 24.8475 45.7602 25.7036C45.7793 26.3805 45.5302 26.699 44.8787 26.6791C42.6367 26.6791 40.4138 26.6791 38.1718 26.6791C37.482 26.6791 37.1945 26.3805 37.2137 25.6439C37.2328 24.7878 37.252 23.9119 37.2137 23.0558C37.1754 22.2595 37.5394 22.0007 38.2485 22.0206C39.3407 22.0604 40.4138 22.0405 41.5061 22.0405Z" fill="#55575A"/>
<path d="M41.5061 17.9795C40.3947 17.9795 39.2832 17.9596 38.1527 17.9795C37.5203 17.9994 37.1945 17.7605 37.2137 17.0637C37.2329 16.128 37.2329 15.2123 37.2137 14.2766C37.2137 13.6992 37.4628 13.4404 38.0185 13.4404C40.318 13.4603 42.5984 13.4603 44.8979 13.4404C45.5111 13.4404 45.7602 13.7191 45.741 14.3363C45.7219 15.2322 45.7219 16.128 45.741 17.0239C45.7602 17.7008 45.4919 17.9795 44.8404 17.9795C43.729 17.9596 42.6175 17.9795 41.5061 17.9795Z" fill="#55575A"/>
<path d="M16.805 30.8399C16.805 31.9946 16.7858 33.1492 16.805 34.3238C16.805 34.9211 16.6133 35.2794 15.981 35.2595C15.0612 35.2396 14.1414 35.2595 13.2024 35.2595C12.7042 35.2595 12.4551 35.0206 12.4551 34.4632C12.4551 32.0145 12.4551 29.5658 12.4551 27.1171C12.4551 26.6194 12.685 26.4004 13.1641 26.4004C14.1222 26.4004 15.0803 26.4004 16.0385 26.4004C16.6325 26.4004 16.805 26.7388 16.805 27.2763C16.7858 28.4509 16.805 29.6454 16.805 30.8399Z" fill="#55575A"/>

</svg>

