
<svg width="274" height="272" viewBox="0 0 274 272" fill="none" xmlns="http://www.w3.org/2000/svg">
<path d="M136.878 272C212.474 272 273.756 236.619 273.756 192.974C273.756 149.33 212.474 113.949 136.878 113.949C61.2823 113.949 0 149.33 0 192.974C0 236.619 61.2823 272 136.878 272Z" fill="#F5F5F5"/>
<path d="M231.403 223.659C230.609 220.005 226.665 217.103 222.193 215.605C220.209 213.141 216.567 210.351 210.348 207.313C196.572 200.597 189.139 197.126 185.325 195.403C184.075 194.864 182.719 194.614 181.359 194.669C179.999 194.724 178.668 195.084 177.466 195.722L145.857 214.456C145.425 214.665 144.951 214.774 144.471 214.774C143.991 214.774 143.517 214.665 143.085 214.456C142.995 214.405 142.913 214.341 142.842 214.266C142.908 214.192 142.986 214.13 143.073 214.083C154.67 207.313 174.593 195.651 177.714 193.602C179.272 192.572 179.231 191.233 178.674 190.339C177.128 187.833 169.6 185.944 166.319 187.845L126.045 211.098C124.683 211.885 123.937 213.046 124.008 214.278C124.085 215.599 125.062 216.76 126.697 217.47C132.347 219.922 142.149 224.346 156.754 231.465C159.923 232.927 162.905 234.762 165.638 236.932C165.366 236.891 165.093 236.861 164.821 236.831C154.433 235.819 148.83 239.532 148.036 243.411C147.397 246.515 149.677 249.375 153.84 250.702C159.686 252.568 169.15 250.163 171.2 245.058C171.713 243.785 171.765 242.373 171.348 241.066C173.841 242.446 175.807 244.365 176.275 246.521C176.915 249.482 174.599 252.592 169.577 255.494C155.096 263.85 144.109 258.716 127.757 249.275C125.424 247.924 109.018 238.531 80.3168 222.114C78.4694 221.054 76.9342 219.526 75.8662 217.683C74.7983 215.84 74.2353 213.748 74.2342 211.619V204.162C74.2143 203.895 74.0942 203.646 73.8982 203.464C73.7021 203.282 73.4445 203.181 73.1771 203.181C72.9096 203.181 72.652 203.282 72.456 203.464C72.2599 203.646 72.1399 203.895 72.1199 204.162V211.625C72.1214 214.126 72.7832 216.583 74.0384 218.748C75.2936 220.912 77.0977 222.706 79.2685 223.95C107.97 240.367 124.369 249.76 126.703 251.105C137.405 257.282 146.2 261.801 155.256 261.801C160.189 261.801 165.194 260.463 170.655 257.324C178.105 253.024 178.946 248.837 178.354 246.071C177.56 242.393 173.847 239.485 169.654 237.945C167.693 235.463 164.039 232.644 157.72 229.564C143.079 222.428 133.247 217.991 127.579 215.528C126.727 215.16 126.182 214.633 126.158 214.154C126.134 213.674 126.496 213.295 127.141 212.922L167.415 189.664C169.056 188.716 172.953 189.243 175.345 190.345C176.607 190.937 176.939 191.423 176.962 191.494C176.986 191.565 176.909 191.624 176.595 191.831C173.515 193.857 153.627 205.495 142.048 212.258C141.66 212.431 141.33 212.713 141.099 213.069C140.867 213.425 140.744 213.841 140.744 214.266C140.744 214.691 140.867 215.107 141.099 215.463C141.33 215.82 141.66 216.101 142.048 216.274C142.806 216.671 143.648 216.878 144.503 216.878C145.358 216.878 146.201 216.671 146.958 216.274L178.567 197.535C179.481 197.075 180.483 196.818 181.505 196.781C182.528 196.745 183.546 196.929 184.49 197.321C188.292 199.045 195.701 202.504 209.46 209.208C212.628 210.671 215.61 212.506 218.344 214.675C218.065 214.633 217.793 214.604 217.52 214.574C207.132 213.561 201.529 217.275 200.742 221.154C200.102 224.258 202.382 227.118 206.546 228.445C212.391 230.311 221.856 227.906 223.899 222.801C224.439 221.461 224.471 219.969 223.988 218.607C226.754 219.976 228.951 221.93 229.425 224.11C230.053 227.018 227.583 230.174 222.276 233.236L217.455 236.02C217.343 235.922 217.222 235.835 217.094 235.759C216.944 235.649 216.767 235.581 216.581 235.562C216.396 235.543 216.209 235.575 216.04 235.653L213.937 236.837C213.751 236.722 213.538 236.655 213.319 236.641C213.1 236.628 212.881 236.669 212.682 236.76L204.781 241.327C204.575 241.467 204.411 241.661 204.307 241.887C204.202 242.114 204.161 242.364 204.189 242.612C204.191 242.776 204.205 242.941 204.23 243.103L203.94 243.293L202.163 244.406L201.82 244.626L200.043 245.763L199.723 245.964L197.911 247.119L197.62 247.303L195.151 248.274C195.113 248.296 195.079 248.324 195.05 248.357L194.381 248.949C194.31 249.023 194.256 249.11 194.221 249.206C194.186 249.302 194.172 249.404 194.179 249.506C194.198 249.843 194.296 250.172 194.465 250.465C194.633 250.758 194.868 251.008 195.151 251.194C195.237 251.251 195.334 251.289 195.436 251.308C195.538 251.326 195.642 251.324 195.743 251.3V251.3L196.596 251.04C196.643 251.028 196.689 251.01 196.732 250.986L198.811 249.334L201.02 248.179L201.352 248.007L203.223 247.03L203.585 246.841L205.432 245.875L205.752 245.709C205.88 245.813 206.014 245.908 206.155 245.994C206.355 246.138 206.59 246.227 206.835 246.251C207.081 246.275 207.329 246.233 207.553 246.13L209.922 244.774L215.477 241.564C215.528 241.535 215.573 241.499 215.613 241.457C215.752 241.327 215.862 241.17 215.938 240.996C216.013 240.822 216.052 240.634 216.052 240.444L218.148 239.23C218.293 239.147 218.407 239.021 218.474 238.869C218.556 238.682 218.596 238.48 218.592 238.276C218.591 238.129 218.575 237.982 218.545 237.838C218.545 237.838 218.545 237.838 218.545 237.797L223.354 235.019C231.048 230.553 231.989 226.372 231.403 223.659Z" fill="#E0E0E0"/>
<path d="M155.203 258.71C146.147 258.71 137.352 254.191 126.65 248.013C123.688 246.302 99.2219 232.301 79.2153 220.858C77.0445 219.615 75.2404 217.82 73.9852 215.656C72.73 213.492 72.0682 211.035 72.0667 208.533V201.035C72.0866 200.768 72.2067 200.519 72.4027 200.337C72.5988 200.155 72.8564 200.054 73.1238 200.054C73.3913 200.054 73.6489 200.155 73.8449 200.337C74.041 200.519 74.161 200.768 74.181 201.035V208.533C74.1825 210.662 74.7457 212.753 75.8137 214.595C76.8816 216.436 78.4166 217.963 80.2636 219.022C100.27 230.471 124.743 244.49 127.704 246.183C144.068 255.63 155.043 260.759 169.524 252.402C174.546 249.5 176.862 246.397 176.222 243.429C175.754 241.279 173.794 239.355 171.294 237.975C171.71 239.284 171.658 240.697 171.146 241.972C169.103 247.072 159.633 249.476 153.787 247.617C149.641 246.29 147.343 243.423 147.983 240.326C148.783 236.441 154.373 232.727 164.768 233.746C165.04 233.746 165.313 233.805 165.591 233.847C162.856 231.678 159.874 229.842 156.707 228.374C142.108 221.267 132.306 216.837 126.65 214.379C125.015 213.674 124.038 212.507 123.961 211.187C123.884 209.866 124.636 208.817 125.998 208.006L166.272 184.754C169.553 182.859 177.081 184.754 178.627 187.247C179.183 188.153 179.219 189.486 177.667 190.511C174.558 192.554 154.628 204.222 143.026 210.997C142.94 211.044 142.862 211.104 142.795 211.175C142.864 211.252 142.946 211.316 143.038 211.364C143.47 211.573 143.943 211.682 144.423 211.682C144.903 211.682 145.377 211.573 145.809 211.364L177.418 192.625C178.622 191.989 179.952 191.63 181.312 191.574C182.672 191.519 184.027 191.769 185.278 192.305C189.086 194.029 196.531 197.493 210.301 204.216C216.543 207.26 220.186 210.055 222.146 212.507C226.594 214.006 230.562 216.908 231.356 220.568C231.948 223.281 231.006 227.456 223.2 231.963L213.766 237.412C213.523 237.552 213.235 237.589 212.964 237.517C212.694 237.444 212.463 237.267 212.323 237.024C212.184 236.781 212.146 236.493 212.219 236.223C212.291 235.952 212.469 235.722 212.711 235.582L222.146 230.133C227.477 227.071 229.923 223.92 229.295 221.012C228.821 218.827 226.624 216.866 223.858 215.51C224.341 216.872 224.309 218.363 223.769 219.703C221.726 224.803 212.261 227.207 206.416 225.348C202.27 224.021 199.972 221.154 200.611 218.057C201.411 214.172 207.002 210.458 217.39 211.477C217.663 211.477 217.935 211.536 218.214 211.572C215.48 209.403 212.497 207.568 209.33 206.105C195.565 199.401 188.156 195.942 184.36 194.224C183.417 193.827 182.398 193.64 181.376 193.676C180.353 193.712 179.35 193.97 178.437 194.431L146.828 213.171C146.071 213.568 145.228 213.775 144.373 213.775C143.518 213.775 142.676 213.568 141.918 213.171C141.539 212.983 141.217 212.697 140.986 212.343C140.755 211.989 140.623 211.579 140.603 211.157C140.622 210.737 140.752 210.33 140.98 209.977C141.208 209.625 141.526 209.339 141.9 209.149C161.907 197.47 174.173 190.197 176.447 188.722C176.761 188.515 176.814 188.384 176.814 188.384C176.814 188.384 176.459 187.792 175.197 187.235C172.828 186.134 168.908 185.613 167.267 186.56L126.993 209.813C126.348 210.186 125.986 210.636 126.01 211.044C126.034 211.453 126.602 212.051 127.431 212.418C133.105 214.888 142.943 219.324 157.572 226.455C163.891 229.535 167.545 232.378 169.506 234.842C173.699 236.375 177.413 239.284 178.206 242.961C178.798 245.715 177.951 249.903 170.507 254.214C165.141 257.371 160.136 258.71 155.203 258.71ZM161.404 235.683C154.616 235.683 150.601 238.052 150.05 240.752C149.635 242.754 151.317 244.614 154.427 245.603C159.242 247.137 167.575 245.194 169.186 241.185C169.737 239.811 169.405 238.277 168.262 236.654C167.062 236.245 165.821 235.973 164.56 235.842C163.447 235.736 162.393 235.683 161.404 235.683ZM214.074 213.413C207.292 213.413 203.277 215.783 202.726 218.483C202.311 220.485 203.987 222.345 207.103 223.334C211.918 224.868 220.251 222.925 221.862 218.916C222.419 217.524 222.069 215.954 220.891 214.32C219.7 213.951 218.476 213.701 217.236 213.573C216.123 213.467 215.069 213.413 214.074 213.413V213.413Z" fill="#455A64"/>
<path d="M215.957 232.549C216.126 232.473 216.313 232.442 216.498 232.461C216.683 232.479 216.86 232.547 217.011 232.656C217.445 232.939 217.806 233.32 218.066 233.769C218.325 234.218 218.475 234.721 218.503 235.238C218.523 235.425 218.493 235.614 218.414 235.785C218.336 235.956 218.214 236.102 218.059 236.21L212.095 239.651L209.993 235.99L215.957 232.549Z" fill="#37474F"/>
<path opacity="0.1" d="M218.326 234.332C218.434 234.622 218.494 234.929 218.503 235.238C218.523 235.425 218.492 235.614 218.414 235.785C218.336 235.956 218.214 236.102 218.059 236.21L212.095 239.651L211.349 238.354L218.326 234.332Z" fill="black"/>
<path d="M212.539 238.685C212.511 238.168 212.362 237.664 212.102 237.215C211.843 236.767 211.481 236.385 211.047 236.103C210.897 235.994 210.722 235.927 210.538 235.907C210.354 235.887 210.168 235.916 209.999 235.99C209.844 236.097 209.722 236.244 209.644 236.415C209.565 236.586 209.535 236.775 209.554 236.962C209.582 237.479 209.732 237.983 209.992 238.431C210.251 238.88 210.613 239.261 211.047 239.544C211.189 239.671 211.368 239.751 211.558 239.771C211.747 239.791 211.939 239.75 212.104 239.655C212.27 239.56 212.401 239.415 212.479 239.24C212.557 239.066 212.578 238.872 212.539 238.685V238.685Z" fill="#37474F"/>
<path d="M212.599 233.692C212.823 233.589 213.07 233.546 213.316 233.57C213.562 233.594 213.797 233.683 213.996 233.829C214.573 234.204 215.052 234.711 215.396 235.306C215.74 235.902 215.938 236.571 215.975 237.258C216.001 237.506 215.96 237.756 215.856 237.982C215.751 238.208 215.588 238.402 215.382 238.543L207.476 243.103L204.692 238.253L212.599 233.692Z" fill="#455A64"/>
<path opacity="0.1" d="M215.737 236.055C215.883 236.434 215.964 236.834 215.974 237.24C216.001 237.488 215.96 237.738 215.855 237.964C215.751 238.19 215.588 238.384 215.382 238.525L207.475 243.085L206.492 241.374L215.737 236.055Z" fill="black"/>
<path d="M208.062 241.824C208.026 241.138 207.828 240.47 207.484 239.875C207.14 239.28 206.66 238.775 206.084 238.401C205.899 238.22 205.66 238.104 205.404 238.071C205.147 238.038 204.887 238.09 204.663 238.219C204.439 238.348 204.263 238.546 204.162 238.785C204.062 239.023 204.042 239.287 204.105 239.538C204.143 240.225 204.342 240.893 204.686 241.488C205.03 242.084 205.508 242.591 206.084 242.967C206.268 243.15 206.508 243.266 206.765 243.299C207.023 243.332 207.284 243.28 207.509 243.15C207.733 243.02 207.909 242.82 208.009 242.58C208.109 242.341 208.128 242.075 208.062 241.824V241.824Z" fill="#37474F"/>
<path d="M206.084 239.384C205.971 239.302 205.839 239.251 205.7 239.238C205.562 239.224 205.422 239.248 205.296 239.307L197.549 244.235L195.079 245.2L196.661 247.954L198.74 246.302L206.877 242.067C206.993 241.988 207.084 241.879 207.143 241.752C207.201 241.624 207.224 241.484 207.209 241.345C207.189 240.952 207.077 240.57 206.881 240.23C206.686 239.889 206.412 239.599 206.084 239.384V239.384Z" fill="#7D56A5"/>
<path opacity="0.7" d="M206.084 239.384C205.971 239.302 205.839 239.251 205.7 239.238C205.562 239.224 205.422 239.248 205.296 239.307L197.549 244.235L195.079 245.2L196.661 247.954L198.74 246.302L206.877 242.067C206.993 241.988 207.084 241.879 207.143 241.752C207.201 241.624 207.224 241.484 207.209 241.345C207.189 240.952 207.077 240.57 206.881 240.23C206.686 239.889 206.412 239.599 206.084 239.384V239.384Z" fill="white"/>
<path d="M195.867 245.283C195.755 245.201 195.623 245.151 195.485 245.136C195.346 245.122 195.207 245.144 195.08 245.2L194.979 245.283L194.327 245.905L195.69 248.274L196.542 248.019C196.59 248.006 196.636 247.986 196.679 247.96C196.794 247.88 196.886 247.77 196.945 247.641C197.003 247.513 197.026 247.371 197.01 247.231C196.987 246.839 196.871 246.459 196.673 246.12C196.474 245.781 196.198 245.494 195.867 245.283V245.283Z" fill="#7D56A5"/>
<path opacity="0.5" d="M195.867 245.283C195.755 245.201 195.623 245.151 195.485 245.136C195.346 245.122 195.207 245.144 195.08 245.2L194.979 245.283L194.327 245.905L195.69 248.274L196.542 248.019C196.59 248.006 196.636 247.986 196.679 247.96C196.794 247.88 196.886 247.77 196.945 247.641C197.003 247.513 197.026 247.371 197.01 247.231C196.987 246.839 196.871 246.459 196.673 246.12C196.474 245.781 196.198 245.494 195.867 245.283V245.283Z" fill="white"/>
<path d="M196.063 247.593C196.044 247.255 195.945 246.926 195.775 246.632C195.606 246.339 195.369 246.09 195.086 245.905C194.993 245.823 194.876 245.773 194.753 245.76C194.629 245.748 194.505 245.775 194.398 245.837C194.291 245.899 194.206 245.994 194.155 246.107C194.104 246.22 194.09 246.346 194.114 246.467C194.133 246.805 194.23 247.134 194.399 247.427C194.568 247.72 194.803 247.97 195.086 248.155C195.178 248.24 195.296 248.292 195.42 248.306C195.545 248.319 195.671 248.293 195.779 248.23C195.888 248.168 195.974 248.072 196.025 247.958C196.076 247.843 196.089 247.715 196.063 247.593V247.593Z" fill="#7D56A5"/>
<path d="M197.549 244.235C197.644 244.191 197.749 244.174 197.853 244.184C197.957 244.195 198.057 244.233 198.141 244.294C198.385 244.454 198.589 244.67 198.735 244.923C198.881 245.176 198.966 245.459 198.982 245.751C198.995 245.856 198.979 245.962 198.936 246.059C198.893 246.156 198.826 246.24 198.74 246.302L199.047 246.142C199.132 246.076 199.199 245.99 199.241 245.892C199.284 245.793 199.301 245.686 199.29 245.579C199.274 245.286 199.189 245.001 199.041 244.747C198.894 244.492 198.689 244.276 198.443 244.116C198.358 244.057 198.259 244.02 198.156 244.007C198.053 243.995 197.948 244.008 197.851 244.045L197.549 244.235Z" fill="#7D56A5"/>
<path d="M199.658 242.896C199.761 242.85 199.874 242.831 199.986 242.843C200.099 242.854 200.206 242.895 200.297 242.961C200.565 243.136 200.787 243.371 200.947 243.648C201.106 243.925 201.198 244.236 201.215 244.555C201.227 244.668 201.21 244.782 201.164 244.885C201.118 244.989 201.046 245.079 200.955 245.147L201.286 244.969C201.377 244.9 201.448 244.81 201.495 244.707C201.541 244.603 201.561 244.49 201.553 244.377C201.535 244.059 201.442 243.75 201.283 243.474C201.123 243.199 200.901 242.964 200.635 242.79C200.541 242.722 200.432 242.678 200.317 242.664C200.202 242.649 200.085 242.664 199.978 242.707L199.658 242.896Z" fill="#7D56A5"/>
<path d="M201.754 241.558C201.866 241.508 201.989 241.488 202.11 241.501C202.232 241.513 202.348 241.557 202.447 241.629C202.737 241.818 202.978 242.072 203.151 242.372C203.323 242.671 203.423 243.007 203.442 243.352C203.456 243.475 203.437 243.6 203.387 243.713C203.337 243.826 203.258 243.925 203.158 243.998L203.519 243.808C203.619 243.731 203.698 243.63 203.748 243.513C203.798 243.397 203.817 243.27 203.804 243.145C203.785 242.8 203.685 242.464 203.512 242.164C203.339 241.865 203.098 241.61 202.809 241.421C202.707 241.349 202.588 241.303 202.464 241.288C202.34 241.274 202.214 241.291 202.098 241.338L201.754 241.558Z" fill="#7D56A5"/>
<path d="M203.857 240.219C203.977 240.166 204.109 240.145 204.24 240.159C204.371 240.172 204.496 240.22 204.603 240.296C204.915 240.499 205.174 240.773 205.361 241.095C205.547 241.417 205.655 241.778 205.675 242.15C205.69 242.284 205.668 242.419 205.613 242.542C205.558 242.665 205.471 242.771 205.361 242.849L205.758 242.641C205.865 242.559 205.949 242.45 206.002 242.326C206.055 242.201 206.075 242.065 206.06 241.931C206.04 241.56 205.933 241.199 205.748 240.877C205.563 240.555 205.305 240.281 204.994 240.077C204.884 239.997 204.756 239.947 204.621 239.93C204.487 239.913 204.35 239.931 204.224 239.982L203.857 240.219Z" fill="#7D56A5"/>
<g opacity="0.1">
<path d="M197.549 244.235C197.644 244.191 197.749 244.174 197.853 244.185C197.957 244.195 198.057 244.233 198.141 244.294C198.385 244.454 198.589 244.67 198.735 244.923C198.881 245.176 198.966 245.459 198.982 245.751C198.995 245.856 198.979 245.963 198.936 246.059C198.893 246.156 198.826 246.24 198.74 246.302L199.047 246.142C199.132 246.076 199.199 245.99 199.241 245.892C199.284 245.793 199.301 245.686 199.29 245.579C199.274 245.286 199.189 245.001 199.041 244.747C198.894 244.493 198.689 244.277 198.443 244.116C198.358 244.057 198.259 244.02 198.156 244.007C198.053 243.995 197.948 244.008 197.851 244.045L197.549 244.235Z" fill="black"/>
<path d="M199.658 242.896C199.761 242.85 199.874 242.831 199.986 242.843C200.099 242.854 200.206 242.895 200.297 242.962C200.565 243.136 200.787 243.372 200.947 243.648C201.106 243.925 201.198 244.236 201.215 244.555C201.227 244.668 201.21 244.782 201.164 244.886C201.118 244.989 201.046 245.08 200.955 245.147L201.286 244.969C201.377 244.901 201.448 244.81 201.495 244.707C201.541 244.604 201.561 244.49 201.553 244.377C201.535 244.059 201.442 243.75 201.283 243.474C201.123 243.199 200.901 242.964 200.635 242.79C200.541 242.722 200.432 242.678 200.317 242.664C200.202 242.649 200.085 242.664 199.978 242.707L199.658 242.896Z" fill="black"/>
<path d="M201.754 241.558C201.866 241.508 201.989 241.488 202.11 241.501C202.232 241.513 202.348 241.557 202.447 241.629C202.737 241.818 202.978 242.072 203.151 242.372C203.323 242.671 203.423 243.007 203.442 243.352C203.456 243.475 203.437 243.6 203.387 243.713C203.337 243.826 203.258 243.925 203.158 243.998L203.519 243.808C203.619 243.731 203.698 243.63 203.748 243.514C203.798 243.397 203.817 243.271 203.804 243.145C203.785 242.8 203.685 242.464 203.512 242.164C203.339 241.865 203.098 241.611 202.809 241.421C202.707 241.349 202.588 241.303 202.464 241.288C202.34 241.274 202.214 241.291 202.098 241.339L201.754 241.558Z" fill="black"/>
<path d="M203.857 240.219C203.977 240.166 204.109 240.145 204.24 240.159C204.371 240.172 204.496 240.22 204.603 240.296C204.915 240.499 205.174 240.773 205.361 241.095C205.547 241.417 205.655 241.779 205.675 242.15C205.69 242.284 205.668 242.419 205.613 242.542C205.558 242.665 205.471 242.771 205.361 242.849L205.758 242.642C205.865 242.559 205.949 242.45 206.002 242.326C206.055 242.201 206.075 242.065 206.06 241.931C206.04 241.56 205.933 241.199 205.748 240.877C205.563 240.555 205.305 240.281 204.994 240.077C204.884 239.997 204.756 239.947 204.621 239.93C204.487 239.913 204.35 239.931 204.224 239.982L203.857 240.219Z" fill="black"/>
</g>
<path d="M128.651 94.475C128.432 94.5639 128.213 94.6468 128.006 94.7534C127.798 94.86 127.668 94.9311 127.508 95.0199C127.348 95.1088 127.105 95.2509 126.916 95.3753C126.726 95.4996 126.602 95.5944 126.448 95.7129C126.294 95.8313 126.087 95.9971 125.909 96.1511C125.731 96.3051 125.625 96.4058 125.489 96.542C125.352 96.6782 125.157 96.8796 124.997 97.0573C124.837 97.235 124.742 97.3593 124.618 97.5133C124.494 97.6673 124.322 97.9042 124.18 98.1056C124.038 98.307 123.961 98.4254 123.86 98.5913L123.789 98.7097C123.676 98.8992 123.57 99.0947 123.469 99.302C123.433 99.3612 123.404 99.4204 123.374 99.4797C123.291 99.6396 123.208 99.8054 123.137 99.9712C123.066 100.137 123.007 100.267 122.948 100.415C122.889 100.563 122.865 100.599 122.829 100.7L122.723 100.966C122.652 101.156 122.586 101.351 122.527 101.558C122.468 101.766 122.415 101.902 122.367 102.074C122.279 102.388 122.19 102.707 122.119 103.039C122.063 103.26 122.016 103.485 121.976 103.714C121.976 103.839 121.929 103.957 121.905 104.087C121.882 104.218 121.858 104.354 121.84 104.496C121.787 104.828 121.751 105.177 121.716 105.527C121.716 105.692 121.674 105.852 121.663 106.018C121.663 106.083 121.663 106.143 121.663 106.208C121.621 106.8 121.597 107.357 121.597 107.955C121.615 110.366 121.903 112.768 122.456 115.115C124.659 124.799 130.955 134.808 138.655 140.535C139.557 141.218 140.498 141.847 141.474 142.419L141.877 142.638C142.102 142.762 142.327 142.893 142.552 143.005L143.067 143.26L143.624 143.526L144.186 143.769L144.678 143.97C144.873 144.047 145.063 144.119 145.27 144.184L145.738 144.344L146.301 144.521L146.798 144.652L147.308 144.782L147.983 144.912L148.297 144.971L148.563 145.001L152.602 142.679C150.099 142.278 147.697 141.399 145.525 140.091C134.509 133.742 125.625 118.284 125.625 105.61C125.625 100.463 127.094 96.5657 129.569 94.1611L129.178 94.2737C128.995 94.3329 128.823 94.404 128.651 94.475Z" fill="#263238"/>
<path d="M132.217 90.187C131.602 90.4018 131.007 90.6713 130.44 90.9925L126.418 93.3142C128.189 92.3126 130.183 91.7729 132.217 91.7447V90.187Z" fill="#252525"/>
<path d="M148.303 144.971L147.989 144.912L147.314 144.782L146.804 144.652L146.473 144.569L146.307 144.521L145.762 144.344L145.294 144.184L144.702 143.97L144.21 143.769L143.647 143.526L143.091 143.26L142.575 143.005C142.35 142.892 142.119 142.762 141.888 142.632C141.764 142.561 141.634 142.502 141.503 142.425C140.563 141.871 139.653 141.266 138.779 140.612C136.272 138.744 133.999 136.581 132.009 134.168C130.291 132.098 128.75 129.887 127.402 127.559C125.175 123.741 123.517 119.619 122.48 115.323L122.444 115.121C121.892 112.778 121.604 110.38 121.586 107.973C121.586 107.416 121.586 106.877 121.645 106.344C121.645 106.267 121.645 106.19 121.645 106.113C121.642 106.06 121.642 106.006 121.645 105.953C121.68 105.509 121.728 105.071 121.793 104.644L121.828 104.372C121.828 104.23 121.882 104.099 121.905 103.957C121.929 103.815 121.982 103.566 122.024 103.365C122.065 103.163 122.107 102.95 122.154 102.773C122.202 102.595 122.273 102.346 122.338 102.133C122.338 102.05 122.379 101.967 122.403 101.89C122.427 101.813 122.403 101.825 122.433 101.795C122.486 101.624 122.539 101.446 122.598 101.274C122.658 101.102 122.752 100.871 122.835 100.682C122.918 100.492 123.037 100.167 123.155 99.9179C123.274 99.6691 123.327 99.5744 123.416 99.4026L123.522 99.2013C123.617 99.0236 123.718 98.8518 123.818 98.6801C123.919 98.5083 124.014 98.378 124.115 98.2299L124.251 98.0345C124.322 97.922 124.399 97.8154 124.476 97.7147L124.66 97.4837C124.713 97.4185 124.76 97.3475 124.819 97.2823L125.145 96.9092L125.258 96.7967C125.394 96.6545 125.53 96.5124 125.678 96.3762C125.743 96.3169 125.82 96.2636 125.885 96.2103C126.063 96.0563 126.241 95.9083 126.424 95.7721C126.608 95.6358 126.732 95.5411 126.892 95.4345C127.052 95.3278 127.283 95.1916 127.485 95.0791C127.686 94.9666 127.81 94.8955 127.982 94.8126C128.154 94.7297 128.409 94.6231 128.628 94.5342C128.847 94.4454 128.971 94.3921 129.149 94.3328C129.327 94.2736 129.415 94.2499 129.552 94.2085L129.854 94.1315C130.031 94.09 130.209 94.0367 130.393 94.0012C130.576 93.9656 130.914 93.9183 131.174 93.8886C131.435 93.859 131.524 93.8353 131.707 93.8235C131.891 93.8117 132.027 93.8235 132.193 93.8235V91.8335C130.159 91.8617 128.165 92.4015 126.395 93.403V93.403C126.146 93.5511 125.903 93.705 125.66 93.8709L125.536 93.9538C124.844 94.447 124.207 95.0129 123.635 95.6418L123.439 95.855C123.268 96.0504 123.102 96.2518 122.936 96.4472L122.794 96.6545C122.52 97.0241 122.265 97.4076 122.03 97.8035C121.947 97.9516 121.858 98.0996 121.775 98.2536C121.692 98.4076 121.568 98.6445 121.467 98.8459C121.367 99.0473 121.278 99.2546 121.183 99.4382C121.088 99.6218 121.005 99.8527 120.922 100.066C120.792 100.398 120.674 100.741 120.561 101.091C120.514 101.256 120.46 101.428 120.413 101.6C120.33 101.896 120.253 102.192 120.176 102.506C120.141 102.66 120.105 102.808 120.075 102.962C119.977 103.412 119.894 103.874 119.827 104.348C119.827 104.466 119.797 104.585 119.785 104.697C119.732 105.1 119.69 105.503 119.661 105.882C119.661 106.03 119.661 106.178 119.631 106.326C119.596 106.853 119.578 107.386 119.578 107.931C119.626 111.445 120.187 114.932 121.242 118.284C121.784 120.059 122.429 121.801 123.173 123.502C123.568 124.363 123.963 125.213 124.357 126.054C125.639 128.583 127.127 131.002 128.805 133.286C132.14 137.817 136.161 141.661 140.485 144.154C142.201 145.176 144.043 145.972 145.963 146.523L148.545 145.042L148.303 144.971Z" fill="#455A64"/>
<path d="M168.57 124.864C168.57 113.279 160.438 99.1953 150.405 93.403C145.371 90.5009 140.822 90.2344 137.535 92.1474C136.534 92.7397 129.836 96.5953 128.811 97.1698C125.506 99.0591 123.481 103.134 123.481 108.944C123.481 120.529 131.613 134.613 141.646 140.405C146.668 143.307 151.217 143.574 154.504 141.667C155.511 141.074 162.262 137.201 163.275 136.615C166.538 134.719 168.57 130.65 168.57 124.864Z" fill="#7D56A5"/>
<path opacity="0.3" d="M168.57 124.864C168.57 113.279 160.438 99.1953 150.405 93.403C145.371 90.5009 140.822 90.2344 137.535 92.1474C136.534 92.7397 129.836 96.5953 128.811 97.1698C125.506 99.0591 123.481 103.134 123.481 108.944C123.481 120.529 131.613 134.613 141.646 140.405C146.668 143.307 151.217 143.574 154.504 141.667C155.511 141.074 162.262 137.201 163.275 136.615C166.538 134.719 168.57 130.65 168.57 124.864Z" fill="#252525"/>
<path d="M141.616 98.455C151.643 104.247 159.775 118.337 159.775 129.916C159.775 141.495 151.684 146.197 141.616 140.405C131.547 134.613 123.451 120.529 123.451 108.944C123.451 97.3593 131.595 92.6627 141.616 98.455Z" fill="#7D56A5"/>
<path d="M149.315 145.09H149.404C149.712 145.09 149.996 145.125 150.316 145.131H150.464C150.9 145.133 151.335 145.107 151.767 145.054H151.815C152.177 145.006 152.537 144.939 152.893 144.853C153.041 144.823 153.195 144.788 153.343 144.746C153.621 144.669 153.899 144.58 154.172 144.48C154.444 144.379 154.58 144.314 154.764 144.219C154.865 144.178 154.954 144.13 155.048 144.083C155.92 143.642 156.719 143.071 157.417 142.389C155.841 142.824 154.19 142.923 152.573 142.679L148.533 145.001C148.818 145.036 149.066 145.072 149.315 145.09Z" fill="#263238"/>
<path d="M146.526 95.02C146.629 96.5728 147.299 98.0336 148.409 99.1244C157.062 107.078 163.387 119.99 163.387 130.929C163.387 138.889 160.047 144.551 154.586 146.452C155.284 146.225 155.954 145.919 156.582 145.54L160.604 143.218C164.88 140.755 167.427 135.519 167.427 128.595C167.427 117.662 161.095 104.745 152.442 96.7968C151.336 95.7038 150.666 94.2443 150.559 92.6924V76.5769L146.526 78.9104L144.536 77.7614L146.526 78.9104V95.02Z" fill="#252525"/>
<path d="M148.409 99.1244C147.299 98.0336 146.629 96.5729 146.526 95.02V78.9105L144.536 77.7615V95.9854C144.541 96.2283 144.569 96.4702 144.619 96.708L144.654 96.8857C144.711 97.1389 144.784 97.3882 144.873 97.6319C145.018 98.0095 145.194 98.3741 145.4 98.7217L145.566 98.9645C145.72 99.2097 145.895 99.4415 146.087 99.6574C146.205 99.7925 146.331 99.9192 146.466 100.036C146.946 100.457 147.414 100.895 147.876 101.339L148.243 101.701C148.646 102.103 149.043 102.512 149.428 102.939L149.605 103.122C150.044 103.602 150.47 104.093 150.897 104.603L151.216 104.994C151.566 105.42 151.909 105.858 152.241 106.297L152.484 106.617C152.881 107.144 153.266 107.689 153.639 108.233L153.899 108.63C154.207 109.086 154.492 109.554 154.794 110.022L155.042 110.425C155.392 111.017 155.723 111.574 156.049 112.16L156.233 112.51C156.499 113.001 156.76 113.499 157.009 114.002L157.24 114.47C157.532 115.066 157.81 115.67 158.075 116.282C158.104 116.365 158.14 116.442 158.17 116.525C158.401 117.064 158.62 117.609 158.833 118.16C158.892 118.326 158.957 118.485 159.016 118.651C159.247 119.244 159.467 119.901 159.662 120.523C159.857 121.145 160.041 121.778 160.207 122.406L160.314 122.809C160.468 123.401 160.61 124.029 160.734 124.639L160.787 124.947C160.898 125.508 160.993 126.064 161.072 126.617C161.072 126.718 161.101 126.825 161.119 126.925C161.196 127.518 161.261 128.11 161.303 128.702C161.303 128.832 161.303 128.963 161.332 129.093C161.368 129.685 161.397 130.313 161.397 130.911C161.397 134.465 160.693 137.426 159.431 139.742C159.16 140.238 158.854 140.713 158.513 141.163C158.347 141.382 158.175 141.596 157.998 141.797C157.82 141.998 157.637 142.188 157.447 142.389C156.748 143.071 155.949 143.642 155.078 144.083C154.989 144.13 154.894 144.178 154.794 144.219C154.598 144.314 154.397 144.403 154.201 144.48C154.006 144.557 153.692 144.658 153.437 144.729H153.372C153.224 144.77 153.076 144.806 152.922 144.835L152.656 144.906C152.389 144.96 152.117 145.001 151.844 145.037H151.797C151.365 145.09 150.929 145.115 150.494 145.114H150.156C149.919 145.114 149.677 145.114 149.434 145.072H149.315C149.066 145.072 148.818 145.025 148.563 144.989L145.981 146.47C147.414 146.883 148.896 147.098 150.387 147.11C150.589 147.11 150.784 147.11 150.979 147.08C151.175 147.05 151.518 147.08 151.767 147.038L152.223 146.973C152.513 146.932 152.815 146.89 153.07 146.837C153.206 146.837 153.343 146.778 153.479 146.742L153.645 146.695C153.899 146.63 154.154 146.571 154.403 146.488L154.58 146.434C160.041 144.551 163.381 138.871 163.381 130.911C163.387 119.99 157.062 107.078 148.409 99.1244Z" fill="#455A64"/>
<path d="M137.47 94.1433L137.553 94.1077C137.601 94.0901 137.647 94.0662 137.689 94.0367L141.728 91.7032C141.988 91.5376 142.199 91.3049 142.337 91.0297C142.476 90.7545 142.538 90.447 142.516 90.1396V71.9156L138.483 74.2492V92.4731C138.511 92.8227 138.429 93.1724 138.247 93.4724C138.065 93.7723 137.793 94.0071 137.47 94.1433V94.1433Z" fill="#252525"/>
<path d="M132.602 91.7388C133.571 91.7427 134.539 91.8339 135.492 92.0112C135.609 92.0432 135.733 92.0469 135.852 92.022C135.971 91.9972 136.082 91.9444 136.177 91.8682C136.272 91.7919 136.347 91.6942 136.397 91.5832C136.447 91.4722 136.469 91.3509 136.463 91.2294V89.4171C135.015 89.4341 133.579 89.6944 132.217 90.1871V91.7625C132.347 91.7566 132.471 91.7388 132.602 91.7388Z" fill="#252525"/>
<path d="M133.111 93.7406C133.591 93.7584 134.069 93.8019 134.545 93.8709C135.006 93.942 135.48 94.0367 135.954 94.1552H136.043H136.09C136.242 94.1919 136.397 94.2176 136.552 94.2322H136.594C136.722 94.2442 136.851 94.2442 136.979 94.2322H137.05C137.17 94.2124 137.289 94.1827 137.405 94.1434V94.1434C137.728 94.0072 138 93.7724 138.182 93.4725C138.364 93.1725 138.447 92.8228 138.418 92.4732V74.2492L136.428 73.0647V91.1998C136.434 91.3213 136.411 91.4425 136.362 91.5536C136.312 91.6646 136.236 91.7622 136.142 91.8385C136.047 91.9148 135.935 91.9675 135.816 91.9924C135.697 92.0173 135.574 92.0136 135.457 91.9816C134.503 91.8043 133.536 91.7131 132.566 91.7091C132.436 91.7091 132.312 91.7091 132.181 91.7091V93.6992C132.324 93.6992 132.46 93.6992 132.602 93.6992C132.744 93.6992 132.951 93.7347 133.111 93.7406Z" fill="#455A64"/>
<path d="M166.71 135.88C166.71 118.764 154.693 97.9753 139.869 89.3934C132.465 85.1173 125.767 84.7145 120.916 87.51L112.808 92.1889C107.963 94.9962 104.961 100.996 104.961 109.548C104.961 126.665 116.978 147.453 131.796 156.035C139.199 160.305 145.898 160.714 150.749 157.918L158.851 153.228C163.707 150.438 166.71 144.432 166.71 135.88Z" fill="#7D56A5"/>
<path opacity="0.1" d="M150.776 157.913C161.257 151.862 161.256 132.238 150.775 114.083C140.293 95.9281 123.299 86.1161 112.818 92.1674C102.337 98.2187 102.337 117.842 112.819 135.997C123.301 154.152 140.295 163.964 150.776 157.913Z" fill="#252525"/>
<path d="M158.649 140.541C158.649 123.425 146.632 102.637 131.808 94.0547C124.393 89.7727 117.683 89.3758 112.826 92.1891L108.81 94.5048C103.942 97.3063 100.933 103.318 100.933 111.882C100.933 128.998 112.95 149.787 127.769 158.369C135.184 162.645 141.894 163.047 146.751 160.24L150.79 157.907C155.641 155.105 158.649 149.082 158.649 140.541Z" fill="#F0F0F0"/>
<path d="M127.769 96.3703C142.575 104.929 154.61 125.741 154.61 142.857C154.61 159.973 142.593 166.909 127.769 158.351C112.944 149.792 100.933 128.98 100.933 111.864C100.933 94.7475 112.95 87.8299 127.769 96.3703Z" fill="#E0E0E0"/>
<path d="M156.582 142.875C156.582 125.154 144.097 103.531 128.746 94.6707C124.227 92.0588 119.862 90.7381 115.764 90.7381C112.962 90.6992 110.2 91.413 107.768 92.8051C106.43 93.5869 101.016 96.6844 99.6422 97.484C94.1342 100.712 90.853 107.499 90.853 116.549C90.853 134.269 103.338 155.893 118.689 164.753C123.208 167.365 127.573 168.686 131.672 168.686C134.493 168.725 137.272 168 139.715 166.589C141.03 165.813 146.378 162.757 147.74 161.97C153.283 158.754 156.582 151.954 156.582 142.875Z" fill="#455A64"/>
<path d="M131.672 168.686C127.579 168.686 123.208 167.365 118.689 164.753C103.344 155.869 90.853 134.269 90.853 116.549C90.853 103.697 97.4627 95.3989 107.691 95.3989C111.79 95.3989 116.155 96.7197 120.673 99.3316C136.019 108.216 148.51 129.815 148.51 147.536C148.51 160.382 141.9 168.686 131.672 168.686Z" fill="#252525"/>
<path d="M125.672 150.343C123.365 150.274 121.118 149.595 119.157 148.377C111.494 143.953 105.257 133.156 105.257 124.302C105.257 117.887 108.562 113.741 113.667 113.741C115.963 113.816 118.2 114.492 120.152 115.702C127.816 120.132 134.053 130.929 134.053 139.783C134.083 146.197 130.778 150.343 125.672 150.343Z" fill="#263238"/>
<path d="M91.4393 180.472C91.4393 162.751 78.9544 141.128 63.603 132.262C59.084 129.656 54.719 128.335 50.6265 128.335C47.8242 128.295 45.0626 129.008 42.6309 130.402C41.2924 131.184 35.8732 134.281 34.5051 135.081C28.9911 138.309 25.71 145.096 25.71 154.14C25.71 171.86 38.1949 193.49 53.5463 202.35C58.0653 204.962 62.4303 206.283 66.5228 206.283C69.3481 206.316 72.1297 205.584 74.5717 204.162C75.8924 203.386 81.2406 200.33 82.5968 199.543C88.1404 196.35 91.4393 189.551 91.4393 180.472Z" fill="#455A64"/>
<path d="M66.5289 206.283C62.4364 206.283 58.0714 204.962 53.5524 202.35C38.201 193.466 25.7161 171.86 25.7161 154.14C25.7161 141.294 32.3257 132.996 42.56 132.996C46.6526 132.996 51.0176 134.317 55.5365 136.923C70.8821 145.807 83.3729 167.412 83.3729 185.133C83.367 197.979 76.7573 206.283 66.5289 206.283Z" fill="#252525"/>
<path d="M81.383 185.133C81.383 168.016 69.3659 147.228 54.5416 138.646C47.1265 134.364 40.4161 133.961 35.5892 136.774L31.5736 139.096C26.7111 141.898 23.6965 147.903 23.6965 156.467C23.6965 173.584 35.7136 194.372 50.5379 202.954C57.953 207.236 64.6575 207.633 69.4903 204.831L73.5296 202.498C78.3802 199.691 81.383 193.685 81.383 185.133Z" fill="#F0F0F0"/>
<path d="M50.5081 140.973C65.3147 149.532 77.3495 170.344 77.3495 187.46C77.3495 204.577 65.3325 211.512 50.5081 202.978C35.6838 194.443 23.6667 173.607 23.6667 156.491C23.6667 139.374 35.6838 132.415 50.5081 140.973Z" fill="#E0E0E0"/>
<path d="M77.3493 187.46C77.3493 170.344 65.3323 149.556 50.5079 140.974C43.1046 136.697 36.4061 136.295 31.5555 139.09L23.4474 143.751C18.5968 146.559 15.594 152.564 15.594 161.111C15.594 178.227 27.611 199.015 42.4354 207.597C49.8327 211.873 56.5312 212.276 61.3878 209.481L69.484 204.808C74.3406 202.024 77.3493 196.019 77.3493 187.46Z" fill="#7D56A5"/>
<path opacity="0.1" d="M42.4354 145.635C57.2419 154.193 69.2708 175.005 69.2708 192.122C69.2708 209.238 57.2597 216.173 42.4354 207.615C27.611 199.057 15.594 178.245 15.594 161.128C15.594 144.012 27.611 137.077 42.4354 145.635Z" fill="#252525"/>
<path d="M23.1635 155.378C22.9443 155.46 22.7252 155.549 22.512 155.65C22.2988 155.751 22.1803 155.828 22.0204 155.922C21.8605 156.017 21.6177 156.153 21.4281 156.278C21.2386 156.402 21.1142 156.497 20.9603 156.615C20.8063 156.734 20.599 156.894 20.4213 157.048L19.9949 157.445C19.829 157.61 19.6691 157.782 19.5092 157.96C19.3493 158.138 19.2486 158.262 19.1242 158.416C18.9999 158.57 18.834 158.807 18.6919 159.008C18.5497 159.21 18.4727 159.334 18.3721 159.5L18.301 159.618C18.1885 159.808 18.0819 159.997 17.9752 160.21L17.8864 160.388C17.8035 160.548 17.7206 160.708 17.6436 160.874C17.5666 161.04 17.5192 161.17 17.46 161.318C17.4008 161.466 17.3771 161.507 17.3415 161.602L17.2349 161.875C17.1638 162.064 17.0987 162.26 17.0336 162.467C16.9684 162.674 16.9269 162.81 16.8796 162.982C16.7848 163.294 16.7019 163.614 16.6308 163.942C16.5775 164.167 16.5301 164.392 16.4887 164.623L16.4176 164.99C16.4176 165.126 16.3702 165.262 16.3524 165.399C16.2991 165.736 16.2636 166.08 16.2281 166.429C16.2281 166.595 16.1866 166.755 16.1748 166.927C16.1748 166.986 16.1748 167.051 16.1748 167.116C16.1333 167.679 16.1096 168.259 16.1096 168.863C16.1268 171.275 16.4148 173.677 16.9684 176.024C19.1835 185.725 25.4851 195.734 33.1964 201.462C34.1012 202.14 35.0423 202.769 36.0156 203.345L36.4183 203.564L37.0935 203.931L37.6088 204.186L38.1655 204.447C38.355 204.535 38.5386 204.612 38.7578 204.689C38.9769 204.766 39.0835 204.832 39.2493 204.891L39.8416 205.11L40.3036 205.27L40.8958 205.442L41.3933 205.578L41.9027 205.702C42.1277 205.755 42.3528 205.797 42.5779 205.838L42.8858 205.898L43.1524 205.927L47.1027 203.57C44.5887 203.175 42.1751 202.296 39.9956 200.982C28.9973 194.633 20.0837 179.204 20.0837 166.5C20.0837 161.359 21.5525 157.462 24.0282 155.058C23.8979 155.093 23.7617 155.123 23.6373 155.164L23.1635 155.378Z" fill="#263238"/>
<path d="M26.7167 151.09C26.1027 151.305 25.5082 151.572 24.9399 151.889L20.9185 154.211C22.691 153.218 24.6849 152.686 26.7167 152.665V151.09Z" fill="#252525"/>
<path d="M42.7909 205.874L42.483 205.815C42.2579 205.773 42.0388 205.732 41.8078 205.679C41.5768 205.625 41.4702 205.596 41.2984 205.554L40.9608 205.471L40.8009 205.418L40.2087 205.246L39.7348 205.086L39.1426 204.867C38.9768 204.808 38.8168 204.737 38.651 204.666L38.0587 204.429L37.502 204.162L36.9867 203.908L36.2997 203.535L35.9147 203.327C34.9754 202.771 34.066 202.166 33.1903 201.515C30.683 199.647 28.41 197.483 26.4208 195.071C24.7101 193 23.1767 190.789 21.8367 188.461C19.6007 184.634 17.9366 180.499 16.8972 176.19C16.8972 176.125 16.8972 176.059 16.8557 175.988C16.3253 173.644 16.0571 171.249 16.0562 168.846C16.0562 168.289 16.0562 167.75 16.1154 167.217C16.1154 167.14 16.1154 167.057 16.1154 166.98C16.1127 166.927 16.1127 166.873 16.1154 166.82C16.1509 166.376 16.1983 165.944 16.2635 165.517L16.299 165.245C16.299 165.103 16.3523 164.966 16.376 164.83C16.3997 164.694 16.453 164.439 16.4885 164.238C16.5241 164.036 16.5714 163.823 16.6247 163.646C16.678 163.468 16.7432 163.213 16.8024 163L16.8735 162.763C16.8762 162.732 16.8762 162.7 16.8735 162.668C16.9327 162.491 16.986 162.319 17.0452 162.147C17.1045 161.975 17.1992 161.739 17.2762 161.555C17.3532 161.371 17.4835 161.04 17.602 160.797C17.7204 160.554 17.7737 160.453 17.8626 160.282L17.9692 160.074C18.0639 159.902 18.1646 159.725 18.2653 159.559C18.366 159.393 18.4608 159.257 18.5614 159.109L18.6917 158.907L19.0175 158.558L19.1952 158.333C19.2544 158.268 19.3018 158.197 19.361 158.132C19.4202 158.066 19.5742 157.883 19.6867 157.758L19.7933 157.646L20.2139 157.225C20.279 157.166 20.356 157.119 20.4211 157.06C20.5988 156.906 20.7765 156.763 20.9601 156.627C21.1437 156.491 21.2681 156.396 21.428 156.29C21.5879 156.183 21.8189 156.047 22.0203 155.934C22.2216 155.822 22.346 155.745 22.5118 155.662C22.6777 155.579 22.9442 155.472 23.1633 155.389L23.6845 155.182L24.0873 155.064L24.3479 155.004C24.5255 154.957 24.7032 154.91 24.8868 154.874C25.0704 154.839 25.4021 154.791 25.6686 154.762C25.8463 154.762 26.018 154.708 26.2016 154.691C26.3852 154.673 26.5215 154.691 26.6873 154.691V152.701C24.6534 152.729 22.6594 153.269 20.889 154.27V154.27C20.6344 154.412 20.3915 154.572 20.1546 154.732L20.0303 154.821C19.3361 155.314 18.6967 155.88 18.1232 156.509L17.9336 156.722C17.7619 156.917 17.5961 157.119 17.4302 157.314C17.3828 157.379 17.3355 157.451 17.2822 157.516C17.0156 157.883 16.761 158.268 16.5241 158.7L16.2694 159.144C16.1628 159.34 16.0621 159.541 15.9614 159.737C15.8607 159.932 15.7719 160.145 15.6771 160.359C15.5824 160.572 15.4994 160.767 15.4165 160.986C15.2862 161.318 15.1678 161.656 15.0552 162.005C15.0019 162.171 14.9546 162.343 14.9072 162.514C14.8243 162.816 14.7413 163.107 14.6703 163.426L14.5637 163.882C14.4689 164.333 14.386 164.795 14.3208 165.268C14.3208 165.381 14.3208 165.505 14.2794 165.618C14.2261 166.015 14.1846 166.417 14.155 166.802L14.1195 167.247C14.0899 167.774 14.0662 168.307 14.0662 168.852C14.1081 172.358 14.6628 175.84 15.7127 179.187C16.2545 180.96 16.8992 182.7 17.6434 184.398C18.0185 185.255 18.4134 186.106 18.828 186.951C20.1068 189.481 21.5946 191.9 23.2759 194.183C26.6103 198.713 30.6318 202.557 34.9553 205.057C36.6745 206.074 38.5152 206.87 40.4337 207.426L43.016 205.939L42.7909 205.874Z" fill="#455A64"/>
<path d="M60.6002 187.111C60.6002 175.532 52.4685 161.442 42.4355 155.65C37.4013 152.748 32.8527 152.481 29.5656 154.4L20.8416 159.417C17.5368 161.306 15.5112 165.387 15.5112 171.191C15.5112 182.776 23.643 196.86 33.6759 202.652C38.6983 205.554 43.2469 205.827 46.534 203.914L55.3054 198.867C58.5688 196.966 60.6002 192.909 60.6002 187.111Z" fill="#7D56A5"/>
<path opacity="0.3" d="M60.6002 187.111C60.6002 175.532 52.4685 161.442 42.4355 155.65C37.4013 152.748 32.8527 152.481 29.5656 154.4L20.8416 159.417C17.5368 161.306 15.5112 165.387 15.5112 171.191C15.5112 182.776 23.643 196.86 33.6759 202.652C38.6983 205.554 43.2469 205.827 46.534 203.914L55.3054 198.867C58.5688 196.966 60.6002 192.909 60.6002 187.111Z" fill="#252525"/>
<path d="M46.4988 203.922C53.592 199.827 53.5921 186.547 46.499 174.262C39.4059 161.976 27.9056 155.337 20.8124 159.432C13.7192 163.527 13.7191 176.806 20.8122 189.092C27.9053 201.378 39.4056 208.017 46.4988 203.922Z" fill="#7D56A5"/>
<path d="M43.0913 200.26C48.6206 197.082 48.6402 186.741 43.1352 177.162C37.6301 167.584 28.685 162.394 23.1557 165.572C17.6264 168.75 17.6068 179.091 23.1118 188.67C28.6169 198.249 37.562 203.438 43.0913 200.26Z" fill="#263238"/>
<path d="M40.6588 174.152L32.3197 182.479L22.3638 165.227C24.9046 163.746 28.4345 163.959 32.3197 166.204C35.628 168.237 38.4697 170.945 40.6588 174.152V174.152Z" fill="#455A64"/>
<path d="M46.4214 190.629C46.4214 195.118 44.84 198.281 42.2755 199.738L32.3196 182.48L40.6586 174.152C44.1471 179.133 46.4214 185.21 46.4214 190.629Z" fill="#252525"/>
<path d="M42.2877 199.738C39.7469 201.201 36.1933 201.011 32.3199 198.767C29.0059 196.741 26.1661 194.026 23.9927 190.807L32.3199 182.479L42.2877 199.738Z" fill="#455A64"/>
<path d="M32.3197 182.48L23.9925 190.807C20.4922 185.832 18.2297 179.737 18.2297 174.354C18.2297 169.853 19.8111 166.702 22.3756 165.227L32.3197 182.48Z" fill="#252525"/>
<path d="M43.8098 205.992H43.8927C44.2007 205.992 44.485 206.028 44.8048 206.028H44.9529C45.3971 206.028 45.8294 205.998 46.2559 205.951H46.3032C46.6661 205.907 47.026 205.842 47.3812 205.755C47.5292 205.72 47.6832 205.69 47.8313 205.649C48.1096 205.572 48.388 205.477 48.6545 205.376C48.921 205.276 49.0691 205.211 49.2468 205.122L49.5311 204.98C50.4034 204.543 51.2026 203.974 51.9001 203.292C50.3229 203.724 48.6724 203.821 47.0554 203.576L43.0103 205.904C43.3005 205.939 43.5611 205.975 43.8098 205.992Z" fill="#263238"/>
<path d="M41.0203 155.922C41.1244 157.475 41.7945 158.935 42.9037 160.026C51.5507 167.975 57.882 180.892 57.882 191.825C57.882 199.791 54.5416 205.447 49.081 207.348C49.7791 207.124 50.4489 206.82 51.0769 206.442L55.0984 204.12C59.3745 201.657 61.9212 196.421 61.9212 189.497C61.9212 178.564 55.5899 165.647 46.937 157.699C45.8375 156.603 45.1761 155.144 45.0773 153.594V137.479L41.044 139.813L39.054 138.664L41.044 139.813L41.0203 155.922Z" fill="#252525"/>
<path d="M42.9034 160.027C41.7943 158.935 41.1242 157.475 41.02 155.922V139.813L39.03 138.664V156.888C39.0352 157.129 39.063 157.369 39.1129 157.604L39.1485 157.788C39.2051 158.041 39.2783 158.291 39.3676 158.534C39.5108 158.91 39.6872 159.273 39.8947 159.618C39.948 159.707 40.0013 159.784 40.0606 159.867C40.2145 160.111 40.3868 160.342 40.5758 160.56C40.6967 160.694 40.8252 160.82 40.9608 160.939V160.939C41.4405 161.353 41.9084 161.792 42.3704 162.242L42.7376 162.603C43.1403 163.006 43.5372 163.414 43.9221 163.835L44.0998 164.025C44.5381 164.504 44.9645 164.996 45.385 165.499C45.4975 165.63 45.6042 165.766 45.7108 165.896C46.0602 166.323 46.4037 166.755 46.7354 167.199C46.8183 167.306 46.9012 167.406 46.9782 167.513C47.375 168.046 47.7541 168.585 48.1627 169.136L48.4233 169.533C48.7313 169.989 49.0156 170.451 49.3176 170.918L49.5664 171.327C49.9158 171.919 50.2475 172.476 50.5732 173.057L50.7568 173.412C51.0234 173.903 51.284 174.401 51.5327 174.904L51.7637 175.366C52.0539 175.959 52.356 176.551 52.5929 177.185C52.6284 177.262 52.6639 177.345 52.6935 177.422C52.9265 177.966 53.1456 178.511 53.351 179.056C53.4161 179.222 53.4813 179.388 53.5405 179.554C53.7655 180.176 53.9906 180.797 54.186 181.425C54.3815 182.053 54.5592 182.681 54.7309 183.309C54.7665 183.439 54.802 183.575 54.8316 183.711C54.9935 184.319 55.1356 184.929 55.258 185.541L55.3113 185.849C55.4239 186.406 55.5127 186.963 55.5956 187.52C55.5956 187.62 55.5956 187.721 55.6371 187.822C55.72 188.414 55.7792 189.006 55.8266 189.598C55.8266 189.729 55.8266 189.859 55.8266 189.989C55.8622 190.582 55.8918 191.203 55.8918 191.802C55.8918 195.355 55.187 198.346 53.9255 200.638C53.6549 201.134 53.348 201.609 53.0074 202.06C52.8416 202.279 52.6698 202.492 52.4922 202.693C52.3145 202.895 52.1309 203.084 51.9414 203.286C51.2438 203.968 50.4446 204.537 49.5723 204.974L49.288 205.116C49.0867 205.205 48.8853 205.293 48.6958 205.37C48.5062 205.447 48.1923 205.554 47.9377 205.625H47.8725C47.7245 205.667 47.5705 205.696 47.4224 205.732L47.1559 205.797C46.8894 205.85 46.6169 205.898 46.3445 205.927H46.2616C45.829 205.977 45.394 206.003 44.9586 206.004H44.621C44.3841 206.004 44.1413 206.004 43.8984 205.963H43.8096C43.5608 205.963 43.3062 205.909 43.0574 205.874L40.4752 207.36C41.9078 207.774 43.3904 207.989 44.8816 208C45.083 208 45.2784 208 45.4739 208C45.6693 208 46.0128 208 46.2616 207.959L46.7176 207.893C47.0078 207.852 47.3099 207.811 47.5586 207.757L47.9732 207.662L48.139 207.615C48.3937 207.55 48.6484 207.485 48.8971 207.408L49.0748 207.349C54.5355 205.471 57.8758 199.791 57.8758 191.825C57.8818 180.892 51.5505 167.975 42.9034 160.027Z" fill="#455A64"/>
<path d="M31.9287 155.046L32.0472 155.004L32.1834 154.933L36.193 152.635C36.4529 152.47 36.6633 152.237 36.8019 151.962C36.9405 151.687 37.0023 151.379 36.9807 151.072V132.818L32.9474 135.152V153.37C32.977 153.721 32.8943 154.072 32.7112 154.374C32.5281 154.675 32.2541 154.91 31.9287 155.046V155.046Z" fill="#252525"/>
<path d="M27.0959 152.635C28.0657 152.636 29.0333 152.728 29.9862 152.908C30.1034 152.938 30.2263 152.941 30.3448 152.916C30.4633 152.89 30.5743 152.838 30.6687 152.762C30.7631 152.686 30.8384 152.588 30.8886 152.478C30.9387 152.368 30.9623 152.247 30.9575 152.126V150.314C29.5082 150.324 28.0717 150.585 26.7109 151.084V152.659C26.8412 152.635 26.9656 152.635 27.0959 152.635Z" fill="#252525"/>
<path d="M27.6053 154.637C28.0732 154.637 28.5529 154.702 29.0385 154.773C29.513 154.843 29.9835 154.938 30.4481 155.058C30.4757 155.054 30.5035 155.054 30.531 155.058H30.5843C30.7377 155.097 30.8943 155.123 31.0522 155.135H31.0937C31.2219 155.144 31.3505 155.144 31.4787 155.135H31.5497C31.671 155.118 31.7901 155.088 31.9051 155.046V155.046C32.2305 154.91 32.5045 154.675 32.6876 154.374C32.8707 154.072 32.9534 153.721 32.9238 153.37V135.152L30.9338 133.967V152.108C30.9386 152.229 30.9151 152.35 30.8649 152.46C30.8148 152.57 30.7395 152.668 30.645 152.744C30.5506 152.82 30.4397 152.872 30.3211 152.898C30.2026 152.923 30.0798 152.92 29.9625 152.89C29.0096 152.71 28.042 152.618 27.0722 152.617C26.9419 152.617 26.8176 152.617 26.6873 152.617V154.607H27.1078C27.3091 154.643 27.4454 154.631 27.6053 154.637Z" fill="#455A64"/>
<path d="M34.2089 124.029C33.4745 123.609 32.4677 123.668 31.3542 124.313C30.1743 125.077 29.1923 126.11 28.4891 127.327C27.7859 128.544 27.3815 129.91 27.3091 131.314C27.3091 132.611 27.7651 133.523 28.4936 133.938L44.6269 143.248L50.3126 133.351L34.2089 124.029Z" fill="#7D56A5"/>
<path opacity="0.3" d="M34.2089 124.029C33.4745 123.609 32.4677 123.668 31.3542 124.313C30.1743 125.077 29.1923 126.11 28.4891 127.327C27.7859 128.544 27.3815 129.91 27.3091 131.314C27.3091 132.611 27.7651 133.523 28.4936 133.938L44.6269 143.248L50.3126 133.351L34.2089 124.029Z" fill="#252525"/>
<path opacity="0.3" d="M27.8007 128.856C27.4946 129.64 27.3283 130.472 27.3091 131.314C27.3091 132.611 27.7651 133.523 28.4936 133.937L44.6269 143.248L46.6346 139.753L27.8007 128.856Z" fill="#252525"/>
<path d="M43.4602 140.624C43.5338 139.223 43.9382 137.859 44.6403 136.644C45.3423 135.43 46.3221 134.398 47.4994 133.635C48.601 132.996 49.602 132.93 50.3305 133.339C51.0589 133.748 51.515 134.666 51.515 135.963C51.4392 137.364 51.0346 138.727 50.3339 139.942C49.6331 141.157 48.656 142.19 47.4817 142.957C46.3623 143.597 45.3554 143.662 44.627 143.236C43.8985 142.809 43.4602 141.915 43.4602 140.624Z" fill="#7D56A5"/>
<path opacity="0.2" d="M43.4602 140.624C43.5338 139.223 43.9382 137.859 44.6403 136.644C45.3423 135.43 46.3221 134.398 47.4994 133.635C48.601 132.996 49.602 132.93 50.3305 133.339C51.0589 133.748 51.515 134.666 51.515 135.963C51.4392 137.364 51.0346 138.727 50.3339 139.942C49.6331 141.157 48.656 142.19 47.4817 142.957C46.3623 143.597 45.3554 143.662 44.627 143.236C43.8985 142.809 43.4602 141.915 43.4602 140.624Z" fill="#252525"/>
<path d="M45.2073 139.606C45.2504 138.811 45.4805 138.037 45.8787 137.348C46.277 136.658 46.8322 136.072 47.4993 135.638C47.7183 135.443 47.9929 135.323 48.2842 135.294C48.5755 135.264 48.8686 135.328 49.1219 135.475C49.3751 135.622 49.5755 135.845 49.6947 136.112C49.8138 136.38 49.8456 136.678 49.7854 136.964C49.742 137.758 49.5124 138.53 49.1153 139.218C48.7181 139.907 48.1645 140.492 47.4993 140.926C47.2799 141.118 47.0059 141.237 46.7157 141.266C46.4255 141.294 46.1337 141.231 45.881 141.086C45.6284 140.94 45.4276 140.719 45.3068 140.454C45.186 140.188 45.1512 139.892 45.2073 139.606V139.606Z" fill="#252525"/>
<path d="M48.7133 136.372C48.7247 136.015 48.6409 135.661 48.4705 135.347C48.1269 135.367 47.7934 135.471 47.4992 135.649C46.832 136.084 46.2768 136.67 45.8786 137.359C45.4803 138.049 45.2503 138.822 45.2071 139.618C45.1988 139.974 45.2824 140.327 45.4499 140.642C45.7954 140.622 46.1309 140.519 46.4272 140.34C47.0932 139.905 47.6473 139.319 48.0445 138.629C48.4416 137.94 48.6708 137.166 48.7133 136.372V136.372Z" fill="#263238"/>
<path d="M139.152 63.4404C138.424 63.0199 137.411 63.0792 136.297 63.7247C135.122 64.49 134.144 65.5217 133.442 66.736C132.74 67.9503 132.334 69.313 132.258 70.7134C132.258 72.0105 132.72 72.9166 133.443 73.3372L149.57 82.6475L155.262 72.7508L139.152 63.4404Z" fill="#7D56A5"/>
<path opacity="0.3" d="M139.152 63.4404C138.424 63.0199 137.411 63.0792 136.297 63.7247C135.122 64.49 134.144 65.5217 133.442 66.736C132.74 67.9503 132.334 69.313 132.258 70.7134C132.258 72.0105 132.72 72.9166 133.443 73.3372L149.57 82.6475L155.262 72.7508L139.152 63.4404Z" fill="#252525"/>
<path opacity="0.3" d="M132.732 68.2616C132.432 69.0454 132.268 69.8746 132.246 70.7136C132.246 72.0106 132.708 72.9168 133.431 73.3373L149.558 82.6477L151.572 79.1474L132.732 68.2616Z" fill="#252525"/>
<path d="M148.409 80.0358C148.485 78.6351 148.89 77.2719 149.59 76.0567C150.291 74.8415 151.268 73.8084 152.442 73.0412C153.55 72.4075 154.551 72.3423 155.279 72.751C156.008 73.1596 156.464 74.0777 156.464 75.3747C156.39 76.7758 155.986 78.1396 155.284 79.3543C154.582 80.569 153.602 81.6002 152.425 82.3634C151.311 83.009 150.304 83.0682 149.57 82.6477C148.836 82.2272 148.409 81.321 148.409 80.0358Z" fill="#7D56A5"/>
<path opacity="0.2" d="M148.409 80.0358C148.485 78.6351 148.89 77.2719 149.59 76.0567C150.291 74.8415 151.268 73.8084 152.442 73.0412C153.55 72.4075 154.551 72.3423 155.279 72.751C156.008 73.1596 156.464 74.0777 156.464 75.3747C156.39 76.7758 155.986 78.1396 155.284 79.3543C154.582 80.569 153.602 81.6002 152.425 82.3634C151.311 83.009 150.304 83.0682 149.57 82.6477C148.836 82.2272 148.409 81.321 148.409 80.0358Z" fill="#252525"/>
<path d="M150.156 79.0286C150.199 78.234 150.428 77.4607 150.825 76.7713C151.222 76.0819 151.776 75.4957 152.442 75.0604C152.673 74.8947 152.943 74.7922 153.226 74.7631C153.508 74.734 153.794 74.7793 154.053 74.8946C154.29 75.0581 154.478 75.2826 154.598 75.5442C154.718 75.8059 154.765 76.095 154.735 76.3812C154.692 77.1764 154.463 77.9505 154.064 78.6401C153.666 79.3297 153.11 79.9154 152.442 80.3493C152.224 80.5428 151.95 80.6627 151.659 80.6919C151.369 80.7212 151.077 80.6583 150.824 80.5123C150.571 80.3662 150.37 80.1444 150.251 79.8781C150.131 79.6118 150.098 79.3146 150.156 79.0286Z" fill="#252525"/>
<path d="M153.662 75.7832C153.671 75.4264 153.587 75.0736 153.42 74.7585C153.074 74.7782 152.739 74.8819 152.442 75.0606C151.776 75.4956 151.221 76.0815 150.822 76.7709C150.424 77.4603 150.194 78.2338 150.15 79.0288C150.141 79.3863 150.227 79.74 150.399 80.0534C150.743 80.0335 151.076 79.9298 151.37 79.7513C152.037 79.3163 152.592 78.7304 152.99 78.041C153.389 77.3516 153.619 76.5781 153.662 75.7832Z" fill="#263238"/>
<path d="M151.572 29.8001L134.159 19.7317C133.044 17.6074 131.706 15.6081 130.167 13.7676C139.513 15.3963 146.905 21.0583 151.572 29.8001Z" fill="#7D56A5"/>
<path opacity="0.2" d="M151.572 29.8001L134.159 19.7317C133.044 17.6074 131.706 15.6081 130.167 13.7676C139.513 15.3963 146.905 21.0583 151.572 29.8001Z" fill="#252525"/>
<path d="M148.35 73.1418C149.236 68.4329 149.694 63.6536 149.718 58.8623C149.718 26.4714 126.981 13.3409 98.9316 29.5393C70.882 45.7377 48.1391 85.1173 48.1391 117.508C48.1117 121.783 48.5728 126.048 49.5132 130.218L42.9627 134.003C42.1472 129.78 41.7505 125.487 41.7782 121.186C41.7782 84.7323 67.3758 40.3955 98.9494 22.1716C130.523 3.94764 156.115 18.7187 156.115 55.1784C156.104 59.9407 155.708 64.6944 154.93 69.3927L148.415 73.1654" fill="#252525"/>
<path d="M148.356 73.1419C149.237 68.4305 149.693 63.6495 149.718 58.8565C149.718 37.4936 139.827 24.5052 125.039 22.7936C129.664 28.965 132.317 37.7719 132.317 48.8532C132.289 53.6323 131.833 58.3993 130.955 63.0971L148.356 73.1419Z" fill="#263238"/>
<path d="M138.317 17.5995C128.059 12.2691 114.194 13.3707 98.9314 22.1836C67.352 40.3957 41.7603 84.7266 41.7603 121.192C41.7322 125.489 42.129 129.778 42.9448 133.997L25.5737 123.964C24.7405 119.753 24.3298 115.47 24.3477 111.177C24.3477 74.7173 49.9394 30.3864 81.5189 12.1566C97.2909 3.04756 111.564 2.18878 121.911 8.15287C124.565 9.65722 134.331 15.3015 138.317 17.5995Z" fill="#455A64"/>
<path d="M34.0727 119.001C33.5884 118.983 33.117 118.84 32.7046 118.586C31.8572 118.033 31.1511 117.289 30.6431 116.413C30.135 115.538 29.839 114.556 29.7788 113.546C29.7788 112.195 30.4777 111.325 31.5556 111.325C32.0394 111.34 32.511 111.481 32.9237 111.733C33.7731 112.292 34.48 113.041 34.9881 113.921C35.4961 114.802 35.7911 115.789 35.8495 116.803C35.8436 118.124 35.1447 119.001 34.0727 119.001Z" fill="#263238"/>
<path d="M140.899 14.099C135.842 11.3864 130.178 10.0046 124.44 10.0835C115.716 10.0835 106.412 12.9026 96.7756 18.4581C74.4769 31.3279 55.0211 56.8367 44.8934 83.7314L27.4927 73.6629C37.6204 46.7683 57.1058 21.2595 79.3749 8.38959C89.0111 2.83416 98.3274 0.00314737 107.04 0.00314737C112.996 -0.0782855 118.868 1.4218 124.055 4.35036C126.809 5.97316 137.215 11.9669 140.899 14.099Z" fill="#7D56A5"/>
<path opacity="0.6" d="M140.899 14.099C135.842 11.3864 130.178 10.0046 124.44 10.0835C115.716 10.0835 106.412 12.9026 96.7756 18.4581C74.4769 31.3279 55.0211 56.8367 44.8934 83.7314L27.4927 73.6629C37.6204 46.7683 57.1058 21.2595 79.3749 8.38959C89.0111 2.83416 98.3274 0.00314737 107.04 0.00314737C112.996 -0.0782855 118.868 1.4218 124.055 4.35036C126.809 5.97316 137.215 11.9669 140.899 14.099Z" fill="white"/>
<path d="M151.566 29.794C145.987 19.3761 136.516 13.2936 124.44 13.2936C116.285 13.2936 107.513 15.9647 98.3806 21.2417C76.5261 33.8569 57.473 58.9571 47.6769 85.3424L44.8933 83.7314C55.021 56.8368 74.4769 31.328 96.7756 18.4581C106.412 12.9027 115.728 10.0835 124.44 10.0835C137.15 10.0835 147.248 16.089 153.461 26.5188L151.566 29.794Z" fill="#7D56A5"/>
<path d="M226.339 20.158L223.437 29.723C223.199 29.5442 222.933 29.4061 222.65 29.3143C222.154 29.1643 221.625 29.1646 221.13 29.3152C220.634 29.4658 220.195 29.7599 219.866 30.1604C219.538 30.5608 219.336 31.0496 219.286 31.565C219.235 32.0803 219.339 32.599 219.583 33.0554C219.828 33.5119 220.202 33.8857 220.659 34.1294C221.115 34.3732 221.634 34.476 222.15 34.4249C222.665 34.3737 223.153 34.1709 223.553 33.8421C223.953 33.5133 224.247 33.0733 224.397 32.5777L227.003 24.0077L236.319 24.3512L233.754 32.8502C233.518 32.669 233.251 32.5307 232.967 32.4415C232.471 32.2915 231.942 32.2918 231.447 32.4424C230.951 32.593 230.512 32.8871 230.184 33.2875C229.855 33.688 229.653 34.1768 229.603 34.6921C229.552 35.2074 229.656 35.7261 229.9 36.1826C230.145 36.6391 230.519 37.0128 230.976 37.2566C231.433 37.5003 231.952 37.6031 232.467 37.552C232.982 37.5009 233.471 37.2981 233.871 36.9693C234.271 36.6405 234.564 36.2005 234.714 35.7049V35.7049L238.996 21.4906L226.339 20.158Z" fill="#7D56A5"/>
<path d="M219.339 166.713L216.436 176.278C216.2 176.097 215.933 175.959 215.649 175.87C215.153 175.72 214.624 175.72 214.129 175.871C213.633 176.021 213.194 176.315 212.866 176.716C212.537 177.116 212.335 177.605 212.285 178.12C212.234 178.636 212.338 179.154 212.582 179.611C212.827 180.067 213.201 180.441 213.658 180.685C214.115 180.929 214.634 181.031 215.149 180.98C215.664 180.929 216.153 180.726 216.553 180.398C216.953 180.069 217.246 179.629 217.396 179.133L220.002 170.563L229.318 170.907L226.754 179.406C226.517 179.224 226.25 179.086 225.966 178.997C225.47 178.847 224.942 178.847 224.446 178.998C223.951 179.148 223.511 179.443 223.183 179.843C222.855 180.243 222.653 180.732 222.602 181.248C222.552 181.763 222.655 182.282 222.9 182.738C223.144 183.195 223.518 183.568 223.975 183.812C224.432 184.056 224.951 184.159 225.466 184.107C225.981 184.056 226.47 183.854 226.87 183.525C227.27 183.196 227.563 182.756 227.713 182.26L231.989 168.046L219.339 166.713Z" fill="#7D56A5"/>
<path d="M200.913 54.0768C201.499 53.7901 202.139 53.6306 202.791 53.609C203.663 53.5919 204.533 53.6915 205.379 53.9051C206.5 54.2134 207.649 54.4117 208.808 54.4974C209.39 54.537 209.973 54.4588 210.524 54.2675C211.074 54.0762 211.581 53.7756 212.012 53.3839C211.333 53.4472 210.649 53.3561 210.01 53.1174C208.476 52.5251 207.245 50.9556 205.865 50.0791C203.809 48.782 201.778 48.8945 199.279 49.5223C199.279 51.6486 199.237 53.7866 199.213 55.9188L199.16 60.9352C199.16 61.0952 199.083 63.2155 199.083 63.2155C198.503 62.925 197.866 62.7672 197.218 62.7535C196.507 62.7465 195.811 62.9503 195.217 63.3391C194.623 63.7278 194.157 64.2841 193.879 64.9376C193.601 65.591 193.524 66.3122 193.656 67.0099C193.788 67.7077 194.124 68.3505 194.621 68.8572C195.119 69.3638 195.755 69.7115 196.451 69.8562C197.146 70.0009 197.868 69.9362 198.527 69.6702C199.185 69.4041 199.75 68.9488 200.149 68.3617C200.549 67.7747 200.765 67.0823 200.771 66.3722L200.913 54.0768Z" fill="#7D56A5"/>
<path d="M258.884 143.822C259.527 143.708 260.187 143.732 260.82 143.893C261.661 144.12 262.47 144.455 263.225 144.888C264.218 145.495 265.268 146.004 266.358 146.41C266.907 146.608 267.489 146.693 268.071 146.661C268.653 146.628 269.223 146.479 269.746 146.221C269.075 146.096 268.441 145.82 267.892 145.415C266.583 144.438 265.837 142.572 264.753 141.346C263.142 139.528 261.164 139.066 258.582 138.977C257.989 141.027 257.362 143.064 256.752 145.107L255.312 149.917L254.602 152.078C254.125 151.64 253.557 151.314 252.937 151.125C252.258 150.918 251.533 150.918 250.853 151.124C250.173 151.33 249.57 151.733 249.12 152.282C248.669 152.831 248.392 153.501 248.322 154.208C248.253 154.915 248.395 155.626 248.73 156.252C249.065 156.878 249.578 157.391 250.205 157.725C250.831 158.06 251.543 158.201 252.249 158.13C252.956 158.06 253.626 157.782 254.174 157.331C254.723 156.88 255.125 156.276 255.33 155.596L258.884 143.822Z" fill="#7D56A5"/>
<path d="M174.042 16.0831C174.321 15.4328 174.735 14.8493 175.257 14.3714C175.96 13.7408 176.745 13.2069 177.59 12.7842C178.732 12.2402 179.819 11.5877 180.836 10.8356C181.342 10.4573 181.766 9.98041 182.082 9.43381C182.399 8.8872 182.601 8.28216 182.678 7.65515C182.163 8.18384 181.535 8.58886 180.842 8.83968C179.177 9.43194 177.039 9.01143 175.286 9.26611C172.674 9.65108 171.075 11.1732 169.47 13.4653C170.98 15.242 172.432 17.0188 173.942 18.7956L177.454 22.9415C177.566 23.0718 179 24.8722 179 24.8722C178.32 25.0511 177.689 25.3788 177.152 25.8317C176.563 26.329 176.135 26.9898 175.921 27.7305C175.708 28.4713 175.719 29.2587 175.953 29.9931C176.187 30.7276 176.634 31.3761 177.236 31.8567C177.839 32.3372 178.571 32.6282 179.339 32.6928C180.107 32.7575 180.877 32.5928 181.552 32.2198C182.227 31.8467 182.775 31.2819 183.129 30.5969C183.482 29.9119 183.625 29.1375 183.538 28.3715C183.452 27.6055 183.14 26.8824 182.642 26.2937L174.042 16.0831Z" fill="#7D56A5"/>
<path d="M226.31 72.9638L210.787 81.9306C210.64 82.0248 210.519 82.1523 210.431 82.3025C210.344 82.4528 210.293 82.6217 210.283 82.7954V100.705C210.292 100.878 210.342 101.047 210.43 101.196C210.517 101.346 210.64 101.472 210.787 101.564L212.563 102.589C212.718 102.666 212.888 102.707 213.061 102.707C213.234 102.707 213.404 102.666 213.558 102.589L229.088 93.616C229.232 93.5221 229.353 93.3954 229.439 93.2462C229.526 93.0969 229.576 92.9294 229.585 92.7572V74.8176C229.576 74.6445 229.526 74.4761 229.438 74.3266C229.351 74.1771 229.228 74.0509 229.082 73.9588L227.305 72.9579C227.15 72.8825 226.979 72.8438 226.807 72.8449C226.634 72.8459 226.464 72.8866 226.31 72.9638V72.9638Z" fill="#7D56A5"/>
<path d="M213.09 102.293V84.3588C213.1 84.1858 213.15 84.0174 213.236 83.8673C213.323 83.7171 213.443 83.5893 213.588 83.4941L229.117 74.5272C229.389 74.3673 229.614 74.4976 229.614 74.8174V92.7571C229.605 92.9293 229.555 93.0968 229.469 93.246C229.382 93.3953 229.262 93.522 229.117 93.6159L213.588 102.589C213.315 102.743 213.09 102.618 213.09 102.293Z" fill="#7D56A5"/>
<path d="M213.09 102.293V84.3588C213.1 84.1858 213.15 84.0174 213.236 83.8673C213.323 83.7171 213.443 83.5893 213.588 83.4941L229.117 74.5272C229.389 74.3673 229.614 74.4976 229.614 74.8174V92.7571C229.605 92.9293 229.555 93.0968 229.469 93.246C229.382 93.3953 229.262 93.522 229.117 93.6159L213.588 102.589C213.315 102.743 213.09 102.618 213.09 102.293Z" fill="#7D56A5"/>
<path opacity="0.2" d="M213.588 102.589C213.431 102.662 213.26 102.699 213.088 102.699C212.915 102.699 212.744 102.662 212.587 102.589L210.81 101.558C210.664 101.466 210.541 101.34 210.454 101.19C210.366 101.041 210.316 100.872 210.307 100.699V82.7951C210.315 82.6144 210.37 82.4389 210.467 82.2858L213.245 83.8671C213.152 84.0146 213.101 84.1845 213.096 84.3587V102.292C213.091 102.589 213.28 102.754 213.588 102.589Z" fill="black"/>
<path opacity="0.4" d="M229.609 74.7287C229.567 74.474 229.366 74.3852 229.117 74.5273L213.588 83.4942C213.443 83.5882 213.323 83.7163 213.238 83.8673L210.461 82.286C210.542 82.1392 210.66 82.0166 210.804 81.9306L226.31 72.9637C226.465 72.8847 226.636 72.8435 226.81 72.8435C226.984 72.8435 227.156 72.8847 227.311 72.9637L229.087 73.9647C229.225 74.0457 229.343 74.1562 229.434 74.2883C229.524 74.4204 229.583 74.5708 229.609 74.7287V74.7287Z" fill="white"/>
<path d="M227.435 84.9924C227.435 89.5055 224.693 94.7529 221.305 96.7074C217.917 98.6619 215.169 96.5889 215.169 92.07C215.169 87.551 217.917 82.3095 221.305 80.355C224.693 78.4005 227.435 80.4735 227.435 84.9924Z" fill="#FAFAFA"/>
<path d="M220.476 86.4495V91.6792C220.469 91.8093 220.431 91.9358 220.366 92.0489C220.301 92.162 220.211 92.2584 220.103 92.3307L219.096 92.923C218.889 93.0414 218.723 92.923 218.723 92.7038V87.486C218.73 87.3559 218.768 87.2293 218.833 87.1163C218.897 87.0032 218.988 86.9068 219.096 86.8345L220.103 86.2422C220.304 86.1179 220.476 86.2126 220.476 86.4495Z" fill="#455A64"/>
<path d="M223.988 84.4238V89.6475C223.98 89.7776 223.943 89.9042 223.878 90.0172C223.813 90.1303 223.723 90.2268 223.615 90.299L222.608 90.8913C222.401 91.0098 222.229 90.8913 222.229 90.6722V85.4484C222.237 85.3186 222.275 85.1926 222.341 85.0804C222.407 84.9683 222.498 84.8732 222.608 84.8028L223.615 84.2106C223.822 84.0862 223.988 84.181 223.988 84.4238Z" fill="#455A64"/>
<path d="M244.356 64.7786L231.919 71.9509C231.803 72.0274 231.707 72.1299 231.638 72.2503C231.569 72.3706 231.529 72.5054 231.522 72.6438V86.9707C231.528 87.1092 231.569 87.2441 231.639 87.3637C231.709 87.4833 231.807 87.5842 231.924 87.6577L233.352 88.481C233.476 88.5439 233.613 88.5767 233.752 88.5767C233.891 88.5767 234.028 88.5439 234.151 88.481L246.589 81.3087C246.706 81.2328 246.803 81.1305 246.873 81.0102C246.943 80.8898 246.984 80.7547 246.992 80.6157V66.2592C246.983 66.1213 246.941 65.9874 246.872 65.8681C246.802 65.7488 246.705 65.6475 246.589 65.5722L245.162 64.7727C245.036 64.7097 244.898 64.6773 244.758 64.6784C244.618 64.6794 244.48 64.7138 244.356 64.7786V64.7786Z" fill="#7D56A5"/>
<path d="M233.766 88.2442V73.8936C233.773 73.7559 233.813 73.6218 233.882 73.5023C233.951 73.3829 234.047 73.2815 234.163 73.2066L246.601 66.0284C246.82 65.904 247.003 66.0284 247.003 66.2594V80.6099C246.995 80.7489 246.955 80.884 246.885 81.0044C246.815 81.1247 246.717 81.227 246.601 81.3029L234.163 88.4752C233.944 88.6055 233.766 88.4988 233.766 88.2442Z" fill="#7D56A5"/>
<path d="M233.766 88.2442V73.8936C233.773 73.7559 233.813 73.6218 233.882 73.5023C233.951 73.3829 234.047 73.2815 234.163 73.2066L246.601 66.0284C246.82 65.904 247.003 66.0284 247.003 66.2594V80.6099C246.995 80.7489 246.955 80.884 246.885 81.0044C246.815 81.1247 246.717 81.227 246.601 81.3029L234.163 88.4752C233.944 88.6055 233.766 88.4988 233.766 88.2442Z" fill="#7D56A5"/>
<path opacity="0.2" d="M234.163 88.4752C234.039 88.5364 233.902 88.5682 233.763 88.5682C233.625 88.5682 233.488 88.5364 233.364 88.4752L231.936 87.652C231.819 87.5785 231.721 87.4776 231.65 87.358C231.58 87.2383 231.54 87.1035 231.533 86.9649V72.644C231.538 72.4992 231.581 72.3583 231.658 72.2354L233.885 73.5028C233.811 73.6201 233.77 73.7551 233.766 73.8937V88.2442C233.766 88.4811 233.926 88.6114 234.163 88.4752Z" fill="black"/>
<path opacity="0.4" d="M246.98 66.1645C246.944 65.9631 246.785 65.8921 246.583 66.0046L234.146 73.1828C234.029 73.2557 233.933 73.3578 233.867 73.479L231.64 72.2352C231.706 72.1173 231.802 72.0192 231.919 71.9509L244.356 64.7786C244.48 64.7157 244.617 64.6829 244.756 64.6829C244.895 64.6829 245.032 64.7157 245.156 64.7786L246.583 65.5782C246.686 65.6437 246.774 65.7296 246.842 65.8304C246.91 65.9312 246.957 66.0449 246.98 66.1645V66.1645Z" fill="white"/>
<path d="M243.906 72.5907V77.8144C243.899 77.9447 243.862 78.0716 243.797 78.1848C243.732 78.298 243.642 78.3943 243.533 78.4659L242.526 79.0582C242.318 79.1766 242.147 79.0582 242.147 78.845V73.6153C242.155 73.4855 242.193 73.3594 242.259 73.2473C242.325 73.1351 242.416 73.0401 242.526 72.9697L243.533 72.3774C243.74 72.2531 243.906 72.3478 243.906 72.5907Z" fill="#455A64"/>
<path d="M236.84 76.7246V81.8417C236.84 82.2267 237.042 82.2978 237.296 82.0135L242.034 76.5528C242.289 76.2626 242.183 76.0316 241.798 76.0316H237.563C237.469 76.0276 237.376 76.0426 237.289 76.0756C237.201 76.1087 237.121 76.1591 237.054 76.2238C236.986 76.2886 236.932 76.3663 236.896 76.4524C236.859 76.5384 236.84 76.631 236.84 76.7246V76.7246Z" fill="#455A64"/>
<path d="M204.929 87.5452L192.492 94.7176C192.375 94.7931 192.277 94.8952 192.207 95.0157C192.137 95.1361 192.097 95.2714 192.089 95.4105V109.737C192.097 109.876 192.138 110.01 192.208 110.129C192.278 110.249 192.375 110.35 192.492 110.424L193.919 111.248C194.043 111.311 194.18 111.343 194.319 111.343C194.458 111.343 194.595 111.311 194.719 111.248L207.156 104.075C207.272 103.999 207.368 103.897 207.437 103.776C207.506 103.656 207.546 103.521 207.553 103.382V89.0259C207.546 88.8874 207.506 88.7525 207.436 88.6329C207.366 88.5132 207.268 88.4124 207.15 88.3389L205.723 87.5393C205.599 87.4783 205.463 87.447 205.325 87.448C205.187 87.4491 205.052 87.4824 204.929 87.5452V87.5452Z" fill="#7D56A5"/>
<path d="M194.328 111.011V96.6602C194.335 96.5225 194.374 96.3883 194.443 96.2689C194.512 96.1494 194.609 96.0481 194.724 95.9732L207.162 88.795C207.381 88.6706 207.559 88.795 207.559 89.026V103.377C207.552 103.515 207.512 103.65 207.443 103.77C207.374 103.891 207.278 103.993 207.162 104.069L194.724 111.242C194.517 111.372 194.328 111.265 194.328 111.011Z" fill="#7D56A5"/>
<path d="M194.328 111.011V96.6602C194.335 96.5225 194.374 96.3883 194.443 96.2689C194.512 96.1494 194.609 96.0481 194.724 95.9732L207.162 88.795C207.381 88.6706 207.559 88.795 207.559 89.026V103.377C207.552 103.515 207.512 103.65 207.443 103.77C207.374 103.891 207.278 103.993 207.162 104.069L194.724 111.242C194.517 111.372 194.328 111.265 194.328 111.011Z" fill="#7D56A5"/>
<path opacity="0.2" d="M194.736 111.242C194.612 111.303 194.475 111.335 194.336 111.335C194.198 111.335 194.061 111.303 193.937 111.242L192.509 110.418C192.393 110.344 192.295 110.243 192.225 110.123C192.155 110.004 192.115 109.87 192.106 109.731V95.4105C192.113 95.2652 192.158 95.1243 192.237 95.0018L194.458 96.2693C194.384 96.3865 194.343 96.5216 194.339 96.6602V111.011C194.327 111.248 194.505 111.378 194.736 111.242Z" fill="black"/>
<path opacity="0.4" d="M207.553 88.9548C207.523 88.7534 207.357 88.6824 207.156 88.7949L194.718 95.9731C194.603 96.0476 194.507 96.1493 194.44 96.2692L192.213 95.0018C192.282 94.8864 192.378 94.789 192.491 94.7175L204.929 87.5452C205.053 87.4823 205.19 87.4495 205.329 87.4495C205.468 87.4495 205.605 87.4823 205.729 87.5452L207.156 88.3448C207.261 88.4129 207.351 88.5025 207.419 88.6076C207.488 88.7127 207.533 88.831 207.553 88.9548V88.9548Z" fill="white"/>
<path d="M198.977 98.6622V103.886C198.971 104.016 198.934 104.143 198.869 104.257C198.804 104.37 198.713 104.466 198.604 104.537L197.597 105.13C197.389 105.254 197.224 105.13 197.224 104.916V99.6927C197.23 99.5623 197.267 99.4353 197.332 99.322C197.396 99.2087 197.487 99.1125 197.597 99.0412L198.604 98.449C198.811 98.3246 198.977 98.4253 198.977 98.6622Z" fill="#455A64"/>
<path d="M204.675 100.569V95.2388C204.675 94.8301 204.455 94.7472 204.183 95.0552L199.137 100.759C198.864 101.067 198.977 101.315 199.386 101.315H203.934C204.131 101.312 204.318 101.233 204.456 101.093C204.595 100.954 204.673 100.766 204.675 100.569V100.569Z" fill="#455A64"/>
<path d="M246.091 91.4721L191.793 122.821C191.648 122.915 191.527 123.043 191.44 123.193C191.354 123.344 191.304 123.512 191.295 123.685V158.303C191.305 158.474 191.355 158.641 191.442 158.789C191.528 158.937 191.648 159.063 191.793 159.156L193.569 160.186C193.725 160.264 193.896 160.304 194.07 160.304C194.244 160.304 194.415 160.264 194.57 160.186L248.869 128.832C249.014 128.737 249.134 128.609 249.221 128.459C249.307 128.309 249.357 128.14 249.367 127.967V93.3258C249.358 93.1528 249.308 92.9844 249.22 92.8349C249.132 92.6854 249.01 92.5592 248.863 92.4671L247.086 91.4661C246.932 91.389 246.761 91.3493 246.588 91.3504C246.415 91.3514 246.245 91.3931 246.091 91.4721V91.4721Z" fill="#455A64"/>
<path d="M249.373 93.2314C249.331 92.9826 249.13 92.8938 248.881 93.0359L194.582 124.39C194.434 124.482 194.312 124.611 194.227 124.763L191.449 123.176C191.532 123.031 191.65 122.908 191.793 122.821L246.091 91.4664C246.247 91.3892 246.418 91.349 246.592 91.349C246.766 91.349 246.937 91.3892 247.092 91.4664L248.869 92.4673C249.004 92.5503 249.118 92.6616 249.205 92.7936C249.292 92.9256 249.349 93.075 249.373 93.2314V93.2314Z" fill="#37474F"/>
<path d="M194.079 159.891V125.255C194.089 125.081 194.139 124.912 194.227 124.762C194.314 124.612 194.436 124.484 194.582 124.39L248.881 93.0359C249.153 92.876 249.378 93.0063 249.378 93.3261V127.962C249.369 128.135 249.319 128.303 249.233 128.453C249.146 128.603 249.026 128.731 248.881 128.826L194.582 160.181C194.328 160.335 194.079 160.21 194.079 159.891Z" fill="#455A64"/>
<path opacity="0.2" d="M194.582 160.181C194.426 160.257 194.255 160.296 194.082 160.296C193.908 160.296 193.737 160.257 193.581 160.181L191.805 159.15C191.66 159.057 191.54 158.932 191.454 158.783C191.367 158.635 191.317 158.469 191.307 158.297V123.686C191.313 123.505 191.366 123.33 191.461 123.176L194.239 124.764C194.149 124.912 194.098 125.081 194.091 125.255V159.891C194.079 160.181 194.286 160.335 194.582 160.181Z" fill="#263238"/>
<path d="M200.985 151.824C200.979 151.828 200.971 151.83 200.964 151.83C200.956 151.83 200.949 151.828 200.943 151.824C200.941 151.819 200.94 151.814 200.94 151.809C200.94 151.804 200.941 151.799 200.943 151.794V151.599L200.351 151.954C200.345 151.957 200.339 151.958 200.333 151.958C200.327 151.958 200.321 151.957 200.315 151.954V151.924V151.717C200.31 151.684 200.31 151.65 200.315 151.616L200.908 150.538C200.915 150.521 200.925 150.505 200.937 150.491H200.979L201.275 150.319C201.275 150.319 201.304 150.319 201.31 150.319V150.349V151.101L201.476 151.006C201.482 151.002 201.489 151 201.497 151C201.504 151 201.512 151.002 201.518 151.006V151.22C201.523 151.233 201.523 151.248 201.518 151.261L201.476 151.302L201.31 151.397V151.599C201.314 151.614 201.314 151.63 201.31 151.646C201.303 151.662 201.291 151.674 201.275 151.682L200.985 151.824ZM200.937 151.285V150.923L200.653 151.451L200.937 151.285Z" fill="white"/>
<path d="M202.145 150.414C202.148 150.43 202.148 150.446 202.145 150.462L202.104 150.497L201.849 150.645C201.849 150.645 201.82 150.645 201.814 150.645V150.391C201.809 150.375 201.809 150.359 201.814 150.343C201.816 150.335 201.821 150.327 201.827 150.321C201.833 150.315 201.841 150.31 201.849 150.308L202.104 150.154H202.145C202.149 150.163 202.149 150.174 202.145 150.183V150.414ZM202.145 151.101C202.148 151.117 202.148 151.133 202.145 151.149L202.104 151.184L201.849 151.332C201.849 151.332 201.82 151.332 201.814 151.332V151.303V151.048C201.809 151.033 201.809 151.016 201.814 151.001C201.816 150.992 201.821 150.985 201.827 150.979C201.833 150.972 201.841 150.968 201.849 150.965L202.104 150.817C202.11 150.813 202.117 150.81 202.125 150.81C202.132 150.81 202.139 150.813 202.145 150.817V151.101Z" fill="white"/>
<path d="M203.141 150.58C203.141 150.58 203.111 150.58 203.099 150.58C203.097 150.575 203.096 150.57 203.096 150.565C203.096 150.56 203.097 150.555 203.099 150.55V150.349L202.477 150.71H202.442V150.503C202.442 150.467 202.453 150.433 202.471 150.402L203.064 149.324L203.093 149.277C203.104 149.264 203.119 149.254 203.135 149.247L203.431 149.076C203.431 149.076 203.46 149.076 203.466 149.076V149.105V149.857L203.638 149.757H203.674C203.676 149.761 203.678 149.766 203.678 149.772C203.678 149.777 203.676 149.782 203.674 149.786V149.994C203.679 150.009 203.679 150.026 203.674 150.041L203.638 150.083L203.466 150.177V150.379C203.47 150.394 203.47 150.411 203.466 150.426C203.459 150.442 203.446 150.454 203.431 150.462L203.141 150.58ZM203.093 150.035V149.674L202.809 150.201L203.093 150.035Z" fill="white"/>
<path d="M239.689 129.004C239.69 129.084 239.674 129.163 239.642 129.235C239.612 129.318 239.57 129.396 239.517 129.466C239.46 129.541 239.397 129.61 239.328 129.673C239.26 129.734 239.187 129.787 239.109 129.833C239.038 129.875 238.963 129.907 238.883 129.928C238.821 129.942 238.756 129.942 238.694 129.928C238.643 129.918 238.597 129.891 238.564 129.851C238.531 129.796 238.514 129.732 238.516 129.667C238.511 129.628 238.511 129.588 238.516 129.549L238.552 129.436C238.563 129.399 238.579 129.363 238.599 129.33L238.647 129.229L239.026 128.507V128.465L239.067 128.43L239.381 128.252V128.282L239.12 128.779C239.182 128.749 239.248 128.727 239.316 128.714C239.368 128.702 239.423 128.702 239.476 128.714C239.522 128.731 239.561 128.762 239.588 128.803C239.645 128.856 239.68 128.927 239.689 129.004V129.004ZM238.883 129.472C238.877 129.493 238.877 129.516 238.883 129.537C238.901 129.544 238.92 129.544 238.937 129.537C238.96 129.543 238.984 129.543 239.008 129.537L239.091 129.502L239.168 129.442C239.194 129.422 239.218 129.398 239.239 129.371C239.259 129.343 239.277 129.313 239.292 129.282C239.298 129.253 239.298 129.223 239.292 129.194C239.299 129.172 239.299 129.15 239.292 129.129C239.275 129.123 239.256 129.123 239.239 129.129C239.216 129.12 239.191 129.12 239.168 129.129C239.14 129.135 239.114 129.147 239.091 129.164C239.06 129.178 239.031 129.198 239.008 129.223C238.981 129.244 238.957 129.268 238.937 129.294C238.915 129.321 238.897 129.351 238.883 129.383C238.878 129.413 238.878 129.443 238.883 129.472V129.472Z" fill="white"/>
<path d="M240.317 128.352C240.321 128.368 240.321 128.384 240.317 128.4L240.281 128.435L240.027 128.583C240.027 128.583 239.997 128.583 239.985 128.583C239.983 128.579 239.982 128.574 239.982 128.569C239.982 128.564 239.983 128.558 239.985 128.554V128.352C239.983 128.337 239.983 128.321 239.985 128.305C239.994 128.289 240.009 128.276 240.027 128.27L240.281 128.121C240.281 128.121 240.311 128.121 240.317 128.121C240.323 128.121 240.317 128.121 240.317 128.121V128.352ZM240.317 129.039C240.321 129.055 240.321 129.071 240.317 129.087C240.308 129.102 240.296 129.114 240.281 129.122L240.027 129.27C240.027 129.27 239.997 129.27 239.985 129.27V129.016C239.983 129 239.983 128.984 239.985 128.968C239.994 128.952 240.009 128.939 240.027 128.933L240.281 128.785C240.281 128.785 240.311 128.785 240.317 128.785C240.323 128.785 240.317 128.785 240.317 128.785V129.039Z" fill="white"/>
<path d="M241.643 126.973H241.708C241.711 126.977 241.712 126.982 241.712 126.987C241.712 126.993 241.711 126.998 241.708 127.002V127.209C241.711 127.225 241.711 127.241 241.708 127.257C241.71 127.273 241.71 127.288 241.708 127.304L241.472 127.677C241.552 127.651 241.639 127.651 241.72 127.677C241.755 127.695 241.784 127.724 241.802 127.759C241.82 127.794 241.827 127.834 241.821 127.873C241.818 128.026 241.763 128.174 241.667 128.293C241.547 128.44 241.401 128.563 241.235 128.655C241.157 128.702 241.073 128.738 240.986 128.761C240.926 128.778 240.862 128.778 240.802 128.761C240.759 128.758 240.719 128.739 240.69 128.708C240.661 128.675 240.647 128.633 240.648 128.589C240.643 128.576 240.643 128.561 240.648 128.548C240.655 128.535 240.665 128.525 240.678 128.518L240.927 128.376C240.936 128.372 240.946 128.369 240.956 128.369C240.967 128.369 240.977 128.372 240.986 128.376H241.033H241.104C241.147 128.371 241.188 128.354 241.223 128.329C241.282 128.295 241.336 128.253 241.383 128.204C241.401 128.187 241.416 128.166 241.426 128.142C241.436 128.119 241.442 128.094 241.442 128.068C241.442 128.021 241.442 128.003 241.383 128.003C241.326 128.013 241.272 128.033 241.223 128.062L241.063 128.157C241.063 128.157 241.063 128.157 241.027 128.157V127.991C241.025 127.976 241.025 127.96 241.027 127.944C241.036 127.927 241.046 127.911 241.057 127.896L241.264 127.565L240.755 127.861C240.755 127.861 240.725 127.861 240.713 127.861C240.702 127.861 240.713 127.861 240.713 127.861V127.654C240.712 127.636 240.717 127.618 240.726 127.603C240.736 127.588 240.75 127.577 240.767 127.571L241.643 126.973Z" fill="white"/>
<path d="M242.627 126.386C242.706 126.339 242.792 126.305 242.881 126.285C242.938 126.27 242.997 126.27 243.053 126.285C243.101 126.309 243.139 126.349 243.16 126.398C243.183 126.454 243.197 126.514 243.201 126.576V126.925C243.196 127.003 243.182 127.081 243.16 127.156C243.135 127.236 243.099 127.312 243.053 127.381C243.005 127.461 242.947 127.534 242.881 127.6C242.804 127.673 242.718 127.736 242.627 127.79C242.548 127.838 242.462 127.873 242.372 127.896C242.314 127.915 242.252 127.915 242.194 127.896C242.151 127.872 242.116 127.835 242.094 127.79C242.07 127.731 242.056 127.669 242.052 127.606C242.052 127.553 242.052 127.499 242.052 127.434C242.052 127.369 242.052 127.316 242.052 127.257C242.058 127.18 242.072 127.105 242.094 127.032C242.12 126.951 242.153 126.874 242.194 126.801C242.245 126.721 242.304 126.647 242.372 126.581C242.45 126.507 242.535 126.442 242.627 126.386V126.386ZM242.834 127.138C242.84 127.028 242.84 126.917 242.834 126.806C242.837 126.779 242.837 126.751 242.834 126.724C242.828 126.704 242.815 126.688 242.799 126.676C242.788 126.671 242.777 126.669 242.766 126.669C242.755 126.669 242.744 126.671 242.733 126.676C242.7 126.682 242.668 126.694 242.639 126.712C242.602 126.733 242.568 126.758 242.538 126.789C242.514 126.813 242.494 126.841 242.479 126.872C242.461 126.901 242.449 126.933 242.443 126.966C242.44 126.998 242.44 127.03 242.443 127.061C242.437 127.172 242.437 127.282 242.443 127.393C242.44 127.42 242.44 127.448 242.443 127.476C242.439 127.493 242.439 127.512 242.443 127.529C242.464 127.535 242.487 127.535 242.508 127.529C242.544 127.521 242.578 127.507 242.609 127.488C242.643 127.467 242.674 127.443 242.704 127.417C242.729 127.39 242.751 127.36 242.769 127.328C242.786 127.3 242.798 127.27 242.804 127.239C242.816 127.216 242.826 127.192 242.834 127.168V127.138Z" fill="white"/>
<path opacity="0.3" d="M207.422 146.286L236.041 129.762C236.508 129.49 236.888 129.685 236.888 130.194C236.867 130.48 236.78 130.756 236.633 131.001C236.486 131.246 236.283 131.453 236.041 131.604L207.422 148.128C206.955 148.401 206.57 148.205 206.57 147.696C206.59 147.41 206.678 147.134 206.827 146.889C206.975 146.644 207.179 146.437 207.422 146.286V146.286Z" fill="white"/>
<path d="M207.422 146.286L228.91 133.878C229.378 133.606 229.763 133.801 229.763 134.311C229.741 134.596 229.652 134.872 229.504 135.117C229.356 135.362 229.152 135.568 228.91 135.72L207.422 148.128C206.955 148.401 206.57 148.205 206.57 147.696C206.59 147.41 206.678 147.134 206.827 146.889C206.975 146.644 207.179 146.437 207.422 146.286V146.286Z" fill="white"/>
<path d="M246.986 108.216L244.451 109.673C243.408 110.265 241.59 111.408 240.548 111.124C239.671 110.887 238.996 109.708 237.788 110.407C237.024 110.845 236.177 113.552 234.69 114.411C233.204 115.27 232.321 112.847 231.842 111.598C231.362 110.348 230.515 108.008 228.744 109.027C226.973 110.046 226.055 113.629 224.93 116.259C223.805 118.888 222.342 121.435 220.535 122.477C218.403 123.709 216.934 123.111 215.933 123.692C214.932 124.272 214.091 126.108 212.972 127.168C211.977 128.134 210.443 129.063 209.561 128.353C208.678 127.642 208.044 125.818 207.156 126.327C206.268 126.836 205.551 129.786 204.71 131.261C203.869 132.735 202.933 133.63 200.452 135.057L195.749 137.77V138.107L197.775 136.923C198.787 136.33 200.215 135.566 201.168 135.969C202.122 136.372 202.163 136.739 203.004 136.253C203.845 135.768 204.189 135.069 204.781 134.115C205.171 133.382 205.729 132.751 206.41 132.273C207.002 131.912 207.813 132.273 208.305 132.747C208.797 133.221 209.276 133.736 210.005 133.34C210.766 132.776 211.356 132.014 211.711 131.136C212.184 130.212 212.445 129.484 212.966 129.176C213.541 128.911 214.191 128.856 214.802 129.022C215.792 129.183 216.807 128.972 217.651 128.43C218.883 127.719 220.316 126.463 222.117 123.253L224.847 121.672C226.837 120.529 228.211 119.86 229.123 120.073C230.26 120.333 231.824 122.525 233.524 121.536C235.223 120.547 235.721 117.982 236.562 116.288C237.228 114.68 238.452 113.366 240.009 112.587L246.962 108.571L246.986 108.216Z" fill="#7D56A5"/>
<path opacity="0.2" d="M231.842 121.618C230.817 121.227 229.887 120.232 229.147 120.061C228.235 119.847 226.861 120.517 224.871 121.66L222.164 123.241C223.739 120.416 225.238 115.992 225.801 114.239C226.043 113.492 226.316 112.746 226.636 112.018C226.956 111.234 227.379 110.495 227.891 109.82C228.774 108.902 229.437 108.802 229.863 109.868C230.29 110.934 229.976 114.108 230.053 116.803C230.13 119.498 230.841 121.014 231.842 121.618Z" fill="black"/>
<path opacity="0.2" d="M209.578 128.353C210.461 129.052 211.995 128.122 212.99 127.168C214.092 126.108 214.927 124.272 215.951 123.692C216.976 123.111 218.421 123.692 220.553 122.477C221.253 122.047 221.868 121.491 222.365 120.837V120.837C221.59 122.021 220.411 124.237 218.107 125.901C216.769 126.866 215.033 127.458 214.263 127.903C213.485 128.342 212.851 128.998 212.439 129.792V129.792C212.22 130.153 212.019 130.615 211.752 131.136C211.397 132.014 210.807 132.776 210.046 133.34C209.909 133.43 209.75 133.482 209.586 133.492C209.421 133.501 209.257 133.467 209.111 133.393C208.465 132.889 208.175 131.788 208.092 129.466C207.991 126.783 207.612 126.262 207.192 126.339C208.062 125.842 208.696 127.683 209.578 128.353Z" fill="black"/>
<path opacity="0.2" d="M230.029 116.803C229.952 114.109 230.272 110.934 229.84 109.868C229.549 109.145 229.153 108.962 228.655 109.199C229.407 109.098 230.071 110.288 229.632 113.22C229.389 114.843 228.673 117.887 229.04 120.043C229.081 120.04 229.123 120.04 229.164 120.043C229.905 120.215 230.835 121.228 231.859 121.601C230.84 121.014 230.106 119.504 230.029 116.803Z" fill="black"/>
<path opacity="0.2" d="M222.164 123.241L223.674 122.365C224.203 120.944 224.659 119.497 225.042 118.029C225.635 115.903 226.085 113.404 226.636 112.018C226.316 112.746 226.043 113.493 225.801 114.239C225.214 115.992 223.716 120.416 222.164 123.241Z" fill="black"/>
<path opacity="0.5" d="M236.97 111.461C236.378 112.456 235.679 113.83 234.684 114.423C233.198 115.281 232.315 112.859 231.835 111.609C231.693 111.248 231.522 110.786 231.308 110.348C231.901 111.615 232.398 113.937 232.759 115.246C233.067 116.359 233.381 117.117 234.252 116.78C235.123 116.442 235.721 114.606 236.082 113.617C236.329 112.879 236.626 112.159 236.97 111.461V111.461Z" fill="white"/>
<path opacity="0.2" d="M237.118 113.125C236.668 114.517 236.461 116.051 235.756 118.29C236.034 117.579 236.289 116.869 236.585 116.276C237.252 114.668 238.475 113.354 240.032 112.575L242.312 111.26C240.115 112.527 239.168 111.556 238.64 111.26C238.113 110.964 237.562 111.734 237.118 113.125Z" fill="black"/>
<path opacity="0.2" d="M238.332 111.207C237.906 111.289 237.48 112 237.118 113.125C236.668 114.517 236.461 116.051 235.756 118.29C236.034 117.579 236.289 116.869 236.585 116.276C236.798 115.844 237 115.471 237.178 115.127C237.26 114.464 237.314 113.884 237.349 113.54C237.486 112.515 237.859 111.55 238.332 111.207Z" fill="black"/>
<path opacity="0.2" d="M220.535 122.489C218.403 123.721 216.934 123.123 215.933 123.703C215.765 123.803 215.609 123.925 215.471 124.064C216.147 123.472 217.248 123.916 218.095 124.064C218.953 124.159 219.819 123.969 220.559 123.525C221.2 122.672 221.793 121.784 222.336 120.866V120.866C221.84 121.513 221.23 122.063 220.535 122.489V122.489Z" fill="black"/>
<path opacity="0.2" d="M208.074 129.478C208.157 131.799 208.447 132.901 209.093 133.405C209.24 133.479 209.404 133.513 209.568 133.503C209.732 133.494 209.891 133.442 210.029 133.351C210.721 132.857 211.266 132.184 211.604 131.403C210.745 132.587 209.454 132.783 209.087 131.657C208.72 130.532 208.708 128.968 208.453 127.902C208.198 126.836 207.908 126.286 207.494 126.262H207.411H207.351H207.316H207.269L207.174 126.303C207.594 126.274 207.95 126.795 208.074 129.478Z" fill="black"/>
<path opacity="0.5" d="M204.728 131.314C203.881 132.789 202.951 133.683 200.469 135.11L199.925 135.424C203.058 133.647 204.284 134.086 205.095 132.374C205.906 130.662 206.226 127.796 206.635 126.99C205.983 128.039 205.391 130.129 204.728 131.314Z" fill="white"/>
<path opacity="0.5" d="M223.603 120.173C223.169 121.222 222.678 122.246 222.134 123.241C220.357 126.451 218.906 127.707 217.674 128.418C216.834 128.963 215.82 129.175 214.831 129.01C214.217 128.849 213.567 128.906 212.99 129.17C213.721 128.68 214.592 128.439 215.471 128.483C216.454 128.453 217.905 128.021 219.575 126.363C221.246 124.704 223.532 120.31 223.603 120.173Z" fill="white"/>
<path d="M214.974 134.542C214.983 134.533 214.996 134.528 215.009 134.528C215.022 134.528 215.035 134.533 215.045 134.542C215.056 134.57 215.056 134.602 215.045 134.63V134.826C215.053 134.867 215.053 134.909 215.045 134.95C215.039 134.968 215.03 134.985 215.018 134.999C215.005 135.013 214.99 135.025 214.974 135.033L214.304 135.424V138.658C214.303 138.701 214.293 138.743 214.275 138.782C214.259 138.816 214.235 138.844 214.204 138.865L214.056 138.948C214.052 138.953 214.047 138.957 214.041 138.96C214.036 138.962 214.029 138.964 214.023 138.964C214.017 138.964 214.011 138.962 214.005 138.96C213.999 138.957 213.994 138.953 213.991 138.948C213.979 138.937 213.97 138.923 213.965 138.907C213.96 138.892 213.958 138.875 213.961 138.859V135.625L213.286 136.016C213.276 136.024 213.263 136.028 213.25 136.028C213.237 136.028 213.225 136.024 213.215 136.016C213.194 135.992 213.183 135.96 213.185 135.927V135.726C213.186 135.685 213.197 135.645 213.215 135.608C213.215 135.566 213.256 135.537 213.286 135.525L214.974 134.542Z" fill="white"/>
<path d="M217.319 133.185C217.329 133.178 217.342 133.174 217.355 133.174C217.368 133.174 217.38 133.178 217.39 133.185C217.411 133.21 217.422 133.242 217.42 133.274V136.857C217.419 136.9 217.408 136.943 217.39 136.982C217.377 137.017 217.352 137.046 217.319 137.065L217.171 137.148C217.167 137.153 217.162 137.157 217.157 137.159C217.151 137.162 217.145 137.163 217.139 137.163C217.132 137.163 217.126 137.162 217.12 137.159C217.115 137.157 217.11 137.153 217.106 137.148C217.095 137.119 217.095 137.087 217.106 137.059V135.495L215.839 136.23V137.793C215.847 137.834 215.847 137.877 215.839 137.918C215.825 137.952 215.8 137.982 215.768 138.001L215.625 138.083C215.594 138.083 215.57 138.083 215.554 138.083C215.532 138.057 215.522 138.023 215.525 137.989V134.435C215.526 134.394 215.536 134.354 215.554 134.317C215.56 134.299 215.569 134.282 215.582 134.268C215.594 134.254 215.609 134.242 215.625 134.234L215.768 134.145C215.778 134.137 215.79 134.133 215.803 134.133C215.816 134.133 215.828 134.137 215.839 134.145C215.85 134.173 215.85 134.205 215.839 134.234V135.756L217.106 135.021V133.499C217.098 133.46 217.098 133.42 217.106 133.381C217.118 133.347 217.141 133.317 217.171 133.298L217.319 133.185Z" fill="white"/>
<path d="M219.594 135.258C219.603 135.251 219.615 135.247 219.626 135.247C219.638 135.247 219.65 135.251 219.659 135.258C219.671 135.27 219.68 135.284 219.685 135.299C219.69 135.315 219.691 135.331 219.689 135.347V135.549C219.691 135.59 219.68 135.631 219.659 135.667C219.645 135.702 219.623 135.732 219.594 135.756L218.137 136.597C218.127 136.605 218.114 136.609 218.101 136.609C218.088 136.609 218.076 136.605 218.066 136.597C218.045 136.572 218.034 136.54 218.036 136.508V132.955C218.038 132.912 218.048 132.869 218.066 132.83C218.066 132.789 218.107 132.759 218.137 132.747L219.564 131.924C219.573 131.916 219.585 131.911 219.597 131.911C219.609 131.911 219.621 131.916 219.629 131.924C219.636 131.938 219.639 131.953 219.639 131.968C219.639 131.984 219.636 131.999 219.629 132.013V132.214C219.64 132.255 219.64 132.298 219.629 132.339C219.616 132.372 219.593 132.4 219.564 132.421L218.38 133.103V134.287L219.487 133.647C219.497 133.64 219.508 133.636 219.52 133.636C219.532 133.636 219.543 133.64 219.552 133.647C219.573 133.672 219.584 133.704 219.582 133.736V133.938C219.581 133.979 219.571 134.019 219.552 134.056C219.539 134.091 219.516 134.121 219.487 134.145L218.38 134.779V135.963L219.594 135.258Z" fill="white"/>
<path d="M221.826 130.532C221.94 130.455 222.074 130.414 222.211 130.414C222.314 130.418 222.414 130.448 222.501 130.503C222.578 130.562 222.639 130.639 222.679 130.728C222.717 130.816 222.739 130.91 222.744 131.006C222.752 131.039 222.752 131.074 222.744 131.107C222.731 131.133 222.71 131.156 222.685 131.172L222.537 131.261C222.518 131.268 222.497 131.268 222.478 131.261C222.478 131.261 222.442 131.231 222.424 131.19C222.409 131.152 222.389 131.116 222.365 131.083C222.338 131.039 222.299 131.004 222.253 130.982C222.203 130.952 222.145 130.938 222.087 130.941C222.002 130.944 221.92 130.971 221.85 131.018C221.78 131.058 221.716 131.108 221.66 131.166C221.596 131.225 221.54 131.293 221.495 131.367C221.445 131.445 221.406 131.529 221.376 131.616C221.347 131.706 221.333 131.8 221.335 131.894C221.33 131.97 221.344 132.045 221.376 132.113C221.391 132.138 221.411 132.16 221.434 132.178C221.457 132.195 221.484 132.207 221.512 132.214C221.589 132.229 221.667 132.229 221.743 132.214C221.859 132.204 221.973 132.189 222.087 132.167C222.201 132.15 222.316 132.15 222.43 132.167C222.517 132.175 222.599 132.208 222.667 132.262C222.73 132.317 222.775 132.389 222.798 132.469C222.825 132.583 222.839 132.701 222.839 132.818C222.839 132.987 222.815 133.154 222.768 133.316C222.72 133.48 222.655 133.639 222.572 133.79C222.489 133.937 222.385 134.073 222.264 134.192C222.15 134.318 222.016 134.424 221.868 134.506C221.752 134.581 221.62 134.626 221.483 134.637C221.377 134.646 221.271 134.621 221.181 134.565C221.095 134.514 221.025 134.441 220.979 134.352C220.929 134.253 220.903 134.144 220.902 134.032C220.894 134.001 220.894 133.969 220.902 133.938C220.914 133.91 220.932 133.886 220.956 133.867L221.104 133.784C221.114 133.779 221.125 133.776 221.136 133.776C221.147 133.776 221.159 133.779 221.169 133.784C221.169 133.784 221.204 133.813 221.216 133.855C221.232 133.901 221.254 133.945 221.281 133.985C221.314 134.03 221.357 134.066 221.406 134.092C221.464 134.115 221.527 134.125 221.589 134.121C221.68 134.11 221.768 134.077 221.844 134.026C221.932 133.978 222.012 133.916 222.081 133.843C222.159 133.772 222.227 133.69 222.282 133.6C222.341 133.514 222.386 133.42 222.418 133.322C222.453 133.229 222.471 133.131 222.472 133.031C222.479 132.956 222.458 132.88 222.413 132.818C222.371 132.769 222.311 132.737 222.247 132.729C222.159 132.712 222.068 132.712 221.98 132.729C221.863 132.743 221.746 132.763 221.631 132.789C221.529 132.807 221.425 132.807 221.323 132.789C221.243 132.772 221.17 132.731 221.115 132.67C221.06 132.606 221.021 132.528 221.003 132.445C220.978 132.336 220.966 132.225 220.967 132.113C220.969 131.968 220.987 131.823 221.021 131.681C221.057 131.529 221.111 131.382 221.181 131.243C221.253 131.102 221.342 130.971 221.447 130.852C221.556 130.726 221.684 130.618 221.826 130.532V130.532Z" fill="white"/>
<path d="M223.189 131.249C223.19 131.038 223.212 130.828 223.254 130.621C223.299 130.417 223.364 130.219 223.449 130.029C223.532 129.849 223.635 129.681 223.757 129.525C223.877 129.383 224.019 129.261 224.178 129.164C224.306 129.084 224.453 129.041 224.604 129.04C224.72 129.049 224.829 129.1 224.912 129.182C225.004 129.288 225.071 129.413 225.107 129.549C225.152 129.727 225.174 129.91 225.173 130.094C225.173 130.42 225.173 130.751 225.173 131.083C225.169 131.294 225.146 131.504 225.102 131.711C225.058 131.915 224.992 132.113 224.906 132.303C224.827 132.482 224.723 132.65 224.598 132.8C224.481 132.945 224.339 133.068 224.178 133.162C224.052 133.242 223.906 133.285 223.757 133.286C223.7 133.284 223.644 133.27 223.592 133.246C223.54 133.221 223.493 133.187 223.455 133.144C223.358 133.039 223.29 132.91 223.26 132.771C223.21 132.596 223.186 132.414 223.189 132.232C223.177 131.906 223.177 131.58 223.189 131.249ZM224.835 130.325C224.835 130.183 224.815 130.041 224.776 129.904C224.757 129.811 224.709 129.726 224.64 129.661C224.613 129.636 224.581 129.616 224.547 129.603C224.512 129.589 224.475 129.583 224.438 129.584C224.346 129.593 224.257 129.621 224.178 129.667C224.085 129.728 223.999 129.8 223.923 129.881C223.841 129.973 223.773 130.077 223.722 130.189C223.66 130.317 223.612 130.452 223.579 130.591C223.549 130.751 223.531 130.914 223.526 131.077C223.526 131.249 223.526 131.403 223.526 131.551C223.526 131.699 223.526 131.847 223.526 132.013C223.528 132.154 223.546 132.296 223.579 132.433C223.604 132.526 223.653 132.609 223.722 132.676C223.748 132.702 223.78 132.722 223.815 132.735C223.849 132.748 223.886 132.754 223.923 132.753C224.014 132.746 224.102 132.715 224.178 132.664C224.276 132.609 224.364 132.537 224.438 132.451C224.521 132.359 224.589 132.256 224.64 132.143C224.703 132.017 224.748 131.884 224.776 131.746C224.812 131.585 224.832 131.42 224.835 131.255C224.835 131.089 224.835 130.929 224.835 130.787C224.835 130.645 224.835 130.491 224.835 130.325V130.325Z" fill="white"/>
<path d="M227.358 131.272C227.322 131.272 227.299 131.272 227.275 131.272C227.251 131.248 227.231 131.22 227.216 131.189L226.031 129.152V131.906C226.03 131.949 226.02 131.991 226.002 132.03C225.99 132.065 225.967 132.094 225.937 132.113L225.788 132.202C225.778 132.21 225.766 132.214 225.753 132.214C225.74 132.214 225.728 132.21 225.717 132.202C225.706 132.174 225.706 132.142 225.717 132.113V128.53C225.709 128.489 225.709 128.447 225.717 128.406C225.723 128.388 225.732 128.371 225.745 128.357C225.757 128.343 225.772 128.331 225.788 128.323L225.913 128.246C225.948 128.246 225.972 128.246 225.996 128.246C226.019 128.269 226.039 128.295 226.055 128.323L227.24 130.36V127.636C227.241 127.593 227.251 127.551 227.269 127.511C227.281 127.477 227.304 127.448 227.334 127.429L227.482 127.34C227.493 127.332 227.505 127.328 227.518 127.328C227.531 127.328 227.543 127.332 227.553 127.34C227.564 127.368 227.564 127.4 227.553 127.429V131.012C227.562 131.053 227.562 131.095 227.553 131.136C227.548 131.154 227.538 131.17 227.526 131.185C227.514 131.199 227.499 131.211 227.482 131.219L227.358 131.272Z" fill="white"/>
<path d="M228.086 128.394C228.089 128.195 228.111 127.996 228.152 127.802C228.194 127.597 228.26 127.399 228.347 127.209C228.428 127.025 228.536 126.853 228.667 126.7C228.795 126.551 228.947 126.425 229.117 126.327C229.244 126.242 229.391 126.193 229.543 126.185C229.656 126.185 229.766 126.22 229.857 126.285C229.939 126.346 230.003 126.428 230.041 126.522C230.081 126.618 230.105 126.72 230.112 126.824C230.12 126.855 230.12 126.888 230.112 126.919C230.1 126.949 230.08 126.973 230.053 126.99L229.905 127.073C229.851 127.109 229.816 127.109 229.804 127.073C229.777 127.007 229.743 126.943 229.703 126.884C229.673 126.831 229.627 126.788 229.573 126.759C229.516 126.731 229.452 126.72 229.389 126.73C229.301 126.744 229.216 126.776 229.141 126.824C229.04 126.884 228.948 126.957 228.868 127.043C228.783 127.14 228.711 127.247 228.655 127.363C228.587 127.49 228.537 127.626 228.507 127.766C228.471 127.924 228.451 128.084 228.448 128.246C228.448 128.412 228.448 128.566 228.448 128.708C228.448 128.85 228.448 128.998 228.448 129.164C228.448 129.31 228.468 129.455 228.507 129.596C228.531 129.692 228.583 129.778 228.655 129.845C228.684 129.871 228.717 129.891 228.754 129.903C228.791 129.915 228.83 129.92 228.868 129.916C228.965 129.906 229.058 129.873 229.141 129.821C229.24 129.764 229.33 129.692 229.407 129.608C229.499 129.52 229.574 129.416 229.626 129.3C229.694 129.171 229.744 129.034 229.774 128.891C229.812 128.722 229.829 128.549 229.828 128.376V128.222L229.307 128.518C229.298 128.527 229.286 128.531 229.274 128.531C229.262 128.531 229.25 128.527 229.241 128.518C229.22 128.494 229.21 128.462 229.212 128.429V128.234C229.213 128.191 229.223 128.149 229.241 128.11C229.253 128.075 229.276 128.046 229.307 128.027L230.071 127.582C230.081 127.575 230.093 127.571 230.106 127.571C230.119 127.571 230.131 127.575 230.142 127.582C230.153 127.611 230.153 127.643 230.142 127.671V128.198C230.142 128.418 230.118 128.636 230.071 128.85C230.026 129.054 229.959 129.253 229.869 129.442C229.787 129.624 229.68 129.794 229.549 129.946C229.425 130.092 229.277 130.216 229.111 130.313C228.977 130.402 228.821 130.451 228.661 130.455C228.601 130.454 228.542 130.441 228.487 130.416C228.432 130.392 228.382 130.357 228.341 130.313C228.248 130.206 228.183 130.078 228.152 129.94C228.104 129.758 228.08 129.571 228.081 129.383C228.085 129.055 228.086 128.726 228.086 128.394Z" fill="white"/>
</svg>
